G04 (created by PCBNEW (2013-02-13 BZR 3947)-testing) date 2016.01.05 20:59:58*
%MOIN*%
G04 Gerber Fmt 3.4, Leading zero omitted, Abs format*
%FSLAX34Y34*%
G01*
G70*
G90*
G04 APERTURE LIST*
%ADD10C,0.08*%
%ADD11C,0.009*%
%ADD12C,0.011811*%
%ADD13C,0.005*%
%ADD14C,0.004*%
%ADD15C,0.00393701*%
%ADD16C,0.012*%
%ADD17C,0.008*%
%ADD18C,0.00625197*%
G04 APERTURE END LIST*
G54D10*
G54D11*
X100976Y-37191D02*
X131076Y-37191D01*
X100976Y-141D02*
X131076Y-141D01*
X176Y-37191D02*
X176Y-141D01*
X100976Y-37191D02*
X176Y-37191D01*
X131076Y-141D02*
X131076Y-37191D01*
X176Y-141D02*
X100976Y-141D01*
G54D12*
X1683Y-13341D02*
X2126Y-13341D01*
X2126Y-13341D02*
X2126Y-12541D01*
X2126Y-12541D02*
X1683Y-12541D01*
X1257Y-13341D02*
X826Y-13341D01*
X826Y-13341D02*
X826Y-12541D01*
X826Y-12541D02*
X1257Y-12541D01*
X1683Y-11841D02*
X2126Y-11841D01*
X2126Y-11841D02*
X2126Y-11041D01*
X2126Y-11041D02*
X1683Y-11041D01*
X1257Y-11841D02*
X826Y-11841D01*
X826Y-11841D02*
X826Y-11041D01*
X826Y-11041D02*
X1257Y-11041D01*
X1683Y-10341D02*
X2126Y-10341D01*
X2126Y-10341D02*
X2126Y-9541D01*
X2126Y-9541D02*
X1683Y-9541D01*
X1257Y-10341D02*
X826Y-10341D01*
X826Y-10341D02*
X826Y-9541D01*
X826Y-9541D02*
X1257Y-9541D01*
G54D13*
X5851Y-816D02*
X5851Y-66D01*
X5851Y-66D02*
X8926Y-66D01*
X8926Y-66D02*
X8926Y-1041D01*
X8926Y-1736D02*
X8926Y-909D01*
X8926Y-1059D02*
X8926Y-2870D01*
G54D14*
X6186Y-1369D02*
X6268Y-286D01*
X6657Y-286D02*
X6759Y-1369D01*
X6759Y-1369D02*
X6677Y-1369D01*
X6677Y-1369D02*
X6575Y-429D01*
X6575Y-429D02*
X6370Y-429D01*
X6370Y-429D02*
X6268Y-1369D01*
X6268Y-1369D02*
X6186Y-1369D01*
X6861Y-286D02*
X6943Y-1880D01*
X6943Y-204D02*
X6943Y-204D01*
X7024Y-286D02*
X7106Y-1635D01*
X8515Y-1369D02*
X8434Y-286D01*
X8045Y-286D02*
X7943Y-1369D01*
X7943Y-1369D02*
X8025Y-1369D01*
X8025Y-1369D02*
X8127Y-429D01*
X8127Y-429D02*
X8331Y-429D01*
X8331Y-429D02*
X8434Y-1369D01*
X8434Y-1369D02*
X8515Y-1369D01*
X7841Y-286D02*
X7759Y-1880D01*
X7677Y-1962D02*
X7024Y-1962D01*
X7677Y-286D02*
X7596Y-1635D01*
X7596Y-1635D02*
X7106Y-1635D01*
G54D13*
X5851Y-1024D02*
X5851Y-2874D01*
G54D14*
X6294Y-2861D02*
X6294Y-2566D01*
X6294Y-2566D02*
X8458Y-2566D01*
X8458Y-2571D02*
X8458Y-2866D01*
X6491Y-2437D02*
X6491Y-2142D01*
X6491Y-2142D02*
X6195Y-2142D01*
X6195Y-2142D02*
X6195Y-2437D01*
X6195Y-2437D02*
X6491Y-2437D01*
X8557Y-2437D02*
X8261Y-2437D01*
X8261Y-2437D02*
X8261Y-2142D01*
X8261Y-2142D02*
X8557Y-2142D01*
X8557Y-2142D02*
X8557Y-2437D01*
G54D13*
X5851Y-823D02*
X5851Y-1886D01*
X5851Y-2880D02*
X6560Y-2880D01*
X8202Y-2870D02*
X8911Y-2870D01*
G54D14*
X6268Y-286D02*
G75*
G02X6350Y-183I115J-8D01*
G74*
G01*
X6351Y-183D02*
G75*
G02X6575Y-184I110J-366D01*
G74*
G01*
X6575Y-183D02*
G75*
G02X6657Y-286I-34J-111D01*
G74*
G01*
X7024Y-1961D02*
G75*
G02X6942Y-1879I4J86D01*
G74*
G01*
X6861Y-286D02*
G75*
G02X6943Y-204I82J0D01*
G74*
G01*
X6943Y-205D02*
G75*
G02X7024Y-286I0J-81D01*
G74*
G01*
X8352Y-183D02*
G75*
G02X8434Y-286I-34J-111D01*
G74*
G01*
X8128Y-183D02*
G75*
G02X8351Y-183I111J-366D01*
G74*
G01*
X8045Y-286D02*
G75*
G02X8127Y-183I115J-8D01*
G74*
G01*
X7759Y-1880D02*
G75*
G02X7676Y-1962I-86J5D01*
G74*
G01*
X7759Y-204D02*
G75*
G02X7841Y-286I0J-82D01*
G74*
G01*
X7677Y-286D02*
G75*
G02X7759Y-204I82J0D01*
G74*
G01*
G54D15*
X28571Y-28006D02*
X28571Y-28675D01*
X28571Y-28675D02*
X28611Y-28675D01*
X28611Y-28675D02*
X28611Y-28006D01*
X29496Y-28577D02*
X29496Y-28675D01*
X29496Y-28675D02*
X28355Y-28675D01*
X28355Y-28675D02*
X28355Y-28596D01*
X28355Y-28006D02*
X29496Y-28006D01*
X29496Y-28006D02*
X29496Y-28104D01*
X28355Y-28104D02*
X28355Y-28006D01*
X28788Y-28124D02*
X28788Y-28557D01*
X29063Y-28124D02*
X29063Y-28557D01*
X29063Y-28557D02*
X28807Y-28341D01*
X28807Y-28341D02*
X29063Y-28124D01*
X75471Y-13006D02*
X75471Y-13675D01*
X75471Y-13675D02*
X75511Y-13675D01*
X75511Y-13675D02*
X75511Y-13006D01*
X76396Y-13577D02*
X76396Y-13675D01*
X76396Y-13675D02*
X75255Y-13675D01*
X75255Y-13675D02*
X75255Y-13596D01*
X75255Y-13006D02*
X76396Y-13006D01*
X76396Y-13006D02*
X76396Y-13104D01*
X75255Y-13104D02*
X75255Y-13006D01*
X75688Y-13124D02*
X75688Y-13557D01*
X75963Y-13124D02*
X75963Y-13557D01*
X75963Y-13557D02*
X75707Y-13341D01*
X75707Y-13341D02*
X75963Y-13124D01*
X71721Y-5506D02*
X71721Y-6175D01*
X71721Y-6175D02*
X71761Y-6175D01*
X71761Y-6175D02*
X71761Y-5506D01*
X72646Y-6077D02*
X72646Y-6175D01*
X72646Y-6175D02*
X71505Y-6175D01*
X71505Y-6175D02*
X71505Y-6096D01*
X71505Y-5506D02*
X72646Y-5506D01*
X72646Y-5506D02*
X72646Y-5604D01*
X71505Y-5604D02*
X71505Y-5506D01*
X71938Y-5624D02*
X71938Y-6057D01*
X72213Y-5624D02*
X72213Y-6057D01*
X72213Y-6057D02*
X71957Y-5841D01*
X71957Y-5841D02*
X72213Y-5624D01*
X67971Y-13006D02*
X67971Y-13675D01*
X67971Y-13675D02*
X68011Y-13675D01*
X68011Y-13675D02*
X68011Y-13006D01*
X68896Y-13577D02*
X68896Y-13675D01*
X68896Y-13675D02*
X67755Y-13675D01*
X67755Y-13675D02*
X67755Y-13596D01*
X67755Y-13006D02*
X68896Y-13006D01*
X68896Y-13006D02*
X68896Y-13104D01*
X67755Y-13104D02*
X67755Y-13006D01*
X68188Y-13124D02*
X68188Y-13557D01*
X68463Y-13124D02*
X68463Y-13557D01*
X68463Y-13557D02*
X68207Y-13341D01*
X68207Y-13341D02*
X68463Y-13124D01*
X69871Y-20506D02*
X69871Y-21175D01*
X69871Y-21175D02*
X69911Y-21175D01*
X69911Y-21175D02*
X69911Y-20506D01*
X70796Y-21077D02*
X70796Y-21175D01*
X70796Y-21175D02*
X69655Y-21175D01*
X69655Y-21175D02*
X69655Y-21096D01*
X69655Y-20506D02*
X70796Y-20506D01*
X70796Y-20506D02*
X70796Y-20604D01*
X69655Y-20604D02*
X69655Y-20506D01*
X70088Y-20624D02*
X70088Y-21057D01*
X70363Y-20624D02*
X70363Y-21057D01*
X70363Y-21057D02*
X70107Y-20841D01*
X70107Y-20841D02*
X70363Y-20624D01*
X37971Y-13006D02*
X37971Y-13675D01*
X37971Y-13675D02*
X38011Y-13675D01*
X38011Y-13675D02*
X38011Y-13006D01*
X38896Y-13577D02*
X38896Y-13675D01*
X38896Y-13675D02*
X37755Y-13675D01*
X37755Y-13675D02*
X37755Y-13596D01*
X37755Y-13006D02*
X38896Y-13006D01*
X38896Y-13006D02*
X38896Y-13104D01*
X37755Y-13104D02*
X37755Y-13006D01*
X38188Y-13124D02*
X38188Y-13557D01*
X38463Y-13124D02*
X38463Y-13557D01*
X38463Y-13557D02*
X38207Y-13341D01*
X38207Y-13341D02*
X38463Y-13124D01*
X62371Y-20506D02*
X62371Y-21175D01*
X62371Y-21175D02*
X62411Y-21175D01*
X62411Y-21175D02*
X62411Y-20506D01*
X63296Y-21077D02*
X63296Y-21175D01*
X63296Y-21175D02*
X62155Y-21175D01*
X62155Y-21175D02*
X62155Y-21096D01*
X62155Y-20506D02*
X63296Y-20506D01*
X63296Y-20506D02*
X63296Y-20604D01*
X62155Y-20604D02*
X62155Y-20506D01*
X62588Y-20624D02*
X62588Y-21057D01*
X62863Y-20624D02*
X62863Y-21057D01*
X62863Y-21057D02*
X62607Y-20841D01*
X62607Y-20841D02*
X62863Y-20624D01*
X60471Y-13006D02*
X60471Y-13675D01*
X60471Y-13675D02*
X60511Y-13675D01*
X60511Y-13675D02*
X60511Y-13006D01*
X61396Y-13577D02*
X61396Y-13675D01*
X61396Y-13675D02*
X60255Y-13675D01*
X60255Y-13675D02*
X60255Y-13596D01*
X60255Y-13006D02*
X61396Y-13006D01*
X61396Y-13006D02*
X61396Y-13104D01*
X60255Y-13104D02*
X60255Y-13006D01*
X60688Y-13124D02*
X60688Y-13557D01*
X60963Y-13124D02*
X60963Y-13557D01*
X60963Y-13557D02*
X60707Y-13341D01*
X60707Y-13341D02*
X60963Y-13124D01*
X64221Y-5506D02*
X64221Y-6175D01*
X64221Y-6175D02*
X64261Y-6175D01*
X64261Y-6175D02*
X64261Y-5506D01*
X65146Y-6077D02*
X65146Y-6175D01*
X65146Y-6175D02*
X64005Y-6175D01*
X64005Y-6175D02*
X64005Y-6096D01*
X64005Y-5506D02*
X65146Y-5506D01*
X65146Y-5506D02*
X65146Y-5604D01*
X64005Y-5604D02*
X64005Y-5506D01*
X64438Y-5624D02*
X64438Y-6057D01*
X64713Y-5624D02*
X64713Y-6057D01*
X64713Y-6057D02*
X64457Y-5841D01*
X64457Y-5841D02*
X64713Y-5624D01*
X56721Y-5506D02*
X56721Y-6175D01*
X56721Y-6175D02*
X56761Y-6175D01*
X56761Y-6175D02*
X56761Y-5506D01*
X57646Y-6077D02*
X57646Y-6175D01*
X57646Y-6175D02*
X56505Y-6175D01*
X56505Y-6175D02*
X56505Y-6096D01*
X56505Y-5506D02*
X57646Y-5506D01*
X57646Y-5506D02*
X57646Y-5604D01*
X56505Y-5604D02*
X56505Y-5506D01*
X56938Y-5624D02*
X56938Y-6057D01*
X57213Y-5624D02*
X57213Y-6057D01*
X57213Y-6057D02*
X56957Y-5841D01*
X56957Y-5841D02*
X57213Y-5624D01*
X52971Y-13006D02*
X52971Y-13675D01*
X52971Y-13675D02*
X53011Y-13675D01*
X53011Y-13675D02*
X53011Y-13006D01*
X53896Y-13577D02*
X53896Y-13675D01*
X53896Y-13675D02*
X52755Y-13675D01*
X52755Y-13675D02*
X52755Y-13596D01*
X52755Y-13006D02*
X53896Y-13006D01*
X53896Y-13006D02*
X53896Y-13104D01*
X52755Y-13104D02*
X52755Y-13006D01*
X53188Y-13124D02*
X53188Y-13557D01*
X53463Y-13124D02*
X53463Y-13557D01*
X53463Y-13557D02*
X53207Y-13341D01*
X53207Y-13341D02*
X53463Y-13124D01*
X54871Y-20506D02*
X54871Y-21175D01*
X54871Y-21175D02*
X54911Y-21175D01*
X54911Y-21175D02*
X54911Y-20506D01*
X55796Y-21077D02*
X55796Y-21175D01*
X55796Y-21175D02*
X54655Y-21175D01*
X54655Y-21175D02*
X54655Y-21096D01*
X54655Y-20506D02*
X55796Y-20506D01*
X55796Y-20506D02*
X55796Y-20604D01*
X54655Y-20604D02*
X54655Y-20506D01*
X55088Y-20624D02*
X55088Y-21057D01*
X55363Y-20624D02*
X55363Y-21057D01*
X55363Y-21057D02*
X55107Y-20841D01*
X55107Y-20841D02*
X55363Y-20624D01*
X39871Y-20506D02*
X39871Y-21175D01*
X39871Y-21175D02*
X39911Y-21175D01*
X39911Y-21175D02*
X39911Y-20506D01*
X40796Y-21077D02*
X40796Y-21175D01*
X40796Y-21175D02*
X39655Y-21175D01*
X39655Y-21175D02*
X39655Y-21096D01*
X39655Y-20506D02*
X40796Y-20506D01*
X40796Y-20506D02*
X40796Y-20604D01*
X39655Y-20604D02*
X39655Y-20506D01*
X40088Y-20624D02*
X40088Y-21057D01*
X40363Y-20624D02*
X40363Y-21057D01*
X40363Y-21057D02*
X40107Y-20841D01*
X40107Y-20841D02*
X40363Y-20624D01*
X4221Y-5506D02*
X4221Y-6175D01*
X4221Y-6175D02*
X4261Y-6175D01*
X4261Y-6175D02*
X4261Y-5506D01*
X5146Y-6077D02*
X5146Y-6175D01*
X5146Y-6175D02*
X4005Y-6175D01*
X4005Y-6175D02*
X4005Y-6096D01*
X4005Y-5506D02*
X5146Y-5506D01*
X5146Y-5506D02*
X5146Y-5604D01*
X4005Y-5604D02*
X4005Y-5506D01*
X4438Y-5624D02*
X4438Y-6057D01*
X4713Y-5624D02*
X4713Y-6057D01*
X4713Y-6057D02*
X4457Y-5841D01*
X4457Y-5841D02*
X4713Y-5624D01*
X49221Y-5506D02*
X49221Y-6175D01*
X49221Y-6175D02*
X49261Y-6175D01*
X49261Y-6175D02*
X49261Y-5506D01*
X50146Y-6077D02*
X50146Y-6175D01*
X50146Y-6175D02*
X49005Y-6175D01*
X49005Y-6175D02*
X49005Y-6096D01*
X49005Y-5506D02*
X50146Y-5506D01*
X50146Y-5506D02*
X50146Y-5604D01*
X49005Y-5604D02*
X49005Y-5506D01*
X49438Y-5624D02*
X49438Y-6057D01*
X49713Y-5624D02*
X49713Y-6057D01*
X49713Y-6057D02*
X49457Y-5841D01*
X49457Y-5841D02*
X49713Y-5624D01*
X34221Y-5506D02*
X34221Y-6175D01*
X34221Y-6175D02*
X34261Y-6175D01*
X34261Y-6175D02*
X34261Y-5506D01*
X35146Y-6077D02*
X35146Y-6175D01*
X35146Y-6175D02*
X34005Y-6175D01*
X34005Y-6175D02*
X34005Y-6096D01*
X34005Y-5506D02*
X35146Y-5506D01*
X35146Y-5506D02*
X35146Y-5604D01*
X34005Y-5604D02*
X34005Y-5506D01*
X34438Y-5624D02*
X34438Y-6057D01*
X34713Y-5624D02*
X34713Y-6057D01*
X34713Y-6057D02*
X34457Y-5841D01*
X34457Y-5841D02*
X34713Y-5624D01*
X79221Y-5506D02*
X79221Y-6175D01*
X79221Y-6175D02*
X79261Y-6175D01*
X79261Y-6175D02*
X79261Y-5506D01*
X80146Y-6077D02*
X80146Y-6175D01*
X80146Y-6175D02*
X79005Y-6175D01*
X79005Y-6175D02*
X79005Y-6096D01*
X79005Y-5506D02*
X80146Y-5506D01*
X80146Y-5506D02*
X80146Y-5604D01*
X79005Y-5604D02*
X79005Y-5506D01*
X79438Y-5624D02*
X79438Y-6057D01*
X79713Y-5624D02*
X79713Y-6057D01*
X79713Y-6057D02*
X79457Y-5841D01*
X79457Y-5841D02*
X79713Y-5624D01*
X32321Y-20506D02*
X32321Y-21175D01*
X32321Y-21175D02*
X32361Y-21175D01*
X32361Y-21175D02*
X32361Y-20506D01*
X33246Y-21077D02*
X33246Y-21175D01*
X33246Y-21175D02*
X32105Y-21175D01*
X32105Y-21175D02*
X32105Y-21096D01*
X32105Y-20506D02*
X33246Y-20506D01*
X33246Y-20506D02*
X33246Y-20604D01*
X32105Y-20604D02*
X32105Y-20506D01*
X32538Y-20624D02*
X32538Y-21057D01*
X32813Y-20624D02*
X32813Y-21057D01*
X32813Y-21057D02*
X32557Y-20841D01*
X32557Y-20841D02*
X32813Y-20624D01*
X30471Y-13006D02*
X30471Y-13675D01*
X30471Y-13675D02*
X30511Y-13675D01*
X30511Y-13675D02*
X30511Y-13006D01*
X31396Y-13577D02*
X31396Y-13675D01*
X31396Y-13675D02*
X30255Y-13675D01*
X30255Y-13675D02*
X30255Y-13596D01*
X30255Y-13006D02*
X31396Y-13006D01*
X31396Y-13006D02*
X31396Y-13104D01*
X30255Y-13104D02*
X30255Y-13006D01*
X30688Y-13124D02*
X30688Y-13557D01*
X30963Y-13124D02*
X30963Y-13557D01*
X30963Y-13557D02*
X30707Y-13341D01*
X30707Y-13341D02*
X30963Y-13124D01*
X26721Y-5506D02*
X26721Y-6175D01*
X26721Y-6175D02*
X26761Y-6175D01*
X26761Y-6175D02*
X26761Y-5506D01*
X27646Y-6077D02*
X27646Y-6175D01*
X27646Y-6175D02*
X26505Y-6175D01*
X26505Y-6175D02*
X26505Y-6096D01*
X26505Y-5506D02*
X27646Y-5506D01*
X27646Y-5506D02*
X27646Y-5604D01*
X26505Y-5604D02*
X26505Y-5506D01*
X26938Y-5624D02*
X26938Y-6057D01*
X27213Y-5624D02*
X27213Y-6057D01*
X27213Y-6057D02*
X26957Y-5841D01*
X26957Y-5841D02*
X27213Y-5624D01*
X43571Y-28006D02*
X43571Y-28675D01*
X43571Y-28675D02*
X43611Y-28675D01*
X43611Y-28675D02*
X43611Y-28006D01*
X44496Y-28577D02*
X44496Y-28675D01*
X44496Y-28675D02*
X43355Y-28675D01*
X43355Y-28675D02*
X43355Y-28596D01*
X43355Y-28006D02*
X44496Y-28006D01*
X44496Y-28006D02*
X44496Y-28104D01*
X43355Y-28104D02*
X43355Y-28006D01*
X43788Y-28124D02*
X43788Y-28557D01*
X44063Y-28124D02*
X44063Y-28557D01*
X44063Y-28557D02*
X43807Y-28341D01*
X43807Y-28341D02*
X44063Y-28124D01*
X47371Y-20506D02*
X47371Y-21175D01*
X47371Y-21175D02*
X47411Y-21175D01*
X47411Y-21175D02*
X47411Y-20506D01*
X48296Y-21077D02*
X48296Y-21175D01*
X48296Y-21175D02*
X47155Y-21175D01*
X47155Y-21175D02*
X47155Y-21096D01*
X47155Y-20506D02*
X48296Y-20506D01*
X48296Y-20506D02*
X48296Y-20604D01*
X47155Y-20604D02*
X47155Y-20506D01*
X47588Y-20624D02*
X47588Y-21057D01*
X47863Y-20624D02*
X47863Y-21057D01*
X47863Y-21057D02*
X47607Y-20841D01*
X47607Y-20841D02*
X47863Y-20624D01*
X45471Y-13006D02*
X45471Y-13675D01*
X45471Y-13675D02*
X45511Y-13675D01*
X45511Y-13675D02*
X45511Y-13006D01*
X46396Y-13577D02*
X46396Y-13675D01*
X46396Y-13675D02*
X45255Y-13675D01*
X45255Y-13675D02*
X45255Y-13596D01*
X45255Y-13006D02*
X46396Y-13006D01*
X46396Y-13006D02*
X46396Y-13104D01*
X45255Y-13104D02*
X45255Y-13006D01*
X45688Y-13124D02*
X45688Y-13557D01*
X45963Y-13124D02*
X45963Y-13557D01*
X45963Y-13557D02*
X45707Y-13341D01*
X45707Y-13341D02*
X45963Y-13124D01*
X41721Y-5506D02*
X41721Y-6175D01*
X41721Y-6175D02*
X41761Y-6175D01*
X41761Y-6175D02*
X41761Y-5506D01*
X42646Y-6077D02*
X42646Y-6175D01*
X42646Y-6175D02*
X41505Y-6175D01*
X41505Y-6175D02*
X41505Y-6096D01*
X41505Y-5506D02*
X42646Y-5506D01*
X42646Y-5506D02*
X42646Y-5604D01*
X41505Y-5604D02*
X41505Y-5506D01*
X41938Y-5624D02*
X41938Y-6057D01*
X42213Y-5624D02*
X42213Y-6057D01*
X42213Y-6057D02*
X41957Y-5841D01*
X41957Y-5841D02*
X42213Y-5624D01*
X21071Y-28006D02*
X21071Y-28675D01*
X21071Y-28675D02*
X21111Y-28675D01*
X21111Y-28675D02*
X21111Y-28006D01*
X21996Y-28577D02*
X21996Y-28675D01*
X21996Y-28675D02*
X20855Y-28675D01*
X20855Y-28675D02*
X20855Y-28596D01*
X20855Y-28006D02*
X21996Y-28006D01*
X21996Y-28006D02*
X21996Y-28104D01*
X20855Y-28104D02*
X20855Y-28006D01*
X21288Y-28124D02*
X21288Y-28557D01*
X21563Y-28124D02*
X21563Y-28557D01*
X21563Y-28557D02*
X21307Y-28341D01*
X21307Y-28341D02*
X21563Y-28124D01*
X13571Y-28006D02*
X13571Y-28675D01*
X13571Y-28675D02*
X13611Y-28675D01*
X13611Y-28675D02*
X13611Y-28006D01*
X14496Y-28577D02*
X14496Y-28675D01*
X14496Y-28675D02*
X13355Y-28675D01*
X13355Y-28675D02*
X13355Y-28596D01*
X13355Y-28006D02*
X14496Y-28006D01*
X14496Y-28006D02*
X14496Y-28104D01*
X13355Y-28104D02*
X13355Y-28006D01*
X13788Y-28124D02*
X13788Y-28557D01*
X14063Y-28124D02*
X14063Y-28557D01*
X14063Y-28557D02*
X13807Y-28341D01*
X13807Y-28341D02*
X14063Y-28124D01*
X24821Y-20506D02*
X24821Y-21175D01*
X24821Y-21175D02*
X24861Y-21175D01*
X24861Y-21175D02*
X24861Y-20506D01*
X25746Y-21077D02*
X25746Y-21175D01*
X25746Y-21175D02*
X24605Y-21175D01*
X24605Y-21175D02*
X24605Y-21096D01*
X24605Y-20506D02*
X25746Y-20506D01*
X25746Y-20506D02*
X25746Y-20604D01*
X24605Y-20604D02*
X24605Y-20506D01*
X25038Y-20624D02*
X25038Y-21057D01*
X25313Y-20624D02*
X25313Y-21057D01*
X25313Y-21057D02*
X25057Y-20841D01*
X25057Y-20841D02*
X25313Y-20624D01*
X22971Y-13006D02*
X22971Y-13675D01*
X22971Y-13675D02*
X23011Y-13675D01*
X23011Y-13675D02*
X23011Y-13006D01*
X23896Y-13577D02*
X23896Y-13675D01*
X23896Y-13675D02*
X22755Y-13675D01*
X22755Y-13675D02*
X22755Y-13596D01*
X22755Y-13006D02*
X23896Y-13006D01*
X23896Y-13006D02*
X23896Y-13104D01*
X22755Y-13104D02*
X22755Y-13006D01*
X23188Y-13124D02*
X23188Y-13557D01*
X23463Y-13124D02*
X23463Y-13557D01*
X23463Y-13557D02*
X23207Y-13341D01*
X23207Y-13341D02*
X23463Y-13124D01*
X17321Y-20506D02*
X17321Y-21175D01*
X17321Y-21175D02*
X17361Y-21175D01*
X17361Y-21175D02*
X17361Y-20506D01*
X18246Y-21077D02*
X18246Y-21175D01*
X18246Y-21175D02*
X17105Y-21175D01*
X17105Y-21175D02*
X17105Y-21096D01*
X17105Y-20506D02*
X18246Y-20506D01*
X18246Y-20506D02*
X18246Y-20604D01*
X17105Y-20604D02*
X17105Y-20506D01*
X17538Y-20624D02*
X17538Y-21057D01*
X17813Y-20624D02*
X17813Y-21057D01*
X17813Y-21057D02*
X17557Y-20841D01*
X17557Y-20841D02*
X17813Y-20624D01*
X15471Y-13006D02*
X15471Y-13675D01*
X15471Y-13675D02*
X15511Y-13675D01*
X15511Y-13675D02*
X15511Y-13006D01*
X16396Y-13577D02*
X16396Y-13675D01*
X16396Y-13675D02*
X15255Y-13675D01*
X15255Y-13675D02*
X15255Y-13596D01*
X15255Y-13006D02*
X16396Y-13006D01*
X16396Y-13006D02*
X16396Y-13104D01*
X15255Y-13104D02*
X15255Y-13006D01*
X15688Y-13124D02*
X15688Y-13557D01*
X15963Y-13124D02*
X15963Y-13557D01*
X15963Y-13557D02*
X15707Y-13341D01*
X15707Y-13341D02*
X15963Y-13124D01*
X19221Y-5506D02*
X19221Y-6175D01*
X19221Y-6175D02*
X19261Y-6175D01*
X19261Y-6175D02*
X19261Y-5506D01*
X20146Y-6077D02*
X20146Y-6175D01*
X20146Y-6175D02*
X19005Y-6175D01*
X19005Y-6175D02*
X19005Y-6096D01*
X19005Y-5506D02*
X20146Y-5506D01*
X20146Y-5506D02*
X20146Y-5604D01*
X19005Y-5604D02*
X19005Y-5506D01*
X19438Y-5624D02*
X19438Y-6057D01*
X19713Y-5624D02*
X19713Y-6057D01*
X19713Y-6057D02*
X19457Y-5841D01*
X19457Y-5841D02*
X19713Y-5624D01*
X96071Y-5506D02*
X96071Y-6175D01*
X96071Y-6175D02*
X96111Y-6175D01*
X96111Y-6175D02*
X96111Y-5506D01*
X96996Y-6077D02*
X96996Y-6175D01*
X96996Y-6175D02*
X95855Y-6175D01*
X95855Y-6175D02*
X95855Y-6096D01*
X95855Y-5506D02*
X96996Y-5506D01*
X96996Y-5506D02*
X96996Y-5604D01*
X95855Y-5604D02*
X95855Y-5506D01*
X96288Y-5624D02*
X96288Y-6057D01*
X96563Y-5624D02*
X96563Y-6057D01*
X96563Y-6057D02*
X96307Y-5841D01*
X96307Y-5841D02*
X96563Y-5624D01*
X75471Y-35506D02*
X75471Y-36175D01*
X75471Y-36175D02*
X75511Y-36175D01*
X75511Y-36175D02*
X75511Y-35506D01*
X76396Y-36077D02*
X76396Y-36175D01*
X76396Y-36175D02*
X75255Y-36175D01*
X75255Y-36175D02*
X75255Y-36096D01*
X75255Y-35506D02*
X76396Y-35506D01*
X76396Y-35506D02*
X76396Y-35604D01*
X75255Y-35604D02*
X75255Y-35506D01*
X75688Y-35624D02*
X75688Y-36057D01*
X75963Y-35624D02*
X75963Y-36057D01*
X75963Y-36057D02*
X75707Y-35841D01*
X75707Y-35841D02*
X75963Y-35624D01*
X67021Y-35506D02*
X67021Y-36175D01*
X67021Y-36175D02*
X67061Y-36175D01*
X67061Y-36175D02*
X67061Y-35506D01*
X67946Y-36077D02*
X67946Y-36175D01*
X67946Y-36175D02*
X66805Y-36175D01*
X66805Y-36175D02*
X66805Y-36096D01*
X66805Y-35506D02*
X67946Y-35506D01*
X67946Y-35506D02*
X67946Y-35604D01*
X66805Y-35604D02*
X66805Y-35506D01*
X67238Y-35624D02*
X67238Y-36057D01*
X67513Y-35624D02*
X67513Y-36057D01*
X67513Y-36057D02*
X67257Y-35841D01*
X67257Y-35841D02*
X67513Y-35624D01*
X28571Y-35506D02*
X28571Y-36175D01*
X28571Y-36175D02*
X28611Y-36175D01*
X28611Y-36175D02*
X28611Y-35506D01*
X29496Y-36077D02*
X29496Y-36175D01*
X29496Y-36175D02*
X28355Y-36175D01*
X28355Y-36175D02*
X28355Y-36096D01*
X28355Y-35506D02*
X29496Y-35506D01*
X29496Y-35506D02*
X29496Y-35604D01*
X28355Y-35604D02*
X28355Y-35506D01*
X28788Y-35624D02*
X28788Y-36057D01*
X29063Y-35624D02*
X29063Y-36057D01*
X29063Y-36057D02*
X28807Y-35841D01*
X28807Y-35841D02*
X29063Y-35624D01*
X37021Y-35506D02*
X37021Y-36175D01*
X37021Y-36175D02*
X37061Y-36175D01*
X37061Y-36175D02*
X37061Y-35506D01*
X37946Y-36077D02*
X37946Y-36175D01*
X37946Y-36175D02*
X36805Y-36175D01*
X36805Y-36175D02*
X36805Y-36096D01*
X36805Y-35506D02*
X37946Y-35506D01*
X37946Y-35506D02*
X37946Y-35604D01*
X36805Y-35604D02*
X36805Y-35506D01*
X37238Y-35624D02*
X37238Y-36057D01*
X37513Y-35624D02*
X37513Y-36057D01*
X37513Y-36057D02*
X37257Y-35841D01*
X37257Y-35841D02*
X37513Y-35624D01*
X5121Y-28006D02*
X5121Y-28675D01*
X5121Y-28675D02*
X5161Y-28675D01*
X5161Y-28675D02*
X5161Y-28006D01*
X6046Y-28577D02*
X6046Y-28675D01*
X6046Y-28675D02*
X4905Y-28675D01*
X4905Y-28675D02*
X4905Y-28596D01*
X4905Y-28006D02*
X6046Y-28006D01*
X6046Y-28006D02*
X6046Y-28104D01*
X4905Y-28104D02*
X4905Y-28006D01*
X5338Y-28124D02*
X5338Y-28557D01*
X5613Y-28124D02*
X5613Y-28557D01*
X5613Y-28557D02*
X5357Y-28341D01*
X5357Y-28341D02*
X5613Y-28124D01*
X7021Y-20506D02*
X7021Y-21175D01*
X7021Y-21175D02*
X7061Y-21175D01*
X7061Y-21175D02*
X7061Y-20506D01*
X7946Y-21077D02*
X7946Y-21175D01*
X7946Y-21175D02*
X6805Y-21175D01*
X6805Y-21175D02*
X6805Y-21096D01*
X6805Y-20506D02*
X7946Y-20506D01*
X7946Y-20506D02*
X7946Y-20604D01*
X6805Y-20604D02*
X6805Y-20506D01*
X7238Y-20624D02*
X7238Y-21057D01*
X7513Y-20624D02*
X7513Y-21057D01*
X7513Y-21057D02*
X7257Y-20841D01*
X7257Y-20841D02*
X7513Y-20624D01*
X21071Y-35506D02*
X21071Y-36175D01*
X21071Y-36175D02*
X21111Y-36175D01*
X21111Y-36175D02*
X21111Y-35506D01*
X21996Y-36077D02*
X21996Y-36175D01*
X21996Y-36175D02*
X20855Y-36175D01*
X20855Y-36175D02*
X20855Y-36096D01*
X20855Y-35506D02*
X21996Y-35506D01*
X21996Y-35506D02*
X21996Y-35604D01*
X20855Y-35604D02*
X20855Y-35506D01*
X21288Y-35624D02*
X21288Y-36057D01*
X21563Y-35624D02*
X21563Y-36057D01*
X21563Y-36057D02*
X21307Y-35841D01*
X21307Y-35841D02*
X21563Y-35624D01*
X13571Y-35506D02*
X13571Y-36175D01*
X13571Y-36175D02*
X13611Y-36175D01*
X13611Y-36175D02*
X13611Y-35506D01*
X14496Y-36077D02*
X14496Y-36175D01*
X14496Y-36175D02*
X13355Y-36175D01*
X13355Y-36175D02*
X13355Y-36096D01*
X13355Y-35506D02*
X14496Y-35506D01*
X14496Y-35506D02*
X14496Y-35604D01*
X13355Y-35604D02*
X13355Y-35506D01*
X13788Y-35624D02*
X13788Y-36057D01*
X14063Y-35624D02*
X14063Y-36057D01*
X14063Y-36057D02*
X13807Y-35841D01*
X13807Y-35841D02*
X14063Y-35624D01*
X5121Y-35506D02*
X5121Y-36175D01*
X5121Y-36175D02*
X5161Y-36175D01*
X5161Y-36175D02*
X5161Y-35506D01*
X6046Y-36077D02*
X6046Y-36175D01*
X6046Y-36175D02*
X4905Y-36175D01*
X4905Y-36175D02*
X4905Y-36096D01*
X4905Y-35506D02*
X6046Y-35506D01*
X6046Y-35506D02*
X6046Y-35604D01*
X4905Y-35604D02*
X4905Y-35506D01*
X5338Y-35624D02*
X5338Y-36057D01*
X5613Y-35624D02*
X5613Y-36057D01*
X5613Y-36057D02*
X5357Y-35841D01*
X5357Y-35841D02*
X5613Y-35624D01*
X58571Y-28006D02*
X58571Y-28675D01*
X58571Y-28675D02*
X58611Y-28675D01*
X58611Y-28675D02*
X58611Y-28006D01*
X59496Y-28577D02*
X59496Y-28675D01*
X59496Y-28675D02*
X58355Y-28675D01*
X58355Y-28675D02*
X58355Y-28596D01*
X58355Y-28006D02*
X59496Y-28006D01*
X59496Y-28006D02*
X59496Y-28104D01*
X58355Y-28104D02*
X58355Y-28006D01*
X58788Y-28124D02*
X58788Y-28557D01*
X59063Y-28124D02*
X59063Y-28557D01*
X59063Y-28557D02*
X58807Y-28341D01*
X58807Y-28341D02*
X59063Y-28124D01*
X51071Y-28006D02*
X51071Y-28675D01*
X51071Y-28675D02*
X51111Y-28675D01*
X51111Y-28675D02*
X51111Y-28006D01*
X51996Y-28577D02*
X51996Y-28675D01*
X51996Y-28675D02*
X50855Y-28675D01*
X50855Y-28675D02*
X50855Y-28596D01*
X50855Y-28006D02*
X51996Y-28006D01*
X51996Y-28006D02*
X51996Y-28104D01*
X50855Y-28104D02*
X50855Y-28006D01*
X51288Y-28124D02*
X51288Y-28557D01*
X51563Y-28124D02*
X51563Y-28557D01*
X51563Y-28557D02*
X51307Y-28341D01*
X51307Y-28341D02*
X51563Y-28124D01*
X36071Y-28006D02*
X36071Y-28675D01*
X36071Y-28675D02*
X36111Y-28675D01*
X36111Y-28675D02*
X36111Y-28006D01*
X36996Y-28577D02*
X36996Y-28675D01*
X36996Y-28675D02*
X35855Y-28675D01*
X35855Y-28675D02*
X35855Y-28596D01*
X35855Y-28006D02*
X36996Y-28006D01*
X36996Y-28006D02*
X36996Y-28104D01*
X35855Y-28104D02*
X35855Y-28006D01*
X36288Y-28124D02*
X36288Y-28557D01*
X36563Y-28124D02*
X36563Y-28557D01*
X36563Y-28557D02*
X36307Y-28341D01*
X36307Y-28341D02*
X36563Y-28124D01*
X86721Y-5506D02*
X86721Y-6175D01*
X86721Y-6175D02*
X86761Y-6175D01*
X86761Y-6175D02*
X86761Y-5506D01*
X87646Y-6077D02*
X87646Y-6175D01*
X87646Y-6175D02*
X86505Y-6175D01*
X86505Y-6175D02*
X86505Y-6096D01*
X86505Y-5506D02*
X87646Y-5506D01*
X87646Y-5506D02*
X87646Y-5604D01*
X86505Y-5604D02*
X86505Y-5506D01*
X86938Y-5624D02*
X86938Y-6057D01*
X87213Y-5624D02*
X87213Y-6057D01*
X87213Y-6057D02*
X86957Y-5841D01*
X86957Y-5841D02*
X87213Y-5624D01*
X6071Y-13006D02*
X6071Y-13675D01*
X6071Y-13675D02*
X6111Y-13675D01*
X6111Y-13675D02*
X6111Y-13006D01*
X6996Y-13577D02*
X6996Y-13675D01*
X6996Y-13675D02*
X5855Y-13675D01*
X5855Y-13675D02*
X5855Y-13596D01*
X5855Y-13006D02*
X6996Y-13006D01*
X6996Y-13006D02*
X6996Y-13104D01*
X5855Y-13104D02*
X5855Y-13006D01*
X6288Y-13124D02*
X6288Y-13557D01*
X6563Y-13124D02*
X6563Y-13557D01*
X6563Y-13557D02*
X6307Y-13341D01*
X6307Y-13341D02*
X6563Y-13124D01*
X90471Y-13006D02*
X90471Y-13675D01*
X90471Y-13675D02*
X90511Y-13675D01*
X90511Y-13675D02*
X90511Y-13006D01*
X91396Y-13577D02*
X91396Y-13675D01*
X91396Y-13675D02*
X90255Y-13675D01*
X90255Y-13675D02*
X90255Y-13596D01*
X90255Y-13006D02*
X91396Y-13006D01*
X91396Y-13006D02*
X91396Y-13104D01*
X90255Y-13104D02*
X90255Y-13006D01*
X90688Y-13124D02*
X90688Y-13557D01*
X90963Y-13124D02*
X90963Y-13557D01*
X90963Y-13557D02*
X90707Y-13341D01*
X90707Y-13341D02*
X90963Y-13124D01*
X97971Y-13006D02*
X97971Y-13675D01*
X97971Y-13675D02*
X98011Y-13675D01*
X98011Y-13675D02*
X98011Y-13006D01*
X98896Y-13577D02*
X98896Y-13675D01*
X98896Y-13675D02*
X97755Y-13675D01*
X97755Y-13675D02*
X97755Y-13596D01*
X97755Y-13006D02*
X98896Y-13006D01*
X98896Y-13006D02*
X98896Y-13104D01*
X97755Y-13104D02*
X97755Y-13006D01*
X98188Y-13124D02*
X98188Y-13557D01*
X98463Y-13124D02*
X98463Y-13557D01*
X98463Y-13557D02*
X98207Y-13341D01*
X98207Y-13341D02*
X98463Y-13124D01*
X84871Y-20506D02*
X84871Y-21175D01*
X84871Y-21175D02*
X84911Y-21175D01*
X84911Y-21175D02*
X84911Y-20506D01*
X85796Y-21077D02*
X85796Y-21175D01*
X85796Y-21175D02*
X84655Y-21175D01*
X84655Y-21175D02*
X84655Y-21096D01*
X84655Y-20506D02*
X85796Y-20506D01*
X85796Y-20506D02*
X85796Y-20604D01*
X84655Y-20604D02*
X84655Y-20506D01*
X85088Y-20624D02*
X85088Y-21057D01*
X85363Y-20624D02*
X85363Y-21057D01*
X85363Y-21057D02*
X85107Y-20841D01*
X85107Y-20841D02*
X85363Y-20624D01*
X95171Y-20506D02*
X95171Y-21175D01*
X95171Y-21175D02*
X95211Y-21175D01*
X95211Y-21175D02*
X95211Y-20506D01*
X96096Y-21077D02*
X96096Y-21175D01*
X96096Y-21175D02*
X94955Y-21175D01*
X94955Y-21175D02*
X94955Y-21096D01*
X94955Y-20506D02*
X96096Y-20506D01*
X96096Y-20506D02*
X96096Y-20604D01*
X94955Y-20604D02*
X94955Y-20506D01*
X95388Y-20624D02*
X95388Y-21057D01*
X95663Y-20624D02*
X95663Y-21057D01*
X95663Y-21057D02*
X95407Y-20841D01*
X95407Y-20841D02*
X95663Y-20624D01*
X82971Y-35506D02*
X82971Y-36175D01*
X82971Y-36175D02*
X83011Y-36175D01*
X83011Y-36175D02*
X83011Y-35506D01*
X83896Y-36077D02*
X83896Y-36175D01*
X83896Y-36175D02*
X82755Y-36175D01*
X82755Y-36175D02*
X82755Y-36096D01*
X82755Y-35506D02*
X83896Y-35506D01*
X83896Y-35506D02*
X83896Y-35604D01*
X82755Y-35604D02*
X82755Y-35506D01*
X83188Y-35624D02*
X83188Y-36057D01*
X83463Y-35624D02*
X83463Y-36057D01*
X83463Y-36057D02*
X83207Y-35841D01*
X83207Y-35841D02*
X83463Y-35624D01*
X90471Y-35506D02*
X90471Y-36175D01*
X90471Y-36175D02*
X90511Y-36175D01*
X90511Y-36175D02*
X90511Y-35506D01*
X91396Y-36077D02*
X91396Y-36175D01*
X91396Y-36175D02*
X90255Y-36175D01*
X90255Y-36175D02*
X90255Y-36096D01*
X90255Y-35506D02*
X91396Y-35506D01*
X91396Y-35506D02*
X91396Y-35604D01*
X90255Y-35604D02*
X90255Y-35506D01*
X90688Y-35624D02*
X90688Y-36057D01*
X90963Y-35624D02*
X90963Y-36057D01*
X90963Y-36057D02*
X90707Y-35841D01*
X90707Y-35841D02*
X90963Y-35624D01*
X97971Y-35506D02*
X97971Y-36175D01*
X97971Y-36175D02*
X98011Y-36175D01*
X98011Y-36175D02*
X98011Y-35506D01*
X98896Y-36077D02*
X98896Y-36175D01*
X98896Y-36175D02*
X97755Y-36175D01*
X97755Y-36175D02*
X97755Y-36096D01*
X97755Y-35506D02*
X98896Y-35506D01*
X98896Y-35506D02*
X98896Y-35604D01*
X97755Y-35604D02*
X97755Y-35506D01*
X98188Y-35624D02*
X98188Y-36057D01*
X98463Y-35624D02*
X98463Y-36057D01*
X98463Y-36057D02*
X98207Y-35841D01*
X98207Y-35841D02*
X98463Y-35624D01*
X97971Y-28006D02*
X97971Y-28675D01*
X97971Y-28675D02*
X98011Y-28675D01*
X98011Y-28675D02*
X98011Y-28006D01*
X98896Y-28577D02*
X98896Y-28675D01*
X98896Y-28675D02*
X97755Y-28675D01*
X97755Y-28675D02*
X97755Y-28596D01*
X97755Y-28006D02*
X98896Y-28006D01*
X98896Y-28006D02*
X98896Y-28104D01*
X97755Y-28104D02*
X97755Y-28006D01*
X98188Y-28124D02*
X98188Y-28557D01*
X98463Y-28124D02*
X98463Y-28557D01*
X98463Y-28557D02*
X98207Y-28341D01*
X98207Y-28341D02*
X98463Y-28124D01*
X89521Y-28006D02*
X89521Y-28675D01*
X89521Y-28675D02*
X89561Y-28675D01*
X89561Y-28675D02*
X89561Y-28006D01*
X90446Y-28577D02*
X90446Y-28675D01*
X90446Y-28675D02*
X89305Y-28675D01*
X89305Y-28675D02*
X89305Y-28596D01*
X89305Y-28006D02*
X90446Y-28006D01*
X90446Y-28006D02*
X90446Y-28104D01*
X89305Y-28104D02*
X89305Y-28006D01*
X89738Y-28124D02*
X89738Y-28557D01*
X90013Y-28124D02*
X90013Y-28557D01*
X90013Y-28557D02*
X89757Y-28341D01*
X89757Y-28341D02*
X90013Y-28124D01*
X81071Y-28006D02*
X81071Y-28675D01*
X81071Y-28675D02*
X81111Y-28675D01*
X81111Y-28675D02*
X81111Y-28006D01*
X81996Y-28577D02*
X81996Y-28675D01*
X81996Y-28675D02*
X80855Y-28675D01*
X80855Y-28675D02*
X80855Y-28596D01*
X80855Y-28006D02*
X81996Y-28006D01*
X81996Y-28006D02*
X81996Y-28104D01*
X80855Y-28104D02*
X80855Y-28006D01*
X81288Y-28124D02*
X81288Y-28557D01*
X81563Y-28124D02*
X81563Y-28557D01*
X81563Y-28557D02*
X81307Y-28341D01*
X81307Y-28341D02*
X81563Y-28124D01*
X73571Y-28006D02*
X73571Y-28675D01*
X73571Y-28675D02*
X73611Y-28675D01*
X73611Y-28675D02*
X73611Y-28006D01*
X74496Y-28577D02*
X74496Y-28675D01*
X74496Y-28675D02*
X73355Y-28675D01*
X73355Y-28675D02*
X73355Y-28596D01*
X73355Y-28006D02*
X74496Y-28006D01*
X74496Y-28006D02*
X74496Y-28104D01*
X73355Y-28104D02*
X73355Y-28006D01*
X73788Y-28124D02*
X73788Y-28557D01*
X74063Y-28124D02*
X74063Y-28557D01*
X74063Y-28557D02*
X73807Y-28341D01*
X73807Y-28341D02*
X74063Y-28124D01*
X66071Y-28006D02*
X66071Y-28675D01*
X66071Y-28675D02*
X66111Y-28675D01*
X66111Y-28675D02*
X66111Y-28006D01*
X66996Y-28577D02*
X66996Y-28675D01*
X66996Y-28675D02*
X65855Y-28675D01*
X65855Y-28675D02*
X65855Y-28596D01*
X65855Y-28006D02*
X66996Y-28006D01*
X66996Y-28006D02*
X66996Y-28104D01*
X65855Y-28104D02*
X65855Y-28006D01*
X66288Y-28124D02*
X66288Y-28557D01*
X66563Y-28124D02*
X66563Y-28557D01*
X66563Y-28557D02*
X66307Y-28341D01*
X66307Y-28341D02*
X66563Y-28124D01*
X77371Y-20506D02*
X77371Y-21175D01*
X77371Y-21175D02*
X77411Y-21175D01*
X77411Y-21175D02*
X77411Y-20506D01*
X78296Y-21077D02*
X78296Y-21175D01*
X78296Y-21175D02*
X77155Y-21175D01*
X77155Y-21175D02*
X77155Y-21096D01*
X77155Y-20506D02*
X78296Y-20506D01*
X78296Y-20506D02*
X78296Y-20604D01*
X77155Y-20604D02*
X77155Y-20506D01*
X77588Y-20624D02*
X77588Y-21057D01*
X77863Y-20624D02*
X77863Y-21057D01*
X77863Y-21057D02*
X77607Y-20841D01*
X77607Y-20841D02*
X77863Y-20624D01*
X82971Y-13006D02*
X82971Y-13675D01*
X82971Y-13675D02*
X83011Y-13675D01*
X83011Y-13675D02*
X83011Y-13006D01*
X83896Y-13577D02*
X83896Y-13675D01*
X83896Y-13675D02*
X82755Y-13675D01*
X82755Y-13675D02*
X82755Y-13596D01*
X82755Y-13006D02*
X83896Y-13006D01*
X83896Y-13006D02*
X83896Y-13104D01*
X82755Y-13104D02*
X82755Y-13006D01*
X83188Y-13124D02*
X83188Y-13557D01*
X83463Y-13124D02*
X83463Y-13557D01*
X83463Y-13557D02*
X83207Y-13341D01*
X83207Y-13341D02*
X83463Y-13124D01*
X11721Y-5506D02*
X11721Y-6175D01*
X11721Y-6175D02*
X11761Y-6175D01*
X11761Y-6175D02*
X11761Y-5506D01*
X12646Y-6077D02*
X12646Y-6175D01*
X12646Y-6175D02*
X11505Y-6175D01*
X11505Y-6175D02*
X11505Y-6096D01*
X11505Y-5506D02*
X12646Y-5506D01*
X12646Y-5506D02*
X12646Y-5604D01*
X11505Y-5604D02*
X11505Y-5506D01*
X11938Y-5624D02*
X11938Y-6057D01*
X12213Y-5624D02*
X12213Y-6057D01*
X12213Y-6057D02*
X11957Y-5841D01*
X11957Y-5841D02*
X12213Y-5624D01*
X52021Y-35506D02*
X52021Y-36175D01*
X52021Y-36175D02*
X52061Y-36175D01*
X52061Y-36175D02*
X52061Y-35506D01*
X52946Y-36077D02*
X52946Y-36175D01*
X52946Y-36175D02*
X51805Y-36175D01*
X51805Y-36175D02*
X51805Y-36096D01*
X51805Y-35506D02*
X52946Y-35506D01*
X52946Y-35506D02*
X52946Y-35604D01*
X51805Y-35604D02*
X51805Y-35506D01*
X52238Y-35624D02*
X52238Y-36057D01*
X52513Y-35624D02*
X52513Y-36057D01*
X52513Y-36057D02*
X52257Y-35841D01*
X52257Y-35841D02*
X52513Y-35624D01*
G54D16*
X8589Y-16241D02*
X11376Y-19027D01*
X11376Y-19027D02*
X14162Y-16241D01*
X11510Y-13589D02*
X14162Y-16241D01*
X11241Y-13589D02*
X8589Y-16241D01*
X11510Y-13589D02*
X11241Y-13589D01*
G54D17*
X11626Y-14119D02*
G75*
G03X11626Y-14119I-250J0D01*
G74*
G01*
G54D15*
X127972Y-20506D02*
X127972Y-21175D01*
X127971Y-21175D02*
X128011Y-21175D01*
X128011Y-21175D02*
X128011Y-20506D01*
X128896Y-21077D02*
X128896Y-21175D01*
X128896Y-21175D02*
X127755Y-21175D01*
X127755Y-21175D02*
X127755Y-21096D01*
X127755Y-20506D02*
X128896Y-20506D01*
X128896Y-20506D02*
X128896Y-20604D01*
X127755Y-20604D02*
X127755Y-20506D01*
X128188Y-20624D02*
X128188Y-21057D01*
X128463Y-20624D02*
X128463Y-21057D01*
X128463Y-21057D02*
X128207Y-20841D01*
X128207Y-20841D02*
X128463Y-20624D01*
X105422Y-5506D02*
X105422Y-6175D01*
X105421Y-6175D02*
X105461Y-6175D01*
X105461Y-6175D02*
X105461Y-5506D01*
X106346Y-6077D02*
X106346Y-6175D01*
X106346Y-6175D02*
X105205Y-6175D01*
X105205Y-6175D02*
X105205Y-6096D01*
X105205Y-5506D02*
X106346Y-5506D01*
X106346Y-5506D02*
X106346Y-5604D01*
X105205Y-5604D02*
X105205Y-5506D01*
X105638Y-5624D02*
X105638Y-6057D01*
X105913Y-5624D02*
X105913Y-6057D01*
X105913Y-6057D02*
X105657Y-5841D01*
X105657Y-5841D02*
X105913Y-5624D01*
X112972Y-5506D02*
X112972Y-6175D01*
X112971Y-6175D02*
X113011Y-6175D01*
X113011Y-6175D02*
X113011Y-5506D01*
X113896Y-6077D02*
X113896Y-6175D01*
X113896Y-6175D02*
X112755Y-6175D01*
X112755Y-6175D02*
X112755Y-6096D01*
X112755Y-5506D02*
X113896Y-5506D01*
X113896Y-5506D02*
X113896Y-5604D01*
X112755Y-5604D02*
X112755Y-5506D01*
X113188Y-5624D02*
X113188Y-6057D01*
X113463Y-5624D02*
X113463Y-6057D01*
X113463Y-6057D02*
X113207Y-5841D01*
X113207Y-5841D02*
X113463Y-5624D01*
X120472Y-5506D02*
X120472Y-6175D01*
X120471Y-6175D02*
X120511Y-6175D01*
X120511Y-6175D02*
X120511Y-5506D01*
X121396Y-6077D02*
X121396Y-6175D01*
X121396Y-6175D02*
X120255Y-6175D01*
X120255Y-6175D02*
X120255Y-6096D01*
X120255Y-5506D02*
X121396Y-5506D01*
X121396Y-5506D02*
X121396Y-5604D01*
X120255Y-5604D02*
X120255Y-5506D01*
X120688Y-5624D02*
X120688Y-6057D01*
X120963Y-5624D02*
X120963Y-6057D01*
X120963Y-6057D02*
X120707Y-5841D01*
X120707Y-5841D02*
X120963Y-5624D01*
X127972Y-5506D02*
X127972Y-6175D01*
X127971Y-6175D02*
X128011Y-6175D01*
X128011Y-6175D02*
X128011Y-5506D01*
X128896Y-6077D02*
X128896Y-6175D01*
X128896Y-6175D02*
X127755Y-6175D01*
X127755Y-6175D02*
X127755Y-6096D01*
X127755Y-5506D02*
X128896Y-5506D01*
X128896Y-5506D02*
X128896Y-5604D01*
X127755Y-5604D02*
X127755Y-5506D01*
X128188Y-5624D02*
X128188Y-6057D01*
X128463Y-5624D02*
X128463Y-6057D01*
X128463Y-6057D02*
X128207Y-5841D01*
X128207Y-5841D02*
X128463Y-5624D01*
X112972Y-13006D02*
X112972Y-13675D01*
X112971Y-13675D02*
X113011Y-13675D01*
X113011Y-13675D02*
X113011Y-13006D01*
X113896Y-13577D02*
X113896Y-13675D01*
X113896Y-13675D02*
X112755Y-13675D01*
X112755Y-13675D02*
X112755Y-13596D01*
X112755Y-13006D02*
X113896Y-13006D01*
X113896Y-13006D02*
X113896Y-13104D01*
X112755Y-13104D02*
X112755Y-13006D01*
X113188Y-13124D02*
X113188Y-13557D01*
X113463Y-13124D02*
X113463Y-13557D01*
X113463Y-13557D02*
X113207Y-13341D01*
X113207Y-13341D02*
X113463Y-13124D01*
X120472Y-13006D02*
X120472Y-13675D01*
X120471Y-13675D02*
X120511Y-13675D01*
X120511Y-13675D02*
X120511Y-13006D01*
X121396Y-13577D02*
X121396Y-13675D01*
X121396Y-13675D02*
X120255Y-13675D01*
X120255Y-13675D02*
X120255Y-13596D01*
X120255Y-13006D02*
X121396Y-13006D01*
X121396Y-13006D02*
X121396Y-13104D01*
X120255Y-13104D02*
X120255Y-13006D01*
X120688Y-13124D02*
X120688Y-13557D01*
X120963Y-13124D02*
X120963Y-13557D01*
X120963Y-13557D02*
X120707Y-13341D01*
X120707Y-13341D02*
X120963Y-13124D01*
X127972Y-13006D02*
X127972Y-13675D01*
X127971Y-13675D02*
X128011Y-13675D01*
X128011Y-13675D02*
X128011Y-13006D01*
X128896Y-13577D02*
X128896Y-13675D01*
X128896Y-13675D02*
X127755Y-13675D01*
X127755Y-13675D02*
X127755Y-13596D01*
X127755Y-13006D02*
X128896Y-13006D01*
X128896Y-13006D02*
X128896Y-13104D01*
X127755Y-13104D02*
X127755Y-13006D01*
X128188Y-13124D02*
X128188Y-13557D01*
X128463Y-13124D02*
X128463Y-13557D01*
X128463Y-13557D02*
X128207Y-13341D01*
X128207Y-13341D02*
X128463Y-13124D01*
X105472Y-20506D02*
X105472Y-21175D01*
X105471Y-21175D02*
X105511Y-21175D01*
X105511Y-21175D02*
X105511Y-20506D01*
X106396Y-21077D02*
X106396Y-21175D01*
X106396Y-21175D02*
X105255Y-21175D01*
X105255Y-21175D02*
X105255Y-21096D01*
X105255Y-20506D02*
X106396Y-20506D01*
X106396Y-20506D02*
X106396Y-20604D01*
X105255Y-20604D02*
X105255Y-20506D01*
X105688Y-20624D02*
X105688Y-21057D01*
X105963Y-20624D02*
X105963Y-21057D01*
X105963Y-21057D02*
X105707Y-20841D01*
X105707Y-20841D02*
X105963Y-20624D01*
X112972Y-20506D02*
X112972Y-21175D01*
X112971Y-21175D02*
X113011Y-21175D01*
X113011Y-21175D02*
X113011Y-20506D01*
X113896Y-21077D02*
X113896Y-21175D01*
X113896Y-21175D02*
X112755Y-21175D01*
X112755Y-21175D02*
X112755Y-21096D01*
X112755Y-20506D02*
X113896Y-20506D01*
X113896Y-20506D02*
X113896Y-20604D01*
X112755Y-20604D02*
X112755Y-20506D01*
X113188Y-20624D02*
X113188Y-21057D01*
X113463Y-20624D02*
X113463Y-21057D01*
X113463Y-21057D02*
X113207Y-20841D01*
X113207Y-20841D02*
X113463Y-20624D01*
X120472Y-20506D02*
X120472Y-21175D01*
X120471Y-21175D02*
X120511Y-21175D01*
X120511Y-21175D02*
X120511Y-20506D01*
X121396Y-21077D02*
X121396Y-21175D01*
X121396Y-21175D02*
X120255Y-21175D01*
X120255Y-21175D02*
X120255Y-21096D01*
X120255Y-20506D02*
X121396Y-20506D01*
X121396Y-20506D02*
X121396Y-20604D01*
X120255Y-20604D02*
X120255Y-20506D01*
X120688Y-20624D02*
X120688Y-21057D01*
X120963Y-20624D02*
X120963Y-21057D01*
X120963Y-21057D02*
X120707Y-20841D01*
X120707Y-20841D02*
X120963Y-20624D01*
X105472Y-13006D02*
X105472Y-13675D01*
X105471Y-13675D02*
X105511Y-13675D01*
X105511Y-13675D02*
X105511Y-13006D01*
X106396Y-13577D02*
X106396Y-13675D01*
X106396Y-13675D02*
X105255Y-13675D01*
X105255Y-13675D02*
X105255Y-13596D01*
X105255Y-13006D02*
X106396Y-13006D01*
X106396Y-13006D02*
X106396Y-13104D01*
X105255Y-13104D02*
X105255Y-13006D01*
X105688Y-13124D02*
X105688Y-13557D01*
X105963Y-13124D02*
X105963Y-13557D01*
X105963Y-13557D02*
X105707Y-13341D01*
X105707Y-13341D02*
X105963Y-13124D01*
X105472Y-28006D02*
X105472Y-28675D01*
X105471Y-28675D02*
X105511Y-28675D01*
X105511Y-28675D02*
X105511Y-28006D01*
X106396Y-28577D02*
X106396Y-28675D01*
X106396Y-28675D02*
X105255Y-28675D01*
X105255Y-28675D02*
X105255Y-28596D01*
X105255Y-28006D02*
X106396Y-28006D01*
X106396Y-28006D02*
X106396Y-28104D01*
X105255Y-28104D02*
X105255Y-28006D01*
X105688Y-28124D02*
X105688Y-28557D01*
X105963Y-28124D02*
X105963Y-28557D01*
X105963Y-28557D02*
X105707Y-28341D01*
X105707Y-28341D02*
X105963Y-28124D01*
X112972Y-28006D02*
X112972Y-28675D01*
X112971Y-28675D02*
X113011Y-28675D01*
X113011Y-28675D02*
X113011Y-28006D01*
X113896Y-28577D02*
X113896Y-28675D01*
X113896Y-28675D02*
X112755Y-28675D01*
X112755Y-28675D02*
X112755Y-28596D01*
X112755Y-28006D02*
X113896Y-28006D01*
X113896Y-28006D02*
X113896Y-28104D01*
X112755Y-28104D02*
X112755Y-28006D01*
X113188Y-28124D02*
X113188Y-28557D01*
X113463Y-28124D02*
X113463Y-28557D01*
X113463Y-28557D02*
X113207Y-28341D01*
X113207Y-28341D02*
X113463Y-28124D01*
X120472Y-28006D02*
X120472Y-28675D01*
X120471Y-28675D02*
X120511Y-28675D01*
X120511Y-28675D02*
X120511Y-28006D01*
X121396Y-28577D02*
X121396Y-28675D01*
X121396Y-28675D02*
X120255Y-28675D01*
X120255Y-28675D02*
X120255Y-28596D01*
X120255Y-28006D02*
X121396Y-28006D01*
X121396Y-28006D02*
X121396Y-28104D01*
X120255Y-28104D02*
X120255Y-28006D01*
X120688Y-28124D02*
X120688Y-28557D01*
X120963Y-28124D02*
X120963Y-28557D01*
X120963Y-28557D02*
X120707Y-28341D01*
X120707Y-28341D02*
X120963Y-28124D01*
X127972Y-28006D02*
X127972Y-28675D01*
X127971Y-28675D02*
X128011Y-28675D01*
X128011Y-28675D02*
X128011Y-28006D01*
X128896Y-28577D02*
X128896Y-28675D01*
X128896Y-28675D02*
X127755Y-28675D01*
X127755Y-28675D02*
X127755Y-28596D01*
X127755Y-28006D02*
X128896Y-28006D01*
X128896Y-28006D02*
X128896Y-28104D01*
X127755Y-28104D02*
X127755Y-28006D01*
X128188Y-28124D02*
X128188Y-28557D01*
X128463Y-28124D02*
X128463Y-28557D01*
X128463Y-28557D02*
X128207Y-28341D01*
X128207Y-28341D02*
X128463Y-28124D01*
X105472Y-35506D02*
X105472Y-36175D01*
X105471Y-36175D02*
X105511Y-36175D01*
X105511Y-36175D02*
X105511Y-35506D01*
X106396Y-36077D02*
X106396Y-36175D01*
X106396Y-36175D02*
X105255Y-36175D01*
X105255Y-36175D02*
X105255Y-36096D01*
X105255Y-35506D02*
X106396Y-35506D01*
X106396Y-35506D02*
X106396Y-35604D01*
X105255Y-35604D02*
X105255Y-35506D01*
X105688Y-35624D02*
X105688Y-36057D01*
X105963Y-35624D02*
X105963Y-36057D01*
X105963Y-36057D02*
X105707Y-35841D01*
X105707Y-35841D02*
X105963Y-35624D01*
X112972Y-35506D02*
X112972Y-36175D01*
X112971Y-36175D02*
X113011Y-36175D01*
X113011Y-36175D02*
X113011Y-35506D01*
X113896Y-36077D02*
X113896Y-36175D01*
X113896Y-36175D02*
X112755Y-36175D01*
X112755Y-36175D02*
X112755Y-36096D01*
X112755Y-35506D02*
X113896Y-35506D01*
X113896Y-35506D02*
X113896Y-35604D01*
X112755Y-35604D02*
X112755Y-35506D01*
X113188Y-35624D02*
X113188Y-36057D01*
X113463Y-35624D02*
X113463Y-36057D01*
X113463Y-36057D02*
X113207Y-35841D01*
X113207Y-35841D02*
X113463Y-35624D01*
X120472Y-35506D02*
X120472Y-36175D01*
X120471Y-36175D02*
X120511Y-36175D01*
X120511Y-36175D02*
X120511Y-35506D01*
X121396Y-36077D02*
X121396Y-36175D01*
X121396Y-36175D02*
X120255Y-36175D01*
X120255Y-36175D02*
X120255Y-36096D01*
X120255Y-35506D02*
X121396Y-35506D01*
X121396Y-35506D02*
X121396Y-35604D01*
X120255Y-35604D02*
X120255Y-35506D01*
X120688Y-35624D02*
X120688Y-36057D01*
X120963Y-35624D02*
X120963Y-36057D01*
X120963Y-36057D02*
X120707Y-35841D01*
X120707Y-35841D02*
X120963Y-35624D01*
X127972Y-35506D02*
X127972Y-36175D01*
X127971Y-36175D02*
X128011Y-36175D01*
X128011Y-36175D02*
X128011Y-35506D01*
X128896Y-36077D02*
X128896Y-36175D01*
X128896Y-36175D02*
X127755Y-36175D01*
X127755Y-36175D02*
X127755Y-36096D01*
X127755Y-35506D02*
X128896Y-35506D01*
X128896Y-35506D02*
X128896Y-35604D01*
X127755Y-35604D02*
X127755Y-35506D01*
X128188Y-35624D02*
X128188Y-36057D01*
X128463Y-35624D02*
X128463Y-36057D01*
X128463Y-36057D02*
X128207Y-35841D01*
X128207Y-35841D02*
X128463Y-35624D01*
G54D12*
X1576Y-22033D02*
X1576Y-21591D01*
X1576Y-21591D02*
X776Y-21591D01*
X776Y-21591D02*
X776Y-22033D01*
X1576Y-22459D02*
X1576Y-22891D01*
X1576Y-22891D02*
X776Y-22891D01*
X776Y-22891D02*
X776Y-22459D01*
X6276Y-15933D02*
X6276Y-15491D01*
X6276Y-15491D02*
X5476Y-15491D01*
X5476Y-15491D02*
X5476Y-15933D01*
X6276Y-16359D02*
X6276Y-16791D01*
X6276Y-16791D02*
X5476Y-16791D01*
X5476Y-16791D02*
X5476Y-16359D01*
X8376Y-4833D02*
X8376Y-4391D01*
X8376Y-4391D02*
X7576Y-4391D01*
X7576Y-4391D02*
X7576Y-4833D01*
X8376Y-5259D02*
X8376Y-5691D01*
X8376Y-5691D02*
X7576Y-5691D01*
X7576Y-5691D02*
X7576Y-5259D01*
X19176Y-14733D02*
X19176Y-14291D01*
X19176Y-14291D02*
X18376Y-14291D01*
X18376Y-14291D02*
X18376Y-14733D01*
X19176Y-15159D02*
X19176Y-15591D01*
X19176Y-15591D02*
X18376Y-15591D01*
X18376Y-15591D02*
X18376Y-15159D01*
X4476Y-15548D02*
X4476Y-15991D01*
X4476Y-15991D02*
X5276Y-15991D01*
X5276Y-15991D02*
X5276Y-15548D01*
X4476Y-15122D02*
X4476Y-14691D01*
X4476Y-14691D02*
X5276Y-14691D01*
X5276Y-14691D02*
X5276Y-15122D01*
X12976Y-23233D02*
X12976Y-22791D01*
X12976Y-22791D02*
X12176Y-22791D01*
X12176Y-22791D02*
X12176Y-23233D01*
X12976Y-23659D02*
X12976Y-24091D01*
X12976Y-24091D02*
X12176Y-24091D01*
X12176Y-24091D02*
X12176Y-23659D01*
X7376Y-4833D02*
X7376Y-4391D01*
X7376Y-4391D02*
X6576Y-4391D01*
X6576Y-4391D02*
X6576Y-4833D01*
X7376Y-5259D02*
X7376Y-5691D01*
X7376Y-5691D02*
X6576Y-5691D01*
X6576Y-5691D02*
X6576Y-5259D01*
X15176Y-23648D02*
X15176Y-24091D01*
X15176Y-24091D02*
X15976Y-24091D01*
X15976Y-24091D02*
X15976Y-23648D01*
X15176Y-23222D02*
X15176Y-22791D01*
X15176Y-22791D02*
X15976Y-22791D01*
X15976Y-22791D02*
X15976Y-23222D01*
X10668Y-11741D02*
X10226Y-11741D01*
X10226Y-11741D02*
X10226Y-12541D01*
X10226Y-12541D02*
X10668Y-12541D01*
X11094Y-11741D02*
X11526Y-11741D01*
X11526Y-11741D02*
X11526Y-12541D01*
X11526Y-12541D02*
X11094Y-12541D01*
X6868Y-15141D02*
X6426Y-15141D01*
X6426Y-15141D02*
X6426Y-15941D01*
X6426Y-15941D02*
X6868Y-15941D01*
X7294Y-15141D02*
X7726Y-15141D01*
X7726Y-15141D02*
X7726Y-15941D01*
X7726Y-15941D02*
X7294Y-15941D01*
X10783Y-21741D02*
X11226Y-21741D01*
X11226Y-21741D02*
X11226Y-20941D01*
X11226Y-20941D02*
X10783Y-20941D01*
X10357Y-21741D02*
X9926Y-21741D01*
X9926Y-21741D02*
X9926Y-20941D01*
X9926Y-20941D02*
X10357Y-20941D01*
X16476Y-17248D02*
X16476Y-17691D01*
X16476Y-17691D02*
X17276Y-17691D01*
X17276Y-17691D02*
X17276Y-17248D01*
X16476Y-16822D02*
X16476Y-16391D01*
X16476Y-16391D02*
X17276Y-16391D01*
X17276Y-16391D02*
X17276Y-16822D01*
X13426Y-22582D02*
X13426Y-24299D01*
X13426Y-24300D02*
X14726Y-24300D01*
X14726Y-24299D02*
X14726Y-22582D01*
X14726Y-22581D02*
X13426Y-22581D01*
G54D18*
X2962Y-13089D02*
X3085Y-12914D01*
X3172Y-13089D02*
X3172Y-12721D01*
X3032Y-12721D01*
X2997Y-12739D01*
X2980Y-12756D01*
X2962Y-12792D01*
X2962Y-12844D01*
X2980Y-12879D01*
X2997Y-12897D01*
X3032Y-12914D01*
X3172Y-12914D01*
X2612Y-13089D02*
X2822Y-13089D01*
X2717Y-13089D02*
X2717Y-12721D01*
X2752Y-12774D01*
X2787Y-12809D01*
X2822Y-12827D01*
X2471Y-12756D02*
X2454Y-12739D01*
X2419Y-12721D01*
X2331Y-12721D01*
X2296Y-12739D01*
X2279Y-12756D01*
X2261Y-12792D01*
X2261Y-12827D01*
X2279Y-12879D01*
X2489Y-13089D01*
X2261Y-13089D01*
X2962Y-11589D02*
X3085Y-11414D01*
X3172Y-11589D02*
X3172Y-11221D01*
X3032Y-11221D01*
X2997Y-11239D01*
X2980Y-11256D01*
X2962Y-11292D01*
X2962Y-11344D01*
X2980Y-11379D01*
X2997Y-11397D01*
X3032Y-11414D01*
X3172Y-11414D01*
X2612Y-11589D02*
X2822Y-11589D01*
X2717Y-11589D02*
X2717Y-11221D01*
X2752Y-11274D01*
X2787Y-11309D01*
X2822Y-11327D01*
X2261Y-11589D02*
X2471Y-11589D01*
X2366Y-11589D02*
X2366Y-11221D01*
X2401Y-11274D01*
X2436Y-11309D01*
X2471Y-11327D01*
X2962Y-10089D02*
X3085Y-9914D01*
X3172Y-10089D02*
X3172Y-9721D01*
X3032Y-9721D01*
X2997Y-9739D01*
X2980Y-9756D01*
X2962Y-9792D01*
X2962Y-9844D01*
X2980Y-9879D01*
X2997Y-9897D01*
X3032Y-9914D01*
X3172Y-9914D01*
X2612Y-10089D02*
X2822Y-10089D01*
X2717Y-10089D02*
X2717Y-9721D01*
X2752Y-9774D01*
X2787Y-9809D01*
X2822Y-9827D01*
X2489Y-9721D02*
X2261Y-9721D01*
X2384Y-9862D01*
X2331Y-9862D01*
X2296Y-9879D01*
X2279Y-9897D01*
X2261Y-9932D01*
X2261Y-10019D01*
X2279Y-10054D01*
X2296Y-10072D01*
X2331Y-10089D01*
X2436Y-10089D01*
X2471Y-10072D01*
X2489Y-10054D01*
G54D13*
X29408Y-29013D02*
X29408Y-28763D01*
X29348Y-28763D01*
X29312Y-28774D01*
X29289Y-28798D01*
X29277Y-28822D01*
X29265Y-28870D01*
X29265Y-28905D01*
X29277Y-28953D01*
X29289Y-28977D01*
X29312Y-29001D01*
X29348Y-29013D01*
X29408Y-29013D01*
X29110Y-28763D02*
X29086Y-28763D01*
X29062Y-28774D01*
X29051Y-28786D01*
X29039Y-28810D01*
X29027Y-28858D01*
X29027Y-28917D01*
X29039Y-28965D01*
X29051Y-28989D01*
X29062Y-29001D01*
X29086Y-29013D01*
X29110Y-29013D01*
X29134Y-29001D01*
X29146Y-28989D01*
X29158Y-28965D01*
X29170Y-28917D01*
X29170Y-28858D01*
X29158Y-28810D01*
X29146Y-28786D01*
X29134Y-28774D01*
X29110Y-28763D01*
X28812Y-28846D02*
X28812Y-29013D01*
X28872Y-28751D02*
X28931Y-28929D01*
X28777Y-28929D01*
X28681Y-28989D02*
X28670Y-29001D01*
X28681Y-29013D01*
X28693Y-29001D01*
X28681Y-28989D01*
X28681Y-29013D01*
X28681Y-28858D02*
X28670Y-28870D01*
X28681Y-28882D01*
X28693Y-28870D01*
X28681Y-28858D01*
X28681Y-28882D01*
X28455Y-28846D02*
X28455Y-29013D01*
X28515Y-28751D02*
X28574Y-28929D01*
X28420Y-28929D01*
X76427Y-14013D02*
X76427Y-13763D01*
X76367Y-13763D01*
X76331Y-13774D01*
X76308Y-13798D01*
X76296Y-13822D01*
X76284Y-13870D01*
X76284Y-13905D01*
X76296Y-13953D01*
X76308Y-13977D01*
X76331Y-14001D01*
X76367Y-14013D01*
X76427Y-14013D01*
X76129Y-13763D02*
X76105Y-13763D01*
X76081Y-13774D01*
X76070Y-13786D01*
X76058Y-13810D01*
X76046Y-13858D01*
X76046Y-13917D01*
X76058Y-13965D01*
X76070Y-13989D01*
X76081Y-14001D01*
X76105Y-14013D01*
X76129Y-14013D01*
X76153Y-14001D01*
X76165Y-13989D01*
X76177Y-13965D01*
X76189Y-13917D01*
X76189Y-13858D01*
X76177Y-13810D01*
X76165Y-13786D01*
X76153Y-13774D01*
X76129Y-13763D01*
X75951Y-13786D02*
X75939Y-13774D01*
X75915Y-13763D01*
X75855Y-13763D01*
X75831Y-13774D01*
X75820Y-13786D01*
X75808Y-13810D01*
X75808Y-13834D01*
X75820Y-13870D01*
X75962Y-14013D01*
X75808Y-14013D01*
X75701Y-13989D02*
X75689Y-14001D01*
X75701Y-14013D01*
X75712Y-14001D01*
X75701Y-13989D01*
X75701Y-14013D01*
X75701Y-13858D02*
X75689Y-13870D01*
X75701Y-13882D01*
X75712Y-13870D01*
X75701Y-13858D01*
X75701Y-13882D01*
X75450Y-14013D02*
X75593Y-14013D01*
X75522Y-14013D02*
X75522Y-13763D01*
X75546Y-13798D01*
X75570Y-13822D01*
X75593Y-13834D01*
X75296Y-13763D02*
X75272Y-13763D01*
X75248Y-13774D01*
X75236Y-13786D01*
X75224Y-13810D01*
X75212Y-13858D01*
X75212Y-13917D01*
X75224Y-13965D01*
X75236Y-13989D01*
X75248Y-14001D01*
X75272Y-14013D01*
X75296Y-14013D01*
X75320Y-14001D01*
X75331Y-13989D01*
X75343Y-13965D01*
X75355Y-13917D01*
X75355Y-13858D01*
X75343Y-13810D01*
X75331Y-13786D01*
X75320Y-13774D01*
X75296Y-13763D01*
X72677Y-6513D02*
X72677Y-6263D01*
X72617Y-6263D01*
X72581Y-6274D01*
X72558Y-6298D01*
X72546Y-6322D01*
X72534Y-6370D01*
X72534Y-6405D01*
X72546Y-6453D01*
X72558Y-6477D01*
X72581Y-6501D01*
X72617Y-6513D01*
X72677Y-6513D01*
X72379Y-6263D02*
X72355Y-6263D01*
X72331Y-6274D01*
X72320Y-6286D01*
X72308Y-6310D01*
X72296Y-6358D01*
X72296Y-6417D01*
X72308Y-6465D01*
X72320Y-6489D01*
X72331Y-6501D01*
X72355Y-6513D01*
X72379Y-6513D01*
X72403Y-6501D01*
X72415Y-6489D01*
X72427Y-6465D01*
X72439Y-6417D01*
X72439Y-6358D01*
X72427Y-6310D01*
X72415Y-6286D01*
X72403Y-6274D01*
X72379Y-6263D01*
X72058Y-6513D02*
X72201Y-6513D01*
X72129Y-6513D02*
X72129Y-6263D01*
X72153Y-6298D01*
X72177Y-6322D01*
X72201Y-6334D01*
X71951Y-6489D02*
X71939Y-6501D01*
X71951Y-6513D01*
X71962Y-6501D01*
X71951Y-6489D01*
X71951Y-6513D01*
X71951Y-6358D02*
X71939Y-6370D01*
X71951Y-6382D01*
X71962Y-6370D01*
X71951Y-6358D01*
X71951Y-6382D01*
X71700Y-6513D02*
X71843Y-6513D01*
X71772Y-6513D02*
X71772Y-6263D01*
X71796Y-6298D01*
X71820Y-6322D01*
X71843Y-6334D01*
X71546Y-6263D02*
X71522Y-6263D01*
X71498Y-6274D01*
X71486Y-6286D01*
X71474Y-6310D01*
X71462Y-6358D01*
X71462Y-6417D01*
X71474Y-6465D01*
X71486Y-6489D01*
X71498Y-6501D01*
X71522Y-6513D01*
X71546Y-6513D01*
X71570Y-6501D01*
X71581Y-6489D01*
X71593Y-6465D01*
X71605Y-6417D01*
X71605Y-6358D01*
X71593Y-6310D01*
X71581Y-6286D01*
X71570Y-6274D01*
X71546Y-6263D01*
X68808Y-14013D02*
X68808Y-13763D01*
X68748Y-13763D01*
X68712Y-13774D01*
X68689Y-13798D01*
X68677Y-13822D01*
X68665Y-13870D01*
X68665Y-13905D01*
X68677Y-13953D01*
X68689Y-13977D01*
X68712Y-14001D01*
X68748Y-14013D01*
X68808Y-14013D01*
X68510Y-13763D02*
X68486Y-13763D01*
X68462Y-13774D01*
X68451Y-13786D01*
X68439Y-13810D01*
X68427Y-13858D01*
X68427Y-13917D01*
X68439Y-13965D01*
X68451Y-13989D01*
X68462Y-14001D01*
X68486Y-14013D01*
X68510Y-14013D01*
X68534Y-14001D01*
X68546Y-13989D01*
X68558Y-13965D01*
X68570Y-13917D01*
X68570Y-13858D01*
X68558Y-13810D01*
X68546Y-13786D01*
X68534Y-13774D01*
X68510Y-13763D01*
X68331Y-13786D02*
X68320Y-13774D01*
X68296Y-13763D01*
X68236Y-13763D01*
X68212Y-13774D01*
X68201Y-13786D01*
X68189Y-13810D01*
X68189Y-13834D01*
X68201Y-13870D01*
X68343Y-14013D01*
X68189Y-14013D01*
X68081Y-13989D02*
X68070Y-14001D01*
X68081Y-14013D01*
X68093Y-14001D01*
X68081Y-13989D01*
X68081Y-14013D01*
X68081Y-13858D02*
X68070Y-13870D01*
X68081Y-13882D01*
X68093Y-13870D01*
X68081Y-13858D01*
X68081Y-13882D01*
X67950Y-14013D02*
X67903Y-14013D01*
X67879Y-14001D01*
X67867Y-13989D01*
X67843Y-13953D01*
X67831Y-13905D01*
X67831Y-13810D01*
X67843Y-13786D01*
X67855Y-13774D01*
X67879Y-13763D01*
X67927Y-13763D01*
X67950Y-13774D01*
X67962Y-13786D01*
X67974Y-13810D01*
X67974Y-13870D01*
X67962Y-13894D01*
X67950Y-13905D01*
X67927Y-13917D01*
X67879Y-13917D01*
X67855Y-13905D01*
X67843Y-13894D01*
X67831Y-13870D01*
X70708Y-21513D02*
X70708Y-21263D01*
X70648Y-21263D01*
X70612Y-21274D01*
X70589Y-21298D01*
X70577Y-21322D01*
X70565Y-21370D01*
X70565Y-21405D01*
X70577Y-21453D01*
X70589Y-21477D01*
X70612Y-21501D01*
X70648Y-21513D01*
X70708Y-21513D01*
X70410Y-21263D02*
X70386Y-21263D01*
X70362Y-21274D01*
X70351Y-21286D01*
X70339Y-21310D01*
X70327Y-21358D01*
X70327Y-21417D01*
X70339Y-21465D01*
X70351Y-21489D01*
X70362Y-21501D01*
X70386Y-21513D01*
X70410Y-21513D01*
X70434Y-21501D01*
X70446Y-21489D01*
X70458Y-21465D01*
X70470Y-21417D01*
X70470Y-21358D01*
X70458Y-21310D01*
X70446Y-21286D01*
X70434Y-21274D01*
X70410Y-21263D01*
X70243Y-21263D02*
X70089Y-21263D01*
X70172Y-21358D01*
X70136Y-21358D01*
X70112Y-21370D01*
X70101Y-21382D01*
X70089Y-21405D01*
X70089Y-21465D01*
X70101Y-21489D01*
X70112Y-21501D01*
X70136Y-21513D01*
X70208Y-21513D01*
X70231Y-21501D01*
X70243Y-21489D01*
X69981Y-21489D02*
X69970Y-21501D01*
X69981Y-21513D01*
X69993Y-21501D01*
X69981Y-21489D01*
X69981Y-21513D01*
X69981Y-21358D02*
X69970Y-21370D01*
X69981Y-21382D01*
X69993Y-21370D01*
X69981Y-21358D01*
X69981Y-21382D01*
X69850Y-21513D02*
X69803Y-21513D01*
X69779Y-21501D01*
X69767Y-21489D01*
X69743Y-21453D01*
X69731Y-21405D01*
X69731Y-21310D01*
X69743Y-21286D01*
X69755Y-21274D01*
X69779Y-21263D01*
X69827Y-21263D01*
X69850Y-21274D01*
X69862Y-21286D01*
X69874Y-21310D01*
X69874Y-21370D01*
X69862Y-21394D01*
X69850Y-21405D01*
X69827Y-21417D01*
X69779Y-21417D01*
X69755Y-21405D01*
X69743Y-21394D01*
X69731Y-21370D01*
X38808Y-14013D02*
X38808Y-13763D01*
X38748Y-13763D01*
X38712Y-13774D01*
X38689Y-13798D01*
X38677Y-13822D01*
X38665Y-13870D01*
X38665Y-13905D01*
X38677Y-13953D01*
X38689Y-13977D01*
X38712Y-14001D01*
X38748Y-14013D01*
X38808Y-14013D01*
X38510Y-13763D02*
X38486Y-13763D01*
X38462Y-13774D01*
X38451Y-13786D01*
X38439Y-13810D01*
X38427Y-13858D01*
X38427Y-13917D01*
X38439Y-13965D01*
X38451Y-13989D01*
X38462Y-14001D01*
X38486Y-14013D01*
X38510Y-14013D01*
X38534Y-14001D01*
X38546Y-13989D01*
X38558Y-13965D01*
X38570Y-13917D01*
X38570Y-13858D01*
X38558Y-13810D01*
X38546Y-13786D01*
X38534Y-13774D01*
X38510Y-13763D01*
X38331Y-13786D02*
X38320Y-13774D01*
X38296Y-13763D01*
X38236Y-13763D01*
X38212Y-13774D01*
X38201Y-13786D01*
X38189Y-13810D01*
X38189Y-13834D01*
X38201Y-13870D01*
X38343Y-14013D01*
X38189Y-14013D01*
X38081Y-13989D02*
X38070Y-14001D01*
X38081Y-14013D01*
X38093Y-14001D01*
X38081Y-13989D01*
X38081Y-14013D01*
X38081Y-13858D02*
X38070Y-13870D01*
X38081Y-13882D01*
X38093Y-13870D01*
X38081Y-13858D01*
X38081Y-13882D01*
X37843Y-13763D02*
X37962Y-13763D01*
X37974Y-13882D01*
X37962Y-13870D01*
X37939Y-13858D01*
X37879Y-13858D01*
X37855Y-13870D01*
X37843Y-13882D01*
X37831Y-13905D01*
X37831Y-13965D01*
X37843Y-13989D01*
X37855Y-14001D01*
X37879Y-14013D01*
X37939Y-14013D01*
X37962Y-14001D01*
X37974Y-13989D01*
X63208Y-21513D02*
X63208Y-21263D01*
X63148Y-21263D01*
X63112Y-21274D01*
X63089Y-21298D01*
X63077Y-21322D01*
X63065Y-21370D01*
X63065Y-21405D01*
X63077Y-21453D01*
X63089Y-21477D01*
X63112Y-21501D01*
X63148Y-21513D01*
X63208Y-21513D01*
X62910Y-21263D02*
X62886Y-21263D01*
X62862Y-21274D01*
X62851Y-21286D01*
X62839Y-21310D01*
X62827Y-21358D01*
X62827Y-21417D01*
X62839Y-21465D01*
X62851Y-21489D01*
X62862Y-21501D01*
X62886Y-21513D01*
X62910Y-21513D01*
X62934Y-21501D01*
X62946Y-21489D01*
X62958Y-21465D01*
X62970Y-21417D01*
X62970Y-21358D01*
X62958Y-21310D01*
X62946Y-21286D01*
X62934Y-21274D01*
X62910Y-21263D01*
X62743Y-21263D02*
X62589Y-21263D01*
X62672Y-21358D01*
X62636Y-21358D01*
X62612Y-21370D01*
X62601Y-21382D01*
X62589Y-21405D01*
X62589Y-21465D01*
X62601Y-21489D01*
X62612Y-21501D01*
X62636Y-21513D01*
X62708Y-21513D01*
X62731Y-21501D01*
X62743Y-21489D01*
X62481Y-21489D02*
X62470Y-21501D01*
X62481Y-21513D01*
X62493Y-21501D01*
X62481Y-21489D01*
X62481Y-21513D01*
X62481Y-21358D02*
X62470Y-21370D01*
X62481Y-21382D01*
X62493Y-21370D01*
X62481Y-21358D01*
X62481Y-21382D01*
X62327Y-21370D02*
X62350Y-21358D01*
X62362Y-21346D01*
X62374Y-21322D01*
X62374Y-21310D01*
X62362Y-21286D01*
X62350Y-21274D01*
X62327Y-21263D01*
X62279Y-21263D01*
X62255Y-21274D01*
X62243Y-21286D01*
X62231Y-21310D01*
X62231Y-21322D01*
X62243Y-21346D01*
X62255Y-21358D01*
X62279Y-21370D01*
X62327Y-21370D01*
X62350Y-21382D01*
X62362Y-21394D01*
X62374Y-21417D01*
X62374Y-21465D01*
X62362Y-21489D01*
X62350Y-21501D01*
X62327Y-21513D01*
X62279Y-21513D01*
X62255Y-21501D01*
X62243Y-21489D01*
X62231Y-21465D01*
X62231Y-21417D01*
X62243Y-21394D01*
X62255Y-21382D01*
X62279Y-21370D01*
X61308Y-14013D02*
X61308Y-13763D01*
X61248Y-13763D01*
X61212Y-13774D01*
X61189Y-13798D01*
X61177Y-13822D01*
X61165Y-13870D01*
X61165Y-13905D01*
X61177Y-13953D01*
X61189Y-13977D01*
X61212Y-14001D01*
X61248Y-14013D01*
X61308Y-14013D01*
X61010Y-13763D02*
X60986Y-13763D01*
X60962Y-13774D01*
X60951Y-13786D01*
X60939Y-13810D01*
X60927Y-13858D01*
X60927Y-13917D01*
X60939Y-13965D01*
X60951Y-13989D01*
X60962Y-14001D01*
X60986Y-14013D01*
X61010Y-14013D01*
X61034Y-14001D01*
X61046Y-13989D01*
X61058Y-13965D01*
X61070Y-13917D01*
X61070Y-13858D01*
X61058Y-13810D01*
X61046Y-13786D01*
X61034Y-13774D01*
X61010Y-13763D01*
X60831Y-13786D02*
X60820Y-13774D01*
X60796Y-13763D01*
X60736Y-13763D01*
X60712Y-13774D01*
X60701Y-13786D01*
X60689Y-13810D01*
X60689Y-13834D01*
X60701Y-13870D01*
X60843Y-14013D01*
X60689Y-14013D01*
X60581Y-13989D02*
X60570Y-14001D01*
X60581Y-14013D01*
X60593Y-14001D01*
X60581Y-13989D01*
X60581Y-14013D01*
X60581Y-13858D02*
X60570Y-13870D01*
X60581Y-13882D01*
X60593Y-13870D01*
X60581Y-13858D01*
X60581Y-13882D01*
X60427Y-13870D02*
X60450Y-13858D01*
X60462Y-13846D01*
X60474Y-13822D01*
X60474Y-13810D01*
X60462Y-13786D01*
X60450Y-13774D01*
X60427Y-13763D01*
X60379Y-13763D01*
X60355Y-13774D01*
X60343Y-13786D01*
X60331Y-13810D01*
X60331Y-13822D01*
X60343Y-13846D01*
X60355Y-13858D01*
X60379Y-13870D01*
X60427Y-13870D01*
X60450Y-13882D01*
X60462Y-13894D01*
X60474Y-13917D01*
X60474Y-13965D01*
X60462Y-13989D01*
X60450Y-14001D01*
X60427Y-14013D01*
X60379Y-14013D01*
X60355Y-14001D01*
X60343Y-13989D01*
X60331Y-13965D01*
X60331Y-13917D01*
X60343Y-13894D01*
X60355Y-13882D01*
X60379Y-13870D01*
X65058Y-6513D02*
X65058Y-6263D01*
X64998Y-6263D01*
X64962Y-6274D01*
X64939Y-6298D01*
X64927Y-6322D01*
X64915Y-6370D01*
X64915Y-6405D01*
X64927Y-6453D01*
X64939Y-6477D01*
X64962Y-6501D01*
X64998Y-6513D01*
X65058Y-6513D01*
X64760Y-6263D02*
X64736Y-6263D01*
X64712Y-6274D01*
X64701Y-6286D01*
X64689Y-6310D01*
X64677Y-6358D01*
X64677Y-6417D01*
X64689Y-6465D01*
X64701Y-6489D01*
X64712Y-6501D01*
X64736Y-6513D01*
X64760Y-6513D01*
X64784Y-6501D01*
X64796Y-6489D01*
X64808Y-6465D01*
X64820Y-6417D01*
X64820Y-6358D01*
X64808Y-6310D01*
X64796Y-6286D01*
X64784Y-6274D01*
X64760Y-6263D01*
X64439Y-6513D02*
X64581Y-6513D01*
X64510Y-6513D02*
X64510Y-6263D01*
X64534Y-6298D01*
X64558Y-6322D01*
X64581Y-6334D01*
X64331Y-6489D02*
X64320Y-6501D01*
X64331Y-6513D01*
X64343Y-6501D01*
X64331Y-6489D01*
X64331Y-6513D01*
X64331Y-6358D02*
X64320Y-6370D01*
X64331Y-6382D01*
X64343Y-6370D01*
X64331Y-6358D01*
X64331Y-6382D01*
X64200Y-6513D02*
X64153Y-6513D01*
X64129Y-6501D01*
X64117Y-6489D01*
X64093Y-6453D01*
X64081Y-6405D01*
X64081Y-6310D01*
X64093Y-6286D01*
X64105Y-6274D01*
X64129Y-6263D01*
X64177Y-6263D01*
X64200Y-6274D01*
X64212Y-6286D01*
X64224Y-6310D01*
X64224Y-6370D01*
X64212Y-6394D01*
X64200Y-6405D01*
X64177Y-6417D01*
X64129Y-6417D01*
X64105Y-6405D01*
X64093Y-6394D01*
X64081Y-6370D01*
X57558Y-6513D02*
X57558Y-6263D01*
X57498Y-6263D01*
X57462Y-6274D01*
X57439Y-6298D01*
X57427Y-6322D01*
X57415Y-6370D01*
X57415Y-6405D01*
X57427Y-6453D01*
X57439Y-6477D01*
X57462Y-6501D01*
X57498Y-6513D01*
X57558Y-6513D01*
X57260Y-6263D02*
X57236Y-6263D01*
X57212Y-6274D01*
X57201Y-6286D01*
X57189Y-6310D01*
X57177Y-6358D01*
X57177Y-6417D01*
X57189Y-6465D01*
X57201Y-6489D01*
X57212Y-6501D01*
X57236Y-6513D01*
X57260Y-6513D01*
X57284Y-6501D01*
X57296Y-6489D01*
X57308Y-6465D01*
X57320Y-6417D01*
X57320Y-6358D01*
X57308Y-6310D01*
X57296Y-6286D01*
X57284Y-6274D01*
X57260Y-6263D01*
X56939Y-6513D02*
X57081Y-6513D01*
X57010Y-6513D02*
X57010Y-6263D01*
X57034Y-6298D01*
X57058Y-6322D01*
X57081Y-6334D01*
X56831Y-6489D02*
X56820Y-6501D01*
X56831Y-6513D01*
X56843Y-6501D01*
X56831Y-6489D01*
X56831Y-6513D01*
X56831Y-6358D02*
X56820Y-6370D01*
X56831Y-6382D01*
X56843Y-6370D01*
X56831Y-6358D01*
X56831Y-6382D01*
X56677Y-6370D02*
X56700Y-6358D01*
X56712Y-6346D01*
X56724Y-6322D01*
X56724Y-6310D01*
X56712Y-6286D01*
X56700Y-6274D01*
X56677Y-6263D01*
X56629Y-6263D01*
X56605Y-6274D01*
X56593Y-6286D01*
X56581Y-6310D01*
X56581Y-6322D01*
X56593Y-6346D01*
X56605Y-6358D01*
X56629Y-6370D01*
X56677Y-6370D01*
X56700Y-6382D01*
X56712Y-6394D01*
X56724Y-6417D01*
X56724Y-6465D01*
X56712Y-6489D01*
X56700Y-6501D01*
X56677Y-6513D01*
X56629Y-6513D01*
X56605Y-6501D01*
X56593Y-6489D01*
X56581Y-6465D01*
X56581Y-6417D01*
X56593Y-6394D01*
X56605Y-6382D01*
X56629Y-6370D01*
X53808Y-14013D02*
X53808Y-13763D01*
X53748Y-13763D01*
X53712Y-13774D01*
X53689Y-13798D01*
X53677Y-13822D01*
X53665Y-13870D01*
X53665Y-13905D01*
X53677Y-13953D01*
X53689Y-13977D01*
X53712Y-14001D01*
X53748Y-14013D01*
X53808Y-14013D01*
X53510Y-13763D02*
X53486Y-13763D01*
X53462Y-13774D01*
X53451Y-13786D01*
X53439Y-13810D01*
X53427Y-13858D01*
X53427Y-13917D01*
X53439Y-13965D01*
X53451Y-13989D01*
X53462Y-14001D01*
X53486Y-14013D01*
X53510Y-14013D01*
X53534Y-14001D01*
X53546Y-13989D01*
X53558Y-13965D01*
X53570Y-13917D01*
X53570Y-13858D01*
X53558Y-13810D01*
X53546Y-13786D01*
X53534Y-13774D01*
X53510Y-13763D01*
X53331Y-13786D02*
X53320Y-13774D01*
X53296Y-13763D01*
X53236Y-13763D01*
X53212Y-13774D01*
X53201Y-13786D01*
X53189Y-13810D01*
X53189Y-13834D01*
X53201Y-13870D01*
X53343Y-14013D01*
X53189Y-14013D01*
X53081Y-13989D02*
X53070Y-14001D01*
X53081Y-14013D01*
X53093Y-14001D01*
X53081Y-13989D01*
X53081Y-14013D01*
X53081Y-13858D02*
X53070Y-13870D01*
X53081Y-13882D01*
X53093Y-13870D01*
X53081Y-13858D01*
X53081Y-13882D01*
X52986Y-13763D02*
X52820Y-13763D01*
X52927Y-14013D01*
X55708Y-21513D02*
X55708Y-21263D01*
X55648Y-21263D01*
X55612Y-21274D01*
X55589Y-21298D01*
X55577Y-21322D01*
X55565Y-21370D01*
X55565Y-21405D01*
X55577Y-21453D01*
X55589Y-21477D01*
X55612Y-21501D01*
X55648Y-21513D01*
X55708Y-21513D01*
X55410Y-21263D02*
X55386Y-21263D01*
X55362Y-21274D01*
X55351Y-21286D01*
X55339Y-21310D01*
X55327Y-21358D01*
X55327Y-21417D01*
X55339Y-21465D01*
X55351Y-21489D01*
X55362Y-21501D01*
X55386Y-21513D01*
X55410Y-21513D01*
X55434Y-21501D01*
X55446Y-21489D01*
X55458Y-21465D01*
X55470Y-21417D01*
X55470Y-21358D01*
X55458Y-21310D01*
X55446Y-21286D01*
X55434Y-21274D01*
X55410Y-21263D01*
X55243Y-21263D02*
X55089Y-21263D01*
X55172Y-21358D01*
X55136Y-21358D01*
X55112Y-21370D01*
X55101Y-21382D01*
X55089Y-21405D01*
X55089Y-21465D01*
X55101Y-21489D01*
X55112Y-21501D01*
X55136Y-21513D01*
X55208Y-21513D01*
X55231Y-21501D01*
X55243Y-21489D01*
X54981Y-21489D02*
X54970Y-21501D01*
X54981Y-21513D01*
X54993Y-21501D01*
X54981Y-21489D01*
X54981Y-21513D01*
X54981Y-21358D02*
X54970Y-21370D01*
X54981Y-21382D01*
X54993Y-21370D01*
X54981Y-21358D01*
X54981Y-21382D01*
X54886Y-21263D02*
X54720Y-21263D01*
X54827Y-21513D01*
X40708Y-21513D02*
X40708Y-21263D01*
X40648Y-21263D01*
X40612Y-21274D01*
X40589Y-21298D01*
X40577Y-21322D01*
X40565Y-21370D01*
X40565Y-21405D01*
X40577Y-21453D01*
X40589Y-21477D01*
X40612Y-21501D01*
X40648Y-21513D01*
X40708Y-21513D01*
X40410Y-21263D02*
X40386Y-21263D01*
X40362Y-21274D01*
X40351Y-21286D01*
X40339Y-21310D01*
X40327Y-21358D01*
X40327Y-21417D01*
X40339Y-21465D01*
X40351Y-21489D01*
X40362Y-21501D01*
X40386Y-21513D01*
X40410Y-21513D01*
X40434Y-21501D01*
X40446Y-21489D01*
X40458Y-21465D01*
X40470Y-21417D01*
X40470Y-21358D01*
X40458Y-21310D01*
X40446Y-21286D01*
X40434Y-21274D01*
X40410Y-21263D01*
X40243Y-21263D02*
X40089Y-21263D01*
X40172Y-21358D01*
X40136Y-21358D01*
X40112Y-21370D01*
X40101Y-21382D01*
X40089Y-21405D01*
X40089Y-21465D01*
X40101Y-21489D01*
X40112Y-21501D01*
X40136Y-21513D01*
X40208Y-21513D01*
X40231Y-21501D01*
X40243Y-21489D01*
X39981Y-21489D02*
X39970Y-21501D01*
X39981Y-21513D01*
X39993Y-21501D01*
X39981Y-21489D01*
X39981Y-21513D01*
X39981Y-21358D02*
X39970Y-21370D01*
X39981Y-21382D01*
X39993Y-21370D01*
X39981Y-21358D01*
X39981Y-21382D01*
X39743Y-21263D02*
X39862Y-21263D01*
X39874Y-21382D01*
X39862Y-21370D01*
X39839Y-21358D01*
X39779Y-21358D01*
X39755Y-21370D01*
X39743Y-21382D01*
X39731Y-21405D01*
X39731Y-21465D01*
X39743Y-21489D01*
X39755Y-21501D01*
X39779Y-21513D01*
X39839Y-21513D01*
X39862Y-21501D01*
X39874Y-21489D01*
X5058Y-6513D02*
X5058Y-6263D01*
X4998Y-6263D01*
X4962Y-6274D01*
X4939Y-6298D01*
X4927Y-6322D01*
X4915Y-6370D01*
X4915Y-6405D01*
X4927Y-6453D01*
X4939Y-6477D01*
X4962Y-6501D01*
X4998Y-6513D01*
X5058Y-6513D01*
X4760Y-6263D02*
X4736Y-6263D01*
X4712Y-6274D01*
X4701Y-6286D01*
X4689Y-6310D01*
X4677Y-6358D01*
X4677Y-6417D01*
X4689Y-6465D01*
X4701Y-6489D01*
X4712Y-6501D01*
X4736Y-6513D01*
X4760Y-6513D01*
X4784Y-6501D01*
X4796Y-6489D01*
X4808Y-6465D01*
X4820Y-6417D01*
X4820Y-6358D01*
X4808Y-6310D01*
X4796Y-6286D01*
X4784Y-6274D01*
X4760Y-6263D01*
X4439Y-6513D02*
X4581Y-6513D01*
X4510Y-6513D02*
X4510Y-6263D01*
X4534Y-6298D01*
X4558Y-6322D01*
X4581Y-6334D01*
X4331Y-6489D02*
X4320Y-6501D01*
X4331Y-6513D01*
X4343Y-6501D01*
X4331Y-6489D01*
X4331Y-6513D01*
X4331Y-6358D02*
X4320Y-6370D01*
X4331Y-6382D01*
X4343Y-6370D01*
X4331Y-6358D01*
X4331Y-6382D01*
X4081Y-6513D02*
X4224Y-6513D01*
X4153Y-6513D02*
X4153Y-6263D01*
X4177Y-6298D01*
X4200Y-6322D01*
X4224Y-6334D01*
X50058Y-6513D02*
X50058Y-6263D01*
X49998Y-6263D01*
X49962Y-6274D01*
X49939Y-6298D01*
X49927Y-6322D01*
X49915Y-6370D01*
X49915Y-6405D01*
X49927Y-6453D01*
X49939Y-6477D01*
X49962Y-6501D01*
X49998Y-6513D01*
X50058Y-6513D01*
X49760Y-6263D02*
X49736Y-6263D01*
X49712Y-6274D01*
X49701Y-6286D01*
X49689Y-6310D01*
X49677Y-6358D01*
X49677Y-6417D01*
X49689Y-6465D01*
X49701Y-6489D01*
X49712Y-6501D01*
X49736Y-6513D01*
X49760Y-6513D01*
X49784Y-6501D01*
X49796Y-6489D01*
X49808Y-6465D01*
X49820Y-6417D01*
X49820Y-6358D01*
X49808Y-6310D01*
X49796Y-6286D01*
X49784Y-6274D01*
X49760Y-6263D01*
X49439Y-6513D02*
X49581Y-6513D01*
X49510Y-6513D02*
X49510Y-6263D01*
X49534Y-6298D01*
X49558Y-6322D01*
X49581Y-6334D01*
X49331Y-6489D02*
X49320Y-6501D01*
X49331Y-6513D01*
X49343Y-6501D01*
X49331Y-6489D01*
X49331Y-6513D01*
X49331Y-6358D02*
X49320Y-6370D01*
X49331Y-6382D01*
X49343Y-6370D01*
X49331Y-6358D01*
X49331Y-6382D01*
X49236Y-6263D02*
X49070Y-6263D01*
X49177Y-6513D01*
X35058Y-6513D02*
X35058Y-6263D01*
X34998Y-6263D01*
X34962Y-6274D01*
X34939Y-6298D01*
X34927Y-6322D01*
X34915Y-6370D01*
X34915Y-6405D01*
X34927Y-6453D01*
X34939Y-6477D01*
X34962Y-6501D01*
X34998Y-6513D01*
X35058Y-6513D01*
X34760Y-6263D02*
X34736Y-6263D01*
X34712Y-6274D01*
X34701Y-6286D01*
X34689Y-6310D01*
X34677Y-6358D01*
X34677Y-6417D01*
X34689Y-6465D01*
X34701Y-6489D01*
X34712Y-6501D01*
X34736Y-6513D01*
X34760Y-6513D01*
X34784Y-6501D01*
X34796Y-6489D01*
X34808Y-6465D01*
X34820Y-6417D01*
X34820Y-6358D01*
X34808Y-6310D01*
X34796Y-6286D01*
X34784Y-6274D01*
X34760Y-6263D01*
X34439Y-6513D02*
X34581Y-6513D01*
X34510Y-6513D02*
X34510Y-6263D01*
X34534Y-6298D01*
X34558Y-6322D01*
X34581Y-6334D01*
X34331Y-6489D02*
X34320Y-6501D01*
X34331Y-6513D01*
X34343Y-6501D01*
X34331Y-6489D01*
X34331Y-6513D01*
X34331Y-6358D02*
X34320Y-6370D01*
X34331Y-6382D01*
X34343Y-6370D01*
X34331Y-6358D01*
X34331Y-6382D01*
X34093Y-6263D02*
X34212Y-6263D01*
X34224Y-6382D01*
X34212Y-6370D01*
X34189Y-6358D01*
X34129Y-6358D01*
X34105Y-6370D01*
X34093Y-6382D01*
X34081Y-6405D01*
X34081Y-6465D01*
X34093Y-6489D01*
X34105Y-6501D01*
X34129Y-6513D01*
X34189Y-6513D01*
X34212Y-6501D01*
X34224Y-6489D01*
X80177Y-6513D02*
X80177Y-6263D01*
X80117Y-6263D01*
X80081Y-6274D01*
X80058Y-6298D01*
X80046Y-6322D01*
X80034Y-6370D01*
X80034Y-6405D01*
X80046Y-6453D01*
X80058Y-6477D01*
X80081Y-6501D01*
X80117Y-6513D01*
X80177Y-6513D01*
X79879Y-6263D02*
X79855Y-6263D01*
X79831Y-6274D01*
X79820Y-6286D01*
X79808Y-6310D01*
X79796Y-6358D01*
X79796Y-6417D01*
X79808Y-6465D01*
X79820Y-6489D01*
X79831Y-6501D01*
X79855Y-6513D01*
X79879Y-6513D01*
X79903Y-6501D01*
X79915Y-6489D01*
X79927Y-6465D01*
X79939Y-6417D01*
X79939Y-6358D01*
X79927Y-6310D01*
X79915Y-6286D01*
X79903Y-6274D01*
X79879Y-6263D01*
X79558Y-6513D02*
X79701Y-6513D01*
X79629Y-6513D02*
X79629Y-6263D01*
X79653Y-6298D01*
X79677Y-6322D01*
X79701Y-6334D01*
X79451Y-6489D02*
X79439Y-6501D01*
X79451Y-6513D01*
X79462Y-6501D01*
X79451Y-6489D01*
X79451Y-6513D01*
X79451Y-6358D02*
X79439Y-6370D01*
X79451Y-6382D01*
X79462Y-6370D01*
X79451Y-6358D01*
X79451Y-6382D01*
X79200Y-6513D02*
X79343Y-6513D01*
X79272Y-6513D02*
X79272Y-6263D01*
X79296Y-6298D01*
X79320Y-6322D01*
X79343Y-6334D01*
X78962Y-6513D02*
X79105Y-6513D01*
X79034Y-6513D02*
X79034Y-6263D01*
X79058Y-6298D01*
X79081Y-6322D01*
X79105Y-6334D01*
X33158Y-21513D02*
X33158Y-21263D01*
X33098Y-21263D01*
X33062Y-21274D01*
X33039Y-21298D01*
X33027Y-21322D01*
X33015Y-21370D01*
X33015Y-21405D01*
X33027Y-21453D01*
X33039Y-21477D01*
X33062Y-21501D01*
X33098Y-21513D01*
X33158Y-21513D01*
X32860Y-21263D02*
X32836Y-21263D01*
X32812Y-21274D01*
X32801Y-21286D01*
X32789Y-21310D01*
X32777Y-21358D01*
X32777Y-21417D01*
X32789Y-21465D01*
X32801Y-21489D01*
X32812Y-21501D01*
X32836Y-21513D01*
X32860Y-21513D01*
X32884Y-21501D01*
X32896Y-21489D01*
X32908Y-21465D01*
X32920Y-21417D01*
X32920Y-21358D01*
X32908Y-21310D01*
X32896Y-21286D01*
X32884Y-21274D01*
X32860Y-21263D01*
X32693Y-21263D02*
X32539Y-21263D01*
X32622Y-21358D01*
X32586Y-21358D01*
X32562Y-21370D01*
X32551Y-21382D01*
X32539Y-21405D01*
X32539Y-21465D01*
X32551Y-21489D01*
X32562Y-21501D01*
X32586Y-21513D01*
X32658Y-21513D01*
X32681Y-21501D01*
X32693Y-21489D01*
X32431Y-21489D02*
X32420Y-21501D01*
X32431Y-21513D01*
X32443Y-21501D01*
X32431Y-21489D01*
X32431Y-21513D01*
X32431Y-21358D02*
X32420Y-21370D01*
X32431Y-21382D01*
X32443Y-21370D01*
X32431Y-21358D01*
X32431Y-21382D01*
X32205Y-21346D02*
X32205Y-21513D01*
X32265Y-21251D02*
X32324Y-21429D01*
X32170Y-21429D01*
X31308Y-14013D02*
X31308Y-13763D01*
X31248Y-13763D01*
X31212Y-13774D01*
X31189Y-13798D01*
X31177Y-13822D01*
X31165Y-13870D01*
X31165Y-13905D01*
X31177Y-13953D01*
X31189Y-13977D01*
X31212Y-14001D01*
X31248Y-14013D01*
X31308Y-14013D01*
X31010Y-13763D02*
X30986Y-13763D01*
X30962Y-13774D01*
X30951Y-13786D01*
X30939Y-13810D01*
X30927Y-13858D01*
X30927Y-13917D01*
X30939Y-13965D01*
X30951Y-13989D01*
X30962Y-14001D01*
X30986Y-14013D01*
X31010Y-14013D01*
X31034Y-14001D01*
X31046Y-13989D01*
X31058Y-13965D01*
X31070Y-13917D01*
X31070Y-13858D01*
X31058Y-13810D01*
X31046Y-13786D01*
X31034Y-13774D01*
X31010Y-13763D01*
X30831Y-13786D02*
X30820Y-13774D01*
X30796Y-13763D01*
X30736Y-13763D01*
X30712Y-13774D01*
X30701Y-13786D01*
X30689Y-13810D01*
X30689Y-13834D01*
X30701Y-13870D01*
X30843Y-14013D01*
X30689Y-14013D01*
X30581Y-13989D02*
X30570Y-14001D01*
X30581Y-14013D01*
X30593Y-14001D01*
X30581Y-13989D01*
X30581Y-14013D01*
X30581Y-13858D02*
X30570Y-13870D01*
X30581Y-13882D01*
X30593Y-13870D01*
X30581Y-13858D01*
X30581Y-13882D01*
X30355Y-13846D02*
X30355Y-14013D01*
X30415Y-13751D02*
X30474Y-13929D01*
X30320Y-13929D01*
X27558Y-6513D02*
X27558Y-6263D01*
X27498Y-6263D01*
X27462Y-6274D01*
X27439Y-6298D01*
X27427Y-6322D01*
X27415Y-6370D01*
X27415Y-6405D01*
X27427Y-6453D01*
X27439Y-6477D01*
X27462Y-6501D01*
X27498Y-6513D01*
X27558Y-6513D01*
X27260Y-6263D02*
X27236Y-6263D01*
X27212Y-6274D01*
X27201Y-6286D01*
X27189Y-6310D01*
X27177Y-6358D01*
X27177Y-6417D01*
X27189Y-6465D01*
X27201Y-6489D01*
X27212Y-6501D01*
X27236Y-6513D01*
X27260Y-6513D01*
X27284Y-6501D01*
X27296Y-6489D01*
X27308Y-6465D01*
X27320Y-6417D01*
X27320Y-6358D01*
X27308Y-6310D01*
X27296Y-6286D01*
X27284Y-6274D01*
X27260Y-6263D01*
X26939Y-6513D02*
X27081Y-6513D01*
X27010Y-6513D02*
X27010Y-6263D01*
X27034Y-6298D01*
X27058Y-6322D01*
X27081Y-6334D01*
X26831Y-6489D02*
X26820Y-6501D01*
X26831Y-6513D01*
X26843Y-6501D01*
X26831Y-6489D01*
X26831Y-6513D01*
X26831Y-6358D02*
X26820Y-6370D01*
X26831Y-6382D01*
X26843Y-6370D01*
X26831Y-6358D01*
X26831Y-6382D01*
X26605Y-6346D02*
X26605Y-6513D01*
X26665Y-6251D02*
X26724Y-6429D01*
X26570Y-6429D01*
X44408Y-29013D02*
X44408Y-28763D01*
X44348Y-28763D01*
X44312Y-28774D01*
X44289Y-28798D01*
X44277Y-28822D01*
X44265Y-28870D01*
X44265Y-28905D01*
X44277Y-28953D01*
X44289Y-28977D01*
X44312Y-29001D01*
X44348Y-29013D01*
X44408Y-29013D01*
X44110Y-28763D02*
X44086Y-28763D01*
X44062Y-28774D01*
X44051Y-28786D01*
X44039Y-28810D01*
X44027Y-28858D01*
X44027Y-28917D01*
X44039Y-28965D01*
X44051Y-28989D01*
X44062Y-29001D01*
X44086Y-29013D01*
X44110Y-29013D01*
X44134Y-29001D01*
X44146Y-28989D01*
X44158Y-28965D01*
X44170Y-28917D01*
X44170Y-28858D01*
X44158Y-28810D01*
X44146Y-28786D01*
X44134Y-28774D01*
X44110Y-28763D01*
X43812Y-28846D02*
X43812Y-29013D01*
X43872Y-28751D02*
X43931Y-28929D01*
X43777Y-28929D01*
X43681Y-28989D02*
X43670Y-29001D01*
X43681Y-29013D01*
X43693Y-29001D01*
X43681Y-28989D01*
X43681Y-29013D01*
X43681Y-28858D02*
X43670Y-28870D01*
X43681Y-28882D01*
X43693Y-28870D01*
X43681Y-28858D01*
X43681Y-28882D01*
X43455Y-28763D02*
X43503Y-28763D01*
X43527Y-28774D01*
X43539Y-28786D01*
X43562Y-28822D01*
X43574Y-28870D01*
X43574Y-28965D01*
X43562Y-28989D01*
X43550Y-29001D01*
X43527Y-29013D01*
X43479Y-29013D01*
X43455Y-29001D01*
X43443Y-28989D01*
X43431Y-28965D01*
X43431Y-28905D01*
X43443Y-28882D01*
X43455Y-28870D01*
X43479Y-28858D01*
X43527Y-28858D01*
X43550Y-28870D01*
X43562Y-28882D01*
X43574Y-28905D01*
X48208Y-21513D02*
X48208Y-21263D01*
X48148Y-21263D01*
X48112Y-21274D01*
X48089Y-21298D01*
X48077Y-21322D01*
X48065Y-21370D01*
X48065Y-21405D01*
X48077Y-21453D01*
X48089Y-21477D01*
X48112Y-21501D01*
X48148Y-21513D01*
X48208Y-21513D01*
X47910Y-21263D02*
X47886Y-21263D01*
X47862Y-21274D01*
X47851Y-21286D01*
X47839Y-21310D01*
X47827Y-21358D01*
X47827Y-21417D01*
X47839Y-21465D01*
X47851Y-21489D01*
X47862Y-21501D01*
X47886Y-21513D01*
X47910Y-21513D01*
X47934Y-21501D01*
X47946Y-21489D01*
X47958Y-21465D01*
X47970Y-21417D01*
X47970Y-21358D01*
X47958Y-21310D01*
X47946Y-21286D01*
X47934Y-21274D01*
X47910Y-21263D01*
X47743Y-21263D02*
X47589Y-21263D01*
X47672Y-21358D01*
X47636Y-21358D01*
X47612Y-21370D01*
X47601Y-21382D01*
X47589Y-21405D01*
X47589Y-21465D01*
X47601Y-21489D01*
X47612Y-21501D01*
X47636Y-21513D01*
X47708Y-21513D01*
X47731Y-21501D01*
X47743Y-21489D01*
X47481Y-21489D02*
X47470Y-21501D01*
X47481Y-21513D01*
X47493Y-21501D01*
X47481Y-21489D01*
X47481Y-21513D01*
X47481Y-21358D02*
X47470Y-21370D01*
X47481Y-21382D01*
X47493Y-21370D01*
X47481Y-21358D01*
X47481Y-21382D01*
X47255Y-21263D02*
X47303Y-21263D01*
X47327Y-21274D01*
X47339Y-21286D01*
X47362Y-21322D01*
X47374Y-21370D01*
X47374Y-21465D01*
X47362Y-21489D01*
X47350Y-21501D01*
X47327Y-21513D01*
X47279Y-21513D01*
X47255Y-21501D01*
X47243Y-21489D01*
X47231Y-21465D01*
X47231Y-21405D01*
X47243Y-21382D01*
X47255Y-21370D01*
X47279Y-21358D01*
X47327Y-21358D01*
X47350Y-21370D01*
X47362Y-21382D01*
X47374Y-21405D01*
X46308Y-14013D02*
X46308Y-13763D01*
X46248Y-13763D01*
X46212Y-13774D01*
X46189Y-13798D01*
X46177Y-13822D01*
X46165Y-13870D01*
X46165Y-13905D01*
X46177Y-13953D01*
X46189Y-13977D01*
X46212Y-14001D01*
X46248Y-14013D01*
X46308Y-14013D01*
X46010Y-13763D02*
X45986Y-13763D01*
X45962Y-13774D01*
X45951Y-13786D01*
X45939Y-13810D01*
X45927Y-13858D01*
X45927Y-13917D01*
X45939Y-13965D01*
X45951Y-13989D01*
X45962Y-14001D01*
X45986Y-14013D01*
X46010Y-14013D01*
X46034Y-14001D01*
X46046Y-13989D01*
X46058Y-13965D01*
X46070Y-13917D01*
X46070Y-13858D01*
X46058Y-13810D01*
X46046Y-13786D01*
X46034Y-13774D01*
X46010Y-13763D01*
X45831Y-13786D02*
X45820Y-13774D01*
X45796Y-13763D01*
X45736Y-13763D01*
X45712Y-13774D01*
X45701Y-13786D01*
X45689Y-13810D01*
X45689Y-13834D01*
X45701Y-13870D01*
X45843Y-14013D01*
X45689Y-14013D01*
X45581Y-13989D02*
X45570Y-14001D01*
X45581Y-14013D01*
X45593Y-14001D01*
X45581Y-13989D01*
X45581Y-14013D01*
X45581Y-13858D02*
X45570Y-13870D01*
X45581Y-13882D01*
X45593Y-13870D01*
X45581Y-13858D01*
X45581Y-13882D01*
X45355Y-13763D02*
X45403Y-13763D01*
X45427Y-13774D01*
X45439Y-13786D01*
X45462Y-13822D01*
X45474Y-13870D01*
X45474Y-13965D01*
X45462Y-13989D01*
X45450Y-14001D01*
X45427Y-14013D01*
X45379Y-14013D01*
X45355Y-14001D01*
X45343Y-13989D01*
X45331Y-13965D01*
X45331Y-13905D01*
X45343Y-13882D01*
X45355Y-13870D01*
X45379Y-13858D01*
X45427Y-13858D01*
X45450Y-13870D01*
X45462Y-13882D01*
X45474Y-13905D01*
X42558Y-6513D02*
X42558Y-6263D01*
X42498Y-6263D01*
X42462Y-6274D01*
X42439Y-6298D01*
X42427Y-6322D01*
X42415Y-6370D01*
X42415Y-6405D01*
X42427Y-6453D01*
X42439Y-6477D01*
X42462Y-6501D01*
X42498Y-6513D01*
X42558Y-6513D01*
X42260Y-6263D02*
X42236Y-6263D01*
X42212Y-6274D01*
X42201Y-6286D01*
X42189Y-6310D01*
X42177Y-6358D01*
X42177Y-6417D01*
X42189Y-6465D01*
X42201Y-6489D01*
X42212Y-6501D01*
X42236Y-6513D01*
X42260Y-6513D01*
X42284Y-6501D01*
X42296Y-6489D01*
X42308Y-6465D01*
X42320Y-6417D01*
X42320Y-6358D01*
X42308Y-6310D01*
X42296Y-6286D01*
X42284Y-6274D01*
X42260Y-6263D01*
X41939Y-6513D02*
X42081Y-6513D01*
X42010Y-6513D02*
X42010Y-6263D01*
X42034Y-6298D01*
X42058Y-6322D01*
X42081Y-6334D01*
X41831Y-6489D02*
X41820Y-6501D01*
X41831Y-6513D01*
X41843Y-6501D01*
X41831Y-6489D01*
X41831Y-6513D01*
X41831Y-6358D02*
X41820Y-6370D01*
X41831Y-6382D01*
X41843Y-6370D01*
X41831Y-6358D01*
X41831Y-6382D01*
X41605Y-6263D02*
X41653Y-6263D01*
X41677Y-6274D01*
X41689Y-6286D01*
X41712Y-6322D01*
X41724Y-6370D01*
X41724Y-6465D01*
X41712Y-6489D01*
X41700Y-6501D01*
X41677Y-6513D01*
X41629Y-6513D01*
X41605Y-6501D01*
X41593Y-6489D01*
X41581Y-6465D01*
X41581Y-6405D01*
X41593Y-6382D01*
X41605Y-6370D01*
X41629Y-6358D01*
X41677Y-6358D01*
X41700Y-6370D01*
X41712Y-6382D01*
X41724Y-6405D01*
X21908Y-29013D02*
X21908Y-28763D01*
X21848Y-28763D01*
X21812Y-28774D01*
X21789Y-28798D01*
X21777Y-28822D01*
X21765Y-28870D01*
X21765Y-28905D01*
X21777Y-28953D01*
X21789Y-28977D01*
X21812Y-29001D01*
X21848Y-29013D01*
X21908Y-29013D01*
X21610Y-28763D02*
X21586Y-28763D01*
X21562Y-28774D01*
X21551Y-28786D01*
X21539Y-28810D01*
X21527Y-28858D01*
X21527Y-28917D01*
X21539Y-28965D01*
X21551Y-28989D01*
X21562Y-29001D01*
X21586Y-29013D01*
X21610Y-29013D01*
X21634Y-29001D01*
X21646Y-28989D01*
X21658Y-28965D01*
X21670Y-28917D01*
X21670Y-28858D01*
X21658Y-28810D01*
X21646Y-28786D01*
X21634Y-28774D01*
X21610Y-28763D01*
X21312Y-28846D02*
X21312Y-29013D01*
X21372Y-28751D02*
X21431Y-28929D01*
X21277Y-28929D01*
X21181Y-28989D02*
X21170Y-29001D01*
X21181Y-29013D01*
X21193Y-29001D01*
X21181Y-28989D01*
X21181Y-29013D01*
X21181Y-28858D02*
X21170Y-28870D01*
X21181Y-28882D01*
X21193Y-28870D01*
X21181Y-28858D01*
X21181Y-28882D01*
X21086Y-28763D02*
X20931Y-28763D01*
X21015Y-28858D01*
X20979Y-28858D01*
X20955Y-28870D01*
X20943Y-28882D01*
X20931Y-28905D01*
X20931Y-28965D01*
X20943Y-28989D01*
X20955Y-29001D01*
X20979Y-29013D01*
X21050Y-29013D01*
X21074Y-29001D01*
X21086Y-28989D01*
X14408Y-29013D02*
X14408Y-28763D01*
X14348Y-28763D01*
X14312Y-28774D01*
X14289Y-28798D01*
X14277Y-28822D01*
X14265Y-28870D01*
X14265Y-28905D01*
X14277Y-28953D01*
X14289Y-28977D01*
X14312Y-29001D01*
X14348Y-29013D01*
X14408Y-29013D01*
X14110Y-28763D02*
X14086Y-28763D01*
X14062Y-28774D01*
X14051Y-28786D01*
X14039Y-28810D01*
X14027Y-28858D01*
X14027Y-28917D01*
X14039Y-28965D01*
X14051Y-28989D01*
X14062Y-29001D01*
X14086Y-29013D01*
X14110Y-29013D01*
X14134Y-29001D01*
X14146Y-28989D01*
X14158Y-28965D01*
X14170Y-28917D01*
X14170Y-28858D01*
X14158Y-28810D01*
X14146Y-28786D01*
X14134Y-28774D01*
X14110Y-28763D01*
X13812Y-28846D02*
X13812Y-29013D01*
X13872Y-28751D02*
X13931Y-28929D01*
X13777Y-28929D01*
X13681Y-28989D02*
X13670Y-29001D01*
X13681Y-29013D01*
X13693Y-29001D01*
X13681Y-28989D01*
X13681Y-29013D01*
X13681Y-28858D02*
X13670Y-28870D01*
X13681Y-28882D01*
X13693Y-28870D01*
X13681Y-28858D01*
X13681Y-28882D01*
X13574Y-28786D02*
X13562Y-28774D01*
X13539Y-28763D01*
X13479Y-28763D01*
X13455Y-28774D01*
X13443Y-28786D01*
X13431Y-28810D01*
X13431Y-28834D01*
X13443Y-28870D01*
X13586Y-29013D01*
X13431Y-29013D01*
X25658Y-21513D02*
X25658Y-21263D01*
X25598Y-21263D01*
X25562Y-21274D01*
X25539Y-21298D01*
X25527Y-21322D01*
X25515Y-21370D01*
X25515Y-21405D01*
X25527Y-21453D01*
X25539Y-21477D01*
X25562Y-21501D01*
X25598Y-21513D01*
X25658Y-21513D01*
X25360Y-21263D02*
X25336Y-21263D01*
X25312Y-21274D01*
X25301Y-21286D01*
X25289Y-21310D01*
X25277Y-21358D01*
X25277Y-21417D01*
X25289Y-21465D01*
X25301Y-21489D01*
X25312Y-21501D01*
X25336Y-21513D01*
X25360Y-21513D01*
X25384Y-21501D01*
X25396Y-21489D01*
X25408Y-21465D01*
X25420Y-21417D01*
X25420Y-21358D01*
X25408Y-21310D01*
X25396Y-21286D01*
X25384Y-21274D01*
X25360Y-21263D01*
X25193Y-21263D02*
X25039Y-21263D01*
X25122Y-21358D01*
X25086Y-21358D01*
X25062Y-21370D01*
X25051Y-21382D01*
X25039Y-21405D01*
X25039Y-21465D01*
X25051Y-21489D01*
X25062Y-21501D01*
X25086Y-21513D01*
X25158Y-21513D01*
X25181Y-21501D01*
X25193Y-21489D01*
X24931Y-21489D02*
X24920Y-21501D01*
X24931Y-21513D01*
X24943Y-21501D01*
X24931Y-21489D01*
X24931Y-21513D01*
X24931Y-21358D02*
X24920Y-21370D01*
X24931Y-21382D01*
X24943Y-21370D01*
X24931Y-21358D01*
X24931Y-21382D01*
X24836Y-21263D02*
X24681Y-21263D01*
X24765Y-21358D01*
X24729Y-21358D01*
X24705Y-21370D01*
X24693Y-21382D01*
X24681Y-21405D01*
X24681Y-21465D01*
X24693Y-21489D01*
X24705Y-21501D01*
X24729Y-21513D01*
X24800Y-21513D01*
X24824Y-21501D01*
X24836Y-21489D01*
X23808Y-14013D02*
X23808Y-13763D01*
X23748Y-13763D01*
X23712Y-13774D01*
X23689Y-13798D01*
X23677Y-13822D01*
X23665Y-13870D01*
X23665Y-13905D01*
X23677Y-13953D01*
X23689Y-13977D01*
X23712Y-14001D01*
X23748Y-14013D01*
X23808Y-14013D01*
X23510Y-13763D02*
X23486Y-13763D01*
X23462Y-13774D01*
X23451Y-13786D01*
X23439Y-13810D01*
X23427Y-13858D01*
X23427Y-13917D01*
X23439Y-13965D01*
X23451Y-13989D01*
X23462Y-14001D01*
X23486Y-14013D01*
X23510Y-14013D01*
X23534Y-14001D01*
X23546Y-13989D01*
X23558Y-13965D01*
X23570Y-13917D01*
X23570Y-13858D01*
X23558Y-13810D01*
X23546Y-13786D01*
X23534Y-13774D01*
X23510Y-13763D01*
X23331Y-13786D02*
X23320Y-13774D01*
X23296Y-13763D01*
X23236Y-13763D01*
X23212Y-13774D01*
X23201Y-13786D01*
X23189Y-13810D01*
X23189Y-13834D01*
X23201Y-13870D01*
X23343Y-14013D01*
X23189Y-14013D01*
X23081Y-13989D02*
X23070Y-14001D01*
X23081Y-14013D01*
X23093Y-14001D01*
X23081Y-13989D01*
X23081Y-14013D01*
X23081Y-13858D02*
X23070Y-13870D01*
X23081Y-13882D01*
X23093Y-13870D01*
X23081Y-13858D01*
X23081Y-13882D01*
X22986Y-13763D02*
X22831Y-13763D01*
X22915Y-13858D01*
X22879Y-13858D01*
X22855Y-13870D01*
X22843Y-13882D01*
X22831Y-13905D01*
X22831Y-13965D01*
X22843Y-13989D01*
X22855Y-14001D01*
X22879Y-14013D01*
X22950Y-14013D01*
X22974Y-14001D01*
X22986Y-13989D01*
X18158Y-21513D02*
X18158Y-21263D01*
X18098Y-21263D01*
X18062Y-21274D01*
X18039Y-21298D01*
X18027Y-21322D01*
X18015Y-21370D01*
X18015Y-21405D01*
X18027Y-21453D01*
X18039Y-21477D01*
X18062Y-21501D01*
X18098Y-21513D01*
X18158Y-21513D01*
X17860Y-21263D02*
X17836Y-21263D01*
X17812Y-21274D01*
X17801Y-21286D01*
X17789Y-21310D01*
X17777Y-21358D01*
X17777Y-21417D01*
X17789Y-21465D01*
X17801Y-21489D01*
X17812Y-21501D01*
X17836Y-21513D01*
X17860Y-21513D01*
X17884Y-21501D01*
X17896Y-21489D01*
X17908Y-21465D01*
X17920Y-21417D01*
X17920Y-21358D01*
X17908Y-21310D01*
X17896Y-21286D01*
X17884Y-21274D01*
X17860Y-21263D01*
X17693Y-21263D02*
X17539Y-21263D01*
X17622Y-21358D01*
X17586Y-21358D01*
X17562Y-21370D01*
X17551Y-21382D01*
X17539Y-21405D01*
X17539Y-21465D01*
X17551Y-21489D01*
X17562Y-21501D01*
X17586Y-21513D01*
X17658Y-21513D01*
X17681Y-21501D01*
X17693Y-21489D01*
X17431Y-21489D02*
X17420Y-21501D01*
X17431Y-21513D01*
X17443Y-21501D01*
X17431Y-21489D01*
X17431Y-21513D01*
X17431Y-21358D02*
X17420Y-21370D01*
X17431Y-21382D01*
X17443Y-21370D01*
X17431Y-21358D01*
X17431Y-21382D01*
X17324Y-21286D02*
X17312Y-21274D01*
X17289Y-21263D01*
X17229Y-21263D01*
X17205Y-21274D01*
X17193Y-21286D01*
X17181Y-21310D01*
X17181Y-21334D01*
X17193Y-21370D01*
X17336Y-21513D01*
X17181Y-21513D01*
X16308Y-14013D02*
X16308Y-13763D01*
X16248Y-13763D01*
X16212Y-13774D01*
X16189Y-13798D01*
X16177Y-13822D01*
X16165Y-13870D01*
X16165Y-13905D01*
X16177Y-13953D01*
X16189Y-13977D01*
X16212Y-14001D01*
X16248Y-14013D01*
X16308Y-14013D01*
X16010Y-13763D02*
X15986Y-13763D01*
X15962Y-13774D01*
X15951Y-13786D01*
X15939Y-13810D01*
X15927Y-13858D01*
X15927Y-13917D01*
X15939Y-13965D01*
X15951Y-13989D01*
X15962Y-14001D01*
X15986Y-14013D01*
X16010Y-14013D01*
X16034Y-14001D01*
X16046Y-13989D01*
X16058Y-13965D01*
X16070Y-13917D01*
X16070Y-13858D01*
X16058Y-13810D01*
X16046Y-13786D01*
X16034Y-13774D01*
X16010Y-13763D01*
X15831Y-13786D02*
X15820Y-13774D01*
X15796Y-13763D01*
X15736Y-13763D01*
X15712Y-13774D01*
X15701Y-13786D01*
X15689Y-13810D01*
X15689Y-13834D01*
X15701Y-13870D01*
X15843Y-14013D01*
X15689Y-14013D01*
X15581Y-13989D02*
X15570Y-14001D01*
X15581Y-14013D01*
X15593Y-14001D01*
X15581Y-13989D01*
X15581Y-14013D01*
X15581Y-13858D02*
X15570Y-13870D01*
X15581Y-13882D01*
X15593Y-13870D01*
X15581Y-13858D01*
X15581Y-13882D01*
X15474Y-13786D02*
X15462Y-13774D01*
X15439Y-13763D01*
X15379Y-13763D01*
X15355Y-13774D01*
X15343Y-13786D01*
X15331Y-13810D01*
X15331Y-13834D01*
X15343Y-13870D01*
X15486Y-14013D01*
X15331Y-14013D01*
X20058Y-6513D02*
X20058Y-6263D01*
X19998Y-6263D01*
X19962Y-6274D01*
X19939Y-6298D01*
X19927Y-6322D01*
X19915Y-6370D01*
X19915Y-6405D01*
X19927Y-6453D01*
X19939Y-6477D01*
X19962Y-6501D01*
X19998Y-6513D01*
X20058Y-6513D01*
X19760Y-6263D02*
X19736Y-6263D01*
X19712Y-6274D01*
X19701Y-6286D01*
X19689Y-6310D01*
X19677Y-6358D01*
X19677Y-6417D01*
X19689Y-6465D01*
X19701Y-6489D01*
X19712Y-6501D01*
X19736Y-6513D01*
X19760Y-6513D01*
X19784Y-6501D01*
X19796Y-6489D01*
X19808Y-6465D01*
X19820Y-6417D01*
X19820Y-6358D01*
X19808Y-6310D01*
X19796Y-6286D01*
X19784Y-6274D01*
X19760Y-6263D01*
X19439Y-6513D02*
X19581Y-6513D01*
X19510Y-6513D02*
X19510Y-6263D01*
X19534Y-6298D01*
X19558Y-6322D01*
X19581Y-6334D01*
X19331Y-6489D02*
X19320Y-6501D01*
X19331Y-6513D01*
X19343Y-6501D01*
X19331Y-6489D01*
X19331Y-6513D01*
X19331Y-6358D02*
X19320Y-6370D01*
X19331Y-6382D01*
X19343Y-6370D01*
X19331Y-6358D01*
X19331Y-6382D01*
X19236Y-6263D02*
X19081Y-6263D01*
X19165Y-6358D01*
X19129Y-6358D01*
X19105Y-6370D01*
X19093Y-6382D01*
X19081Y-6405D01*
X19081Y-6465D01*
X19093Y-6489D01*
X19105Y-6501D01*
X19129Y-6513D01*
X19200Y-6513D01*
X19224Y-6501D01*
X19236Y-6489D01*
X97027Y-6513D02*
X97027Y-6263D01*
X96967Y-6263D01*
X96931Y-6274D01*
X96908Y-6298D01*
X96896Y-6322D01*
X96884Y-6370D01*
X96884Y-6405D01*
X96896Y-6453D01*
X96908Y-6477D01*
X96931Y-6501D01*
X96967Y-6513D01*
X97027Y-6513D01*
X96729Y-6263D02*
X96705Y-6263D01*
X96681Y-6274D01*
X96670Y-6286D01*
X96658Y-6310D01*
X96646Y-6358D01*
X96646Y-6417D01*
X96658Y-6465D01*
X96670Y-6489D01*
X96681Y-6501D01*
X96705Y-6513D01*
X96729Y-6513D01*
X96753Y-6501D01*
X96765Y-6489D01*
X96777Y-6465D01*
X96789Y-6417D01*
X96789Y-6358D01*
X96777Y-6310D01*
X96765Y-6286D01*
X96753Y-6274D01*
X96729Y-6263D01*
X96408Y-6513D02*
X96551Y-6513D01*
X96479Y-6513D02*
X96479Y-6263D01*
X96503Y-6298D01*
X96527Y-6322D01*
X96551Y-6334D01*
X96301Y-6489D02*
X96289Y-6501D01*
X96301Y-6513D01*
X96312Y-6501D01*
X96301Y-6489D01*
X96301Y-6513D01*
X96301Y-6358D02*
X96289Y-6370D01*
X96301Y-6382D01*
X96312Y-6370D01*
X96301Y-6358D01*
X96301Y-6382D01*
X96050Y-6513D02*
X96193Y-6513D01*
X96122Y-6513D02*
X96122Y-6263D01*
X96146Y-6298D01*
X96170Y-6322D01*
X96193Y-6334D01*
X95967Y-6263D02*
X95812Y-6263D01*
X95896Y-6358D01*
X95860Y-6358D01*
X95836Y-6370D01*
X95824Y-6382D01*
X95812Y-6405D01*
X95812Y-6465D01*
X95824Y-6489D01*
X95836Y-6501D01*
X95860Y-6513D01*
X95931Y-6513D01*
X95955Y-6501D01*
X95967Y-6489D01*
X76427Y-36513D02*
X76427Y-36263D01*
X76367Y-36263D01*
X76331Y-36274D01*
X76308Y-36298D01*
X76296Y-36322D01*
X76284Y-36370D01*
X76284Y-36405D01*
X76296Y-36453D01*
X76308Y-36477D01*
X76331Y-36501D01*
X76367Y-36513D01*
X76427Y-36513D01*
X76129Y-36263D02*
X76105Y-36263D01*
X76081Y-36274D01*
X76070Y-36286D01*
X76058Y-36310D01*
X76046Y-36358D01*
X76046Y-36417D01*
X76058Y-36465D01*
X76070Y-36489D01*
X76081Y-36501D01*
X76105Y-36513D01*
X76129Y-36513D01*
X76153Y-36501D01*
X76165Y-36489D01*
X76177Y-36465D01*
X76189Y-36417D01*
X76189Y-36358D01*
X76177Y-36310D01*
X76165Y-36286D01*
X76153Y-36274D01*
X76129Y-36263D01*
X75820Y-36263D02*
X75939Y-36263D01*
X75951Y-36382D01*
X75939Y-36370D01*
X75915Y-36358D01*
X75855Y-36358D01*
X75831Y-36370D01*
X75820Y-36382D01*
X75808Y-36405D01*
X75808Y-36465D01*
X75820Y-36489D01*
X75831Y-36501D01*
X75855Y-36513D01*
X75915Y-36513D01*
X75939Y-36501D01*
X75951Y-36489D01*
X75701Y-36489D02*
X75689Y-36501D01*
X75701Y-36513D01*
X75712Y-36501D01*
X75701Y-36489D01*
X75701Y-36513D01*
X75701Y-36358D02*
X75689Y-36370D01*
X75701Y-36382D01*
X75712Y-36370D01*
X75701Y-36358D01*
X75701Y-36382D01*
X75450Y-36513D02*
X75593Y-36513D01*
X75522Y-36513D02*
X75522Y-36263D01*
X75546Y-36298D01*
X75570Y-36322D01*
X75593Y-36334D01*
X75296Y-36263D02*
X75272Y-36263D01*
X75248Y-36274D01*
X75236Y-36286D01*
X75224Y-36310D01*
X75212Y-36358D01*
X75212Y-36417D01*
X75224Y-36465D01*
X75236Y-36489D01*
X75248Y-36501D01*
X75272Y-36513D01*
X75296Y-36513D01*
X75320Y-36501D01*
X75331Y-36489D01*
X75343Y-36465D01*
X75355Y-36417D01*
X75355Y-36358D01*
X75343Y-36310D01*
X75331Y-36286D01*
X75320Y-36274D01*
X75296Y-36263D01*
X67858Y-36513D02*
X67858Y-36263D01*
X67798Y-36263D01*
X67762Y-36274D01*
X67739Y-36298D01*
X67727Y-36322D01*
X67715Y-36370D01*
X67715Y-36405D01*
X67727Y-36453D01*
X67739Y-36477D01*
X67762Y-36501D01*
X67798Y-36513D01*
X67858Y-36513D01*
X67560Y-36263D02*
X67536Y-36263D01*
X67512Y-36274D01*
X67501Y-36286D01*
X67489Y-36310D01*
X67477Y-36358D01*
X67477Y-36417D01*
X67489Y-36465D01*
X67501Y-36489D01*
X67512Y-36501D01*
X67536Y-36513D01*
X67560Y-36513D01*
X67584Y-36501D01*
X67596Y-36489D01*
X67608Y-36465D01*
X67620Y-36417D01*
X67620Y-36358D01*
X67608Y-36310D01*
X67596Y-36286D01*
X67584Y-36274D01*
X67560Y-36263D01*
X67251Y-36263D02*
X67370Y-36263D01*
X67381Y-36382D01*
X67370Y-36370D01*
X67346Y-36358D01*
X67286Y-36358D01*
X67262Y-36370D01*
X67251Y-36382D01*
X67239Y-36405D01*
X67239Y-36465D01*
X67251Y-36489D01*
X67262Y-36501D01*
X67286Y-36513D01*
X67346Y-36513D01*
X67370Y-36501D01*
X67381Y-36489D01*
X67131Y-36489D02*
X67120Y-36501D01*
X67131Y-36513D01*
X67143Y-36501D01*
X67131Y-36489D01*
X67131Y-36513D01*
X67131Y-36358D02*
X67120Y-36370D01*
X67131Y-36382D01*
X67143Y-36370D01*
X67131Y-36358D01*
X67131Y-36382D01*
X67000Y-36513D02*
X66953Y-36513D01*
X66929Y-36501D01*
X66917Y-36489D01*
X66893Y-36453D01*
X66881Y-36405D01*
X66881Y-36310D01*
X66893Y-36286D01*
X66905Y-36274D01*
X66929Y-36263D01*
X66977Y-36263D01*
X67000Y-36274D01*
X67012Y-36286D01*
X67024Y-36310D01*
X67024Y-36370D01*
X67012Y-36394D01*
X67000Y-36405D01*
X66977Y-36417D01*
X66929Y-36417D01*
X66905Y-36405D01*
X66893Y-36394D01*
X66881Y-36370D01*
X29408Y-36513D02*
X29408Y-36263D01*
X29348Y-36263D01*
X29312Y-36274D01*
X29289Y-36298D01*
X29277Y-36322D01*
X29265Y-36370D01*
X29265Y-36405D01*
X29277Y-36453D01*
X29289Y-36477D01*
X29312Y-36501D01*
X29348Y-36513D01*
X29408Y-36513D01*
X29110Y-36263D02*
X29086Y-36263D01*
X29062Y-36274D01*
X29051Y-36286D01*
X29039Y-36310D01*
X29027Y-36358D01*
X29027Y-36417D01*
X29039Y-36465D01*
X29051Y-36489D01*
X29062Y-36501D01*
X29086Y-36513D01*
X29110Y-36513D01*
X29134Y-36501D01*
X29146Y-36489D01*
X29158Y-36465D01*
X29170Y-36417D01*
X29170Y-36358D01*
X29158Y-36310D01*
X29146Y-36286D01*
X29134Y-36274D01*
X29110Y-36263D01*
X28801Y-36263D02*
X28920Y-36263D01*
X28931Y-36382D01*
X28920Y-36370D01*
X28896Y-36358D01*
X28836Y-36358D01*
X28812Y-36370D01*
X28801Y-36382D01*
X28789Y-36405D01*
X28789Y-36465D01*
X28801Y-36489D01*
X28812Y-36501D01*
X28836Y-36513D01*
X28896Y-36513D01*
X28920Y-36501D01*
X28931Y-36489D01*
X28681Y-36489D02*
X28670Y-36501D01*
X28681Y-36513D01*
X28693Y-36501D01*
X28681Y-36489D01*
X28681Y-36513D01*
X28681Y-36358D02*
X28670Y-36370D01*
X28681Y-36382D01*
X28693Y-36370D01*
X28681Y-36358D01*
X28681Y-36382D01*
X28455Y-36346D02*
X28455Y-36513D01*
X28515Y-36251D02*
X28574Y-36429D01*
X28420Y-36429D01*
X37858Y-36513D02*
X37858Y-36263D01*
X37798Y-36263D01*
X37762Y-36274D01*
X37739Y-36298D01*
X37727Y-36322D01*
X37715Y-36370D01*
X37715Y-36405D01*
X37727Y-36453D01*
X37739Y-36477D01*
X37762Y-36501D01*
X37798Y-36513D01*
X37858Y-36513D01*
X37560Y-36263D02*
X37536Y-36263D01*
X37512Y-36274D01*
X37501Y-36286D01*
X37489Y-36310D01*
X37477Y-36358D01*
X37477Y-36417D01*
X37489Y-36465D01*
X37501Y-36489D01*
X37512Y-36501D01*
X37536Y-36513D01*
X37560Y-36513D01*
X37584Y-36501D01*
X37596Y-36489D01*
X37608Y-36465D01*
X37620Y-36417D01*
X37620Y-36358D01*
X37608Y-36310D01*
X37596Y-36286D01*
X37584Y-36274D01*
X37560Y-36263D01*
X37251Y-36263D02*
X37370Y-36263D01*
X37381Y-36382D01*
X37370Y-36370D01*
X37346Y-36358D01*
X37286Y-36358D01*
X37262Y-36370D01*
X37251Y-36382D01*
X37239Y-36405D01*
X37239Y-36465D01*
X37251Y-36489D01*
X37262Y-36501D01*
X37286Y-36513D01*
X37346Y-36513D01*
X37370Y-36501D01*
X37381Y-36489D01*
X37131Y-36489D02*
X37120Y-36501D01*
X37131Y-36513D01*
X37143Y-36501D01*
X37131Y-36489D01*
X37131Y-36513D01*
X37131Y-36358D02*
X37120Y-36370D01*
X37131Y-36382D01*
X37143Y-36370D01*
X37131Y-36358D01*
X37131Y-36382D01*
X36893Y-36263D02*
X37012Y-36263D01*
X37024Y-36382D01*
X37012Y-36370D01*
X36989Y-36358D01*
X36929Y-36358D01*
X36905Y-36370D01*
X36893Y-36382D01*
X36881Y-36405D01*
X36881Y-36465D01*
X36893Y-36489D01*
X36905Y-36501D01*
X36929Y-36513D01*
X36989Y-36513D01*
X37012Y-36501D01*
X37024Y-36489D01*
X5958Y-29013D02*
X5958Y-28763D01*
X5898Y-28763D01*
X5862Y-28774D01*
X5839Y-28798D01*
X5827Y-28822D01*
X5815Y-28870D01*
X5815Y-28905D01*
X5827Y-28953D01*
X5839Y-28977D01*
X5862Y-29001D01*
X5898Y-29013D01*
X5958Y-29013D01*
X5660Y-28763D02*
X5636Y-28763D01*
X5612Y-28774D01*
X5601Y-28786D01*
X5589Y-28810D01*
X5577Y-28858D01*
X5577Y-28917D01*
X5589Y-28965D01*
X5601Y-28989D01*
X5612Y-29001D01*
X5636Y-29013D01*
X5660Y-29013D01*
X5684Y-29001D01*
X5696Y-28989D01*
X5708Y-28965D01*
X5720Y-28917D01*
X5720Y-28858D01*
X5708Y-28810D01*
X5696Y-28786D01*
X5684Y-28774D01*
X5660Y-28763D01*
X5362Y-28846D02*
X5362Y-29013D01*
X5422Y-28751D02*
X5481Y-28929D01*
X5327Y-28929D01*
X5231Y-28989D02*
X5220Y-29001D01*
X5231Y-29013D01*
X5243Y-29001D01*
X5231Y-28989D01*
X5231Y-29013D01*
X5231Y-28858D02*
X5220Y-28870D01*
X5231Y-28882D01*
X5243Y-28870D01*
X5231Y-28858D01*
X5231Y-28882D01*
X4981Y-29013D02*
X5124Y-29013D01*
X5053Y-29013D02*
X5053Y-28763D01*
X5077Y-28798D01*
X5100Y-28822D01*
X5124Y-28834D01*
X7858Y-21513D02*
X7858Y-21263D01*
X7798Y-21263D01*
X7762Y-21274D01*
X7739Y-21298D01*
X7727Y-21322D01*
X7715Y-21370D01*
X7715Y-21405D01*
X7727Y-21453D01*
X7739Y-21477D01*
X7762Y-21501D01*
X7798Y-21513D01*
X7858Y-21513D01*
X7560Y-21263D02*
X7536Y-21263D01*
X7512Y-21274D01*
X7501Y-21286D01*
X7489Y-21310D01*
X7477Y-21358D01*
X7477Y-21417D01*
X7489Y-21465D01*
X7501Y-21489D01*
X7512Y-21501D01*
X7536Y-21513D01*
X7560Y-21513D01*
X7584Y-21501D01*
X7596Y-21489D01*
X7608Y-21465D01*
X7620Y-21417D01*
X7620Y-21358D01*
X7608Y-21310D01*
X7596Y-21286D01*
X7584Y-21274D01*
X7560Y-21263D01*
X7393Y-21263D02*
X7239Y-21263D01*
X7322Y-21358D01*
X7286Y-21358D01*
X7262Y-21370D01*
X7251Y-21382D01*
X7239Y-21405D01*
X7239Y-21465D01*
X7251Y-21489D01*
X7262Y-21501D01*
X7286Y-21513D01*
X7358Y-21513D01*
X7381Y-21501D01*
X7393Y-21489D01*
X7131Y-21489D02*
X7120Y-21501D01*
X7131Y-21513D01*
X7143Y-21501D01*
X7131Y-21489D01*
X7131Y-21513D01*
X7131Y-21358D02*
X7120Y-21370D01*
X7131Y-21382D01*
X7143Y-21370D01*
X7131Y-21358D01*
X7131Y-21382D01*
X6881Y-21513D02*
X7024Y-21513D01*
X6953Y-21513D02*
X6953Y-21263D01*
X6977Y-21298D01*
X7000Y-21322D01*
X7024Y-21334D01*
X21908Y-36513D02*
X21908Y-36263D01*
X21848Y-36263D01*
X21812Y-36274D01*
X21789Y-36298D01*
X21777Y-36322D01*
X21765Y-36370D01*
X21765Y-36405D01*
X21777Y-36453D01*
X21789Y-36477D01*
X21812Y-36501D01*
X21848Y-36513D01*
X21908Y-36513D01*
X21610Y-36263D02*
X21586Y-36263D01*
X21562Y-36274D01*
X21551Y-36286D01*
X21539Y-36310D01*
X21527Y-36358D01*
X21527Y-36417D01*
X21539Y-36465D01*
X21551Y-36489D01*
X21562Y-36501D01*
X21586Y-36513D01*
X21610Y-36513D01*
X21634Y-36501D01*
X21646Y-36489D01*
X21658Y-36465D01*
X21670Y-36417D01*
X21670Y-36358D01*
X21658Y-36310D01*
X21646Y-36286D01*
X21634Y-36274D01*
X21610Y-36263D01*
X21301Y-36263D02*
X21420Y-36263D01*
X21431Y-36382D01*
X21420Y-36370D01*
X21396Y-36358D01*
X21336Y-36358D01*
X21312Y-36370D01*
X21301Y-36382D01*
X21289Y-36405D01*
X21289Y-36465D01*
X21301Y-36489D01*
X21312Y-36501D01*
X21336Y-36513D01*
X21396Y-36513D01*
X21420Y-36501D01*
X21431Y-36489D01*
X21181Y-36489D02*
X21170Y-36501D01*
X21181Y-36513D01*
X21193Y-36501D01*
X21181Y-36489D01*
X21181Y-36513D01*
X21181Y-36358D02*
X21170Y-36370D01*
X21181Y-36382D01*
X21193Y-36370D01*
X21181Y-36358D01*
X21181Y-36382D01*
X21086Y-36263D02*
X20931Y-36263D01*
X21015Y-36358D01*
X20979Y-36358D01*
X20955Y-36370D01*
X20943Y-36382D01*
X20931Y-36405D01*
X20931Y-36465D01*
X20943Y-36489D01*
X20955Y-36501D01*
X20979Y-36513D01*
X21050Y-36513D01*
X21074Y-36501D01*
X21086Y-36489D01*
X14408Y-36513D02*
X14408Y-36263D01*
X14348Y-36263D01*
X14312Y-36274D01*
X14289Y-36298D01*
X14277Y-36322D01*
X14265Y-36370D01*
X14265Y-36405D01*
X14277Y-36453D01*
X14289Y-36477D01*
X14312Y-36501D01*
X14348Y-36513D01*
X14408Y-36513D01*
X14110Y-36263D02*
X14086Y-36263D01*
X14062Y-36274D01*
X14051Y-36286D01*
X14039Y-36310D01*
X14027Y-36358D01*
X14027Y-36417D01*
X14039Y-36465D01*
X14051Y-36489D01*
X14062Y-36501D01*
X14086Y-36513D01*
X14110Y-36513D01*
X14134Y-36501D01*
X14146Y-36489D01*
X14158Y-36465D01*
X14170Y-36417D01*
X14170Y-36358D01*
X14158Y-36310D01*
X14146Y-36286D01*
X14134Y-36274D01*
X14110Y-36263D01*
X13801Y-36263D02*
X13920Y-36263D01*
X13931Y-36382D01*
X13920Y-36370D01*
X13896Y-36358D01*
X13836Y-36358D01*
X13812Y-36370D01*
X13801Y-36382D01*
X13789Y-36405D01*
X13789Y-36465D01*
X13801Y-36489D01*
X13812Y-36501D01*
X13836Y-36513D01*
X13896Y-36513D01*
X13920Y-36501D01*
X13931Y-36489D01*
X13681Y-36489D02*
X13670Y-36501D01*
X13681Y-36513D01*
X13693Y-36501D01*
X13681Y-36489D01*
X13681Y-36513D01*
X13681Y-36358D02*
X13670Y-36370D01*
X13681Y-36382D01*
X13693Y-36370D01*
X13681Y-36358D01*
X13681Y-36382D01*
X13574Y-36286D02*
X13562Y-36274D01*
X13539Y-36263D01*
X13479Y-36263D01*
X13455Y-36274D01*
X13443Y-36286D01*
X13431Y-36310D01*
X13431Y-36334D01*
X13443Y-36370D01*
X13586Y-36513D01*
X13431Y-36513D01*
X5958Y-36513D02*
X5958Y-36263D01*
X5898Y-36263D01*
X5862Y-36274D01*
X5839Y-36298D01*
X5827Y-36322D01*
X5815Y-36370D01*
X5815Y-36405D01*
X5827Y-36453D01*
X5839Y-36477D01*
X5862Y-36501D01*
X5898Y-36513D01*
X5958Y-36513D01*
X5660Y-36263D02*
X5636Y-36263D01*
X5612Y-36274D01*
X5601Y-36286D01*
X5589Y-36310D01*
X5577Y-36358D01*
X5577Y-36417D01*
X5589Y-36465D01*
X5601Y-36489D01*
X5612Y-36501D01*
X5636Y-36513D01*
X5660Y-36513D01*
X5684Y-36501D01*
X5696Y-36489D01*
X5708Y-36465D01*
X5720Y-36417D01*
X5720Y-36358D01*
X5708Y-36310D01*
X5696Y-36286D01*
X5684Y-36274D01*
X5660Y-36263D01*
X5351Y-36263D02*
X5470Y-36263D01*
X5481Y-36382D01*
X5470Y-36370D01*
X5446Y-36358D01*
X5386Y-36358D01*
X5362Y-36370D01*
X5351Y-36382D01*
X5339Y-36405D01*
X5339Y-36465D01*
X5351Y-36489D01*
X5362Y-36501D01*
X5386Y-36513D01*
X5446Y-36513D01*
X5470Y-36501D01*
X5481Y-36489D01*
X5231Y-36489D02*
X5220Y-36501D01*
X5231Y-36513D01*
X5243Y-36501D01*
X5231Y-36489D01*
X5231Y-36513D01*
X5231Y-36358D02*
X5220Y-36370D01*
X5231Y-36382D01*
X5243Y-36370D01*
X5231Y-36358D01*
X5231Y-36382D01*
X4981Y-36513D02*
X5124Y-36513D01*
X5053Y-36513D02*
X5053Y-36263D01*
X5077Y-36298D01*
X5100Y-36322D01*
X5124Y-36334D01*
X59408Y-29013D02*
X59408Y-28763D01*
X59348Y-28763D01*
X59312Y-28774D01*
X59289Y-28798D01*
X59277Y-28822D01*
X59265Y-28870D01*
X59265Y-28905D01*
X59277Y-28953D01*
X59289Y-28977D01*
X59312Y-29001D01*
X59348Y-29013D01*
X59408Y-29013D01*
X59110Y-28763D02*
X59086Y-28763D01*
X59062Y-28774D01*
X59051Y-28786D01*
X59039Y-28810D01*
X59027Y-28858D01*
X59027Y-28917D01*
X59039Y-28965D01*
X59051Y-28989D01*
X59062Y-29001D01*
X59086Y-29013D01*
X59110Y-29013D01*
X59134Y-29001D01*
X59146Y-28989D01*
X59158Y-28965D01*
X59170Y-28917D01*
X59170Y-28858D01*
X59158Y-28810D01*
X59146Y-28786D01*
X59134Y-28774D01*
X59110Y-28763D01*
X58812Y-28846D02*
X58812Y-29013D01*
X58872Y-28751D02*
X58931Y-28929D01*
X58777Y-28929D01*
X58681Y-28989D02*
X58670Y-29001D01*
X58681Y-29013D01*
X58693Y-29001D01*
X58681Y-28989D01*
X58681Y-29013D01*
X58681Y-28858D02*
X58670Y-28870D01*
X58681Y-28882D01*
X58693Y-28870D01*
X58681Y-28858D01*
X58681Y-28882D01*
X58527Y-28870D02*
X58550Y-28858D01*
X58562Y-28846D01*
X58574Y-28822D01*
X58574Y-28810D01*
X58562Y-28786D01*
X58550Y-28774D01*
X58527Y-28763D01*
X58479Y-28763D01*
X58455Y-28774D01*
X58443Y-28786D01*
X58431Y-28810D01*
X58431Y-28822D01*
X58443Y-28846D01*
X58455Y-28858D01*
X58479Y-28870D01*
X58527Y-28870D01*
X58550Y-28882D01*
X58562Y-28894D01*
X58574Y-28917D01*
X58574Y-28965D01*
X58562Y-28989D01*
X58550Y-29001D01*
X58527Y-29013D01*
X58479Y-29013D01*
X58455Y-29001D01*
X58443Y-28989D01*
X58431Y-28965D01*
X58431Y-28917D01*
X58443Y-28894D01*
X58455Y-28882D01*
X58479Y-28870D01*
X51908Y-29013D02*
X51908Y-28763D01*
X51848Y-28763D01*
X51812Y-28774D01*
X51789Y-28798D01*
X51777Y-28822D01*
X51765Y-28870D01*
X51765Y-28905D01*
X51777Y-28953D01*
X51789Y-28977D01*
X51812Y-29001D01*
X51848Y-29013D01*
X51908Y-29013D01*
X51610Y-28763D02*
X51586Y-28763D01*
X51562Y-28774D01*
X51551Y-28786D01*
X51539Y-28810D01*
X51527Y-28858D01*
X51527Y-28917D01*
X51539Y-28965D01*
X51551Y-28989D01*
X51562Y-29001D01*
X51586Y-29013D01*
X51610Y-29013D01*
X51634Y-29001D01*
X51646Y-28989D01*
X51658Y-28965D01*
X51670Y-28917D01*
X51670Y-28858D01*
X51658Y-28810D01*
X51646Y-28786D01*
X51634Y-28774D01*
X51610Y-28763D01*
X51312Y-28846D02*
X51312Y-29013D01*
X51372Y-28751D02*
X51431Y-28929D01*
X51277Y-28929D01*
X51181Y-28989D02*
X51170Y-29001D01*
X51181Y-29013D01*
X51193Y-29001D01*
X51181Y-28989D01*
X51181Y-29013D01*
X51181Y-28858D02*
X51170Y-28870D01*
X51181Y-28882D01*
X51193Y-28870D01*
X51181Y-28858D01*
X51181Y-28882D01*
X51086Y-28763D02*
X50920Y-28763D01*
X51027Y-29013D01*
X36908Y-29013D02*
X36908Y-28763D01*
X36848Y-28763D01*
X36812Y-28774D01*
X36789Y-28798D01*
X36777Y-28822D01*
X36765Y-28870D01*
X36765Y-28905D01*
X36777Y-28953D01*
X36789Y-28977D01*
X36812Y-29001D01*
X36848Y-29013D01*
X36908Y-29013D01*
X36610Y-28763D02*
X36586Y-28763D01*
X36562Y-28774D01*
X36551Y-28786D01*
X36539Y-28810D01*
X36527Y-28858D01*
X36527Y-28917D01*
X36539Y-28965D01*
X36551Y-28989D01*
X36562Y-29001D01*
X36586Y-29013D01*
X36610Y-29013D01*
X36634Y-29001D01*
X36646Y-28989D01*
X36658Y-28965D01*
X36670Y-28917D01*
X36670Y-28858D01*
X36658Y-28810D01*
X36646Y-28786D01*
X36634Y-28774D01*
X36610Y-28763D01*
X36312Y-28846D02*
X36312Y-29013D01*
X36372Y-28751D02*
X36431Y-28929D01*
X36277Y-28929D01*
X36181Y-28989D02*
X36170Y-29001D01*
X36181Y-29013D01*
X36193Y-29001D01*
X36181Y-28989D01*
X36181Y-29013D01*
X36181Y-28858D02*
X36170Y-28870D01*
X36181Y-28882D01*
X36193Y-28870D01*
X36181Y-28858D01*
X36181Y-28882D01*
X35943Y-28763D02*
X36062Y-28763D01*
X36074Y-28882D01*
X36062Y-28870D01*
X36039Y-28858D01*
X35979Y-28858D01*
X35955Y-28870D01*
X35943Y-28882D01*
X35931Y-28905D01*
X35931Y-28965D01*
X35943Y-28989D01*
X35955Y-29001D01*
X35979Y-29013D01*
X36039Y-29013D01*
X36062Y-29001D01*
X36074Y-28989D01*
X87677Y-6513D02*
X87677Y-6263D01*
X87617Y-6263D01*
X87581Y-6274D01*
X87558Y-6298D01*
X87546Y-6322D01*
X87534Y-6370D01*
X87534Y-6405D01*
X87546Y-6453D01*
X87558Y-6477D01*
X87581Y-6501D01*
X87617Y-6513D01*
X87677Y-6513D01*
X87379Y-6263D02*
X87355Y-6263D01*
X87331Y-6274D01*
X87320Y-6286D01*
X87308Y-6310D01*
X87296Y-6358D01*
X87296Y-6417D01*
X87308Y-6465D01*
X87320Y-6489D01*
X87331Y-6501D01*
X87355Y-6513D01*
X87379Y-6513D01*
X87403Y-6501D01*
X87415Y-6489D01*
X87427Y-6465D01*
X87439Y-6417D01*
X87439Y-6358D01*
X87427Y-6310D01*
X87415Y-6286D01*
X87403Y-6274D01*
X87379Y-6263D01*
X87058Y-6513D02*
X87201Y-6513D01*
X87129Y-6513D02*
X87129Y-6263D01*
X87153Y-6298D01*
X87177Y-6322D01*
X87201Y-6334D01*
X86951Y-6489D02*
X86939Y-6501D01*
X86951Y-6513D01*
X86962Y-6501D01*
X86951Y-6489D01*
X86951Y-6513D01*
X86951Y-6358D02*
X86939Y-6370D01*
X86951Y-6382D01*
X86962Y-6370D01*
X86951Y-6358D01*
X86951Y-6382D01*
X86700Y-6513D02*
X86843Y-6513D01*
X86772Y-6513D02*
X86772Y-6263D01*
X86796Y-6298D01*
X86820Y-6322D01*
X86843Y-6334D01*
X86605Y-6286D02*
X86593Y-6274D01*
X86570Y-6263D01*
X86510Y-6263D01*
X86486Y-6274D01*
X86474Y-6286D01*
X86462Y-6310D01*
X86462Y-6334D01*
X86474Y-6370D01*
X86617Y-6513D01*
X86462Y-6513D01*
X6908Y-14013D02*
X6908Y-13763D01*
X6848Y-13763D01*
X6812Y-13774D01*
X6789Y-13798D01*
X6777Y-13822D01*
X6765Y-13870D01*
X6765Y-13905D01*
X6777Y-13953D01*
X6789Y-13977D01*
X6812Y-14001D01*
X6848Y-14013D01*
X6908Y-14013D01*
X6610Y-13763D02*
X6586Y-13763D01*
X6562Y-13774D01*
X6551Y-13786D01*
X6539Y-13810D01*
X6527Y-13858D01*
X6527Y-13917D01*
X6539Y-13965D01*
X6551Y-13989D01*
X6562Y-14001D01*
X6586Y-14013D01*
X6610Y-14013D01*
X6634Y-14001D01*
X6646Y-13989D01*
X6658Y-13965D01*
X6670Y-13917D01*
X6670Y-13858D01*
X6658Y-13810D01*
X6646Y-13786D01*
X6634Y-13774D01*
X6610Y-13763D01*
X6431Y-13786D02*
X6420Y-13774D01*
X6396Y-13763D01*
X6336Y-13763D01*
X6312Y-13774D01*
X6301Y-13786D01*
X6289Y-13810D01*
X6289Y-13834D01*
X6301Y-13870D01*
X6443Y-14013D01*
X6289Y-14013D01*
X6181Y-13989D02*
X6170Y-14001D01*
X6181Y-14013D01*
X6193Y-14001D01*
X6181Y-13989D01*
X6181Y-14013D01*
X6181Y-13858D02*
X6170Y-13870D01*
X6181Y-13882D01*
X6193Y-13870D01*
X6181Y-13858D01*
X6181Y-13882D01*
X5931Y-14013D02*
X6074Y-14013D01*
X6003Y-14013D02*
X6003Y-13763D01*
X6027Y-13798D01*
X6050Y-13822D01*
X6074Y-13834D01*
X91427Y-14013D02*
X91427Y-13763D01*
X91367Y-13763D01*
X91331Y-13774D01*
X91308Y-13798D01*
X91296Y-13822D01*
X91284Y-13870D01*
X91284Y-13905D01*
X91296Y-13953D01*
X91308Y-13977D01*
X91331Y-14001D01*
X91367Y-14013D01*
X91427Y-14013D01*
X91129Y-13763D02*
X91105Y-13763D01*
X91081Y-13774D01*
X91070Y-13786D01*
X91058Y-13810D01*
X91046Y-13858D01*
X91046Y-13917D01*
X91058Y-13965D01*
X91070Y-13989D01*
X91081Y-14001D01*
X91105Y-14013D01*
X91129Y-14013D01*
X91153Y-14001D01*
X91165Y-13989D01*
X91177Y-13965D01*
X91189Y-13917D01*
X91189Y-13858D01*
X91177Y-13810D01*
X91165Y-13786D01*
X91153Y-13774D01*
X91129Y-13763D01*
X90951Y-13786D02*
X90939Y-13774D01*
X90915Y-13763D01*
X90855Y-13763D01*
X90831Y-13774D01*
X90820Y-13786D01*
X90808Y-13810D01*
X90808Y-13834D01*
X90820Y-13870D01*
X90962Y-14013D01*
X90808Y-14013D01*
X90701Y-13989D02*
X90689Y-14001D01*
X90701Y-14013D01*
X90712Y-14001D01*
X90701Y-13989D01*
X90701Y-14013D01*
X90701Y-13858D02*
X90689Y-13870D01*
X90701Y-13882D01*
X90712Y-13870D01*
X90701Y-13858D01*
X90701Y-13882D01*
X90450Y-14013D02*
X90593Y-14013D01*
X90522Y-14013D02*
X90522Y-13763D01*
X90546Y-13798D01*
X90570Y-13822D01*
X90593Y-13834D01*
X90355Y-13786D02*
X90343Y-13774D01*
X90320Y-13763D01*
X90260Y-13763D01*
X90236Y-13774D01*
X90224Y-13786D01*
X90212Y-13810D01*
X90212Y-13834D01*
X90224Y-13870D01*
X90367Y-14013D01*
X90212Y-14013D01*
X98927Y-14013D02*
X98927Y-13763D01*
X98867Y-13763D01*
X98831Y-13774D01*
X98808Y-13798D01*
X98796Y-13822D01*
X98784Y-13870D01*
X98784Y-13905D01*
X98796Y-13953D01*
X98808Y-13977D01*
X98831Y-14001D01*
X98867Y-14013D01*
X98927Y-14013D01*
X98629Y-13763D02*
X98605Y-13763D01*
X98581Y-13774D01*
X98570Y-13786D01*
X98558Y-13810D01*
X98546Y-13858D01*
X98546Y-13917D01*
X98558Y-13965D01*
X98570Y-13989D01*
X98581Y-14001D01*
X98605Y-14013D01*
X98629Y-14013D01*
X98653Y-14001D01*
X98665Y-13989D01*
X98677Y-13965D01*
X98689Y-13917D01*
X98689Y-13858D01*
X98677Y-13810D01*
X98665Y-13786D01*
X98653Y-13774D01*
X98629Y-13763D01*
X98451Y-13786D02*
X98439Y-13774D01*
X98415Y-13763D01*
X98355Y-13763D01*
X98331Y-13774D01*
X98320Y-13786D01*
X98308Y-13810D01*
X98308Y-13834D01*
X98320Y-13870D01*
X98462Y-14013D01*
X98308Y-14013D01*
X98201Y-13989D02*
X98189Y-14001D01*
X98201Y-14013D01*
X98212Y-14001D01*
X98201Y-13989D01*
X98201Y-14013D01*
X98201Y-13858D02*
X98189Y-13870D01*
X98201Y-13882D01*
X98212Y-13870D01*
X98201Y-13858D01*
X98201Y-13882D01*
X97950Y-14013D02*
X98093Y-14013D01*
X98022Y-14013D02*
X98022Y-13763D01*
X98046Y-13798D01*
X98070Y-13822D01*
X98093Y-13834D01*
X97867Y-13763D02*
X97712Y-13763D01*
X97796Y-13858D01*
X97760Y-13858D01*
X97736Y-13870D01*
X97724Y-13882D01*
X97712Y-13905D01*
X97712Y-13965D01*
X97724Y-13989D01*
X97736Y-14001D01*
X97760Y-14013D01*
X97831Y-14013D01*
X97855Y-14001D01*
X97867Y-13989D01*
X85827Y-21513D02*
X85827Y-21263D01*
X85767Y-21263D01*
X85731Y-21274D01*
X85708Y-21298D01*
X85696Y-21322D01*
X85684Y-21370D01*
X85684Y-21405D01*
X85696Y-21453D01*
X85708Y-21477D01*
X85731Y-21501D01*
X85767Y-21513D01*
X85827Y-21513D01*
X85529Y-21263D02*
X85505Y-21263D01*
X85481Y-21274D01*
X85470Y-21286D01*
X85458Y-21310D01*
X85446Y-21358D01*
X85446Y-21417D01*
X85458Y-21465D01*
X85470Y-21489D01*
X85481Y-21501D01*
X85505Y-21513D01*
X85529Y-21513D01*
X85553Y-21501D01*
X85565Y-21489D01*
X85577Y-21465D01*
X85589Y-21417D01*
X85589Y-21358D01*
X85577Y-21310D01*
X85565Y-21286D01*
X85553Y-21274D01*
X85529Y-21263D01*
X85362Y-21263D02*
X85208Y-21263D01*
X85291Y-21358D01*
X85255Y-21358D01*
X85231Y-21370D01*
X85220Y-21382D01*
X85208Y-21405D01*
X85208Y-21465D01*
X85220Y-21489D01*
X85231Y-21501D01*
X85255Y-21513D01*
X85327Y-21513D01*
X85351Y-21501D01*
X85362Y-21489D01*
X85101Y-21489D02*
X85089Y-21501D01*
X85101Y-21513D01*
X85112Y-21501D01*
X85101Y-21489D01*
X85101Y-21513D01*
X85101Y-21358D02*
X85089Y-21370D01*
X85101Y-21382D01*
X85112Y-21370D01*
X85101Y-21358D01*
X85101Y-21382D01*
X84850Y-21513D02*
X84993Y-21513D01*
X84922Y-21513D02*
X84922Y-21263D01*
X84946Y-21298D01*
X84970Y-21322D01*
X84993Y-21334D01*
X84612Y-21513D02*
X84755Y-21513D01*
X84684Y-21513D02*
X84684Y-21263D01*
X84708Y-21298D01*
X84731Y-21322D01*
X84755Y-21334D01*
X96127Y-21513D02*
X96127Y-21263D01*
X96067Y-21263D01*
X96031Y-21274D01*
X96008Y-21298D01*
X95996Y-21322D01*
X95984Y-21370D01*
X95984Y-21405D01*
X95996Y-21453D01*
X96008Y-21477D01*
X96031Y-21501D01*
X96067Y-21513D01*
X96127Y-21513D01*
X95829Y-21263D02*
X95805Y-21263D01*
X95781Y-21274D01*
X95770Y-21286D01*
X95758Y-21310D01*
X95746Y-21358D01*
X95746Y-21417D01*
X95758Y-21465D01*
X95770Y-21489D01*
X95781Y-21501D01*
X95805Y-21513D01*
X95829Y-21513D01*
X95853Y-21501D01*
X95865Y-21489D01*
X95877Y-21465D01*
X95889Y-21417D01*
X95889Y-21358D01*
X95877Y-21310D01*
X95865Y-21286D01*
X95853Y-21274D01*
X95829Y-21263D01*
X95662Y-21263D02*
X95508Y-21263D01*
X95591Y-21358D01*
X95555Y-21358D01*
X95531Y-21370D01*
X95520Y-21382D01*
X95508Y-21405D01*
X95508Y-21465D01*
X95520Y-21489D01*
X95531Y-21501D01*
X95555Y-21513D01*
X95627Y-21513D01*
X95651Y-21501D01*
X95662Y-21489D01*
X95401Y-21489D02*
X95389Y-21501D01*
X95401Y-21513D01*
X95412Y-21501D01*
X95401Y-21489D01*
X95401Y-21513D01*
X95401Y-21358D02*
X95389Y-21370D01*
X95401Y-21382D01*
X95412Y-21370D01*
X95401Y-21358D01*
X95401Y-21382D01*
X95150Y-21513D02*
X95293Y-21513D01*
X95222Y-21513D02*
X95222Y-21263D01*
X95246Y-21298D01*
X95270Y-21322D01*
X95293Y-21334D01*
X95055Y-21286D02*
X95043Y-21274D01*
X95020Y-21263D01*
X94960Y-21263D01*
X94936Y-21274D01*
X94924Y-21286D01*
X94912Y-21310D01*
X94912Y-21334D01*
X94924Y-21370D01*
X95067Y-21513D01*
X94912Y-21513D01*
X83927Y-36513D02*
X83927Y-36263D01*
X83867Y-36263D01*
X83831Y-36274D01*
X83808Y-36298D01*
X83796Y-36322D01*
X83784Y-36370D01*
X83784Y-36405D01*
X83796Y-36453D01*
X83808Y-36477D01*
X83831Y-36501D01*
X83867Y-36513D01*
X83927Y-36513D01*
X83629Y-36263D02*
X83605Y-36263D01*
X83581Y-36274D01*
X83570Y-36286D01*
X83558Y-36310D01*
X83546Y-36358D01*
X83546Y-36417D01*
X83558Y-36465D01*
X83570Y-36489D01*
X83581Y-36501D01*
X83605Y-36513D01*
X83629Y-36513D01*
X83653Y-36501D01*
X83665Y-36489D01*
X83677Y-36465D01*
X83689Y-36417D01*
X83689Y-36358D01*
X83677Y-36310D01*
X83665Y-36286D01*
X83653Y-36274D01*
X83629Y-36263D01*
X83320Y-36263D02*
X83439Y-36263D01*
X83451Y-36382D01*
X83439Y-36370D01*
X83415Y-36358D01*
X83355Y-36358D01*
X83331Y-36370D01*
X83320Y-36382D01*
X83308Y-36405D01*
X83308Y-36465D01*
X83320Y-36489D01*
X83331Y-36501D01*
X83355Y-36513D01*
X83415Y-36513D01*
X83439Y-36501D01*
X83451Y-36489D01*
X83201Y-36489D02*
X83189Y-36501D01*
X83201Y-36513D01*
X83212Y-36501D01*
X83201Y-36489D01*
X83201Y-36513D01*
X83201Y-36358D02*
X83189Y-36370D01*
X83201Y-36382D01*
X83212Y-36370D01*
X83201Y-36358D01*
X83201Y-36382D01*
X82950Y-36513D02*
X83093Y-36513D01*
X83022Y-36513D02*
X83022Y-36263D01*
X83046Y-36298D01*
X83070Y-36322D01*
X83093Y-36334D01*
X82712Y-36513D02*
X82855Y-36513D01*
X82784Y-36513D02*
X82784Y-36263D01*
X82808Y-36298D01*
X82831Y-36322D01*
X82855Y-36334D01*
X91427Y-36513D02*
X91427Y-36263D01*
X91367Y-36263D01*
X91331Y-36274D01*
X91308Y-36298D01*
X91296Y-36322D01*
X91284Y-36370D01*
X91284Y-36405D01*
X91296Y-36453D01*
X91308Y-36477D01*
X91331Y-36501D01*
X91367Y-36513D01*
X91427Y-36513D01*
X91129Y-36263D02*
X91105Y-36263D01*
X91081Y-36274D01*
X91070Y-36286D01*
X91058Y-36310D01*
X91046Y-36358D01*
X91046Y-36417D01*
X91058Y-36465D01*
X91070Y-36489D01*
X91081Y-36501D01*
X91105Y-36513D01*
X91129Y-36513D01*
X91153Y-36501D01*
X91165Y-36489D01*
X91177Y-36465D01*
X91189Y-36417D01*
X91189Y-36358D01*
X91177Y-36310D01*
X91165Y-36286D01*
X91153Y-36274D01*
X91129Y-36263D01*
X90820Y-36263D02*
X90939Y-36263D01*
X90951Y-36382D01*
X90939Y-36370D01*
X90915Y-36358D01*
X90855Y-36358D01*
X90831Y-36370D01*
X90820Y-36382D01*
X90808Y-36405D01*
X90808Y-36465D01*
X90820Y-36489D01*
X90831Y-36501D01*
X90855Y-36513D01*
X90915Y-36513D01*
X90939Y-36501D01*
X90951Y-36489D01*
X90701Y-36489D02*
X90689Y-36501D01*
X90701Y-36513D01*
X90712Y-36501D01*
X90701Y-36489D01*
X90701Y-36513D01*
X90701Y-36358D02*
X90689Y-36370D01*
X90701Y-36382D01*
X90712Y-36370D01*
X90701Y-36358D01*
X90701Y-36382D01*
X90450Y-36513D02*
X90593Y-36513D01*
X90522Y-36513D02*
X90522Y-36263D01*
X90546Y-36298D01*
X90570Y-36322D01*
X90593Y-36334D01*
X90355Y-36286D02*
X90343Y-36274D01*
X90320Y-36263D01*
X90260Y-36263D01*
X90236Y-36274D01*
X90224Y-36286D01*
X90212Y-36310D01*
X90212Y-36334D01*
X90224Y-36370D01*
X90367Y-36513D01*
X90212Y-36513D01*
X98927Y-36513D02*
X98927Y-36263D01*
X98867Y-36263D01*
X98831Y-36274D01*
X98808Y-36298D01*
X98796Y-36322D01*
X98784Y-36370D01*
X98784Y-36405D01*
X98796Y-36453D01*
X98808Y-36477D01*
X98831Y-36501D01*
X98867Y-36513D01*
X98927Y-36513D01*
X98629Y-36263D02*
X98605Y-36263D01*
X98581Y-36274D01*
X98570Y-36286D01*
X98558Y-36310D01*
X98546Y-36358D01*
X98546Y-36417D01*
X98558Y-36465D01*
X98570Y-36489D01*
X98581Y-36501D01*
X98605Y-36513D01*
X98629Y-36513D01*
X98653Y-36501D01*
X98665Y-36489D01*
X98677Y-36465D01*
X98689Y-36417D01*
X98689Y-36358D01*
X98677Y-36310D01*
X98665Y-36286D01*
X98653Y-36274D01*
X98629Y-36263D01*
X98320Y-36263D02*
X98439Y-36263D01*
X98451Y-36382D01*
X98439Y-36370D01*
X98415Y-36358D01*
X98355Y-36358D01*
X98331Y-36370D01*
X98320Y-36382D01*
X98308Y-36405D01*
X98308Y-36465D01*
X98320Y-36489D01*
X98331Y-36501D01*
X98355Y-36513D01*
X98415Y-36513D01*
X98439Y-36501D01*
X98451Y-36489D01*
X98201Y-36489D02*
X98189Y-36501D01*
X98201Y-36513D01*
X98212Y-36501D01*
X98201Y-36489D01*
X98201Y-36513D01*
X98201Y-36358D02*
X98189Y-36370D01*
X98201Y-36382D01*
X98212Y-36370D01*
X98201Y-36358D01*
X98201Y-36382D01*
X97950Y-36513D02*
X98093Y-36513D01*
X98022Y-36513D02*
X98022Y-36263D01*
X98046Y-36298D01*
X98070Y-36322D01*
X98093Y-36334D01*
X97867Y-36263D02*
X97712Y-36263D01*
X97796Y-36358D01*
X97760Y-36358D01*
X97736Y-36370D01*
X97724Y-36382D01*
X97712Y-36405D01*
X97712Y-36465D01*
X97724Y-36489D01*
X97736Y-36501D01*
X97760Y-36513D01*
X97831Y-36513D01*
X97855Y-36501D01*
X97867Y-36489D01*
X98927Y-29013D02*
X98927Y-28763D01*
X98867Y-28763D01*
X98831Y-28774D01*
X98808Y-28798D01*
X98796Y-28822D01*
X98784Y-28870D01*
X98784Y-28905D01*
X98796Y-28953D01*
X98808Y-28977D01*
X98831Y-29001D01*
X98867Y-29013D01*
X98927Y-29013D01*
X98629Y-28763D02*
X98605Y-28763D01*
X98581Y-28774D01*
X98570Y-28786D01*
X98558Y-28810D01*
X98546Y-28858D01*
X98546Y-28917D01*
X98558Y-28965D01*
X98570Y-28989D01*
X98581Y-29001D01*
X98605Y-29013D01*
X98629Y-29013D01*
X98653Y-29001D01*
X98665Y-28989D01*
X98677Y-28965D01*
X98689Y-28917D01*
X98689Y-28858D01*
X98677Y-28810D01*
X98665Y-28786D01*
X98653Y-28774D01*
X98629Y-28763D01*
X98331Y-28846D02*
X98331Y-29013D01*
X98391Y-28751D02*
X98451Y-28929D01*
X98296Y-28929D01*
X98201Y-28989D02*
X98189Y-29001D01*
X98201Y-29013D01*
X98212Y-29001D01*
X98201Y-28989D01*
X98201Y-29013D01*
X98201Y-28858D02*
X98189Y-28870D01*
X98201Y-28882D01*
X98212Y-28870D01*
X98201Y-28858D01*
X98201Y-28882D01*
X97950Y-29013D02*
X98093Y-29013D01*
X98022Y-29013D02*
X98022Y-28763D01*
X98046Y-28798D01*
X98070Y-28822D01*
X98093Y-28834D01*
X97867Y-28763D02*
X97712Y-28763D01*
X97796Y-28858D01*
X97760Y-28858D01*
X97736Y-28870D01*
X97724Y-28882D01*
X97712Y-28905D01*
X97712Y-28965D01*
X97724Y-28989D01*
X97736Y-29001D01*
X97760Y-29013D01*
X97831Y-29013D01*
X97855Y-29001D01*
X97867Y-28989D01*
X90477Y-29013D02*
X90477Y-28763D01*
X90417Y-28763D01*
X90381Y-28774D01*
X90358Y-28798D01*
X90346Y-28822D01*
X90334Y-28870D01*
X90334Y-28905D01*
X90346Y-28953D01*
X90358Y-28977D01*
X90381Y-29001D01*
X90417Y-29013D01*
X90477Y-29013D01*
X90179Y-28763D02*
X90155Y-28763D01*
X90131Y-28774D01*
X90120Y-28786D01*
X90108Y-28810D01*
X90096Y-28858D01*
X90096Y-28917D01*
X90108Y-28965D01*
X90120Y-28989D01*
X90131Y-29001D01*
X90155Y-29013D01*
X90179Y-29013D01*
X90203Y-29001D01*
X90215Y-28989D01*
X90227Y-28965D01*
X90239Y-28917D01*
X90239Y-28858D01*
X90227Y-28810D01*
X90215Y-28786D01*
X90203Y-28774D01*
X90179Y-28763D01*
X89881Y-28846D02*
X89881Y-29013D01*
X89941Y-28751D02*
X90001Y-28929D01*
X89846Y-28929D01*
X89751Y-28989D02*
X89739Y-29001D01*
X89751Y-29013D01*
X89762Y-29001D01*
X89751Y-28989D01*
X89751Y-29013D01*
X89751Y-28858D02*
X89739Y-28870D01*
X89751Y-28882D01*
X89762Y-28870D01*
X89751Y-28858D01*
X89751Y-28882D01*
X89500Y-29013D02*
X89643Y-29013D01*
X89572Y-29013D02*
X89572Y-28763D01*
X89596Y-28798D01*
X89620Y-28822D01*
X89643Y-28834D01*
X89405Y-28786D02*
X89393Y-28774D01*
X89370Y-28763D01*
X89310Y-28763D01*
X89286Y-28774D01*
X89274Y-28786D01*
X89262Y-28810D01*
X89262Y-28834D01*
X89274Y-28870D01*
X89417Y-29013D01*
X89262Y-29013D01*
X82027Y-29013D02*
X82027Y-28763D01*
X81967Y-28763D01*
X81931Y-28774D01*
X81908Y-28798D01*
X81896Y-28822D01*
X81884Y-28870D01*
X81884Y-28905D01*
X81896Y-28953D01*
X81908Y-28977D01*
X81931Y-29001D01*
X81967Y-29013D01*
X82027Y-29013D01*
X81729Y-28763D02*
X81705Y-28763D01*
X81681Y-28774D01*
X81670Y-28786D01*
X81658Y-28810D01*
X81646Y-28858D01*
X81646Y-28917D01*
X81658Y-28965D01*
X81670Y-28989D01*
X81681Y-29001D01*
X81705Y-29013D01*
X81729Y-29013D01*
X81753Y-29001D01*
X81765Y-28989D01*
X81777Y-28965D01*
X81789Y-28917D01*
X81789Y-28858D01*
X81777Y-28810D01*
X81765Y-28786D01*
X81753Y-28774D01*
X81729Y-28763D01*
X81431Y-28846D02*
X81431Y-29013D01*
X81491Y-28751D02*
X81551Y-28929D01*
X81396Y-28929D01*
X81301Y-28989D02*
X81289Y-29001D01*
X81301Y-29013D01*
X81312Y-29001D01*
X81301Y-28989D01*
X81301Y-29013D01*
X81301Y-28858D02*
X81289Y-28870D01*
X81301Y-28882D01*
X81312Y-28870D01*
X81301Y-28858D01*
X81301Y-28882D01*
X81050Y-29013D02*
X81193Y-29013D01*
X81122Y-29013D02*
X81122Y-28763D01*
X81146Y-28798D01*
X81170Y-28822D01*
X81193Y-28834D01*
X80812Y-29013D02*
X80955Y-29013D01*
X80884Y-29013D02*
X80884Y-28763D01*
X80908Y-28798D01*
X80931Y-28822D01*
X80955Y-28834D01*
X74527Y-29013D02*
X74527Y-28763D01*
X74467Y-28763D01*
X74431Y-28774D01*
X74408Y-28798D01*
X74396Y-28822D01*
X74384Y-28870D01*
X74384Y-28905D01*
X74396Y-28953D01*
X74408Y-28977D01*
X74431Y-29001D01*
X74467Y-29013D01*
X74527Y-29013D01*
X74229Y-28763D02*
X74205Y-28763D01*
X74181Y-28774D01*
X74170Y-28786D01*
X74158Y-28810D01*
X74146Y-28858D01*
X74146Y-28917D01*
X74158Y-28965D01*
X74170Y-28989D01*
X74181Y-29001D01*
X74205Y-29013D01*
X74229Y-29013D01*
X74253Y-29001D01*
X74265Y-28989D01*
X74277Y-28965D01*
X74289Y-28917D01*
X74289Y-28858D01*
X74277Y-28810D01*
X74265Y-28786D01*
X74253Y-28774D01*
X74229Y-28763D01*
X73931Y-28846D02*
X73931Y-29013D01*
X73991Y-28751D02*
X74051Y-28929D01*
X73896Y-28929D01*
X73801Y-28989D02*
X73789Y-29001D01*
X73801Y-29013D01*
X73812Y-29001D01*
X73801Y-28989D01*
X73801Y-29013D01*
X73801Y-28858D02*
X73789Y-28870D01*
X73801Y-28882D01*
X73812Y-28870D01*
X73801Y-28858D01*
X73801Y-28882D01*
X73550Y-29013D02*
X73693Y-29013D01*
X73622Y-29013D02*
X73622Y-28763D01*
X73646Y-28798D01*
X73670Y-28822D01*
X73693Y-28834D01*
X73396Y-28763D02*
X73372Y-28763D01*
X73348Y-28774D01*
X73336Y-28786D01*
X73324Y-28810D01*
X73312Y-28858D01*
X73312Y-28917D01*
X73324Y-28965D01*
X73336Y-28989D01*
X73348Y-29001D01*
X73372Y-29013D01*
X73396Y-29013D01*
X73420Y-29001D01*
X73431Y-28989D01*
X73443Y-28965D01*
X73455Y-28917D01*
X73455Y-28858D01*
X73443Y-28810D01*
X73431Y-28786D01*
X73420Y-28774D01*
X73396Y-28763D01*
X66908Y-29013D02*
X66908Y-28763D01*
X66848Y-28763D01*
X66812Y-28774D01*
X66789Y-28798D01*
X66777Y-28822D01*
X66765Y-28870D01*
X66765Y-28905D01*
X66777Y-28953D01*
X66789Y-28977D01*
X66812Y-29001D01*
X66848Y-29013D01*
X66908Y-29013D01*
X66610Y-28763D02*
X66586Y-28763D01*
X66562Y-28774D01*
X66551Y-28786D01*
X66539Y-28810D01*
X66527Y-28858D01*
X66527Y-28917D01*
X66539Y-28965D01*
X66551Y-28989D01*
X66562Y-29001D01*
X66586Y-29013D01*
X66610Y-29013D01*
X66634Y-29001D01*
X66646Y-28989D01*
X66658Y-28965D01*
X66670Y-28917D01*
X66670Y-28858D01*
X66658Y-28810D01*
X66646Y-28786D01*
X66634Y-28774D01*
X66610Y-28763D01*
X66312Y-28846D02*
X66312Y-29013D01*
X66372Y-28751D02*
X66431Y-28929D01*
X66277Y-28929D01*
X66181Y-28989D02*
X66170Y-29001D01*
X66181Y-29013D01*
X66193Y-29001D01*
X66181Y-28989D01*
X66181Y-29013D01*
X66181Y-28858D02*
X66170Y-28870D01*
X66181Y-28882D01*
X66193Y-28870D01*
X66181Y-28858D01*
X66181Y-28882D01*
X66050Y-29013D02*
X66003Y-29013D01*
X65979Y-29001D01*
X65967Y-28989D01*
X65943Y-28953D01*
X65931Y-28905D01*
X65931Y-28810D01*
X65943Y-28786D01*
X65955Y-28774D01*
X65979Y-28763D01*
X66027Y-28763D01*
X66050Y-28774D01*
X66062Y-28786D01*
X66074Y-28810D01*
X66074Y-28870D01*
X66062Y-28894D01*
X66050Y-28905D01*
X66027Y-28917D01*
X65979Y-28917D01*
X65955Y-28905D01*
X65943Y-28894D01*
X65931Y-28870D01*
X78327Y-21513D02*
X78327Y-21263D01*
X78267Y-21263D01*
X78231Y-21274D01*
X78208Y-21298D01*
X78196Y-21322D01*
X78184Y-21370D01*
X78184Y-21405D01*
X78196Y-21453D01*
X78208Y-21477D01*
X78231Y-21501D01*
X78267Y-21513D01*
X78327Y-21513D01*
X78029Y-21263D02*
X78005Y-21263D01*
X77981Y-21274D01*
X77970Y-21286D01*
X77958Y-21310D01*
X77946Y-21358D01*
X77946Y-21417D01*
X77958Y-21465D01*
X77970Y-21489D01*
X77981Y-21501D01*
X78005Y-21513D01*
X78029Y-21513D01*
X78053Y-21501D01*
X78065Y-21489D01*
X78077Y-21465D01*
X78089Y-21417D01*
X78089Y-21358D01*
X78077Y-21310D01*
X78065Y-21286D01*
X78053Y-21274D01*
X78029Y-21263D01*
X77862Y-21263D02*
X77708Y-21263D01*
X77791Y-21358D01*
X77755Y-21358D01*
X77731Y-21370D01*
X77720Y-21382D01*
X77708Y-21405D01*
X77708Y-21465D01*
X77720Y-21489D01*
X77731Y-21501D01*
X77755Y-21513D01*
X77827Y-21513D01*
X77851Y-21501D01*
X77862Y-21489D01*
X77601Y-21489D02*
X77589Y-21501D01*
X77601Y-21513D01*
X77612Y-21501D01*
X77601Y-21489D01*
X77601Y-21513D01*
X77601Y-21358D02*
X77589Y-21370D01*
X77601Y-21382D01*
X77612Y-21370D01*
X77601Y-21358D01*
X77601Y-21382D01*
X77350Y-21513D02*
X77493Y-21513D01*
X77422Y-21513D02*
X77422Y-21263D01*
X77446Y-21298D01*
X77470Y-21322D01*
X77493Y-21334D01*
X77196Y-21263D02*
X77172Y-21263D01*
X77148Y-21274D01*
X77136Y-21286D01*
X77124Y-21310D01*
X77112Y-21358D01*
X77112Y-21417D01*
X77124Y-21465D01*
X77136Y-21489D01*
X77148Y-21501D01*
X77172Y-21513D01*
X77196Y-21513D01*
X77220Y-21501D01*
X77231Y-21489D01*
X77243Y-21465D01*
X77255Y-21417D01*
X77255Y-21358D01*
X77243Y-21310D01*
X77231Y-21286D01*
X77220Y-21274D01*
X77196Y-21263D01*
X83927Y-14013D02*
X83927Y-13763D01*
X83867Y-13763D01*
X83831Y-13774D01*
X83808Y-13798D01*
X83796Y-13822D01*
X83784Y-13870D01*
X83784Y-13905D01*
X83796Y-13953D01*
X83808Y-13977D01*
X83831Y-14001D01*
X83867Y-14013D01*
X83927Y-14013D01*
X83629Y-13763D02*
X83605Y-13763D01*
X83581Y-13774D01*
X83570Y-13786D01*
X83558Y-13810D01*
X83546Y-13858D01*
X83546Y-13917D01*
X83558Y-13965D01*
X83570Y-13989D01*
X83581Y-14001D01*
X83605Y-14013D01*
X83629Y-14013D01*
X83653Y-14001D01*
X83665Y-13989D01*
X83677Y-13965D01*
X83689Y-13917D01*
X83689Y-13858D01*
X83677Y-13810D01*
X83665Y-13786D01*
X83653Y-13774D01*
X83629Y-13763D01*
X83451Y-13786D02*
X83439Y-13774D01*
X83415Y-13763D01*
X83355Y-13763D01*
X83331Y-13774D01*
X83320Y-13786D01*
X83308Y-13810D01*
X83308Y-13834D01*
X83320Y-13870D01*
X83462Y-14013D01*
X83308Y-14013D01*
X83201Y-13989D02*
X83189Y-14001D01*
X83201Y-14013D01*
X83212Y-14001D01*
X83201Y-13989D01*
X83201Y-14013D01*
X83201Y-13858D02*
X83189Y-13870D01*
X83201Y-13882D01*
X83212Y-13870D01*
X83201Y-13858D01*
X83201Y-13882D01*
X82950Y-14013D02*
X83093Y-14013D01*
X83022Y-14013D02*
X83022Y-13763D01*
X83046Y-13798D01*
X83070Y-13822D01*
X83093Y-13834D01*
X82712Y-14013D02*
X82855Y-14013D01*
X82784Y-14013D02*
X82784Y-13763D01*
X82808Y-13798D01*
X82831Y-13822D01*
X82855Y-13834D01*
X12558Y-6513D02*
X12558Y-6263D01*
X12498Y-6263D01*
X12462Y-6274D01*
X12439Y-6298D01*
X12427Y-6322D01*
X12415Y-6370D01*
X12415Y-6405D01*
X12427Y-6453D01*
X12439Y-6477D01*
X12462Y-6501D01*
X12498Y-6513D01*
X12558Y-6513D01*
X12260Y-6263D02*
X12236Y-6263D01*
X12212Y-6274D01*
X12201Y-6286D01*
X12189Y-6310D01*
X12177Y-6358D01*
X12177Y-6417D01*
X12189Y-6465D01*
X12201Y-6489D01*
X12212Y-6501D01*
X12236Y-6513D01*
X12260Y-6513D01*
X12284Y-6501D01*
X12296Y-6489D01*
X12308Y-6465D01*
X12320Y-6417D01*
X12320Y-6358D01*
X12308Y-6310D01*
X12296Y-6286D01*
X12284Y-6274D01*
X12260Y-6263D01*
X11939Y-6513D02*
X12081Y-6513D01*
X12010Y-6513D02*
X12010Y-6263D01*
X12034Y-6298D01*
X12058Y-6322D01*
X12081Y-6334D01*
X11831Y-6489D02*
X11820Y-6501D01*
X11831Y-6513D01*
X11843Y-6501D01*
X11831Y-6489D01*
X11831Y-6513D01*
X11831Y-6358D02*
X11820Y-6370D01*
X11831Y-6382D01*
X11843Y-6370D01*
X11831Y-6358D01*
X11831Y-6382D01*
X11724Y-6286D02*
X11712Y-6274D01*
X11689Y-6263D01*
X11629Y-6263D01*
X11605Y-6274D01*
X11593Y-6286D01*
X11581Y-6310D01*
X11581Y-6334D01*
X11593Y-6370D01*
X11736Y-6513D01*
X11581Y-6513D01*
X52858Y-36513D02*
X52858Y-36263D01*
X52798Y-36263D01*
X52762Y-36274D01*
X52739Y-36298D01*
X52727Y-36322D01*
X52715Y-36370D01*
X52715Y-36405D01*
X52727Y-36453D01*
X52739Y-36477D01*
X52762Y-36501D01*
X52798Y-36513D01*
X52858Y-36513D01*
X52560Y-36263D02*
X52536Y-36263D01*
X52512Y-36274D01*
X52501Y-36286D01*
X52489Y-36310D01*
X52477Y-36358D01*
X52477Y-36417D01*
X52489Y-36465D01*
X52501Y-36489D01*
X52512Y-36501D01*
X52536Y-36513D01*
X52560Y-36513D01*
X52584Y-36501D01*
X52596Y-36489D01*
X52608Y-36465D01*
X52620Y-36417D01*
X52620Y-36358D01*
X52608Y-36310D01*
X52596Y-36286D01*
X52584Y-36274D01*
X52560Y-36263D01*
X52251Y-36263D02*
X52370Y-36263D01*
X52381Y-36382D01*
X52370Y-36370D01*
X52346Y-36358D01*
X52286Y-36358D01*
X52262Y-36370D01*
X52251Y-36382D01*
X52239Y-36405D01*
X52239Y-36465D01*
X52251Y-36489D01*
X52262Y-36501D01*
X52286Y-36513D01*
X52346Y-36513D01*
X52370Y-36501D01*
X52381Y-36489D01*
X52131Y-36489D02*
X52120Y-36501D01*
X52131Y-36513D01*
X52143Y-36501D01*
X52131Y-36489D01*
X52131Y-36513D01*
X52131Y-36358D02*
X52120Y-36370D01*
X52131Y-36382D01*
X52143Y-36370D01*
X52131Y-36358D01*
X52131Y-36382D01*
X52036Y-36263D02*
X51870Y-36263D01*
X51977Y-36513D01*
G54D17*
X15217Y-17267D02*
X14793Y-16843D01*
X14881Y-17523D02*
X14914Y-17530D01*
X14975Y-17510D01*
X15002Y-17483D01*
X15022Y-17422D01*
X15009Y-17355D01*
X14982Y-17301D01*
X14914Y-17207D01*
X14854Y-17146D01*
X14760Y-17079D01*
X14706Y-17052D01*
X14638Y-17039D01*
X14578Y-17059D01*
X14551Y-17086D01*
X14531Y-17146D01*
X14537Y-17180D01*
X14652Y-17833D02*
X14813Y-17672D01*
X14733Y-17752D02*
X14308Y-17328D01*
X14396Y-17362D01*
X14463Y-17375D01*
X14510Y-17369D01*
X13236Y-15542D02*
X13101Y-15676D01*
X13384Y-15636D02*
X12865Y-15306D01*
X13195Y-15825D01*
X12717Y-15454D02*
X12556Y-15616D01*
X13061Y-15959D02*
X12637Y-15535D01*
X12886Y-16134D02*
X12461Y-15710D01*
X12670Y-16107D01*
X12273Y-15899D01*
X12697Y-16323D01*
X12340Y-16235D02*
X12246Y-16330D01*
X12428Y-16592D02*
X12562Y-16458D01*
X12138Y-16033D01*
X12003Y-16168D01*
X11754Y-16458D02*
X11761Y-16411D01*
X11801Y-16370D01*
X11862Y-16350D01*
X11929Y-16363D01*
X11983Y-16390D01*
X12078Y-16458D01*
X12138Y-16518D01*
X12206Y-16613D01*
X12232Y-16666D01*
X12246Y-16734D01*
X12226Y-16794D01*
X12199Y-16821D01*
X12138Y-16842D01*
X12104Y-16835D01*
X11963Y-16693D01*
X12017Y-16640D01*
X11916Y-16862D02*
X11781Y-16996D01*
X12064Y-16956D02*
X11546Y-16626D01*
X11876Y-17145D01*
X11384Y-16788D02*
X11209Y-16963D01*
X11465Y-17030D01*
X11424Y-17071D01*
X11418Y-17118D01*
X11424Y-17151D01*
X11451Y-17205D01*
X11552Y-17306D01*
X11606Y-17333D01*
X11640Y-17340D01*
X11687Y-17333D01*
X11768Y-17252D01*
X11775Y-17205D01*
X11768Y-17172D01*
X11141Y-17111D02*
X11108Y-17104D01*
X11061Y-17111D01*
X10993Y-17178D01*
X10987Y-17225D01*
X10993Y-17259D01*
X11020Y-17313D01*
X11061Y-17353D01*
X11135Y-17400D01*
X11539Y-17481D01*
X11364Y-17656D01*
X10818Y-17353D02*
X11162Y-17697D01*
X11189Y-17751D01*
X11195Y-17784D01*
X11189Y-17831D01*
X11135Y-17885D01*
X11088Y-17892D01*
X11054Y-17885D01*
X11000Y-17858D01*
X10657Y-17515D01*
X10542Y-17912D02*
X10825Y-18195D01*
X10448Y-17683D02*
X10818Y-17919D01*
X10643Y-18094D01*
G54D15*
X128894Y-21487D02*
X128894Y-21251D01*
X128837Y-21251D01*
X128804Y-21262D01*
X128781Y-21285D01*
X128770Y-21307D01*
X128759Y-21352D01*
X128759Y-21386D01*
X128770Y-21431D01*
X128781Y-21454D01*
X128804Y-21476D01*
X128837Y-21487D01*
X128894Y-21487D01*
X128612Y-21251D02*
X128590Y-21251D01*
X128567Y-21262D01*
X128556Y-21274D01*
X128545Y-21296D01*
X128534Y-21341D01*
X128534Y-21397D01*
X128545Y-21442D01*
X128556Y-21465D01*
X128567Y-21476D01*
X128590Y-21487D01*
X128612Y-21487D01*
X128635Y-21476D01*
X128646Y-21465D01*
X128657Y-21442D01*
X128669Y-21397D01*
X128669Y-21341D01*
X128657Y-21296D01*
X128646Y-21274D01*
X128635Y-21262D01*
X128612Y-21251D01*
X128455Y-21251D02*
X128309Y-21251D01*
X128387Y-21341D01*
X128354Y-21341D01*
X128331Y-21352D01*
X128320Y-21364D01*
X128309Y-21386D01*
X128309Y-21442D01*
X128320Y-21465D01*
X128331Y-21476D01*
X128354Y-21487D01*
X128421Y-21487D01*
X128444Y-21476D01*
X128455Y-21465D01*
X128207Y-21465D02*
X128196Y-21476D01*
X128207Y-21487D01*
X128219Y-21476D01*
X128207Y-21465D01*
X128207Y-21487D01*
X128207Y-21341D02*
X128196Y-21352D01*
X128207Y-21364D01*
X128219Y-21352D01*
X128207Y-21341D01*
X128207Y-21364D01*
X127971Y-21487D02*
X128106Y-21487D01*
X128039Y-21487D02*
X128039Y-21251D01*
X128061Y-21285D01*
X128084Y-21307D01*
X128106Y-21319D01*
X127892Y-21251D02*
X127735Y-21251D01*
X127836Y-21487D01*
X106344Y-6487D02*
X106344Y-6251D01*
X106287Y-6251D01*
X106254Y-6262D01*
X106231Y-6285D01*
X106220Y-6307D01*
X106209Y-6352D01*
X106209Y-6386D01*
X106220Y-6431D01*
X106231Y-6454D01*
X106254Y-6476D01*
X106287Y-6487D01*
X106344Y-6487D01*
X106062Y-6251D02*
X106040Y-6251D01*
X106017Y-6262D01*
X106006Y-6274D01*
X105995Y-6296D01*
X105984Y-6341D01*
X105984Y-6397D01*
X105995Y-6442D01*
X106006Y-6465D01*
X106017Y-6476D01*
X106040Y-6487D01*
X106062Y-6487D01*
X106085Y-6476D01*
X106096Y-6465D01*
X106107Y-6442D01*
X106119Y-6397D01*
X106119Y-6341D01*
X106107Y-6296D01*
X106096Y-6274D01*
X106085Y-6262D01*
X106062Y-6251D01*
X105759Y-6487D02*
X105894Y-6487D01*
X105826Y-6487D02*
X105826Y-6251D01*
X105849Y-6285D01*
X105871Y-6307D01*
X105894Y-6319D01*
X105657Y-6465D02*
X105646Y-6476D01*
X105657Y-6487D01*
X105669Y-6476D01*
X105657Y-6465D01*
X105657Y-6487D01*
X105657Y-6341D02*
X105646Y-6352D01*
X105657Y-6364D01*
X105669Y-6352D01*
X105657Y-6341D01*
X105657Y-6364D01*
X105421Y-6487D02*
X105556Y-6487D01*
X105489Y-6487D02*
X105489Y-6251D01*
X105511Y-6285D01*
X105534Y-6307D01*
X105556Y-6319D01*
X105219Y-6330D02*
X105219Y-6487D01*
X105275Y-6240D02*
X105331Y-6409D01*
X105185Y-6409D01*
X113894Y-6487D02*
X113894Y-6251D01*
X113837Y-6251D01*
X113804Y-6262D01*
X113781Y-6285D01*
X113770Y-6307D01*
X113759Y-6352D01*
X113759Y-6386D01*
X113770Y-6431D01*
X113781Y-6454D01*
X113804Y-6476D01*
X113837Y-6487D01*
X113894Y-6487D01*
X113612Y-6251D02*
X113590Y-6251D01*
X113567Y-6262D01*
X113556Y-6274D01*
X113545Y-6296D01*
X113534Y-6341D01*
X113534Y-6397D01*
X113545Y-6442D01*
X113556Y-6465D01*
X113567Y-6476D01*
X113590Y-6487D01*
X113612Y-6487D01*
X113635Y-6476D01*
X113646Y-6465D01*
X113657Y-6442D01*
X113669Y-6397D01*
X113669Y-6341D01*
X113657Y-6296D01*
X113646Y-6274D01*
X113635Y-6262D01*
X113612Y-6251D01*
X113309Y-6487D02*
X113444Y-6487D01*
X113376Y-6487D02*
X113376Y-6251D01*
X113399Y-6285D01*
X113421Y-6307D01*
X113444Y-6319D01*
X113207Y-6465D02*
X113196Y-6476D01*
X113207Y-6487D01*
X113219Y-6476D01*
X113207Y-6465D01*
X113207Y-6487D01*
X113207Y-6341D02*
X113196Y-6352D01*
X113207Y-6364D01*
X113219Y-6352D01*
X113207Y-6341D01*
X113207Y-6364D01*
X112971Y-6487D02*
X113106Y-6487D01*
X113039Y-6487D02*
X113039Y-6251D01*
X113061Y-6285D01*
X113084Y-6307D01*
X113106Y-6319D01*
X112757Y-6251D02*
X112870Y-6251D01*
X112881Y-6364D01*
X112870Y-6352D01*
X112847Y-6341D01*
X112791Y-6341D01*
X112769Y-6352D01*
X112757Y-6364D01*
X112746Y-6386D01*
X112746Y-6442D01*
X112757Y-6465D01*
X112769Y-6476D01*
X112791Y-6487D01*
X112847Y-6487D01*
X112870Y-6476D01*
X112881Y-6465D01*
X121394Y-6487D02*
X121394Y-6251D01*
X121337Y-6251D01*
X121304Y-6262D01*
X121281Y-6285D01*
X121270Y-6307D01*
X121259Y-6352D01*
X121259Y-6386D01*
X121270Y-6431D01*
X121281Y-6454D01*
X121304Y-6476D01*
X121337Y-6487D01*
X121394Y-6487D01*
X121112Y-6251D02*
X121090Y-6251D01*
X121067Y-6262D01*
X121056Y-6274D01*
X121045Y-6296D01*
X121034Y-6341D01*
X121034Y-6397D01*
X121045Y-6442D01*
X121056Y-6465D01*
X121067Y-6476D01*
X121090Y-6487D01*
X121112Y-6487D01*
X121135Y-6476D01*
X121146Y-6465D01*
X121157Y-6442D01*
X121169Y-6397D01*
X121169Y-6341D01*
X121157Y-6296D01*
X121146Y-6274D01*
X121135Y-6262D01*
X121112Y-6251D01*
X120809Y-6487D02*
X120944Y-6487D01*
X120876Y-6487D02*
X120876Y-6251D01*
X120899Y-6285D01*
X120921Y-6307D01*
X120944Y-6319D01*
X120707Y-6465D02*
X120696Y-6476D01*
X120707Y-6487D01*
X120719Y-6476D01*
X120707Y-6465D01*
X120707Y-6487D01*
X120707Y-6341D02*
X120696Y-6352D01*
X120707Y-6364D01*
X120719Y-6352D01*
X120707Y-6341D01*
X120707Y-6364D01*
X120471Y-6487D02*
X120606Y-6487D01*
X120539Y-6487D02*
X120539Y-6251D01*
X120561Y-6285D01*
X120584Y-6307D01*
X120606Y-6319D01*
X120269Y-6251D02*
X120314Y-6251D01*
X120336Y-6262D01*
X120347Y-6274D01*
X120370Y-6307D01*
X120381Y-6352D01*
X120381Y-6442D01*
X120370Y-6465D01*
X120359Y-6476D01*
X120336Y-6487D01*
X120291Y-6487D01*
X120269Y-6476D01*
X120257Y-6465D01*
X120246Y-6442D01*
X120246Y-6386D01*
X120257Y-6364D01*
X120269Y-6352D01*
X120291Y-6341D01*
X120336Y-6341D01*
X120359Y-6352D01*
X120370Y-6364D01*
X120381Y-6386D01*
X128894Y-6487D02*
X128894Y-6251D01*
X128837Y-6251D01*
X128804Y-6262D01*
X128781Y-6285D01*
X128770Y-6307D01*
X128759Y-6352D01*
X128759Y-6386D01*
X128770Y-6431D01*
X128781Y-6454D01*
X128804Y-6476D01*
X128837Y-6487D01*
X128894Y-6487D01*
X128612Y-6251D02*
X128590Y-6251D01*
X128567Y-6262D01*
X128556Y-6274D01*
X128545Y-6296D01*
X128534Y-6341D01*
X128534Y-6397D01*
X128545Y-6442D01*
X128556Y-6465D01*
X128567Y-6476D01*
X128590Y-6487D01*
X128612Y-6487D01*
X128635Y-6476D01*
X128646Y-6465D01*
X128657Y-6442D01*
X128669Y-6397D01*
X128669Y-6341D01*
X128657Y-6296D01*
X128646Y-6274D01*
X128635Y-6262D01*
X128612Y-6251D01*
X128309Y-6487D02*
X128444Y-6487D01*
X128376Y-6487D02*
X128376Y-6251D01*
X128399Y-6285D01*
X128421Y-6307D01*
X128444Y-6319D01*
X128207Y-6465D02*
X128196Y-6476D01*
X128207Y-6487D01*
X128219Y-6476D01*
X128207Y-6465D01*
X128207Y-6487D01*
X128207Y-6341D02*
X128196Y-6352D01*
X128207Y-6364D01*
X128219Y-6352D01*
X128207Y-6341D01*
X128207Y-6364D01*
X127971Y-6487D02*
X128106Y-6487D01*
X128039Y-6487D02*
X128039Y-6251D01*
X128061Y-6285D01*
X128084Y-6307D01*
X128106Y-6319D01*
X127892Y-6251D02*
X127735Y-6251D01*
X127836Y-6487D01*
X113894Y-13987D02*
X113894Y-13751D01*
X113837Y-13751D01*
X113804Y-13762D01*
X113781Y-13785D01*
X113770Y-13807D01*
X113759Y-13852D01*
X113759Y-13886D01*
X113770Y-13931D01*
X113781Y-13954D01*
X113804Y-13976D01*
X113837Y-13987D01*
X113894Y-13987D01*
X113612Y-13751D02*
X113590Y-13751D01*
X113567Y-13762D01*
X113556Y-13774D01*
X113545Y-13796D01*
X113534Y-13841D01*
X113534Y-13897D01*
X113545Y-13942D01*
X113556Y-13965D01*
X113567Y-13976D01*
X113590Y-13987D01*
X113612Y-13987D01*
X113635Y-13976D01*
X113646Y-13965D01*
X113657Y-13942D01*
X113669Y-13897D01*
X113669Y-13841D01*
X113657Y-13796D01*
X113646Y-13774D01*
X113635Y-13762D01*
X113612Y-13751D01*
X113444Y-13774D02*
X113432Y-13762D01*
X113410Y-13751D01*
X113354Y-13751D01*
X113331Y-13762D01*
X113320Y-13774D01*
X113309Y-13796D01*
X113309Y-13819D01*
X113320Y-13852D01*
X113455Y-13987D01*
X113309Y-13987D01*
X113207Y-13965D02*
X113196Y-13976D01*
X113207Y-13987D01*
X113219Y-13976D01*
X113207Y-13965D01*
X113207Y-13987D01*
X113207Y-13841D02*
X113196Y-13852D01*
X113207Y-13864D01*
X113219Y-13852D01*
X113207Y-13841D01*
X113207Y-13864D01*
X112971Y-13987D02*
X113106Y-13987D01*
X113039Y-13987D02*
X113039Y-13751D01*
X113061Y-13785D01*
X113084Y-13807D01*
X113106Y-13819D01*
X112757Y-13751D02*
X112870Y-13751D01*
X112881Y-13864D01*
X112870Y-13852D01*
X112847Y-13841D01*
X112791Y-13841D01*
X112769Y-13852D01*
X112757Y-13864D01*
X112746Y-13886D01*
X112746Y-13942D01*
X112757Y-13965D01*
X112769Y-13976D01*
X112791Y-13987D01*
X112847Y-13987D01*
X112870Y-13976D01*
X112881Y-13965D01*
X121394Y-13987D02*
X121394Y-13751D01*
X121337Y-13751D01*
X121304Y-13762D01*
X121281Y-13785D01*
X121270Y-13807D01*
X121259Y-13852D01*
X121259Y-13886D01*
X121270Y-13931D01*
X121281Y-13954D01*
X121304Y-13976D01*
X121337Y-13987D01*
X121394Y-13987D01*
X121112Y-13751D02*
X121090Y-13751D01*
X121067Y-13762D01*
X121056Y-13774D01*
X121045Y-13796D01*
X121034Y-13841D01*
X121034Y-13897D01*
X121045Y-13942D01*
X121056Y-13965D01*
X121067Y-13976D01*
X121090Y-13987D01*
X121112Y-13987D01*
X121135Y-13976D01*
X121146Y-13965D01*
X121157Y-13942D01*
X121169Y-13897D01*
X121169Y-13841D01*
X121157Y-13796D01*
X121146Y-13774D01*
X121135Y-13762D01*
X121112Y-13751D01*
X120944Y-13774D02*
X120932Y-13762D01*
X120910Y-13751D01*
X120854Y-13751D01*
X120831Y-13762D01*
X120820Y-13774D01*
X120809Y-13796D01*
X120809Y-13819D01*
X120820Y-13852D01*
X120955Y-13987D01*
X120809Y-13987D01*
X120707Y-13965D02*
X120696Y-13976D01*
X120707Y-13987D01*
X120719Y-13976D01*
X120707Y-13965D01*
X120707Y-13987D01*
X120707Y-13841D02*
X120696Y-13852D01*
X120707Y-13864D01*
X120719Y-13852D01*
X120707Y-13841D01*
X120707Y-13864D01*
X120471Y-13987D02*
X120606Y-13987D01*
X120539Y-13987D02*
X120539Y-13751D01*
X120561Y-13785D01*
X120584Y-13807D01*
X120606Y-13819D01*
X120269Y-13751D02*
X120314Y-13751D01*
X120336Y-13762D01*
X120347Y-13774D01*
X120370Y-13807D01*
X120381Y-13852D01*
X120381Y-13942D01*
X120370Y-13965D01*
X120359Y-13976D01*
X120336Y-13987D01*
X120291Y-13987D01*
X120269Y-13976D01*
X120257Y-13965D01*
X120246Y-13942D01*
X120246Y-13886D01*
X120257Y-13864D01*
X120269Y-13852D01*
X120291Y-13841D01*
X120336Y-13841D01*
X120359Y-13852D01*
X120370Y-13864D01*
X120381Y-13886D01*
X128894Y-13987D02*
X128894Y-13751D01*
X128837Y-13751D01*
X128804Y-13762D01*
X128781Y-13785D01*
X128770Y-13807D01*
X128759Y-13852D01*
X128759Y-13886D01*
X128770Y-13931D01*
X128781Y-13954D01*
X128804Y-13976D01*
X128837Y-13987D01*
X128894Y-13987D01*
X128612Y-13751D02*
X128590Y-13751D01*
X128567Y-13762D01*
X128556Y-13774D01*
X128545Y-13796D01*
X128534Y-13841D01*
X128534Y-13897D01*
X128545Y-13942D01*
X128556Y-13965D01*
X128567Y-13976D01*
X128590Y-13987D01*
X128612Y-13987D01*
X128635Y-13976D01*
X128646Y-13965D01*
X128657Y-13942D01*
X128669Y-13897D01*
X128669Y-13841D01*
X128657Y-13796D01*
X128646Y-13774D01*
X128635Y-13762D01*
X128612Y-13751D01*
X128444Y-13774D02*
X128432Y-13762D01*
X128410Y-13751D01*
X128354Y-13751D01*
X128331Y-13762D01*
X128320Y-13774D01*
X128309Y-13796D01*
X128309Y-13819D01*
X128320Y-13852D01*
X128455Y-13987D01*
X128309Y-13987D01*
X128207Y-13965D02*
X128196Y-13976D01*
X128207Y-13987D01*
X128219Y-13976D01*
X128207Y-13965D01*
X128207Y-13987D01*
X128207Y-13841D02*
X128196Y-13852D01*
X128207Y-13864D01*
X128219Y-13852D01*
X128207Y-13841D01*
X128207Y-13864D01*
X127971Y-13987D02*
X128106Y-13987D01*
X128039Y-13987D02*
X128039Y-13751D01*
X128061Y-13785D01*
X128084Y-13807D01*
X128106Y-13819D01*
X127892Y-13751D02*
X127735Y-13751D01*
X127836Y-13987D01*
X106394Y-21487D02*
X106394Y-21251D01*
X106337Y-21251D01*
X106304Y-21262D01*
X106281Y-21285D01*
X106270Y-21307D01*
X106259Y-21352D01*
X106259Y-21386D01*
X106270Y-21431D01*
X106281Y-21454D01*
X106304Y-21476D01*
X106337Y-21487D01*
X106394Y-21487D01*
X106112Y-21251D02*
X106090Y-21251D01*
X106067Y-21262D01*
X106056Y-21274D01*
X106045Y-21296D01*
X106034Y-21341D01*
X106034Y-21397D01*
X106045Y-21442D01*
X106056Y-21465D01*
X106067Y-21476D01*
X106090Y-21487D01*
X106112Y-21487D01*
X106135Y-21476D01*
X106146Y-21465D01*
X106157Y-21442D01*
X106169Y-21397D01*
X106169Y-21341D01*
X106157Y-21296D01*
X106146Y-21274D01*
X106135Y-21262D01*
X106112Y-21251D01*
X105955Y-21251D02*
X105809Y-21251D01*
X105887Y-21341D01*
X105854Y-21341D01*
X105831Y-21352D01*
X105820Y-21364D01*
X105809Y-21386D01*
X105809Y-21442D01*
X105820Y-21465D01*
X105831Y-21476D01*
X105854Y-21487D01*
X105921Y-21487D01*
X105944Y-21476D01*
X105955Y-21465D01*
X105707Y-21465D02*
X105696Y-21476D01*
X105707Y-21487D01*
X105719Y-21476D01*
X105707Y-21465D01*
X105707Y-21487D01*
X105707Y-21341D02*
X105696Y-21352D01*
X105707Y-21364D01*
X105719Y-21352D01*
X105707Y-21341D01*
X105707Y-21364D01*
X105471Y-21487D02*
X105606Y-21487D01*
X105539Y-21487D02*
X105539Y-21251D01*
X105561Y-21285D01*
X105584Y-21307D01*
X105606Y-21319D01*
X105269Y-21330D02*
X105269Y-21487D01*
X105325Y-21240D02*
X105381Y-21409D01*
X105235Y-21409D01*
X113894Y-21487D02*
X113894Y-21251D01*
X113837Y-21251D01*
X113804Y-21262D01*
X113781Y-21285D01*
X113770Y-21307D01*
X113759Y-21352D01*
X113759Y-21386D01*
X113770Y-21431D01*
X113781Y-21454D01*
X113804Y-21476D01*
X113837Y-21487D01*
X113894Y-21487D01*
X113612Y-21251D02*
X113590Y-21251D01*
X113567Y-21262D01*
X113556Y-21274D01*
X113545Y-21296D01*
X113534Y-21341D01*
X113534Y-21397D01*
X113545Y-21442D01*
X113556Y-21465D01*
X113567Y-21476D01*
X113590Y-21487D01*
X113612Y-21487D01*
X113635Y-21476D01*
X113646Y-21465D01*
X113657Y-21442D01*
X113669Y-21397D01*
X113669Y-21341D01*
X113657Y-21296D01*
X113646Y-21274D01*
X113635Y-21262D01*
X113612Y-21251D01*
X113455Y-21251D02*
X113309Y-21251D01*
X113387Y-21341D01*
X113354Y-21341D01*
X113331Y-21352D01*
X113320Y-21364D01*
X113309Y-21386D01*
X113309Y-21442D01*
X113320Y-21465D01*
X113331Y-21476D01*
X113354Y-21487D01*
X113421Y-21487D01*
X113444Y-21476D01*
X113455Y-21465D01*
X113207Y-21465D02*
X113196Y-21476D01*
X113207Y-21487D01*
X113219Y-21476D01*
X113207Y-21465D01*
X113207Y-21487D01*
X113207Y-21341D02*
X113196Y-21352D01*
X113207Y-21364D01*
X113219Y-21352D01*
X113207Y-21341D01*
X113207Y-21364D01*
X112971Y-21487D02*
X113106Y-21487D01*
X113039Y-21487D02*
X113039Y-21251D01*
X113061Y-21285D01*
X113084Y-21307D01*
X113106Y-21319D01*
X112757Y-21251D02*
X112870Y-21251D01*
X112881Y-21364D01*
X112870Y-21352D01*
X112847Y-21341D01*
X112791Y-21341D01*
X112769Y-21352D01*
X112757Y-21364D01*
X112746Y-21386D01*
X112746Y-21442D01*
X112757Y-21465D01*
X112769Y-21476D01*
X112791Y-21487D01*
X112847Y-21487D01*
X112870Y-21476D01*
X112881Y-21465D01*
X121394Y-21487D02*
X121394Y-21251D01*
X121337Y-21251D01*
X121304Y-21262D01*
X121281Y-21285D01*
X121270Y-21307D01*
X121259Y-21352D01*
X121259Y-21386D01*
X121270Y-21431D01*
X121281Y-21454D01*
X121304Y-21476D01*
X121337Y-21487D01*
X121394Y-21487D01*
X121112Y-21251D02*
X121090Y-21251D01*
X121067Y-21262D01*
X121056Y-21274D01*
X121045Y-21296D01*
X121034Y-21341D01*
X121034Y-21397D01*
X121045Y-21442D01*
X121056Y-21465D01*
X121067Y-21476D01*
X121090Y-21487D01*
X121112Y-21487D01*
X121135Y-21476D01*
X121146Y-21465D01*
X121157Y-21442D01*
X121169Y-21397D01*
X121169Y-21341D01*
X121157Y-21296D01*
X121146Y-21274D01*
X121135Y-21262D01*
X121112Y-21251D01*
X120955Y-21251D02*
X120809Y-21251D01*
X120887Y-21341D01*
X120854Y-21341D01*
X120831Y-21352D01*
X120820Y-21364D01*
X120809Y-21386D01*
X120809Y-21442D01*
X120820Y-21465D01*
X120831Y-21476D01*
X120854Y-21487D01*
X120921Y-21487D01*
X120944Y-21476D01*
X120955Y-21465D01*
X120707Y-21465D02*
X120696Y-21476D01*
X120707Y-21487D01*
X120719Y-21476D01*
X120707Y-21465D01*
X120707Y-21487D01*
X120707Y-21341D02*
X120696Y-21352D01*
X120707Y-21364D01*
X120719Y-21352D01*
X120707Y-21341D01*
X120707Y-21364D01*
X120471Y-21487D02*
X120606Y-21487D01*
X120539Y-21487D02*
X120539Y-21251D01*
X120561Y-21285D01*
X120584Y-21307D01*
X120606Y-21319D01*
X120269Y-21251D02*
X120314Y-21251D01*
X120336Y-21262D01*
X120347Y-21274D01*
X120370Y-21307D01*
X120381Y-21352D01*
X120381Y-21442D01*
X120370Y-21465D01*
X120359Y-21476D01*
X120336Y-21487D01*
X120291Y-21487D01*
X120269Y-21476D01*
X120257Y-21465D01*
X120246Y-21442D01*
X120246Y-21386D01*
X120257Y-21364D01*
X120269Y-21352D01*
X120291Y-21341D01*
X120336Y-21341D01*
X120359Y-21352D01*
X120370Y-21364D01*
X120381Y-21386D01*
X106394Y-13987D02*
X106394Y-13751D01*
X106337Y-13751D01*
X106304Y-13762D01*
X106281Y-13785D01*
X106270Y-13807D01*
X106259Y-13852D01*
X106259Y-13886D01*
X106270Y-13931D01*
X106281Y-13954D01*
X106304Y-13976D01*
X106337Y-13987D01*
X106394Y-13987D01*
X106112Y-13751D02*
X106090Y-13751D01*
X106067Y-13762D01*
X106056Y-13774D01*
X106045Y-13796D01*
X106034Y-13841D01*
X106034Y-13897D01*
X106045Y-13942D01*
X106056Y-13965D01*
X106067Y-13976D01*
X106090Y-13987D01*
X106112Y-13987D01*
X106135Y-13976D01*
X106146Y-13965D01*
X106157Y-13942D01*
X106169Y-13897D01*
X106169Y-13841D01*
X106157Y-13796D01*
X106146Y-13774D01*
X106135Y-13762D01*
X106112Y-13751D01*
X105944Y-13774D02*
X105932Y-13762D01*
X105910Y-13751D01*
X105854Y-13751D01*
X105831Y-13762D01*
X105820Y-13774D01*
X105809Y-13796D01*
X105809Y-13819D01*
X105820Y-13852D01*
X105955Y-13987D01*
X105809Y-13987D01*
X105707Y-13965D02*
X105696Y-13976D01*
X105707Y-13987D01*
X105719Y-13976D01*
X105707Y-13965D01*
X105707Y-13987D01*
X105707Y-13841D02*
X105696Y-13852D01*
X105707Y-13864D01*
X105719Y-13852D01*
X105707Y-13841D01*
X105707Y-13864D01*
X105471Y-13987D02*
X105606Y-13987D01*
X105539Y-13987D02*
X105539Y-13751D01*
X105561Y-13785D01*
X105584Y-13807D01*
X105606Y-13819D01*
X105269Y-13830D02*
X105269Y-13987D01*
X105325Y-13740D02*
X105381Y-13909D01*
X105235Y-13909D01*
X106394Y-28987D02*
X106394Y-28751D01*
X106337Y-28751D01*
X106304Y-28762D01*
X106281Y-28785D01*
X106270Y-28807D01*
X106259Y-28852D01*
X106259Y-28886D01*
X106270Y-28931D01*
X106281Y-28954D01*
X106304Y-28976D01*
X106337Y-28987D01*
X106394Y-28987D01*
X106112Y-28751D02*
X106090Y-28751D01*
X106067Y-28762D01*
X106056Y-28774D01*
X106045Y-28796D01*
X106034Y-28841D01*
X106034Y-28897D01*
X106045Y-28942D01*
X106056Y-28965D01*
X106067Y-28976D01*
X106090Y-28987D01*
X106112Y-28987D01*
X106135Y-28976D01*
X106146Y-28965D01*
X106157Y-28942D01*
X106169Y-28897D01*
X106169Y-28841D01*
X106157Y-28796D01*
X106146Y-28774D01*
X106135Y-28762D01*
X106112Y-28751D01*
X105831Y-28830D02*
X105831Y-28987D01*
X105887Y-28740D02*
X105944Y-28909D01*
X105797Y-28909D01*
X105707Y-28965D02*
X105696Y-28976D01*
X105707Y-28987D01*
X105719Y-28976D01*
X105707Y-28965D01*
X105707Y-28987D01*
X105707Y-28841D02*
X105696Y-28852D01*
X105707Y-28864D01*
X105719Y-28852D01*
X105707Y-28841D01*
X105707Y-28864D01*
X105471Y-28987D02*
X105606Y-28987D01*
X105539Y-28987D02*
X105539Y-28751D01*
X105561Y-28785D01*
X105584Y-28807D01*
X105606Y-28819D01*
X105269Y-28830D02*
X105269Y-28987D01*
X105325Y-28740D02*
X105381Y-28909D01*
X105235Y-28909D01*
X113894Y-28987D02*
X113894Y-28751D01*
X113837Y-28751D01*
X113804Y-28762D01*
X113781Y-28785D01*
X113770Y-28807D01*
X113759Y-28852D01*
X113759Y-28886D01*
X113770Y-28931D01*
X113781Y-28954D01*
X113804Y-28976D01*
X113837Y-28987D01*
X113894Y-28987D01*
X113612Y-28751D02*
X113590Y-28751D01*
X113567Y-28762D01*
X113556Y-28774D01*
X113545Y-28796D01*
X113534Y-28841D01*
X113534Y-28897D01*
X113545Y-28942D01*
X113556Y-28965D01*
X113567Y-28976D01*
X113590Y-28987D01*
X113612Y-28987D01*
X113635Y-28976D01*
X113646Y-28965D01*
X113657Y-28942D01*
X113669Y-28897D01*
X113669Y-28841D01*
X113657Y-28796D01*
X113646Y-28774D01*
X113635Y-28762D01*
X113612Y-28751D01*
X113331Y-28830D02*
X113331Y-28987D01*
X113387Y-28740D02*
X113444Y-28909D01*
X113297Y-28909D01*
X113207Y-28965D02*
X113196Y-28976D01*
X113207Y-28987D01*
X113219Y-28976D01*
X113207Y-28965D01*
X113207Y-28987D01*
X113207Y-28841D02*
X113196Y-28852D01*
X113207Y-28864D01*
X113219Y-28852D01*
X113207Y-28841D01*
X113207Y-28864D01*
X112971Y-28987D02*
X113106Y-28987D01*
X113039Y-28987D02*
X113039Y-28751D01*
X113061Y-28785D01*
X113084Y-28807D01*
X113106Y-28819D01*
X112757Y-28751D02*
X112870Y-28751D01*
X112881Y-28864D01*
X112870Y-28852D01*
X112847Y-28841D01*
X112791Y-28841D01*
X112769Y-28852D01*
X112757Y-28864D01*
X112746Y-28886D01*
X112746Y-28942D01*
X112757Y-28965D01*
X112769Y-28976D01*
X112791Y-28987D01*
X112847Y-28987D01*
X112870Y-28976D01*
X112881Y-28965D01*
X121394Y-28987D02*
X121394Y-28751D01*
X121337Y-28751D01*
X121304Y-28762D01*
X121281Y-28785D01*
X121270Y-28807D01*
X121259Y-28852D01*
X121259Y-28886D01*
X121270Y-28931D01*
X121281Y-28954D01*
X121304Y-28976D01*
X121337Y-28987D01*
X121394Y-28987D01*
X121112Y-28751D02*
X121090Y-28751D01*
X121067Y-28762D01*
X121056Y-28774D01*
X121045Y-28796D01*
X121034Y-28841D01*
X121034Y-28897D01*
X121045Y-28942D01*
X121056Y-28965D01*
X121067Y-28976D01*
X121090Y-28987D01*
X121112Y-28987D01*
X121135Y-28976D01*
X121146Y-28965D01*
X121157Y-28942D01*
X121169Y-28897D01*
X121169Y-28841D01*
X121157Y-28796D01*
X121146Y-28774D01*
X121135Y-28762D01*
X121112Y-28751D01*
X120831Y-28830D02*
X120831Y-28987D01*
X120887Y-28740D02*
X120944Y-28909D01*
X120797Y-28909D01*
X120707Y-28965D02*
X120696Y-28976D01*
X120707Y-28987D01*
X120719Y-28976D01*
X120707Y-28965D01*
X120707Y-28987D01*
X120707Y-28841D02*
X120696Y-28852D01*
X120707Y-28864D01*
X120719Y-28852D01*
X120707Y-28841D01*
X120707Y-28864D01*
X120471Y-28987D02*
X120606Y-28987D01*
X120539Y-28987D02*
X120539Y-28751D01*
X120561Y-28785D01*
X120584Y-28807D01*
X120606Y-28819D01*
X120269Y-28751D02*
X120314Y-28751D01*
X120336Y-28762D01*
X120347Y-28774D01*
X120370Y-28807D01*
X120381Y-28852D01*
X120381Y-28942D01*
X120370Y-28965D01*
X120359Y-28976D01*
X120336Y-28987D01*
X120291Y-28987D01*
X120269Y-28976D01*
X120257Y-28965D01*
X120246Y-28942D01*
X120246Y-28886D01*
X120257Y-28864D01*
X120269Y-28852D01*
X120291Y-28841D01*
X120336Y-28841D01*
X120359Y-28852D01*
X120370Y-28864D01*
X120381Y-28886D01*
X128894Y-28987D02*
X128894Y-28751D01*
X128837Y-28751D01*
X128804Y-28762D01*
X128781Y-28785D01*
X128770Y-28807D01*
X128759Y-28852D01*
X128759Y-28886D01*
X128770Y-28931D01*
X128781Y-28954D01*
X128804Y-28976D01*
X128837Y-28987D01*
X128894Y-28987D01*
X128612Y-28751D02*
X128590Y-28751D01*
X128567Y-28762D01*
X128556Y-28774D01*
X128545Y-28796D01*
X128534Y-28841D01*
X128534Y-28897D01*
X128545Y-28942D01*
X128556Y-28965D01*
X128567Y-28976D01*
X128590Y-28987D01*
X128612Y-28987D01*
X128635Y-28976D01*
X128646Y-28965D01*
X128657Y-28942D01*
X128669Y-28897D01*
X128669Y-28841D01*
X128657Y-28796D01*
X128646Y-28774D01*
X128635Y-28762D01*
X128612Y-28751D01*
X128331Y-28830D02*
X128331Y-28987D01*
X128387Y-28740D02*
X128444Y-28909D01*
X128297Y-28909D01*
X128207Y-28965D02*
X128196Y-28976D01*
X128207Y-28987D01*
X128219Y-28976D01*
X128207Y-28965D01*
X128207Y-28987D01*
X128207Y-28841D02*
X128196Y-28852D01*
X128207Y-28864D01*
X128219Y-28852D01*
X128207Y-28841D01*
X128207Y-28864D01*
X127971Y-28987D02*
X128106Y-28987D01*
X128039Y-28987D02*
X128039Y-28751D01*
X128061Y-28785D01*
X128084Y-28807D01*
X128106Y-28819D01*
X127892Y-28751D02*
X127735Y-28751D01*
X127836Y-28987D01*
X106394Y-36487D02*
X106394Y-36251D01*
X106337Y-36251D01*
X106304Y-36262D01*
X106281Y-36285D01*
X106270Y-36307D01*
X106259Y-36352D01*
X106259Y-36386D01*
X106270Y-36431D01*
X106281Y-36454D01*
X106304Y-36476D01*
X106337Y-36487D01*
X106394Y-36487D01*
X106112Y-36251D02*
X106090Y-36251D01*
X106067Y-36262D01*
X106056Y-36274D01*
X106045Y-36296D01*
X106034Y-36341D01*
X106034Y-36397D01*
X106045Y-36442D01*
X106056Y-36465D01*
X106067Y-36476D01*
X106090Y-36487D01*
X106112Y-36487D01*
X106135Y-36476D01*
X106146Y-36465D01*
X106157Y-36442D01*
X106169Y-36397D01*
X106169Y-36341D01*
X106157Y-36296D01*
X106146Y-36274D01*
X106135Y-36262D01*
X106112Y-36251D01*
X105820Y-36251D02*
X105932Y-36251D01*
X105944Y-36364D01*
X105932Y-36352D01*
X105910Y-36341D01*
X105854Y-36341D01*
X105831Y-36352D01*
X105820Y-36364D01*
X105809Y-36386D01*
X105809Y-36442D01*
X105820Y-36465D01*
X105831Y-36476D01*
X105854Y-36487D01*
X105910Y-36487D01*
X105932Y-36476D01*
X105944Y-36465D01*
X105707Y-36465D02*
X105696Y-36476D01*
X105707Y-36487D01*
X105719Y-36476D01*
X105707Y-36465D01*
X105707Y-36487D01*
X105707Y-36341D02*
X105696Y-36352D01*
X105707Y-36364D01*
X105719Y-36352D01*
X105707Y-36341D01*
X105707Y-36364D01*
X105471Y-36487D02*
X105606Y-36487D01*
X105539Y-36487D02*
X105539Y-36251D01*
X105561Y-36285D01*
X105584Y-36307D01*
X105606Y-36319D01*
X105269Y-36330D02*
X105269Y-36487D01*
X105325Y-36240D02*
X105381Y-36409D01*
X105235Y-36409D01*
X113894Y-36487D02*
X113894Y-36251D01*
X113837Y-36251D01*
X113804Y-36262D01*
X113781Y-36285D01*
X113770Y-36307D01*
X113759Y-36352D01*
X113759Y-36386D01*
X113770Y-36431D01*
X113781Y-36454D01*
X113804Y-36476D01*
X113837Y-36487D01*
X113894Y-36487D01*
X113612Y-36251D02*
X113590Y-36251D01*
X113567Y-36262D01*
X113556Y-36274D01*
X113545Y-36296D01*
X113534Y-36341D01*
X113534Y-36397D01*
X113545Y-36442D01*
X113556Y-36465D01*
X113567Y-36476D01*
X113590Y-36487D01*
X113612Y-36487D01*
X113635Y-36476D01*
X113646Y-36465D01*
X113657Y-36442D01*
X113669Y-36397D01*
X113669Y-36341D01*
X113657Y-36296D01*
X113646Y-36274D01*
X113635Y-36262D01*
X113612Y-36251D01*
X113320Y-36251D02*
X113432Y-36251D01*
X113444Y-36364D01*
X113432Y-36352D01*
X113410Y-36341D01*
X113354Y-36341D01*
X113331Y-36352D01*
X113320Y-36364D01*
X113309Y-36386D01*
X113309Y-36442D01*
X113320Y-36465D01*
X113331Y-36476D01*
X113354Y-36487D01*
X113410Y-36487D01*
X113432Y-36476D01*
X113444Y-36465D01*
X113207Y-36465D02*
X113196Y-36476D01*
X113207Y-36487D01*
X113219Y-36476D01*
X113207Y-36465D01*
X113207Y-36487D01*
X113207Y-36341D02*
X113196Y-36352D01*
X113207Y-36364D01*
X113219Y-36352D01*
X113207Y-36341D01*
X113207Y-36364D01*
X112971Y-36487D02*
X113106Y-36487D01*
X113039Y-36487D02*
X113039Y-36251D01*
X113061Y-36285D01*
X113084Y-36307D01*
X113106Y-36319D01*
X112757Y-36251D02*
X112870Y-36251D01*
X112881Y-36364D01*
X112870Y-36352D01*
X112847Y-36341D01*
X112791Y-36341D01*
X112769Y-36352D01*
X112757Y-36364D01*
X112746Y-36386D01*
X112746Y-36442D01*
X112757Y-36465D01*
X112769Y-36476D01*
X112791Y-36487D01*
X112847Y-36487D01*
X112870Y-36476D01*
X112881Y-36465D01*
X121394Y-36487D02*
X121394Y-36251D01*
X121337Y-36251D01*
X121304Y-36262D01*
X121281Y-36285D01*
X121270Y-36307D01*
X121259Y-36352D01*
X121259Y-36386D01*
X121270Y-36431D01*
X121281Y-36454D01*
X121304Y-36476D01*
X121337Y-36487D01*
X121394Y-36487D01*
X121112Y-36251D02*
X121090Y-36251D01*
X121067Y-36262D01*
X121056Y-36274D01*
X121045Y-36296D01*
X121034Y-36341D01*
X121034Y-36397D01*
X121045Y-36442D01*
X121056Y-36465D01*
X121067Y-36476D01*
X121090Y-36487D01*
X121112Y-36487D01*
X121135Y-36476D01*
X121146Y-36465D01*
X121157Y-36442D01*
X121169Y-36397D01*
X121169Y-36341D01*
X121157Y-36296D01*
X121146Y-36274D01*
X121135Y-36262D01*
X121112Y-36251D01*
X120820Y-36251D02*
X120932Y-36251D01*
X120944Y-36364D01*
X120932Y-36352D01*
X120910Y-36341D01*
X120854Y-36341D01*
X120831Y-36352D01*
X120820Y-36364D01*
X120809Y-36386D01*
X120809Y-36442D01*
X120820Y-36465D01*
X120831Y-36476D01*
X120854Y-36487D01*
X120910Y-36487D01*
X120932Y-36476D01*
X120944Y-36465D01*
X120707Y-36465D02*
X120696Y-36476D01*
X120707Y-36487D01*
X120719Y-36476D01*
X120707Y-36465D01*
X120707Y-36487D01*
X120707Y-36341D02*
X120696Y-36352D01*
X120707Y-36364D01*
X120719Y-36352D01*
X120707Y-36341D01*
X120707Y-36364D01*
X120471Y-36487D02*
X120606Y-36487D01*
X120539Y-36487D02*
X120539Y-36251D01*
X120561Y-36285D01*
X120584Y-36307D01*
X120606Y-36319D01*
X120269Y-36251D02*
X120314Y-36251D01*
X120336Y-36262D01*
X120347Y-36274D01*
X120370Y-36307D01*
X120381Y-36352D01*
X120381Y-36442D01*
X120370Y-36465D01*
X120359Y-36476D01*
X120336Y-36487D01*
X120291Y-36487D01*
X120269Y-36476D01*
X120257Y-36465D01*
X120246Y-36442D01*
X120246Y-36386D01*
X120257Y-36364D01*
X120269Y-36352D01*
X120291Y-36341D01*
X120336Y-36341D01*
X120359Y-36352D01*
X120370Y-36364D01*
X120381Y-36386D01*
X128894Y-36487D02*
X128894Y-36251D01*
X128837Y-36251D01*
X128804Y-36262D01*
X128781Y-36285D01*
X128770Y-36307D01*
X128759Y-36352D01*
X128759Y-36386D01*
X128770Y-36431D01*
X128781Y-36454D01*
X128804Y-36476D01*
X128837Y-36487D01*
X128894Y-36487D01*
X128612Y-36251D02*
X128590Y-36251D01*
X128567Y-36262D01*
X128556Y-36274D01*
X128545Y-36296D01*
X128534Y-36341D01*
X128534Y-36397D01*
X128545Y-36442D01*
X128556Y-36465D01*
X128567Y-36476D01*
X128590Y-36487D01*
X128612Y-36487D01*
X128635Y-36476D01*
X128646Y-36465D01*
X128657Y-36442D01*
X128669Y-36397D01*
X128669Y-36341D01*
X128657Y-36296D01*
X128646Y-36274D01*
X128635Y-36262D01*
X128612Y-36251D01*
X128320Y-36251D02*
X128432Y-36251D01*
X128444Y-36364D01*
X128432Y-36352D01*
X128410Y-36341D01*
X128354Y-36341D01*
X128331Y-36352D01*
X128320Y-36364D01*
X128309Y-36386D01*
X128309Y-36442D01*
X128320Y-36465D01*
X128331Y-36476D01*
X128354Y-36487D01*
X128410Y-36487D01*
X128432Y-36476D01*
X128444Y-36465D01*
X128207Y-36465D02*
X128196Y-36476D01*
X128207Y-36487D01*
X128219Y-36476D01*
X128207Y-36465D01*
X128207Y-36487D01*
X128207Y-36341D02*
X128196Y-36352D01*
X128207Y-36364D01*
X128219Y-36352D01*
X128207Y-36341D01*
X128207Y-36364D01*
X127971Y-36487D02*
X128106Y-36487D01*
X128039Y-36487D02*
X128039Y-36251D01*
X128061Y-36285D01*
X128084Y-36307D01*
X128106Y-36319D01*
X127892Y-36251D02*
X127735Y-36251D01*
X127836Y-36487D01*
G54D18*
X1237Y-23389D02*
X1360Y-23214D01*
X1447Y-23389D02*
X1447Y-23021D01*
X1307Y-23021D01*
X1272Y-23039D01*
X1254Y-23056D01*
X1237Y-23092D01*
X1237Y-23144D01*
X1254Y-23179D01*
X1272Y-23197D01*
X1307Y-23214D01*
X1447Y-23214D01*
X921Y-23144D02*
X921Y-23389D01*
X1009Y-23004D02*
X1097Y-23267D01*
X869Y-23267D01*
X5937Y-17289D02*
X6060Y-17114D01*
X6147Y-17289D02*
X6147Y-16921D01*
X6007Y-16921D01*
X5972Y-16939D01*
X5954Y-16956D01*
X5937Y-16992D01*
X5937Y-17044D01*
X5954Y-17079D01*
X5972Y-17097D01*
X6007Y-17114D01*
X6147Y-17114D01*
X5814Y-16921D02*
X5586Y-16921D01*
X5709Y-17062D01*
X5656Y-17062D01*
X5621Y-17079D01*
X5604Y-17097D01*
X5586Y-17132D01*
X5586Y-17219D01*
X5604Y-17254D01*
X5621Y-17272D01*
X5656Y-17289D01*
X5762Y-17289D01*
X5797Y-17272D01*
X5814Y-17254D01*
X8037Y-6189D02*
X8160Y-6014D01*
X8247Y-6189D02*
X8247Y-5821D01*
X8107Y-5821D01*
X8072Y-5839D01*
X8054Y-5856D01*
X8037Y-5892D01*
X8037Y-5944D01*
X8054Y-5979D01*
X8072Y-5997D01*
X8107Y-6014D01*
X8247Y-6014D01*
X7897Y-5856D02*
X7879Y-5839D01*
X7844Y-5821D01*
X7756Y-5821D01*
X7721Y-5839D01*
X7704Y-5856D01*
X7686Y-5892D01*
X7686Y-5927D01*
X7704Y-5979D01*
X7914Y-6189D01*
X7686Y-6189D01*
X18837Y-16004D02*
X18854Y-16022D01*
X18907Y-16039D01*
X18942Y-16039D01*
X18995Y-16022D01*
X19030Y-15987D01*
X19047Y-15952D01*
X19065Y-15882D01*
X19065Y-15829D01*
X19047Y-15759D01*
X19030Y-15724D01*
X18995Y-15689D01*
X18942Y-15671D01*
X18907Y-15671D01*
X18854Y-15689D01*
X18837Y-15706D01*
X18627Y-15829D02*
X18662Y-15812D01*
X18679Y-15794D01*
X18697Y-15759D01*
X18697Y-15742D01*
X18679Y-15706D01*
X18662Y-15689D01*
X18627Y-15671D01*
X18556Y-15671D01*
X18521Y-15689D01*
X18504Y-15706D01*
X18486Y-15742D01*
X18486Y-15759D01*
X18504Y-15794D01*
X18521Y-15812D01*
X18556Y-15829D01*
X18627Y-15829D01*
X18662Y-15847D01*
X18679Y-15864D01*
X18697Y-15899D01*
X18697Y-15969D01*
X18679Y-16004D01*
X18662Y-16022D01*
X18627Y-16039D01*
X18556Y-16039D01*
X18521Y-16022D01*
X18504Y-16004D01*
X18486Y-15969D01*
X18486Y-15899D01*
X18504Y-15864D01*
X18521Y-15847D01*
X18556Y-15829D01*
X4937Y-16454D02*
X4954Y-16472D01*
X5007Y-16489D01*
X5042Y-16489D01*
X5095Y-16472D01*
X5130Y-16437D01*
X5147Y-16402D01*
X5165Y-16332D01*
X5165Y-16279D01*
X5147Y-16209D01*
X5130Y-16174D01*
X5095Y-16139D01*
X5042Y-16121D01*
X5007Y-16121D01*
X4954Y-16139D01*
X4937Y-16156D01*
X4621Y-16121D02*
X4691Y-16121D01*
X4727Y-16139D01*
X4744Y-16156D01*
X4779Y-16209D01*
X4797Y-16279D01*
X4797Y-16419D01*
X4779Y-16454D01*
X4762Y-16472D01*
X4727Y-16489D01*
X4656Y-16489D01*
X4621Y-16472D01*
X4604Y-16454D01*
X4586Y-16419D01*
X4586Y-16332D01*
X4604Y-16297D01*
X4621Y-16279D01*
X4656Y-16262D01*
X4727Y-16262D01*
X4762Y-16279D01*
X4779Y-16297D01*
X4797Y-16332D01*
X12637Y-24554D02*
X12654Y-24572D01*
X12707Y-24589D01*
X12742Y-24589D01*
X12795Y-24572D01*
X12830Y-24537D01*
X12847Y-24502D01*
X12865Y-24432D01*
X12865Y-24379D01*
X12847Y-24309D01*
X12830Y-24274D01*
X12795Y-24239D01*
X12742Y-24221D01*
X12707Y-24221D01*
X12654Y-24239D01*
X12637Y-24256D01*
X12497Y-24256D02*
X12479Y-24239D01*
X12444Y-24221D01*
X12356Y-24221D01*
X12321Y-24239D01*
X12304Y-24256D01*
X12286Y-24292D01*
X12286Y-24327D01*
X12304Y-24379D01*
X12514Y-24589D01*
X12286Y-24589D01*
X7037Y-6189D02*
X7160Y-6014D01*
X7247Y-6189D02*
X7247Y-5821D01*
X7107Y-5821D01*
X7072Y-5839D01*
X7054Y-5856D01*
X7037Y-5892D01*
X7037Y-5944D01*
X7054Y-5979D01*
X7072Y-5997D01*
X7107Y-6014D01*
X7247Y-6014D01*
X6686Y-6189D02*
X6897Y-6189D01*
X6791Y-6189D02*
X6791Y-5821D01*
X6827Y-5874D01*
X6862Y-5909D01*
X6897Y-5927D01*
X15637Y-24554D02*
X15654Y-24572D01*
X15707Y-24589D01*
X15742Y-24589D01*
X15795Y-24572D01*
X15830Y-24537D01*
X15847Y-24502D01*
X15865Y-24432D01*
X15865Y-24379D01*
X15847Y-24309D01*
X15830Y-24274D01*
X15795Y-24239D01*
X15742Y-24221D01*
X15707Y-24221D01*
X15654Y-24239D01*
X15637Y-24256D01*
X15286Y-24589D02*
X15497Y-24589D01*
X15391Y-24589D02*
X15391Y-24221D01*
X15427Y-24274D01*
X15462Y-24309D01*
X15497Y-24327D01*
X10987Y-13004D02*
X11004Y-13022D01*
X11057Y-13039D01*
X11092Y-13039D01*
X11145Y-13022D01*
X11180Y-12987D01*
X11197Y-12952D01*
X11215Y-12882D01*
X11215Y-12829D01*
X11197Y-12759D01*
X11180Y-12724D01*
X11145Y-12689D01*
X11092Y-12671D01*
X11057Y-12671D01*
X11004Y-12689D01*
X10987Y-12706D01*
X10654Y-12671D02*
X10829Y-12671D01*
X10847Y-12847D01*
X10829Y-12829D01*
X10794Y-12812D01*
X10706Y-12812D01*
X10671Y-12829D01*
X10654Y-12847D01*
X10636Y-12882D01*
X10636Y-12969D01*
X10654Y-13004D01*
X10671Y-13022D01*
X10706Y-13039D01*
X10794Y-13039D01*
X10829Y-13022D01*
X10847Y-13004D01*
X7137Y-16404D02*
X7154Y-16422D01*
X7207Y-16439D01*
X7242Y-16439D01*
X7295Y-16422D01*
X7330Y-16387D01*
X7347Y-16352D01*
X7365Y-16282D01*
X7365Y-16229D01*
X7347Y-16159D01*
X7330Y-16124D01*
X7295Y-16089D01*
X7242Y-16071D01*
X7207Y-16071D01*
X7154Y-16089D01*
X7137Y-16106D01*
X7014Y-16071D02*
X6786Y-16071D01*
X6909Y-16212D01*
X6856Y-16212D01*
X6821Y-16229D01*
X6804Y-16247D01*
X6786Y-16282D01*
X6786Y-16369D01*
X6804Y-16404D01*
X6821Y-16422D01*
X6856Y-16439D01*
X6962Y-16439D01*
X6997Y-16422D01*
X7014Y-16404D01*
X10637Y-22204D02*
X10654Y-22222D01*
X10707Y-22239D01*
X10742Y-22239D01*
X10795Y-22222D01*
X10830Y-22187D01*
X10847Y-22152D01*
X10865Y-22082D01*
X10865Y-22029D01*
X10847Y-21959D01*
X10830Y-21924D01*
X10795Y-21889D01*
X10742Y-21871D01*
X10707Y-21871D01*
X10654Y-21889D01*
X10637Y-21906D01*
X10321Y-21994D02*
X10321Y-22239D01*
X10409Y-21854D02*
X10497Y-22117D01*
X10269Y-22117D01*
X16937Y-16204D02*
X16954Y-16222D01*
X17007Y-16239D01*
X17042Y-16239D01*
X17095Y-16222D01*
X17130Y-16187D01*
X17147Y-16152D01*
X17165Y-16082D01*
X17165Y-16029D01*
X17147Y-15959D01*
X17130Y-15924D01*
X17095Y-15889D01*
X17042Y-15871D01*
X17007Y-15871D01*
X16954Y-15889D01*
X16937Y-15906D01*
X16814Y-15871D02*
X16569Y-15871D01*
X16727Y-16239D01*
G54D15*
X14267Y-24400D02*
X14109Y-24636D01*
X14109Y-24400D02*
X14267Y-24636D01*
X13896Y-24636D02*
X14031Y-24636D01*
X13963Y-24636D02*
X13963Y-24400D01*
X13986Y-24434D01*
X14008Y-24456D01*
X14031Y-24467D01*
M02*
