G04 (created by PCBNEW (2013-02-13 BZR 3947)-testing) date 2016.01.05 20:59:58*
%MOIN*%
G04 Gerber Fmt 3.4, Leading zero omitted, Abs format*
%FSLAX34Y34*%
G01*
G70*
G90*
G04 APERTURE LIST*
%ADD10C,0.08*%
%ADD11C,0.009*%
%ADD12C,0.098*%
%ADD13C,0.165*%
%ADD14C,0.075*%
%ADD15C,0.128*%
%ADD16R,0.043X0.063*%
%ADD17C,0.0473701*%
%ADD18C,0.0631181*%
%ADD19O,0.0631181X0.106425*%
%ADD20O,0.0513X0.073*%
%ADD21R,0.0473701X0.0473701*%
%ADD22C,0.024*%
%ADD23R,0.063X0.043*%
%ADD24C,0.0670551*%
%ADD25R,0.0552441X0.0709921*%
G04 APERTURE END LIST*
G54D10*
G54D11*
X100976Y-37191D02*
X131076Y-37191D01*
X100976Y-141D02*
X131076Y-141D01*
X176Y-37191D02*
X176Y-141D01*
X100976Y-37191D02*
X176Y-37191D01*
X131076Y-141D02*
X131076Y-37191D01*
X176Y-141D02*
X100976Y-141D01*
G54D12*
X5526Y-20691D03*
X8026Y-19691D03*
G54D13*
X6526Y-18691D03*
G54D14*
X8526Y-18691D03*
X4526Y-18691D03*
G54D12*
X93676Y-20691D03*
X96176Y-19691D03*
G54D13*
X94676Y-18691D03*
G54D14*
X96676Y-18691D03*
X92676Y-18691D03*
G54D12*
X4576Y-13191D03*
X7076Y-12191D03*
G54D13*
X5576Y-11191D03*
G54D14*
X7576Y-11191D03*
X3576Y-11191D03*
G54D12*
X94576Y-5691D03*
X97076Y-4691D03*
G54D13*
X95576Y-3691D03*
G54D14*
X97576Y-3691D03*
X93576Y-3691D03*
G54D12*
X65526Y-35691D03*
X68026Y-34691D03*
G54D13*
X66526Y-33691D03*
G54D14*
X68526Y-33691D03*
X64526Y-33691D03*
G54D12*
X3626Y-28191D03*
X6126Y-27191D03*
G54D13*
X4626Y-26191D03*
G54D14*
X6626Y-26191D03*
X2626Y-26191D03*
G54D12*
X35526Y-35691D03*
X38026Y-34691D03*
G54D13*
X36526Y-33691D03*
G54D14*
X38526Y-33691D03*
X34526Y-33691D03*
G54D12*
X88026Y-28191D03*
X90526Y-27191D03*
G54D13*
X89026Y-26191D03*
G54D14*
X91026Y-26191D03*
X87026Y-26191D03*
G54D12*
X3626Y-35691D03*
X6126Y-34691D03*
G54D13*
X4626Y-33691D03*
G54D14*
X6626Y-33691D03*
X2626Y-33691D03*
G54D12*
X81476Y-13191D03*
X83976Y-12191D03*
G54D13*
X82476Y-11191D03*
G54D14*
X84476Y-11191D03*
X80476Y-11191D03*
G54D12*
X43976Y-13191D03*
X46476Y-12191D03*
G54D13*
X44976Y-11191D03*
G54D14*
X46976Y-11191D03*
X42976Y-11191D03*
G54D12*
X51476Y-13191D03*
X53976Y-12191D03*
G54D13*
X52476Y-11191D03*
G54D14*
X54476Y-11191D03*
X50476Y-11191D03*
G54D12*
X58976Y-13191D03*
X61476Y-12191D03*
G54D13*
X59976Y-11191D03*
G54D14*
X61976Y-11191D03*
X57976Y-11191D03*
G54D12*
X66476Y-13191D03*
X68976Y-12191D03*
G54D13*
X67476Y-11191D03*
G54D14*
X69476Y-11191D03*
X65476Y-11191D03*
G54D12*
X73976Y-13191D03*
X76476Y-12191D03*
G54D13*
X74976Y-11191D03*
G54D14*
X76976Y-11191D03*
X72976Y-11191D03*
G54D12*
X23326Y-20691D03*
X25826Y-19691D03*
G54D13*
X24326Y-18691D03*
G54D14*
X26326Y-18691D03*
X22326Y-18691D03*
G54D12*
X88976Y-13191D03*
X91476Y-12191D03*
G54D13*
X89976Y-11191D03*
G54D14*
X91976Y-11191D03*
X87976Y-11191D03*
G54D12*
X96476Y-13191D03*
X98976Y-12191D03*
G54D13*
X97476Y-11191D03*
G54D14*
X99476Y-11191D03*
X95476Y-11191D03*
G54D12*
X15826Y-20691D03*
X18326Y-19691D03*
G54D13*
X16826Y-18691D03*
G54D14*
X18826Y-18691D03*
X14826Y-18691D03*
G54D12*
X10226Y-5691D03*
X12726Y-4691D03*
G54D13*
X11226Y-3691D03*
G54D14*
X13226Y-3691D03*
X9226Y-3691D03*
G54D12*
X36476Y-13191D03*
X38976Y-12191D03*
G54D13*
X37476Y-11191D03*
G54D14*
X39476Y-11191D03*
X35476Y-11191D03*
G54D12*
X28976Y-13191D03*
X31476Y-12191D03*
G54D13*
X29976Y-11191D03*
G54D14*
X31976Y-11191D03*
X27976Y-11191D03*
G54D12*
X21476Y-13191D03*
X23976Y-12191D03*
G54D13*
X22476Y-11191D03*
G54D14*
X24476Y-11191D03*
X20476Y-11191D03*
G54D12*
X13976Y-13191D03*
X16476Y-12191D03*
G54D13*
X14976Y-11191D03*
G54D14*
X16976Y-11191D03*
X12976Y-11191D03*
G54D12*
X85226Y-5691D03*
X87726Y-4691D03*
G54D13*
X86226Y-3691D03*
G54D14*
X88226Y-3691D03*
X84226Y-3691D03*
G54D12*
X77726Y-5691D03*
X80226Y-4691D03*
G54D13*
X78726Y-3691D03*
G54D14*
X80726Y-3691D03*
X76726Y-3691D03*
G54D12*
X70226Y-5691D03*
X72726Y-4691D03*
G54D13*
X71226Y-3691D03*
G54D14*
X73226Y-3691D03*
X69226Y-3691D03*
G54D12*
X55226Y-5691D03*
X57726Y-4691D03*
G54D13*
X56226Y-3691D03*
G54D14*
X58226Y-3691D03*
X54226Y-3691D03*
G54D12*
X40226Y-5691D03*
X42726Y-4691D03*
G54D13*
X41226Y-3691D03*
G54D14*
X43226Y-3691D03*
X39226Y-3691D03*
G54D12*
X32726Y-5691D03*
X35226Y-4691D03*
G54D13*
X33726Y-3691D03*
G54D14*
X35726Y-3691D03*
X31726Y-3691D03*
G54D12*
X25226Y-5691D03*
X27726Y-4691D03*
G54D13*
X26226Y-3691D03*
G54D14*
X28226Y-3691D03*
X24226Y-3691D03*
G54D12*
X17726Y-5691D03*
X20226Y-4691D03*
G54D13*
X18726Y-3691D03*
G54D14*
X20726Y-3691D03*
X16726Y-3691D03*
G54D12*
X73976Y-35691D03*
X76476Y-34691D03*
G54D13*
X74976Y-33691D03*
G54D14*
X76976Y-33691D03*
X72976Y-33691D03*
G54D12*
X64576Y-28191D03*
X67076Y-27191D03*
G54D13*
X65576Y-26191D03*
G54D14*
X67576Y-26191D03*
X63576Y-26191D03*
G54D12*
X2726Y-5691D03*
X5226Y-4691D03*
G54D13*
X3726Y-3691D03*
G54D14*
X5726Y-3691D03*
X1726Y-3691D03*
G54D12*
X47726Y-5691D03*
X50226Y-4691D03*
G54D13*
X48726Y-3691D03*
G54D14*
X50726Y-3691D03*
X46726Y-3691D03*
G54D12*
X62726Y-5691D03*
X65226Y-4691D03*
G54D13*
X63726Y-3691D03*
G54D14*
X65726Y-3691D03*
X61726Y-3691D03*
G54D12*
X96476Y-28191D03*
X98976Y-27191D03*
G54D13*
X97476Y-26191D03*
G54D14*
X99476Y-26191D03*
X95476Y-26191D03*
G54D12*
X96476Y-35691D03*
X98976Y-34691D03*
G54D13*
X97476Y-33691D03*
G54D14*
X99476Y-33691D03*
X95476Y-33691D03*
G54D12*
X27076Y-35691D03*
X29576Y-34691D03*
G54D13*
X28076Y-33691D03*
G54D14*
X30076Y-33691D03*
X26076Y-33691D03*
G54D12*
X88976Y-35691D03*
X91476Y-34691D03*
G54D13*
X89976Y-33691D03*
G54D14*
X91976Y-33691D03*
X87976Y-33691D03*
G54D12*
X27076Y-28191D03*
X29576Y-27191D03*
G54D13*
X28076Y-26191D03*
G54D14*
X30076Y-26191D03*
X26076Y-26191D03*
G54D12*
X81476Y-35691D03*
X83976Y-34691D03*
G54D13*
X82476Y-33691D03*
G54D14*
X84476Y-33691D03*
X80476Y-33691D03*
G54D12*
X19576Y-35691D03*
X22076Y-34691D03*
G54D13*
X20576Y-33691D03*
G54D14*
X22576Y-33691D03*
X18576Y-33691D03*
G54D12*
X12076Y-35691D03*
X14576Y-34691D03*
G54D13*
X13076Y-33691D03*
G54D14*
X15076Y-33691D03*
X11076Y-33691D03*
G54D12*
X79576Y-28191D03*
X82076Y-27191D03*
G54D13*
X80576Y-26191D03*
G54D14*
X82576Y-26191D03*
X78576Y-26191D03*
G54D12*
X72076Y-28191D03*
X74576Y-27191D03*
G54D13*
X73076Y-26191D03*
G54D14*
X75076Y-26191D03*
X71076Y-26191D03*
G54D12*
X30826Y-20691D03*
X33326Y-19691D03*
G54D13*
X31826Y-18691D03*
G54D14*
X33826Y-18691D03*
X29826Y-18691D03*
G54D12*
X57076Y-28191D03*
X59576Y-27191D03*
G54D13*
X58076Y-26191D03*
G54D14*
X60076Y-26191D03*
X56076Y-26191D03*
G54D12*
X49576Y-28191D03*
X52076Y-27191D03*
G54D13*
X50576Y-26191D03*
G54D14*
X52576Y-26191D03*
X48576Y-26191D03*
G54D12*
X42076Y-28191D03*
X44576Y-27191D03*
G54D13*
X43076Y-26191D03*
G54D14*
X45076Y-26191D03*
X41076Y-26191D03*
G54D12*
X34576Y-28191D03*
X37076Y-27191D03*
G54D13*
X35576Y-26191D03*
G54D14*
X37576Y-26191D03*
X33576Y-26191D03*
G54D12*
X19576Y-28191D03*
X22076Y-27191D03*
G54D13*
X20576Y-26191D03*
G54D14*
X22576Y-26191D03*
X18576Y-26191D03*
G54D12*
X12076Y-28191D03*
X14576Y-27191D03*
G54D13*
X13076Y-26191D03*
G54D14*
X15076Y-26191D03*
X11076Y-26191D03*
G54D12*
X83376Y-20691D03*
X85876Y-19691D03*
G54D13*
X84376Y-18691D03*
G54D14*
X86376Y-18691D03*
X82376Y-18691D03*
G54D12*
X75876Y-20691D03*
X78376Y-19691D03*
G54D13*
X76876Y-18691D03*
G54D14*
X78876Y-18691D03*
X74876Y-18691D03*
G54D12*
X68376Y-20691D03*
X70876Y-19691D03*
G54D13*
X69376Y-18691D03*
G54D14*
X71376Y-18691D03*
X67376Y-18691D03*
G54D12*
X60876Y-20691D03*
X63376Y-19691D03*
G54D13*
X61876Y-18691D03*
G54D14*
X63876Y-18691D03*
X59876Y-18691D03*
G54D12*
X53376Y-20691D03*
X55876Y-19691D03*
G54D13*
X54376Y-18691D03*
G54D14*
X56376Y-18691D03*
X52376Y-18691D03*
G54D12*
X45876Y-20691D03*
X48376Y-19691D03*
G54D13*
X46876Y-18691D03*
G54D14*
X48876Y-18691D03*
X44876Y-18691D03*
G54D12*
X38376Y-20691D03*
X40876Y-19691D03*
G54D13*
X39376Y-18691D03*
G54D14*
X41376Y-18691D03*
X37376Y-18691D03*
G54D12*
X50526Y-35691D03*
X53026Y-34691D03*
G54D13*
X51526Y-33691D03*
G54D14*
X53526Y-33691D03*
X49526Y-33691D03*
G54D15*
X56226Y-36441D03*
X46826Y-36441D03*
G54D13*
X56226Y-30441D03*
X46826Y-30441D03*
G54D16*
X1101Y-12941D03*
X1851Y-12941D03*
X1101Y-11441D03*
X1851Y-11441D03*
X1101Y-9941D03*
X1851Y-9941D03*
G54D17*
X100726Y-441D03*
X100726Y-36941D03*
X476Y-36941D03*
X476Y-441D03*
G54D18*
X8833Y-504D03*
X8831Y-711D03*
X8833Y-900D03*
G54D19*
X8833Y-702D03*
G54D20*
X6746Y-2785D03*
X7061Y-2154D03*
X7376Y-2785D03*
X7691Y-2154D03*
X8006Y-2785D03*
G54D19*
X5939Y-717D03*
G54D18*
X5940Y-913D03*
X5942Y-715D03*
X5940Y-519D03*
G54D21*
X29595Y-28341D03*
X28256Y-28341D03*
X76495Y-13341D03*
X75156Y-13341D03*
X72745Y-5841D03*
X71406Y-5841D03*
X68995Y-13341D03*
X67656Y-13341D03*
X70895Y-20841D03*
X69556Y-20841D03*
X38995Y-13341D03*
X37656Y-13341D03*
X63395Y-20841D03*
X62056Y-20841D03*
X61495Y-13341D03*
X60156Y-13341D03*
X65245Y-5841D03*
X63906Y-5841D03*
X57745Y-5841D03*
X56406Y-5841D03*
X53995Y-13341D03*
X52656Y-13341D03*
X55895Y-20841D03*
X54556Y-20841D03*
X40895Y-20841D03*
X39556Y-20841D03*
X5245Y-5841D03*
X3906Y-5841D03*
X50245Y-5841D03*
X48906Y-5841D03*
X35245Y-5841D03*
X33906Y-5841D03*
X80245Y-5841D03*
X78906Y-5841D03*
X33345Y-20841D03*
X32006Y-20841D03*
X31495Y-13341D03*
X30156Y-13341D03*
X27745Y-5841D03*
X26406Y-5841D03*
X44595Y-28341D03*
X43256Y-28341D03*
X48395Y-20841D03*
X47056Y-20841D03*
X46495Y-13341D03*
X45156Y-13341D03*
X42745Y-5841D03*
X41406Y-5841D03*
X22095Y-28341D03*
X20756Y-28341D03*
X14595Y-28341D03*
X13256Y-28341D03*
X25845Y-20841D03*
X24506Y-20841D03*
X23995Y-13341D03*
X22656Y-13341D03*
X18345Y-20841D03*
X17006Y-20841D03*
X16495Y-13341D03*
X15156Y-13341D03*
X20245Y-5841D03*
X18906Y-5841D03*
X97095Y-5841D03*
X95756Y-5841D03*
X76495Y-35841D03*
X75156Y-35841D03*
X68045Y-35841D03*
X66706Y-35841D03*
X29595Y-35841D03*
X28256Y-35841D03*
X38045Y-35841D03*
X36706Y-35841D03*
X6145Y-28341D03*
X4806Y-28341D03*
X8045Y-20841D03*
X6706Y-20841D03*
X22095Y-35841D03*
X20756Y-35841D03*
X14595Y-35841D03*
X13256Y-35841D03*
X6145Y-35841D03*
X4806Y-35841D03*
X59595Y-28341D03*
X58256Y-28341D03*
X52095Y-28341D03*
X50756Y-28341D03*
X37095Y-28341D03*
X35756Y-28341D03*
X87745Y-5841D03*
X86406Y-5841D03*
X7095Y-13341D03*
X5756Y-13341D03*
X91495Y-13341D03*
X90156Y-13341D03*
X98995Y-13341D03*
X97656Y-13341D03*
X85895Y-20841D03*
X84556Y-20841D03*
X96195Y-20841D03*
X94856Y-20841D03*
X83995Y-35841D03*
X82656Y-35841D03*
X91495Y-35841D03*
X90156Y-35841D03*
X98995Y-35841D03*
X97656Y-35841D03*
X98995Y-28341D03*
X97656Y-28341D03*
X90545Y-28341D03*
X89206Y-28341D03*
X82095Y-28341D03*
X80756Y-28341D03*
X74595Y-28341D03*
X73256Y-28341D03*
X67095Y-28341D03*
X65756Y-28341D03*
X78395Y-20841D03*
X77056Y-20841D03*
X83995Y-13341D03*
X82656Y-13341D03*
X12745Y-5841D03*
X11406Y-5841D03*
X53045Y-35841D03*
X51706Y-35841D03*
G54D22*
X9992Y-14857D02*
X9577Y-14442D01*
X10215Y-14635D02*
X9799Y-14219D01*
X10438Y-14412D02*
X10022Y-13996D01*
X10661Y-14189D02*
X10245Y-13773D01*
X10883Y-13966D02*
X10468Y-13551D01*
X11106Y-13744D02*
X10690Y-13328D01*
X9770Y-15080D02*
X9354Y-14664D01*
X9547Y-15303D02*
X9131Y-14887D01*
X9324Y-15526D02*
X8908Y-15110D01*
X9101Y-15748D02*
X8686Y-15333D01*
X8879Y-15971D02*
X8463Y-15555D01*
X13174Y-18039D02*
X12759Y-17624D01*
X13397Y-17817D02*
X12981Y-17401D01*
X13620Y-17594D02*
X13204Y-17178D01*
X13843Y-17371D02*
X13427Y-16955D01*
X14065Y-17148D02*
X13650Y-16733D01*
X14288Y-16926D02*
X13872Y-16510D01*
X12952Y-18262D02*
X12536Y-17846D01*
X12729Y-18485D02*
X12313Y-18069D01*
X12506Y-18708D02*
X12090Y-18292D01*
X12283Y-18930D02*
X11868Y-18515D01*
X12061Y-19153D02*
X11645Y-18737D01*
X13174Y-14442D02*
X12759Y-14857D01*
X9992Y-17624D02*
X9577Y-18039D01*
X13397Y-14664D02*
X12981Y-15080D01*
X10215Y-17846D02*
X9799Y-18262D01*
X10438Y-18069D02*
X10022Y-18485D01*
X13620Y-14887D02*
X13204Y-15303D01*
X13843Y-15110D02*
X13427Y-15526D01*
X10661Y-18292D02*
X10245Y-18708D01*
X10883Y-18515D02*
X10468Y-18930D01*
X14065Y-15333D02*
X13650Y-15748D01*
X14288Y-15555D02*
X13872Y-15971D01*
X11106Y-18737D02*
X10690Y-19153D01*
X9770Y-17401D02*
X9354Y-17817D01*
X12952Y-14219D02*
X12536Y-14635D01*
X12729Y-13996D02*
X12313Y-14412D01*
X9547Y-17178D02*
X9131Y-17594D01*
X9324Y-16955D02*
X8908Y-17371D01*
X12506Y-13773D02*
X12090Y-14189D01*
X12283Y-13551D02*
X11868Y-13966D01*
X9101Y-16733D02*
X8686Y-17148D01*
X8879Y-16510D02*
X8463Y-16926D01*
X12061Y-13328D02*
X11645Y-13744D01*
G54D21*
X128995Y-20841D03*
X127656Y-20841D03*
X106445Y-5841D03*
X105106Y-5841D03*
X113995Y-5841D03*
X112656Y-5841D03*
X121495Y-5841D03*
X120156Y-5841D03*
X128995Y-5841D03*
X127656Y-5841D03*
X113995Y-13341D03*
X112656Y-13341D03*
X121495Y-13341D03*
X120156Y-13341D03*
X128995Y-13341D03*
X127656Y-13341D03*
X106495Y-20841D03*
X105156Y-20841D03*
X113995Y-20841D03*
X112656Y-20841D03*
X121495Y-20841D03*
X120156Y-20841D03*
X106495Y-13341D03*
X105156Y-13341D03*
X106495Y-28341D03*
X105156Y-28341D03*
X113995Y-28341D03*
X112656Y-28341D03*
X121495Y-28341D03*
X120156Y-28341D03*
X128995Y-28341D03*
X127656Y-28341D03*
X106495Y-35841D03*
X105156Y-35841D03*
X113995Y-35841D03*
X112656Y-35841D03*
X121495Y-35841D03*
X120156Y-35841D03*
X128995Y-35841D03*
X127656Y-35841D03*
G54D23*
X1176Y-22616D03*
X1176Y-21866D03*
X5876Y-16516D03*
X5876Y-15766D03*
X7976Y-5416D03*
X7976Y-4666D03*
X18776Y-15316D03*
X18776Y-14566D03*
X4876Y-14966D03*
X4876Y-15716D03*
X12576Y-23816D03*
X12576Y-23066D03*
X6976Y-5416D03*
X6976Y-4666D03*
X15576Y-23066D03*
X15576Y-23816D03*
G54D16*
X11251Y-12141D03*
X10501Y-12141D03*
X7451Y-15541D03*
X6701Y-15541D03*
X10201Y-21341D03*
X10951Y-21341D03*
G54D23*
X16876Y-16666D03*
X16876Y-17416D03*
G54D24*
X59676Y-34441D03*
X58676Y-34441D03*
X58676Y-32441D03*
X59676Y-33441D03*
X59676Y-32441D03*
X58676Y-33441D03*
G54D12*
X126476Y-28191D03*
X128976Y-27191D03*
G54D13*
X127476Y-26191D03*
G54D14*
X129476Y-26191D03*
X125476Y-26191D03*
G54D12*
X103976Y-35691D03*
X106476Y-34691D03*
G54D13*
X104976Y-33691D03*
G54D14*
X106976Y-33691D03*
X102976Y-33691D03*
G54D12*
X111476Y-35691D03*
X113976Y-34691D03*
G54D13*
X112476Y-33691D03*
G54D14*
X114476Y-33691D03*
X110476Y-33691D03*
G54D12*
X118976Y-28191D03*
X121476Y-27191D03*
G54D13*
X119976Y-26191D03*
G54D14*
X121976Y-26191D03*
X117976Y-26191D03*
G54D12*
X118976Y-35691D03*
X121476Y-34691D03*
G54D13*
X119976Y-33691D03*
G54D14*
X121976Y-33691D03*
X117976Y-33691D03*
G54D12*
X126476Y-35691D03*
X128976Y-34691D03*
G54D13*
X127476Y-33691D03*
G54D14*
X129476Y-33691D03*
X125476Y-33691D03*
G54D12*
X118976Y-20691D03*
X121476Y-19691D03*
G54D13*
X119976Y-18691D03*
G54D14*
X121976Y-18691D03*
X117976Y-18691D03*
G54D12*
X111476Y-28191D03*
X113976Y-27191D03*
G54D13*
X112476Y-26191D03*
G54D14*
X114476Y-26191D03*
X110476Y-26191D03*
G54D12*
X103976Y-28191D03*
X106476Y-27191D03*
G54D13*
X104976Y-26191D03*
G54D14*
X106976Y-26191D03*
X102976Y-26191D03*
G54D12*
X126476Y-20691D03*
X128976Y-19691D03*
G54D13*
X127476Y-18691D03*
G54D14*
X129476Y-18691D03*
X125476Y-18691D03*
G54D12*
X103926Y-5691D03*
X106426Y-4691D03*
G54D13*
X104926Y-3691D03*
G54D14*
X106926Y-3691D03*
X102926Y-3691D03*
G54D12*
X111476Y-20691D03*
X113976Y-19691D03*
G54D13*
X112476Y-18691D03*
G54D14*
X114476Y-18691D03*
X110476Y-18691D03*
G54D12*
X103976Y-20691D03*
X106476Y-19691D03*
G54D13*
X104976Y-18691D03*
G54D14*
X106976Y-18691D03*
X102976Y-18691D03*
G54D12*
X126476Y-13191D03*
X128976Y-12191D03*
G54D13*
X127476Y-11191D03*
G54D14*
X129476Y-11191D03*
X125476Y-11191D03*
G54D12*
X118976Y-13191D03*
X121476Y-12191D03*
G54D13*
X119976Y-11191D03*
G54D14*
X121976Y-11191D03*
X117976Y-11191D03*
G54D12*
X111476Y-13191D03*
X113976Y-12191D03*
G54D13*
X112476Y-11191D03*
G54D14*
X114476Y-11191D03*
X110476Y-11191D03*
G54D12*
X103976Y-13191D03*
X106476Y-12191D03*
G54D13*
X104976Y-11191D03*
G54D14*
X106976Y-11191D03*
X102976Y-11191D03*
G54D12*
X126476Y-5691D03*
X128976Y-4691D03*
G54D13*
X127476Y-3691D03*
G54D14*
X129476Y-3691D03*
X125476Y-3691D03*
G54D12*
X118976Y-5691D03*
X121476Y-4691D03*
G54D13*
X119976Y-3691D03*
G54D14*
X121976Y-3691D03*
X117976Y-3691D03*
G54D12*
X111476Y-5691D03*
X113976Y-4691D03*
G54D13*
X112476Y-3691D03*
G54D14*
X114476Y-3691D03*
X110476Y-3691D03*
G54D25*
X13741Y-22968D03*
X13741Y-23913D03*
X14410Y-22968D03*
X14410Y-23913D03*
M02*
