M48
;DRILL file {Pcbnew (2013-02-13 BZR 3947)-testing} date 2016.01.05 21:00:00
;FORMAT={-:-/ absolute / inch / decimal}
FMAT,2
INCH,TZ
T1C0.013
T2C0.016
T3C0.031
T4C0.032
T5C0.035
T6C0.059
T7C0.067
T8C0.120
T9C0.157
%
G90
G05
M72
T1
X0.1018Y-2.0848
X0.1462Y-1.9512
X0.3256Y-1.9788
X0.4067Y-1.5391
X0.6623Y-1.9953
X0.9197Y-1.866
X0.9538Y-1.5881
X0.9547Y-1.6573
X0.9769Y-1.6972
X0.9805Y-1.5462
X1.0528Y-1.5838
X1.0748Y-1.7279
X1.1353Y-1.4016
X1.1357Y-1.598
X1.1366Y-1.4872
X1.1384Y-1.3584
X1.1472Y-1.4376
X1.1748Y-1.6123
X1.2376Y-2.0141
X1.2495Y-1.5161
X1.2882Y-2.0465
X1.311Y-1.8517
X1.3222Y-2.7909
X1.3389Y-1.6269
X1.3476Y-1.9091
X1.3891Y-1.9737
X1.4323Y-2.1555
X1.4616Y-2.0119
X1.6013Y-1.985
X1.7525Y-1.985
X1.8178Y-1.5304
X1.8744Y-2.7811
X3.796Y-1.6436
X4.0725Y-2.1555
X4.5719Y-1.6199
X5.4767Y-2.013
X6.0646Y-1.7652
X6.7931Y-1.7337
X7.546Y-1.7291
X8.2242Y-1.3419
X8.8819Y-1.4376
X9.5993Y-1.4872
X10.5877Y-1.6132
X10.6235Y-1.5554
X11.3963Y-1.5805
X12.7513Y-1.454
T2
X0.0476Y-0.0441
X0.0476Y-3.6941
X1.0286Y-1.7327
X1.2171Y-1.7504
X1.2875Y-1.6479
X1.614Y-1.6479
X1.6312Y-1.7585
X1.8556Y-3.2417
X1.9787Y-3.6742
X10.0726Y-0.0441
X10.0726Y-3.6941
T3
X0.594Y-0.0519
X0.594Y-0.0913
X0.5942Y-0.0715
X0.8831Y-0.0711
X0.8833Y-0.0504
X0.8833Y-0.09
T5
X0.6746Y-0.2706
X0.7061Y-0.2233
X0.7376Y-0.2706
X0.7691Y-0.2233
X0.8006Y-0.2706
X5.8676Y-3.2441
X5.8676Y-3.3441
X5.8676Y-3.4441
X5.9676Y-3.2441
X5.9676Y-3.3441
X5.9676Y-3.4441
T6
X0.2726Y-0.5691
X0.3626Y-2.8191
X0.3626Y-3.5691
X0.4576Y-1.3191
X0.5226Y-0.4691
X0.5526Y-2.0691
X0.6126Y-2.7191
X0.6126Y-3.4691
X0.7076Y-1.2191
X0.8026Y-1.9691
X1.0226Y-0.5691
X1.2076Y-2.8191
X1.2076Y-3.5691
X1.2726Y-0.4691
X1.3976Y-1.3191
X1.4576Y-2.7191
X1.4576Y-3.4691
X1.5826Y-2.0691
X1.6476Y-1.2191
X1.7726Y-0.5691
X1.8326Y-1.9691
X1.9576Y-2.8191
X1.9576Y-3.5691
X2.0226Y-0.4691
X2.1476Y-1.3191
X2.2076Y-2.7191
X2.2076Y-3.4691
X2.3326Y-2.0691
X2.3976Y-1.2191
X2.5226Y-0.5691
X2.5826Y-1.9691
X2.7076Y-2.8191
X2.7076Y-3.5691
X2.7726Y-0.4691
X2.8976Y-1.3191
X2.9576Y-2.7191
X2.9576Y-3.4691
X3.0826Y-2.0691
X3.1476Y-1.2191
X3.2726Y-0.5691
X3.3326Y-1.9691
X3.4576Y-2.8191
X3.5226Y-0.4691
X3.5526Y-3.5691
X3.6476Y-1.3191
X3.7076Y-2.7191
X3.8026Y-3.4691
X3.8376Y-2.0691
X3.8976Y-1.2191
X4.0226Y-0.5691
X4.0876Y-1.9691
X4.2076Y-2.8191
X4.2726Y-0.4691
X4.3976Y-1.3191
X4.4576Y-2.7191
X4.5876Y-2.0691
X4.6476Y-1.2191
X4.7726Y-0.5691
X4.8376Y-1.9691
X4.9576Y-2.8191
X5.0226Y-0.4691
X5.0526Y-3.5691
X5.1476Y-1.3191
X5.2076Y-2.7191
X5.3026Y-3.4691
X5.3376Y-2.0691
X5.3976Y-1.2191
X5.5226Y-0.5691
X5.5876Y-1.9691
X5.7076Y-2.8191
X5.7726Y-0.4691
X5.8976Y-1.3191
X5.9576Y-2.7191
X6.0876Y-2.0691
X6.1476Y-1.2191
X6.2726Y-0.5691
X6.3376Y-1.9691
X6.4576Y-2.8191
X6.5226Y-0.4691
X6.5526Y-3.5691
X6.6476Y-1.3191
X6.7076Y-2.7191
X6.8026Y-3.4691
X6.8376Y-2.0691
X6.8976Y-1.2191
X7.0226Y-0.5691
X7.0876Y-1.9691
X7.2076Y-2.8191
X7.2726Y-0.4691
X7.3976Y-1.3191
X7.3976Y-3.5691
X7.4576Y-2.7191
X7.5876Y-2.0691
X7.6476Y-1.2191
X7.6476Y-3.4691
X7.7726Y-0.5691
X7.8376Y-1.9691
X7.9576Y-2.8191
X8.0226Y-0.4691
X8.1476Y-1.3191
X8.1476Y-3.5691
X8.2076Y-2.7191
X8.3376Y-2.0691
X8.3976Y-1.2191
X8.3976Y-3.4691
X8.5226Y-0.5691
X8.5876Y-1.9691
X8.7726Y-0.4691
X8.8026Y-2.8191
X8.8976Y-1.3191
X8.8976Y-3.5691
X9.0526Y-2.7191
X9.1476Y-1.2191
X9.1476Y-3.4691
X9.3676Y-2.0691
X9.4576Y-0.5691
X9.6176Y-1.9691
X9.6476Y-1.3191
X9.6476Y-2.8191
X9.6476Y-3.5691
X9.7076Y-0.4691
X9.8976Y-1.2191
X9.8976Y-2.7191
X9.8976Y-3.4691
X10.3926Y-0.5691
X10.3976Y-1.3191
X10.3976Y-2.0691
X10.3976Y-2.8191
X10.3976Y-3.5691
X10.6426Y-0.4691
X10.6476Y-1.2191
X10.6476Y-1.9691
X10.6476Y-2.7191
X10.6476Y-3.4691
X11.1476Y-0.5691
X11.1476Y-1.3191
X11.1476Y-2.0691
X11.1476Y-2.8191
X11.1476Y-3.5691
X11.3976Y-0.4691
X11.3976Y-1.2191
X11.3976Y-1.9691
X11.3976Y-2.7191
X11.3976Y-3.4691
X11.8976Y-0.5691
X11.8976Y-1.3191
X11.8976Y-2.0691
X11.8976Y-2.8191
X11.8976Y-3.5691
X12.1476Y-0.4691
X12.1476Y-1.2191
X12.1476Y-1.9691
X12.1476Y-2.7191
X12.1476Y-3.4691
X12.6476Y-0.5691
X12.6476Y-1.3191
X12.6476Y-2.0691
X12.6476Y-2.8191
X12.6476Y-3.5691
X12.8976Y-0.4691
X12.8976Y-1.2191
X12.8976Y-1.9691
X12.8976Y-2.7191
X12.8976Y-3.4691
T7
X0.1726Y-0.3691
X0.2626Y-2.6191
X0.2626Y-3.3691
X0.3576Y-1.1191
X0.4526Y-1.8691
X0.5726Y-0.3691
X0.6626Y-2.6191
X0.6626Y-3.3691
X0.7576Y-1.1191
X0.8526Y-1.8691
X0.9226Y-0.3691
X1.1076Y-2.6191
X1.1076Y-3.3691
X1.2976Y-1.1191
X1.3226Y-0.3691
X1.4826Y-1.8691
X1.5076Y-2.6191
X1.5076Y-3.3691
X1.6726Y-0.3691
X1.6976Y-1.1191
X1.8576Y-2.6191
X1.8576Y-3.3691
X1.8826Y-1.8691
X2.0476Y-1.1191
X2.0726Y-0.3691
X2.2326Y-1.8691
X2.2576Y-2.6191
X2.2576Y-3.3691
X2.4226Y-0.3691
X2.4476Y-1.1191
X2.6076Y-2.6191
X2.6076Y-3.3691
X2.6326Y-1.8691
X2.7976Y-1.1191
X2.8226Y-0.3691
X2.9826Y-1.8691
X3.0076Y-2.6191
X3.0076Y-3.3691
X3.1726Y-0.3691
X3.1976Y-1.1191
X3.3576Y-2.6191
X3.3826Y-1.8691
X3.4526Y-3.3691
X3.5476Y-1.1191
X3.5726Y-0.3691
X3.7376Y-1.8691
X3.7576Y-2.6191
X3.8526Y-3.3691
X3.9226Y-0.3691
X3.9476Y-1.1191
X4.1076Y-2.6191
X4.1376Y-1.8691
X4.2976Y-1.1191
X4.3226Y-0.3691
X4.4876Y-1.8691
X4.5076Y-2.6191
X4.6726Y-0.3691
X4.6976Y-1.1191
X4.8576Y-2.6191
X4.8876Y-1.8691
X4.9526Y-3.3691
X5.0476Y-1.1191
X5.0726Y-0.3691
X5.2376Y-1.8691
X5.2576Y-2.6191
X5.3526Y-3.3691
X5.4226Y-0.3691
X5.4476Y-1.1191
X5.6076Y-2.6191
X5.6376Y-1.8691
X5.7976Y-1.1191
X5.8226Y-0.3691
X5.9876Y-1.8691
X6.0076Y-2.6191
X6.1726Y-0.3691
X6.1976Y-1.1191
X6.3576Y-2.6191
X6.3876Y-1.8691
X6.4526Y-3.3691
X6.5476Y-1.1191
X6.5726Y-0.3691
X6.7376Y-1.8691
X6.7576Y-2.6191
X6.8526Y-3.3691
X6.9226Y-0.3691
X6.9476Y-1.1191
X7.1076Y-2.6191
X7.1376Y-1.8691
X7.2976Y-1.1191
X7.2976Y-3.3691
X7.3226Y-0.3691
X7.4876Y-1.8691
X7.5076Y-2.6191
X7.6726Y-0.3691
X7.6976Y-1.1191
X7.6976Y-3.3691
X7.8576Y-2.6191
X7.8876Y-1.8691
X8.0476Y-1.1191
X8.0476Y-3.3691
X8.0726Y-0.3691
X8.2376Y-1.8691
X8.2576Y-2.6191
X8.4226Y-0.3691
X8.4476Y-1.1191
X8.4476Y-3.3691
X8.6376Y-1.8691
X8.7026Y-2.6191
X8.7976Y-1.1191
X8.7976Y-3.3691
X8.8226Y-0.3691
X9.1026Y-2.6191
X9.1976Y-1.1191
X9.1976Y-3.3691
X9.2676Y-1.8691
X9.3576Y-0.3691
X9.5476Y-1.1191
X9.5476Y-2.6191
X9.5476Y-3.3691
X9.6676Y-1.8691
X9.7576Y-0.3691
X9.9476Y-1.1191
X9.9476Y-2.6191
X9.9476Y-3.3691
X10.2926Y-0.3691
X10.2976Y-1.1191
X10.2976Y-1.8691
X10.2976Y-2.6191
X10.2976Y-3.3691
X10.6926Y-0.3691
X10.6976Y-1.1191
X10.6976Y-1.8691
X10.6976Y-2.6191
X10.6976Y-3.3691
X11.0476Y-0.3691
X11.0476Y-1.1191
X11.0476Y-1.8691
X11.0476Y-2.6191
X11.0476Y-3.3691
X11.4476Y-0.3691
X11.4476Y-1.1191
X11.4476Y-1.8691
X11.4476Y-2.6191
X11.4476Y-3.3691
X11.7976Y-0.3691
X11.7976Y-1.1191
X11.7976Y-1.8691
X11.7976Y-2.6191
X11.7976Y-3.3691
X12.1976Y-0.3691
X12.1976Y-1.1191
X12.1976Y-1.8691
X12.1976Y-2.6191
X12.1976Y-3.3691
X12.5476Y-0.3691
X12.5476Y-1.1191
X12.5476Y-1.8691
X12.5476Y-2.6191
X12.5476Y-3.3691
X12.9476Y-0.3691
X12.9476Y-1.1191
X12.9476Y-1.8691
X12.9476Y-2.6191
X12.9476Y-3.3691
T8
X4.6826Y-3.6441
X5.6226Y-3.6441
T9
X0.3726Y-0.3691
X0.4626Y-2.6191
X0.4626Y-3.3691
X0.5576Y-1.1191
X0.6526Y-1.8691
X1.1226Y-0.3691
X1.3076Y-2.6191
X1.3076Y-3.3691
X1.4976Y-1.1191
X1.6826Y-1.8691
X1.8726Y-0.3691
X2.0576Y-2.6191
X2.0576Y-3.3691
X2.2476Y-1.1191
X2.4326Y-1.8691
X2.6226Y-0.3691
X2.8076Y-2.6191
X2.8076Y-3.3691
X2.9976Y-1.1191
X3.1826Y-1.8691
X3.3726Y-0.3691
X3.5576Y-2.6191
X3.6526Y-3.3691
X3.7476Y-1.1191
X3.9376Y-1.8691
X4.1226Y-0.3691
X4.3076Y-2.6191
X4.4976Y-1.1191
X4.6826Y-3.0441
X4.6876Y-1.8691
X4.8726Y-0.3691
X5.0576Y-2.6191
X5.1526Y-3.3691
X5.2476Y-1.1191
X5.4376Y-1.8691
X5.6226Y-0.3691
X5.6226Y-3.0441
X5.8076Y-2.6191
X5.9976Y-1.1191
X6.1876Y-1.8691
X6.3726Y-0.3691
X6.5576Y-2.6191
X6.6526Y-3.3691
X6.7476Y-1.1191
X6.9376Y-1.8691
X7.1226Y-0.3691
X7.3076Y-2.6191
X7.4976Y-1.1191
X7.4976Y-3.3691
X7.6876Y-1.8691
X7.8726Y-0.3691
X8.0576Y-2.6191
X8.2476Y-1.1191
X8.2476Y-3.3691
X8.4376Y-1.8691
X8.6226Y-0.3691
X8.9026Y-2.6191
X8.9976Y-1.1191
X8.9976Y-3.3691
X9.4676Y-1.8691
X9.5576Y-0.3691
X9.7476Y-1.1191
X9.7476Y-2.6191
X9.7476Y-3.3691
X10.4926Y-0.3691
X10.4976Y-1.1191
X10.4976Y-1.8691
X10.4976Y-2.6191
X10.4976Y-3.3691
X11.2476Y-0.3691
X11.2476Y-1.1191
X11.2476Y-1.8691
X11.2476Y-2.6191
X11.2476Y-3.3691
X11.9976Y-0.3691
X11.9976Y-1.1191
X11.9976Y-1.8691
X11.9976Y-2.6191
X11.9976Y-3.3691
X12.7476Y-0.3691
X12.7476Y-1.1191
X12.7476Y-1.8691
X12.7476Y-2.6191
X12.7476Y-3.3691
T4
X0.5939Y-0.052G85X0.5939Y-0.0914
G05
X0.8833Y-0.0505G85X0.8833Y-0.0899
G05
T0
M30
