G04 (created by PCBNEW (2013-02-13 BZR 3947)-testing) date 2016.01.05 20:59:58*
%MOIN*%
G04 Gerber Fmt 3.4, Leading zero omitted, Abs format*
%FSLAX34Y34*%
G01*
G70*
G90*
G04 APERTURE LIST*
%ADD10C,0.08*%
%ADD11C,0.00625197*%
%ADD12C,0.009*%
%ADD13C,0.011811*%
%ADD14C,0.015*%
%ADD15C,0.0001*%
%ADD16C,0.0079*%
%ADD17C,0.005*%
%ADD18C,0.0025*%
%ADD19C,0.008*%
%ADD20C,0.00590551*%
G04 APERTURE END LIST*
G54D10*
G54D11*
X9564Y-19689D02*
X9389Y-19689D01*
X9389Y-19321D01*
X9880Y-19689D02*
X9669Y-19689D01*
X9774Y-19689D02*
X9774Y-19321D01*
X9739Y-19374D01*
X9704Y-19409D01*
X9669Y-19427D01*
G54D12*
X100976Y-37191D02*
X131076Y-37191D01*
X100976Y-141D02*
X131076Y-141D01*
G54D13*
X40615Y-30530D02*
X40457Y-30248D01*
X40345Y-30530D02*
X40345Y-29939D01*
X40525Y-29939D01*
X40570Y-29967D01*
X40592Y-29995D01*
X40615Y-30051D01*
X40615Y-30136D01*
X40592Y-30192D01*
X40570Y-30220D01*
X40525Y-30248D01*
X40345Y-30248D01*
X40997Y-30501D02*
X40952Y-30530D01*
X40862Y-30530D01*
X40817Y-30501D01*
X40795Y-30445D01*
X40795Y-30220D01*
X40817Y-30164D01*
X40862Y-30136D01*
X40952Y-30136D01*
X40997Y-30164D01*
X41019Y-30220D01*
X41019Y-30276D01*
X40795Y-30333D01*
X41424Y-30136D02*
X41424Y-30614D01*
X41402Y-30670D01*
X41379Y-30698D01*
X41334Y-30726D01*
X41267Y-30726D01*
X41222Y-30698D01*
X41424Y-30501D02*
X41379Y-30530D01*
X41289Y-30530D01*
X41244Y-30501D01*
X41222Y-30473D01*
X41199Y-30417D01*
X41199Y-30248D01*
X41222Y-30192D01*
X41244Y-30164D01*
X41289Y-30136D01*
X41379Y-30136D01*
X41424Y-30164D01*
X41852Y-30530D02*
X41852Y-30220D01*
X41829Y-30164D01*
X41784Y-30136D01*
X41694Y-30136D01*
X41649Y-30164D01*
X41852Y-30501D02*
X41807Y-30530D01*
X41694Y-30530D01*
X41649Y-30501D01*
X41627Y-30445D01*
X41627Y-30389D01*
X41649Y-30333D01*
X41694Y-30305D01*
X41807Y-30305D01*
X41852Y-30276D01*
X42279Y-30501D02*
X42234Y-30530D01*
X42144Y-30530D01*
X42099Y-30501D01*
X42077Y-30473D01*
X42054Y-30417D01*
X42054Y-30248D01*
X42077Y-30192D01*
X42099Y-30164D01*
X42144Y-30136D01*
X42234Y-30136D01*
X42279Y-30164D01*
X42482Y-30530D02*
X42482Y-29939D01*
X42527Y-30305D02*
X42662Y-30530D01*
X42662Y-30136D02*
X42482Y-30361D01*
X42887Y-29939D02*
X42842Y-30051D01*
X43067Y-30501D02*
X43112Y-30530D01*
X43202Y-30530D01*
X43247Y-30501D01*
X43269Y-30445D01*
X43269Y-30417D01*
X43247Y-30361D01*
X43202Y-30333D01*
X43134Y-30333D01*
X43089Y-30305D01*
X43067Y-30248D01*
X43067Y-30220D01*
X43089Y-30164D01*
X43134Y-30136D01*
X43202Y-30136D01*
X43247Y-30164D01*
X44057Y-29939D02*
X43832Y-29939D01*
X43809Y-30220D01*
X43832Y-30192D01*
X43877Y-30164D01*
X43989Y-30164D01*
X44034Y-30192D01*
X44057Y-30220D01*
X44079Y-30276D01*
X44079Y-30417D01*
X44057Y-30473D01*
X44034Y-30501D01*
X43989Y-30530D01*
X43877Y-30530D01*
X43832Y-30501D01*
X43809Y-30473D01*
X44304Y-30530D02*
X44394Y-30530D01*
X44439Y-30501D01*
X44462Y-30473D01*
X44507Y-30389D01*
X44529Y-30276D01*
X44529Y-30051D01*
X44507Y-29995D01*
X44484Y-29967D01*
X44439Y-29939D01*
X44349Y-29939D01*
X44304Y-29967D01*
X44282Y-29995D01*
X44259Y-30051D01*
X44259Y-30192D01*
X44282Y-30248D01*
X44304Y-30276D01*
X44349Y-30305D01*
X44439Y-30305D01*
X44484Y-30276D01*
X44507Y-30248D01*
X44529Y-30192D01*
X44709Y-30530D02*
X45069Y-29939D01*
X44777Y-29939D02*
X44822Y-29967D01*
X44844Y-30023D01*
X44822Y-30080D01*
X44777Y-30108D01*
X44732Y-30080D01*
X44709Y-30023D01*
X44732Y-29967D01*
X44777Y-29939D01*
X45046Y-30501D02*
X45069Y-30445D01*
X45046Y-30389D01*
X45001Y-30361D01*
X44956Y-30389D01*
X44934Y-30445D01*
X44956Y-30501D01*
X45001Y-30530D01*
X45046Y-30501D01*
X40108Y-31474D02*
X40108Y-30884D01*
X40108Y-31165D02*
X40378Y-31165D01*
X40378Y-31474D02*
X40378Y-30884D01*
X40558Y-31081D02*
X40671Y-31474D01*
X40783Y-31081D02*
X40671Y-31474D01*
X40626Y-31615D01*
X40603Y-31643D01*
X40558Y-31671D01*
X40963Y-31474D02*
X40963Y-30884D01*
X40963Y-31109D02*
X41008Y-31081D01*
X41098Y-31081D01*
X41143Y-31109D01*
X41166Y-31137D01*
X41188Y-31193D01*
X41188Y-31362D01*
X41166Y-31418D01*
X41143Y-31446D01*
X41098Y-31474D01*
X41008Y-31474D01*
X40963Y-31446D01*
X41391Y-31474D02*
X41391Y-31081D01*
X41391Y-31193D02*
X41413Y-31137D01*
X41436Y-31109D01*
X41481Y-31081D01*
X41526Y-31081D01*
X41683Y-31474D02*
X41683Y-31081D01*
X41683Y-30884D02*
X41661Y-30912D01*
X41683Y-30940D01*
X41706Y-30912D01*
X41683Y-30884D01*
X41683Y-30940D01*
X42111Y-31474D02*
X42111Y-30884D01*
X42111Y-31446D02*
X42066Y-31474D01*
X41976Y-31474D01*
X41931Y-31446D01*
X41908Y-31418D01*
X41886Y-31362D01*
X41886Y-31193D01*
X41908Y-31137D01*
X41931Y-31109D01*
X41976Y-31081D01*
X42066Y-31081D01*
X42111Y-31109D01*
X42696Y-31165D02*
X42853Y-31165D01*
X42920Y-31474D02*
X42696Y-31474D01*
X42696Y-30884D01*
X42920Y-30884D01*
X43078Y-31474D02*
X43325Y-31081D01*
X43078Y-31081D02*
X43325Y-31474D01*
X43438Y-31081D02*
X43618Y-31081D01*
X43505Y-30884D02*
X43505Y-31390D01*
X43528Y-31446D01*
X43573Y-31474D01*
X43618Y-31474D01*
X43955Y-31446D02*
X43910Y-31474D01*
X43820Y-31474D01*
X43775Y-31446D01*
X43753Y-31390D01*
X43753Y-31165D01*
X43775Y-31109D01*
X43820Y-31081D01*
X43910Y-31081D01*
X43955Y-31109D01*
X43978Y-31165D01*
X43978Y-31221D01*
X43753Y-31278D01*
X44180Y-31081D02*
X44180Y-31474D01*
X44180Y-31137D02*
X44203Y-31109D01*
X44248Y-31081D01*
X44315Y-31081D01*
X44360Y-31109D01*
X44383Y-31165D01*
X44383Y-31474D01*
X44810Y-31474D02*
X44810Y-30884D01*
X44810Y-31446D02*
X44765Y-31474D01*
X44675Y-31474D01*
X44630Y-31446D01*
X44608Y-31418D01*
X44585Y-31362D01*
X44585Y-31193D01*
X44608Y-31137D01*
X44630Y-31109D01*
X44675Y-31081D01*
X44765Y-31081D01*
X44810Y-31109D01*
X45215Y-31446D02*
X45170Y-31474D01*
X45080Y-31474D01*
X45035Y-31446D01*
X45013Y-31390D01*
X45013Y-31165D01*
X45035Y-31109D01*
X45080Y-31081D01*
X45170Y-31081D01*
X45215Y-31109D01*
X45238Y-31165D01*
X45238Y-31221D01*
X45013Y-31278D01*
X45643Y-31474D02*
X45643Y-30884D01*
X45643Y-31446D02*
X45598Y-31474D01*
X45508Y-31474D01*
X45463Y-31446D01*
X45440Y-31418D01*
X45418Y-31362D01*
X45418Y-31193D01*
X45440Y-31137D01*
X45463Y-31109D01*
X45508Y-31081D01*
X45598Y-31081D01*
X45643Y-31109D01*
G54D12*
X58613Y-35634D02*
X58707Y-36159D01*
X58801Y-35634D01*
X59157Y-36159D02*
X58932Y-36159D01*
X59044Y-36159D02*
X59044Y-35372D01*
X59007Y-35484D01*
X58969Y-35559D01*
X58932Y-35597D01*
X59325Y-36084D02*
X59344Y-36122D01*
X59325Y-36159D01*
X59307Y-36122D01*
X59325Y-36084D01*
X59325Y-36159D01*
X59719Y-36159D02*
X59494Y-36159D01*
X59607Y-36159D02*
X59607Y-35372D01*
X59569Y-35484D01*
X59532Y-35559D01*
X59494Y-35597D01*
X176Y-37191D02*
X176Y-141D01*
X100976Y-37191D02*
X176Y-37191D01*
X131076Y-141D02*
X131076Y-37191D01*
X176Y-141D02*
X100976Y-141D01*
G54D14*
X9026Y-21191D02*
X8326Y-21191D01*
X4726Y-21191D02*
X4026Y-21191D01*
X4026Y-21191D02*
X4026Y-20491D01*
X4026Y-16891D02*
X4026Y-16191D01*
X4026Y-16191D02*
X4726Y-16191D01*
X8326Y-16191D02*
X9026Y-16191D01*
X9026Y-16191D02*
X9026Y-16891D01*
X9026Y-20491D02*
X9026Y-21191D01*
X97176Y-21191D02*
X96476Y-21191D01*
X92876Y-21191D02*
X92176Y-21191D01*
X92176Y-21191D02*
X92176Y-20491D01*
X92176Y-16891D02*
X92176Y-16191D01*
X92176Y-16191D02*
X92876Y-16191D01*
X96476Y-16191D02*
X97176Y-16191D01*
X97176Y-16191D02*
X97176Y-16891D01*
X97176Y-20491D02*
X97176Y-21191D01*
X8076Y-13691D02*
X7376Y-13691D01*
X3776Y-13691D02*
X3076Y-13691D01*
X3076Y-13691D02*
X3076Y-12991D01*
X3076Y-9391D02*
X3076Y-8691D01*
X3076Y-8691D02*
X3776Y-8691D01*
X7376Y-8691D02*
X8076Y-8691D01*
X8076Y-8691D02*
X8076Y-9391D01*
X8076Y-12991D02*
X8076Y-13691D01*
X98076Y-6191D02*
X97376Y-6191D01*
X93776Y-6191D02*
X93076Y-6191D01*
X93076Y-6191D02*
X93076Y-5491D01*
X93076Y-1891D02*
X93076Y-1191D01*
X93076Y-1191D02*
X93776Y-1191D01*
X97376Y-1191D02*
X98076Y-1191D01*
X98076Y-1191D02*
X98076Y-1891D01*
X98076Y-5491D02*
X98076Y-6191D01*
X69026Y-36191D02*
X68326Y-36191D01*
X64726Y-36191D02*
X64026Y-36191D01*
X64026Y-36191D02*
X64026Y-35491D01*
X64026Y-31891D02*
X64026Y-31191D01*
X64026Y-31191D02*
X64726Y-31191D01*
X68326Y-31191D02*
X69026Y-31191D01*
X69026Y-31191D02*
X69026Y-31891D01*
X69026Y-35491D02*
X69026Y-36191D01*
X7126Y-28691D02*
X6426Y-28691D01*
X2826Y-28691D02*
X2126Y-28691D01*
X2126Y-28691D02*
X2126Y-27991D01*
X2126Y-24391D02*
X2126Y-23691D01*
X2126Y-23691D02*
X2826Y-23691D01*
X6426Y-23691D02*
X7126Y-23691D01*
X7126Y-23691D02*
X7126Y-24391D01*
X7126Y-27991D02*
X7126Y-28691D01*
X39026Y-36191D02*
X38326Y-36191D01*
X34726Y-36191D02*
X34026Y-36191D01*
X34026Y-36191D02*
X34026Y-35491D01*
X34026Y-31891D02*
X34026Y-31191D01*
X34026Y-31191D02*
X34726Y-31191D01*
X38326Y-31191D02*
X39026Y-31191D01*
X39026Y-31191D02*
X39026Y-31891D01*
X39026Y-35491D02*
X39026Y-36191D01*
X91526Y-28691D02*
X90826Y-28691D01*
X87226Y-28691D02*
X86526Y-28691D01*
X86526Y-28691D02*
X86526Y-27991D01*
X86526Y-24391D02*
X86526Y-23691D01*
X86526Y-23691D02*
X87226Y-23691D01*
X90826Y-23691D02*
X91526Y-23691D01*
X91526Y-23691D02*
X91526Y-24391D01*
X91526Y-27991D02*
X91526Y-28691D01*
X7126Y-36191D02*
X6426Y-36191D01*
X2826Y-36191D02*
X2126Y-36191D01*
X2126Y-36191D02*
X2126Y-35491D01*
X2126Y-31891D02*
X2126Y-31191D01*
X2126Y-31191D02*
X2826Y-31191D01*
X6426Y-31191D02*
X7126Y-31191D01*
X7126Y-31191D02*
X7126Y-31891D01*
X7126Y-35491D02*
X7126Y-36191D01*
X84976Y-13691D02*
X84276Y-13691D01*
X80676Y-13691D02*
X79976Y-13691D01*
X79976Y-13691D02*
X79976Y-12991D01*
X79976Y-9391D02*
X79976Y-8691D01*
X79976Y-8691D02*
X80676Y-8691D01*
X84276Y-8691D02*
X84976Y-8691D01*
X84976Y-8691D02*
X84976Y-9391D01*
X84976Y-12991D02*
X84976Y-13691D01*
X47476Y-13691D02*
X46776Y-13691D01*
X43176Y-13691D02*
X42476Y-13691D01*
X42476Y-13691D02*
X42476Y-12991D01*
X42476Y-9391D02*
X42476Y-8691D01*
X42476Y-8691D02*
X43176Y-8691D01*
X46776Y-8691D02*
X47476Y-8691D01*
X47476Y-8691D02*
X47476Y-9391D01*
X47476Y-12991D02*
X47476Y-13691D01*
X54976Y-13691D02*
X54276Y-13691D01*
X50676Y-13691D02*
X49976Y-13691D01*
X49976Y-13691D02*
X49976Y-12991D01*
X49976Y-9391D02*
X49976Y-8691D01*
X49976Y-8691D02*
X50676Y-8691D01*
X54276Y-8691D02*
X54976Y-8691D01*
X54976Y-8691D02*
X54976Y-9391D01*
X54976Y-12991D02*
X54976Y-13691D01*
X62476Y-13691D02*
X61776Y-13691D01*
X58176Y-13691D02*
X57476Y-13691D01*
X57476Y-13691D02*
X57476Y-12991D01*
X57476Y-9391D02*
X57476Y-8691D01*
X57476Y-8691D02*
X58176Y-8691D01*
X61776Y-8691D02*
X62476Y-8691D01*
X62476Y-8691D02*
X62476Y-9391D01*
X62476Y-12991D02*
X62476Y-13691D01*
X69976Y-13691D02*
X69276Y-13691D01*
X65676Y-13691D02*
X64976Y-13691D01*
X64976Y-13691D02*
X64976Y-12991D01*
X64976Y-9391D02*
X64976Y-8691D01*
X64976Y-8691D02*
X65676Y-8691D01*
X69276Y-8691D02*
X69976Y-8691D01*
X69976Y-8691D02*
X69976Y-9391D01*
X69976Y-12991D02*
X69976Y-13691D01*
X77476Y-13691D02*
X76776Y-13691D01*
X73176Y-13691D02*
X72476Y-13691D01*
X72476Y-13691D02*
X72476Y-12991D01*
X72476Y-9391D02*
X72476Y-8691D01*
X72476Y-8691D02*
X73176Y-8691D01*
X76776Y-8691D02*
X77476Y-8691D01*
X77476Y-8691D02*
X77476Y-9391D01*
X77476Y-12991D02*
X77476Y-13691D01*
X26826Y-21191D02*
X26126Y-21191D01*
X22526Y-21191D02*
X21826Y-21191D01*
X21826Y-21191D02*
X21826Y-20491D01*
X21826Y-16891D02*
X21826Y-16191D01*
X21826Y-16191D02*
X22526Y-16191D01*
X26126Y-16191D02*
X26826Y-16191D01*
X26826Y-16191D02*
X26826Y-16891D01*
X26826Y-20491D02*
X26826Y-21191D01*
X92476Y-13691D02*
X91776Y-13691D01*
X88176Y-13691D02*
X87476Y-13691D01*
X87476Y-13691D02*
X87476Y-12991D01*
X87476Y-9391D02*
X87476Y-8691D01*
X87476Y-8691D02*
X88176Y-8691D01*
X91776Y-8691D02*
X92476Y-8691D01*
X92476Y-8691D02*
X92476Y-9391D01*
X92476Y-12991D02*
X92476Y-13691D01*
X99976Y-13691D02*
X99276Y-13691D01*
X95676Y-13691D02*
X94976Y-13691D01*
X94976Y-13691D02*
X94976Y-12991D01*
X94976Y-9391D02*
X94976Y-8691D01*
X94976Y-8691D02*
X95676Y-8691D01*
X99276Y-8691D02*
X99976Y-8691D01*
X99976Y-8691D02*
X99976Y-9391D01*
X99976Y-12991D02*
X99976Y-13691D01*
X19326Y-21191D02*
X18626Y-21191D01*
X15026Y-21191D02*
X14326Y-21191D01*
X14326Y-21191D02*
X14326Y-20491D01*
X14326Y-16891D02*
X14326Y-16191D01*
X14326Y-16191D02*
X15026Y-16191D01*
X18626Y-16191D02*
X19326Y-16191D01*
X19326Y-16191D02*
X19326Y-16891D01*
X19326Y-20491D02*
X19326Y-21191D01*
X13726Y-6191D02*
X13026Y-6191D01*
X9426Y-6191D02*
X8726Y-6191D01*
X8726Y-6191D02*
X8726Y-5491D01*
X8726Y-1891D02*
X8726Y-1191D01*
X8726Y-1191D02*
X9426Y-1191D01*
X13026Y-1191D02*
X13726Y-1191D01*
X13726Y-1191D02*
X13726Y-1891D01*
X13726Y-5491D02*
X13726Y-6191D01*
X39976Y-13691D02*
X39276Y-13691D01*
X35676Y-13691D02*
X34976Y-13691D01*
X34976Y-13691D02*
X34976Y-12991D01*
X34976Y-9391D02*
X34976Y-8691D01*
X34976Y-8691D02*
X35676Y-8691D01*
X39276Y-8691D02*
X39976Y-8691D01*
X39976Y-8691D02*
X39976Y-9391D01*
X39976Y-12991D02*
X39976Y-13691D01*
X32476Y-13691D02*
X31776Y-13691D01*
X28176Y-13691D02*
X27476Y-13691D01*
X27476Y-13691D02*
X27476Y-12991D01*
X27476Y-9391D02*
X27476Y-8691D01*
X27476Y-8691D02*
X28176Y-8691D01*
X31776Y-8691D02*
X32476Y-8691D01*
X32476Y-8691D02*
X32476Y-9391D01*
X32476Y-12991D02*
X32476Y-13691D01*
X24976Y-13691D02*
X24276Y-13691D01*
X20676Y-13691D02*
X19976Y-13691D01*
X19976Y-13691D02*
X19976Y-12991D01*
X19976Y-9391D02*
X19976Y-8691D01*
X19976Y-8691D02*
X20676Y-8691D01*
X24276Y-8691D02*
X24976Y-8691D01*
X24976Y-8691D02*
X24976Y-9391D01*
X24976Y-12991D02*
X24976Y-13691D01*
X17476Y-13691D02*
X16776Y-13691D01*
X13176Y-13691D02*
X12476Y-13691D01*
X12476Y-13691D02*
X12476Y-12991D01*
X12476Y-9391D02*
X12476Y-8691D01*
X12476Y-8691D02*
X13176Y-8691D01*
X16776Y-8691D02*
X17476Y-8691D01*
X17476Y-8691D02*
X17476Y-9391D01*
X17476Y-12991D02*
X17476Y-13691D01*
X88726Y-6191D02*
X88026Y-6191D01*
X84426Y-6191D02*
X83726Y-6191D01*
X83726Y-6191D02*
X83726Y-5491D01*
X83726Y-1891D02*
X83726Y-1191D01*
X83726Y-1191D02*
X84426Y-1191D01*
X88026Y-1191D02*
X88726Y-1191D01*
X88726Y-1191D02*
X88726Y-1891D01*
X88726Y-5491D02*
X88726Y-6191D01*
X81226Y-6191D02*
X80526Y-6191D01*
X76926Y-6191D02*
X76226Y-6191D01*
X76226Y-6191D02*
X76226Y-5491D01*
X76226Y-1891D02*
X76226Y-1191D01*
X76226Y-1191D02*
X76926Y-1191D01*
X80526Y-1191D02*
X81226Y-1191D01*
X81226Y-1191D02*
X81226Y-1891D01*
X81226Y-5491D02*
X81226Y-6191D01*
X73726Y-6191D02*
X73026Y-6191D01*
X69426Y-6191D02*
X68726Y-6191D01*
X68726Y-6191D02*
X68726Y-5491D01*
X68726Y-1891D02*
X68726Y-1191D01*
X68726Y-1191D02*
X69426Y-1191D01*
X73026Y-1191D02*
X73726Y-1191D01*
X73726Y-1191D02*
X73726Y-1891D01*
X73726Y-5491D02*
X73726Y-6191D01*
X58726Y-6191D02*
X58026Y-6191D01*
X54426Y-6191D02*
X53726Y-6191D01*
X53726Y-6191D02*
X53726Y-5491D01*
X53726Y-1891D02*
X53726Y-1191D01*
X53726Y-1191D02*
X54426Y-1191D01*
X58026Y-1191D02*
X58726Y-1191D01*
X58726Y-1191D02*
X58726Y-1891D01*
X58726Y-5491D02*
X58726Y-6191D01*
X43726Y-6191D02*
X43026Y-6191D01*
X39426Y-6191D02*
X38726Y-6191D01*
X38726Y-6191D02*
X38726Y-5491D01*
X38726Y-1891D02*
X38726Y-1191D01*
X38726Y-1191D02*
X39426Y-1191D01*
X43026Y-1191D02*
X43726Y-1191D01*
X43726Y-1191D02*
X43726Y-1891D01*
X43726Y-5491D02*
X43726Y-6191D01*
X36226Y-6191D02*
X35526Y-6191D01*
X31926Y-6191D02*
X31226Y-6191D01*
X31226Y-6191D02*
X31226Y-5491D01*
X31226Y-1891D02*
X31226Y-1191D01*
X31226Y-1191D02*
X31926Y-1191D01*
X35526Y-1191D02*
X36226Y-1191D01*
X36226Y-1191D02*
X36226Y-1891D01*
X36226Y-5491D02*
X36226Y-6191D01*
X28726Y-6191D02*
X28026Y-6191D01*
X24426Y-6191D02*
X23726Y-6191D01*
X23726Y-6191D02*
X23726Y-5491D01*
X23726Y-1891D02*
X23726Y-1191D01*
X23726Y-1191D02*
X24426Y-1191D01*
X28026Y-1191D02*
X28726Y-1191D01*
X28726Y-1191D02*
X28726Y-1891D01*
X28726Y-5491D02*
X28726Y-6191D01*
X21226Y-6191D02*
X20526Y-6191D01*
X16926Y-6191D02*
X16226Y-6191D01*
X16226Y-6191D02*
X16226Y-5491D01*
X16226Y-1891D02*
X16226Y-1191D01*
X16226Y-1191D02*
X16926Y-1191D01*
X20526Y-1191D02*
X21226Y-1191D01*
X21226Y-1191D02*
X21226Y-1891D01*
X21226Y-5491D02*
X21226Y-6191D01*
X77476Y-36191D02*
X76776Y-36191D01*
X73176Y-36191D02*
X72476Y-36191D01*
X72476Y-36191D02*
X72476Y-35491D01*
X72476Y-31891D02*
X72476Y-31191D01*
X72476Y-31191D02*
X73176Y-31191D01*
X76776Y-31191D02*
X77476Y-31191D01*
X77476Y-31191D02*
X77476Y-31891D01*
X77476Y-35491D02*
X77476Y-36191D01*
X68076Y-28691D02*
X67376Y-28691D01*
X63776Y-28691D02*
X63076Y-28691D01*
X63076Y-28691D02*
X63076Y-27991D01*
X63076Y-24391D02*
X63076Y-23691D01*
X63076Y-23691D02*
X63776Y-23691D01*
X67376Y-23691D02*
X68076Y-23691D01*
X68076Y-23691D02*
X68076Y-24391D01*
X68076Y-27991D02*
X68076Y-28691D01*
X6226Y-6191D02*
X5526Y-6191D01*
X1926Y-6191D02*
X1226Y-6191D01*
X1226Y-6191D02*
X1226Y-5491D01*
X1226Y-1891D02*
X1226Y-1191D01*
X1226Y-1191D02*
X1926Y-1191D01*
X5526Y-1191D02*
X6226Y-1191D01*
X6226Y-1191D02*
X6226Y-1891D01*
X6226Y-5491D02*
X6226Y-6191D01*
X51226Y-6191D02*
X50526Y-6191D01*
X46926Y-6191D02*
X46226Y-6191D01*
X46226Y-6191D02*
X46226Y-5491D01*
X46226Y-1891D02*
X46226Y-1191D01*
X46226Y-1191D02*
X46926Y-1191D01*
X50526Y-1191D02*
X51226Y-1191D01*
X51226Y-1191D02*
X51226Y-1891D01*
X51226Y-5491D02*
X51226Y-6191D01*
X66226Y-6191D02*
X65526Y-6191D01*
X61926Y-6191D02*
X61226Y-6191D01*
X61226Y-6191D02*
X61226Y-5491D01*
X61226Y-1891D02*
X61226Y-1191D01*
X61226Y-1191D02*
X61926Y-1191D01*
X65526Y-1191D02*
X66226Y-1191D01*
X66226Y-1191D02*
X66226Y-1891D01*
X66226Y-5491D02*
X66226Y-6191D01*
X99976Y-28691D02*
X99276Y-28691D01*
X95676Y-28691D02*
X94976Y-28691D01*
X94976Y-28691D02*
X94976Y-27991D01*
X94976Y-24391D02*
X94976Y-23691D01*
X94976Y-23691D02*
X95676Y-23691D01*
X99276Y-23691D02*
X99976Y-23691D01*
X99976Y-23691D02*
X99976Y-24391D01*
X99976Y-27991D02*
X99976Y-28691D01*
X99976Y-36191D02*
X99276Y-36191D01*
X95676Y-36191D02*
X94976Y-36191D01*
X94976Y-36191D02*
X94976Y-35491D01*
X94976Y-31891D02*
X94976Y-31191D01*
X94976Y-31191D02*
X95676Y-31191D01*
X99276Y-31191D02*
X99976Y-31191D01*
X99976Y-31191D02*
X99976Y-31891D01*
X99976Y-35491D02*
X99976Y-36191D01*
X30576Y-36191D02*
X29876Y-36191D01*
X26276Y-36191D02*
X25576Y-36191D01*
X25576Y-36191D02*
X25576Y-35491D01*
X25576Y-31891D02*
X25576Y-31191D01*
X25576Y-31191D02*
X26276Y-31191D01*
X29876Y-31191D02*
X30576Y-31191D01*
X30576Y-31191D02*
X30576Y-31891D01*
X30576Y-35491D02*
X30576Y-36191D01*
X92476Y-36191D02*
X91776Y-36191D01*
X88176Y-36191D02*
X87476Y-36191D01*
X87476Y-36191D02*
X87476Y-35491D01*
X87476Y-31891D02*
X87476Y-31191D01*
X87476Y-31191D02*
X88176Y-31191D01*
X91776Y-31191D02*
X92476Y-31191D01*
X92476Y-31191D02*
X92476Y-31891D01*
X92476Y-35491D02*
X92476Y-36191D01*
X30576Y-28691D02*
X29876Y-28691D01*
X26276Y-28691D02*
X25576Y-28691D01*
X25576Y-28691D02*
X25576Y-27991D01*
X25576Y-24391D02*
X25576Y-23691D01*
X25576Y-23691D02*
X26276Y-23691D01*
X29876Y-23691D02*
X30576Y-23691D01*
X30576Y-23691D02*
X30576Y-24391D01*
X30576Y-27991D02*
X30576Y-28691D01*
X84976Y-36191D02*
X84276Y-36191D01*
X80676Y-36191D02*
X79976Y-36191D01*
X79976Y-36191D02*
X79976Y-35491D01*
X79976Y-31891D02*
X79976Y-31191D01*
X79976Y-31191D02*
X80676Y-31191D01*
X84276Y-31191D02*
X84976Y-31191D01*
X84976Y-31191D02*
X84976Y-31891D01*
X84976Y-35491D02*
X84976Y-36191D01*
X23076Y-36191D02*
X22376Y-36191D01*
X18776Y-36191D02*
X18076Y-36191D01*
X18076Y-36191D02*
X18076Y-35491D01*
X18076Y-31891D02*
X18076Y-31191D01*
X18076Y-31191D02*
X18776Y-31191D01*
X22376Y-31191D02*
X23076Y-31191D01*
X23076Y-31191D02*
X23076Y-31891D01*
X23076Y-35491D02*
X23076Y-36191D01*
X15576Y-36191D02*
X14876Y-36191D01*
X11276Y-36191D02*
X10576Y-36191D01*
X10576Y-36191D02*
X10576Y-35491D01*
X10576Y-31891D02*
X10576Y-31191D01*
X10576Y-31191D02*
X11276Y-31191D01*
X14876Y-31191D02*
X15576Y-31191D01*
X15576Y-31191D02*
X15576Y-31891D01*
X15576Y-35491D02*
X15576Y-36191D01*
X83076Y-28691D02*
X82376Y-28691D01*
X78776Y-28691D02*
X78076Y-28691D01*
X78076Y-28691D02*
X78076Y-27991D01*
X78076Y-24391D02*
X78076Y-23691D01*
X78076Y-23691D02*
X78776Y-23691D01*
X82376Y-23691D02*
X83076Y-23691D01*
X83076Y-23691D02*
X83076Y-24391D01*
X83076Y-27991D02*
X83076Y-28691D01*
X75576Y-28691D02*
X74876Y-28691D01*
X71276Y-28691D02*
X70576Y-28691D01*
X70576Y-28691D02*
X70576Y-27991D01*
X70576Y-24391D02*
X70576Y-23691D01*
X70576Y-23691D02*
X71276Y-23691D01*
X74876Y-23691D02*
X75576Y-23691D01*
X75576Y-23691D02*
X75576Y-24391D01*
X75576Y-27991D02*
X75576Y-28691D01*
X34326Y-21191D02*
X33626Y-21191D01*
X30026Y-21191D02*
X29326Y-21191D01*
X29326Y-21191D02*
X29326Y-20491D01*
X29326Y-16891D02*
X29326Y-16191D01*
X29326Y-16191D02*
X30026Y-16191D01*
X33626Y-16191D02*
X34326Y-16191D01*
X34326Y-16191D02*
X34326Y-16891D01*
X34326Y-20491D02*
X34326Y-21191D01*
X60576Y-28691D02*
X59876Y-28691D01*
X56276Y-28691D02*
X55576Y-28691D01*
X55576Y-28691D02*
X55576Y-27991D01*
X55576Y-24391D02*
X55576Y-23691D01*
X55576Y-23691D02*
X56276Y-23691D01*
X59876Y-23691D02*
X60576Y-23691D01*
X60576Y-23691D02*
X60576Y-24391D01*
X60576Y-27991D02*
X60576Y-28691D01*
X53076Y-28691D02*
X52376Y-28691D01*
X48776Y-28691D02*
X48076Y-28691D01*
X48076Y-28691D02*
X48076Y-27991D01*
X48076Y-24391D02*
X48076Y-23691D01*
X48076Y-23691D02*
X48776Y-23691D01*
X52376Y-23691D02*
X53076Y-23691D01*
X53076Y-23691D02*
X53076Y-24391D01*
X53076Y-27991D02*
X53076Y-28691D01*
X45576Y-28691D02*
X44876Y-28691D01*
X41276Y-28691D02*
X40576Y-28691D01*
X40576Y-28691D02*
X40576Y-27991D01*
X40576Y-24391D02*
X40576Y-23691D01*
X40576Y-23691D02*
X41276Y-23691D01*
X44876Y-23691D02*
X45576Y-23691D01*
X45576Y-23691D02*
X45576Y-24391D01*
X45576Y-27991D02*
X45576Y-28691D01*
X38076Y-28691D02*
X37376Y-28691D01*
X33776Y-28691D02*
X33076Y-28691D01*
X33076Y-28691D02*
X33076Y-27991D01*
X33076Y-24391D02*
X33076Y-23691D01*
X33076Y-23691D02*
X33776Y-23691D01*
X37376Y-23691D02*
X38076Y-23691D01*
X38076Y-23691D02*
X38076Y-24391D01*
X38076Y-27991D02*
X38076Y-28691D01*
X23076Y-28691D02*
X22376Y-28691D01*
X18776Y-28691D02*
X18076Y-28691D01*
X18076Y-28691D02*
X18076Y-27991D01*
X18076Y-24391D02*
X18076Y-23691D01*
X18076Y-23691D02*
X18776Y-23691D01*
X22376Y-23691D02*
X23076Y-23691D01*
X23076Y-23691D02*
X23076Y-24391D01*
X23076Y-27991D02*
X23076Y-28691D01*
X15576Y-28691D02*
X14876Y-28691D01*
X11276Y-28691D02*
X10576Y-28691D01*
X10576Y-28691D02*
X10576Y-27991D01*
X10576Y-24391D02*
X10576Y-23691D01*
X10576Y-23691D02*
X11276Y-23691D01*
X14876Y-23691D02*
X15576Y-23691D01*
X15576Y-23691D02*
X15576Y-24391D01*
X15576Y-27991D02*
X15576Y-28691D01*
X86876Y-21191D02*
X86176Y-21191D01*
X82576Y-21191D02*
X81876Y-21191D01*
X81876Y-21191D02*
X81876Y-20491D01*
X81876Y-16891D02*
X81876Y-16191D01*
X81876Y-16191D02*
X82576Y-16191D01*
X86176Y-16191D02*
X86876Y-16191D01*
X86876Y-16191D02*
X86876Y-16891D01*
X86876Y-20491D02*
X86876Y-21191D01*
X79376Y-21191D02*
X78676Y-21191D01*
X75076Y-21191D02*
X74376Y-21191D01*
X74376Y-21191D02*
X74376Y-20491D01*
X74376Y-16891D02*
X74376Y-16191D01*
X74376Y-16191D02*
X75076Y-16191D01*
X78676Y-16191D02*
X79376Y-16191D01*
X79376Y-16191D02*
X79376Y-16891D01*
X79376Y-20491D02*
X79376Y-21191D01*
X71876Y-21191D02*
X71176Y-21191D01*
X67576Y-21191D02*
X66876Y-21191D01*
X66876Y-21191D02*
X66876Y-20491D01*
X66876Y-16891D02*
X66876Y-16191D01*
X66876Y-16191D02*
X67576Y-16191D01*
X71176Y-16191D02*
X71876Y-16191D01*
X71876Y-16191D02*
X71876Y-16891D01*
X71876Y-20491D02*
X71876Y-21191D01*
X64376Y-21191D02*
X63676Y-21191D01*
X60076Y-21191D02*
X59376Y-21191D01*
X59376Y-21191D02*
X59376Y-20491D01*
X59376Y-16891D02*
X59376Y-16191D01*
X59376Y-16191D02*
X60076Y-16191D01*
X63676Y-16191D02*
X64376Y-16191D01*
X64376Y-16191D02*
X64376Y-16891D01*
X64376Y-20491D02*
X64376Y-21191D01*
X56876Y-21191D02*
X56176Y-21191D01*
X52576Y-21191D02*
X51876Y-21191D01*
X51876Y-21191D02*
X51876Y-20491D01*
X51876Y-16891D02*
X51876Y-16191D01*
X51876Y-16191D02*
X52576Y-16191D01*
X56176Y-16191D02*
X56876Y-16191D01*
X56876Y-16191D02*
X56876Y-16891D01*
X56876Y-20491D02*
X56876Y-21191D01*
X49376Y-21191D02*
X48676Y-21191D01*
X45076Y-21191D02*
X44376Y-21191D01*
X44376Y-21191D02*
X44376Y-20491D01*
X44376Y-16891D02*
X44376Y-16191D01*
X44376Y-16191D02*
X45076Y-16191D01*
X48676Y-16191D02*
X49376Y-16191D01*
X49376Y-16191D02*
X49376Y-16891D01*
X49376Y-20491D02*
X49376Y-21191D01*
X41876Y-21191D02*
X41176Y-21191D01*
X37576Y-21191D02*
X36876Y-21191D01*
X36876Y-21191D02*
X36876Y-20491D01*
X36876Y-16891D02*
X36876Y-16191D01*
X36876Y-16191D02*
X37576Y-16191D01*
X41176Y-16191D02*
X41876Y-16191D01*
X41876Y-16191D02*
X41876Y-16891D01*
X41876Y-20491D02*
X41876Y-21191D01*
X54026Y-36191D02*
X53326Y-36191D01*
X49726Y-36191D02*
X49026Y-36191D01*
X49026Y-36191D02*
X49026Y-35491D01*
X49026Y-31891D02*
X49026Y-31191D01*
X49026Y-31191D02*
X49726Y-31191D01*
X53326Y-31191D02*
X54026Y-31191D01*
X54026Y-31191D02*
X54026Y-31891D01*
X54026Y-35491D02*
X54026Y-36191D01*
G54D15*
G36*
X44432Y-33673D02*
X44428Y-33726D01*
X44420Y-33791D01*
X44405Y-33889D01*
X44388Y-33957D01*
X44380Y-33974D01*
X44349Y-34009D01*
X44295Y-34077D01*
X44266Y-34116D01*
X44204Y-34190D01*
X44154Y-34235D01*
X44139Y-34241D01*
X44120Y-34220D01*
X44125Y-34209D01*
X44121Y-34166D01*
X44112Y-34159D01*
X44077Y-34173D01*
X44017Y-34230D01*
X43945Y-34318D01*
X43941Y-34323D01*
X43867Y-34415D01*
X43808Y-34481D01*
X43774Y-34507D01*
X43773Y-34507D01*
X43764Y-34513D01*
X43764Y-34454D01*
X43727Y-34431D01*
X43698Y-34422D01*
X43611Y-34417D01*
X43567Y-34436D01*
X43517Y-34471D01*
X43492Y-34465D01*
X43509Y-34424D01*
X43514Y-34418D01*
X43541Y-34382D01*
X43522Y-34384D01*
X43481Y-34405D01*
X43390Y-34432D01*
X43323Y-34432D01*
X43271Y-34430D01*
X43262Y-34445D01*
X43268Y-34473D01*
X43237Y-34468D01*
X43189Y-34436D01*
X43162Y-34410D01*
X43073Y-34358D01*
X42940Y-34335D01*
X42842Y-34331D01*
X42794Y-34341D01*
X42777Y-34371D01*
X42776Y-34396D01*
X42783Y-34434D01*
X42814Y-34460D01*
X42882Y-34480D01*
X43000Y-34500D01*
X43018Y-34502D01*
X43260Y-34537D01*
X43035Y-34523D01*
X42909Y-34518D01*
X42839Y-34527D01*
X42815Y-34562D01*
X42825Y-34633D01*
X42848Y-34712D01*
X42875Y-34792D01*
X42898Y-34819D01*
X42934Y-34801D01*
X42957Y-34782D01*
X43003Y-34744D01*
X43004Y-34749D01*
X42963Y-34799D01*
X42897Y-34854D01*
X42838Y-34874D01*
X42786Y-34889D01*
X42776Y-34907D01*
X42800Y-34938D01*
X42857Y-34935D01*
X42924Y-34905D01*
X42960Y-34874D01*
X43034Y-34821D01*
X43107Y-34811D01*
X43159Y-34846D01*
X43164Y-34857D01*
X43210Y-34899D01*
X43246Y-34907D01*
X43298Y-34885D01*
X43310Y-34857D01*
X43281Y-34817D01*
X43228Y-34807D01*
X43158Y-34795D01*
X43126Y-34774D01*
X43136Y-34751D01*
X43179Y-34749D01*
X43243Y-34740D01*
X43266Y-34717D01*
X43248Y-34691D01*
X43167Y-34672D01*
X43087Y-34665D01*
X42893Y-34653D01*
X43097Y-34647D01*
X43214Y-34640D01*
X43280Y-34625D01*
X43311Y-34596D01*
X43319Y-34575D01*
X43317Y-34517D01*
X43298Y-34497D01*
X43307Y-34492D01*
X43370Y-34492D01*
X43466Y-34498D01*
X43589Y-34500D01*
X43685Y-34492D01*
X43747Y-34475D01*
X43764Y-34454D01*
X43764Y-34513D01*
X43737Y-34533D01*
X43709Y-34575D01*
X43695Y-34625D01*
X43705Y-34691D01*
X43745Y-34791D01*
X43772Y-34850D01*
X43827Y-34986D01*
X43870Y-35129D01*
X43887Y-35224D01*
X43895Y-35324D01*
X43885Y-35380D01*
X43844Y-35418D01*
X43838Y-35421D01*
X43838Y-35220D01*
X43833Y-35110D01*
X43796Y-35036D01*
X43776Y-35015D01*
X43776Y-34924D01*
X43760Y-34907D01*
X43743Y-34924D01*
X43760Y-34941D01*
X43776Y-34924D01*
X43776Y-35015D01*
X43773Y-35012D01*
X43721Y-34935D01*
X43724Y-34884D01*
X43733Y-34846D01*
X43711Y-34860D01*
X43697Y-34895D01*
X43697Y-34758D01*
X43667Y-34717D01*
X43612Y-34679D01*
X43588Y-34694D01*
X43605Y-34753D01*
X43615Y-34770D01*
X43660Y-34815D01*
X43691Y-34806D01*
X43697Y-34758D01*
X43697Y-34895D01*
X43692Y-34908D01*
X43698Y-34999D01*
X43712Y-35070D01*
X43731Y-35177D01*
X43730Y-35243D01*
X43707Y-35290D01*
X43690Y-35310D01*
X43653Y-35356D01*
X43665Y-35371D01*
X43731Y-35368D01*
X43794Y-35357D01*
X43825Y-35325D01*
X43836Y-35251D01*
X43838Y-35220D01*
X43838Y-35421D01*
X43774Y-35454D01*
X43725Y-35481D01*
X43725Y-35422D01*
X43714Y-35409D01*
X43703Y-35409D01*
X43638Y-35386D01*
X43622Y-35337D01*
X43658Y-35287D01*
X43691Y-35255D01*
X43701Y-35209D01*
X43689Y-35131D01*
X43677Y-35076D01*
X43650Y-34981D01*
X43624Y-34920D01*
X43612Y-34907D01*
X43588Y-34928D01*
X43588Y-34812D01*
X43572Y-34780D01*
X43534Y-34738D01*
X43480Y-34739D01*
X43438Y-34753D01*
X43361Y-34804D01*
X43343Y-34862D01*
X43358Y-34976D01*
X43398Y-35031D01*
X43458Y-35025D01*
X43531Y-34956D01*
X43542Y-34942D01*
X43586Y-34867D01*
X43588Y-34812D01*
X43588Y-34928D01*
X43581Y-34935D01*
X43543Y-35000D01*
X43509Y-35079D01*
X43493Y-35141D01*
X43486Y-35216D01*
X43482Y-35259D01*
X43456Y-35334D01*
X43408Y-35401D01*
X43376Y-35447D01*
X43376Y-35224D01*
X43376Y-35218D01*
X43372Y-35141D01*
X43348Y-35114D01*
X43308Y-35117D01*
X43308Y-34966D01*
X43279Y-34944D01*
X43243Y-34941D01*
X43189Y-34954D01*
X43176Y-34972D01*
X43148Y-35008D01*
X43087Y-35028D01*
X43023Y-35024D01*
X42999Y-35010D01*
X42946Y-34983D01*
X42878Y-34975D01*
X42824Y-34985D01*
X42810Y-35005D01*
X42843Y-35033D01*
X42942Y-35056D01*
X43046Y-35069D01*
X43114Y-35062D01*
X43203Y-35038D01*
X43205Y-35037D01*
X43282Y-35000D01*
X43308Y-34966D01*
X43308Y-35117D01*
X43288Y-35119D01*
X43285Y-35119D01*
X43191Y-35136D01*
X43076Y-35155D01*
X43051Y-35158D01*
X42965Y-35175D01*
X42915Y-35193D01*
X42910Y-35199D01*
X42928Y-35235D01*
X42974Y-35302D01*
X42995Y-35329D01*
X43064Y-35404D01*
X43138Y-35436D01*
X43208Y-35441D01*
X43312Y-35426D01*
X43356Y-35388D01*
X43370Y-35319D01*
X43376Y-35224D01*
X43376Y-35447D01*
X43365Y-35463D01*
X43359Y-35507D01*
X43404Y-35523D01*
X43488Y-35517D01*
X43590Y-35490D01*
X43676Y-35454D01*
X43725Y-35422D01*
X43725Y-35481D01*
X43686Y-35503D01*
X43650Y-35550D01*
X43652Y-35618D01*
X43663Y-35660D01*
X43693Y-35711D01*
X43757Y-35716D01*
X43767Y-35714D01*
X43827Y-35711D01*
X43829Y-35736D01*
X43781Y-35765D01*
X43721Y-35774D01*
X43662Y-35781D01*
X43649Y-35818D01*
X43659Y-35865D01*
X43681Y-35942D01*
X43711Y-35971D01*
X43773Y-35965D01*
X43810Y-35957D01*
X43881Y-35934D01*
X43902Y-35897D01*
X43895Y-35854D01*
X43891Y-35792D01*
X43927Y-35774D01*
X43983Y-35749D01*
X43996Y-35683D01*
X43965Y-35584D01*
X43959Y-35574D01*
X43927Y-35500D01*
X43917Y-35457D01*
X43919Y-35454D01*
X43937Y-35477D01*
X43978Y-35550D01*
X44036Y-35662D01*
X44105Y-35804D01*
X44127Y-35848D01*
X44211Y-36032D01*
X44269Y-36172D01*
X44306Y-36285D01*
X44327Y-36388D01*
X44335Y-36474D01*
X44340Y-36600D01*
X44330Y-36684D01*
X44302Y-36747D01*
X44295Y-36756D01*
X44295Y-36633D01*
X44284Y-36546D01*
X44279Y-36532D01*
X44246Y-36471D01*
X44244Y-36470D01*
X44244Y-36253D01*
X44229Y-36186D01*
X44185Y-36074D01*
X44127Y-35953D01*
X44078Y-35891D01*
X44030Y-35883D01*
X43976Y-35923D01*
X43964Y-35936D01*
X43931Y-35982D01*
X43924Y-36037D01*
X43941Y-36124D01*
X43949Y-36155D01*
X43977Y-36249D01*
X44005Y-36292D01*
X44048Y-36300D01*
X44088Y-36293D01*
X44173Y-36279D01*
X44228Y-36274D01*
X44244Y-36253D01*
X44244Y-36470D01*
X44191Y-36445D01*
X44114Y-36441D01*
X43952Y-36448D01*
X43871Y-36465D01*
X43871Y-36356D01*
X43871Y-36320D01*
X43856Y-36240D01*
X43840Y-36176D01*
X43808Y-36073D01*
X43775Y-36022D01*
X43729Y-36007D01*
X43727Y-36007D01*
X43650Y-35989D01*
X43616Y-35967D01*
X43591Y-35945D01*
X43580Y-35952D01*
X43584Y-35997D01*
X43605Y-36090D01*
X43631Y-36194D01*
X43661Y-36310D01*
X43686Y-36373D01*
X43714Y-36397D01*
X43755Y-36394D01*
X43772Y-36390D01*
X43841Y-36370D01*
X43871Y-36356D01*
X43871Y-36465D01*
X43846Y-36471D01*
X43790Y-36513D01*
X43776Y-36568D01*
X43806Y-36675D01*
X43885Y-36766D01*
X43995Y-36826D01*
X44083Y-36841D01*
X44173Y-36832D01*
X44225Y-36796D01*
X44262Y-36732D01*
X44295Y-36633D01*
X44295Y-36756D01*
X44277Y-36782D01*
X44196Y-36853D01*
X44093Y-36874D01*
X44089Y-36874D01*
X43980Y-36860D01*
X43887Y-36812D01*
X43804Y-36725D01*
X43727Y-36592D01*
X43652Y-36405D01*
X43582Y-36191D01*
X43514Y-35982D01*
X43445Y-35798D01*
X43380Y-35648D01*
X43322Y-35540D01*
X43276Y-35485D01*
X43265Y-35480D01*
X43226Y-35485D01*
X43213Y-35525D01*
X43228Y-35606D01*
X43271Y-35735D01*
X43326Y-35874D01*
X43386Y-36023D01*
X43422Y-36117D01*
X43436Y-36163D01*
X43428Y-36168D01*
X43400Y-36137D01*
X43382Y-36114D01*
X43316Y-36059D01*
X43269Y-36058D01*
X43208Y-36107D01*
X43196Y-36190D01*
X43229Y-36304D01*
X43265Y-36385D01*
X43299Y-36416D01*
X43354Y-36410D01*
X43393Y-36398D01*
X43466Y-36370D01*
X43487Y-36339D01*
X43472Y-36299D01*
X43452Y-36241D01*
X43456Y-36216D01*
X43481Y-36228D01*
X43517Y-36288D01*
X43558Y-36379D01*
X43597Y-36484D01*
X43627Y-36586D01*
X43642Y-36670D01*
X43643Y-36684D01*
X43621Y-36807D01*
X43600Y-36836D01*
X43600Y-36765D01*
X43600Y-36656D01*
X43549Y-36547D01*
X43547Y-36545D01*
X43486Y-36465D01*
X43315Y-36522D01*
X43216Y-36559D01*
X43210Y-36561D01*
X43210Y-36457D01*
X43197Y-36421D01*
X43165Y-36350D01*
X43165Y-36096D01*
X43159Y-36000D01*
X43158Y-35995D01*
X43142Y-35917D01*
X43133Y-35888D01*
X43133Y-35518D01*
X43107Y-35494D01*
X43060Y-35474D01*
X42931Y-35400D01*
X42809Y-35287D01*
X42722Y-35166D01*
X42694Y-35101D01*
X42702Y-35076D01*
X42719Y-35074D01*
X42749Y-35046D01*
X42760Y-34977D01*
X42754Y-34890D01*
X42732Y-34809D01*
X42703Y-34763D01*
X42661Y-34729D01*
X42641Y-34748D01*
X42633Y-34775D01*
X42626Y-34849D01*
X42631Y-34952D01*
X42634Y-34979D01*
X42641Y-35067D01*
X42629Y-35098D01*
X42615Y-35094D01*
X42589Y-35103D01*
X42577Y-35161D01*
X42577Y-35249D01*
X42589Y-35350D01*
X42612Y-35448D01*
X42632Y-35498D01*
X42687Y-35615D01*
X42870Y-35594D01*
X42982Y-35576D01*
X43072Y-35555D01*
X43106Y-35542D01*
X43133Y-35518D01*
X43133Y-35888D01*
X43129Y-35876D01*
X43127Y-35874D01*
X43084Y-35885D01*
X43016Y-35909D01*
X43016Y-35813D01*
X43003Y-35749D01*
X42980Y-35682D01*
X42943Y-35650D01*
X42871Y-35641D01*
X42825Y-35641D01*
X42736Y-35646D01*
X42683Y-35660D01*
X42676Y-35668D01*
X42689Y-35739D01*
X42721Y-35831D01*
X42762Y-35920D01*
X42802Y-35986D01*
X42829Y-36007D01*
X42871Y-35981D01*
X42876Y-35960D01*
X42904Y-35914D01*
X42954Y-35885D01*
X43005Y-35858D01*
X43016Y-35813D01*
X43016Y-35909D01*
X43015Y-35910D01*
X42949Y-35939D01*
X42911Y-35960D01*
X42910Y-35962D01*
X42923Y-35999D01*
X42957Y-36069D01*
X42960Y-36075D01*
X43017Y-36154D01*
X43081Y-36170D01*
X43137Y-36145D01*
X43165Y-36096D01*
X43165Y-36350D01*
X43164Y-36348D01*
X43156Y-36330D01*
X43070Y-36221D01*
X42987Y-36176D01*
X42908Y-36152D01*
X42861Y-36146D01*
X42858Y-36148D01*
X42862Y-36182D01*
X42885Y-36257D01*
X42917Y-36353D01*
X42953Y-36449D01*
X42985Y-36524D01*
X42998Y-36548D01*
X43032Y-36550D01*
X43096Y-36529D01*
X43163Y-36497D01*
X43206Y-36466D01*
X43210Y-36457D01*
X43210Y-36561D01*
X43146Y-36592D01*
X43126Y-36607D01*
X43124Y-36662D01*
X43151Y-36743D01*
X43195Y-36822D01*
X43234Y-36866D01*
X43329Y-36902D01*
X43442Y-36900D01*
X43538Y-36860D01*
X43549Y-36852D01*
X43600Y-36765D01*
X43600Y-36836D01*
X43561Y-36892D01*
X43478Y-36955D01*
X43393Y-36968D01*
X43284Y-36934D01*
X43250Y-36918D01*
X43176Y-36876D01*
X43114Y-36821D01*
X43057Y-36744D01*
X42997Y-36635D01*
X42930Y-36482D01*
X42848Y-36277D01*
X42741Y-35990D01*
X42652Y-35732D01*
X42585Y-35507D01*
X42539Y-35321D01*
X42516Y-35180D01*
X42518Y-35091D01*
X42535Y-35062D01*
X42554Y-35018D01*
X42552Y-34963D01*
X42559Y-34889D01*
X42593Y-34776D01*
X42640Y-34663D01*
X42708Y-34505D01*
X42738Y-34397D01*
X42724Y-34330D01*
X42664Y-34297D01*
X42595Y-34293D01*
X42595Y-34093D01*
X42594Y-33971D01*
X42562Y-33858D01*
X42536Y-33816D01*
X42472Y-33782D01*
X42379Y-33776D01*
X42288Y-33796D01*
X42239Y-33829D01*
X42205Y-33908D01*
X42195Y-34016D01*
X42208Y-34125D01*
X42241Y-34208D01*
X42261Y-34229D01*
X42365Y-34272D01*
X42471Y-34262D01*
X42554Y-34202D01*
X42562Y-34191D01*
X42595Y-34093D01*
X42595Y-34293D01*
X42554Y-34291D01*
X42453Y-34299D01*
X42350Y-34304D01*
X42286Y-34291D01*
X42238Y-34251D01*
X42215Y-34223D01*
X42154Y-34101D01*
X42144Y-33967D01*
X42182Y-33844D01*
X42223Y-33791D01*
X42274Y-33734D01*
X42280Y-33698D01*
X42245Y-33659D01*
X42166Y-33618D01*
X42104Y-33607D01*
X42011Y-33577D01*
X41925Y-33500D01*
X41866Y-33393D01*
X41859Y-33369D01*
X41862Y-33255D01*
X41917Y-33142D01*
X42010Y-33046D01*
X42128Y-32987D01*
X42135Y-32985D01*
X42253Y-32988D01*
X42365Y-33056D01*
X42458Y-33172D01*
X42547Y-33278D01*
X42635Y-33326D01*
X42732Y-33354D01*
X42798Y-33380D01*
X42868Y-33401D01*
X42910Y-33376D01*
X42929Y-33298D01*
X42929Y-33189D01*
X42928Y-33097D01*
X42935Y-33045D01*
X42945Y-33044D01*
X42967Y-33046D01*
X42989Y-32989D01*
X42991Y-32983D01*
X43042Y-32878D01*
X43147Y-32760D01*
X43298Y-32636D01*
X43331Y-32612D01*
X43402Y-32566D01*
X43444Y-32542D01*
X43448Y-32541D01*
X43458Y-32570D01*
X43466Y-32639D01*
X43466Y-32640D01*
X43507Y-32771D01*
X43603Y-32901D01*
X43744Y-33020D01*
X43919Y-33116D01*
X43985Y-33142D01*
X44071Y-33186D01*
X44106Y-33245D01*
X44095Y-33333D01*
X44055Y-33429D01*
X44004Y-33502D01*
X44004Y-33393D01*
X43992Y-33326D01*
X43956Y-33270D01*
X43866Y-33217D01*
X43797Y-33214D01*
X43712Y-33235D01*
X43689Y-33269D01*
X43728Y-33304D01*
X43788Y-33321D01*
X43880Y-33351D01*
X43945Y-33394D01*
X43948Y-33397D01*
X43984Y-33433D01*
X44000Y-33414D01*
X44004Y-33393D01*
X44004Y-33502D01*
X43992Y-33520D01*
X43902Y-33607D01*
X43803Y-33675D01*
X43718Y-33707D01*
X43708Y-33707D01*
X43638Y-33726D01*
X43600Y-33749D01*
X43576Y-33771D01*
X43576Y-33578D01*
X43549Y-33562D01*
X43497Y-33565D01*
X43427Y-33563D01*
X43395Y-33544D01*
X43375Y-33526D01*
X43375Y-32915D01*
X43373Y-32894D01*
X43328Y-32854D01*
X43256Y-32817D01*
X43211Y-32807D01*
X43200Y-32821D01*
X43241Y-32858D01*
X43260Y-32869D01*
X43334Y-32908D01*
X43375Y-32915D01*
X43375Y-33526D01*
X43356Y-33509D01*
X43328Y-33520D01*
X43331Y-33557D01*
X43369Y-33587D01*
X43438Y-33604D01*
X43512Y-33608D01*
X43565Y-33595D01*
X43576Y-33578D01*
X43576Y-33771D01*
X43569Y-33778D01*
X43562Y-33817D01*
X43578Y-33884D01*
X43602Y-33953D01*
X43634Y-34048D01*
X43642Y-34102D01*
X43625Y-34135D01*
X43610Y-34146D01*
X43610Y-34086D01*
X43596Y-34017D01*
X43565Y-33932D01*
X43525Y-33855D01*
X43489Y-33811D01*
X43480Y-33807D01*
X43438Y-33825D01*
X43431Y-33883D01*
X43459Y-33989D01*
X43468Y-34014D01*
X43513Y-34112D01*
X43554Y-34151D01*
X43566Y-34150D01*
X43606Y-34106D01*
X43610Y-34086D01*
X43610Y-34146D01*
X43585Y-34165D01*
X43528Y-34218D01*
X43510Y-34261D01*
X43486Y-34291D01*
X43476Y-34292D01*
X43476Y-34221D01*
X43476Y-34207D01*
X43463Y-34161D01*
X43443Y-34153D01*
X43443Y-34076D01*
X43432Y-34024D01*
X43410Y-33959D01*
X43393Y-33928D01*
X43393Y-33839D01*
X43310Y-33772D01*
X43309Y-33771D01*
X43309Y-33166D01*
X43280Y-33080D01*
X43197Y-33032D01*
X43128Y-33022D01*
X43038Y-33031D01*
X43010Y-33063D01*
X43038Y-33097D01*
X43086Y-33107D01*
X43175Y-33127D01*
X43228Y-33156D01*
X43285Y-33197D01*
X43306Y-33199D01*
X43309Y-33166D01*
X43309Y-33771D01*
X43207Y-33695D01*
X43141Y-33661D01*
X43103Y-33666D01*
X43089Y-33689D01*
X43079Y-33771D01*
X43079Y-33609D01*
X43062Y-33566D01*
X43019Y-33516D01*
X42985Y-33513D01*
X42976Y-33541D01*
X42949Y-33569D01*
X42918Y-33573D01*
X42879Y-33568D01*
X42903Y-33545D01*
X42910Y-33541D01*
X42936Y-33514D01*
X42919Y-33508D01*
X42872Y-33533D01*
X42844Y-33571D01*
X42831Y-33619D01*
X42860Y-33660D01*
X42918Y-33698D01*
X42990Y-33737D01*
X43027Y-33742D01*
X43052Y-33710D01*
X43062Y-33692D01*
X43079Y-33609D01*
X43079Y-33771D01*
X43128Y-33821D01*
X43234Y-33840D01*
X43250Y-33840D01*
X43393Y-33839D01*
X43393Y-33928D01*
X43380Y-33905D01*
X43329Y-33880D01*
X43235Y-33874D01*
X43233Y-33874D01*
X43123Y-33879D01*
X43076Y-33897D01*
X43076Y-33841D01*
X43049Y-33811D01*
X43028Y-33807D01*
X42971Y-33827D01*
X42960Y-33841D01*
X42970Y-33867D01*
X43008Y-33874D01*
X43063Y-33860D01*
X43076Y-33841D01*
X43076Y-33897D01*
X43070Y-33900D01*
X43067Y-33946D01*
X43095Y-34011D01*
X43135Y-34072D01*
X43189Y-34100D01*
X43282Y-34107D01*
X43294Y-34107D01*
X43383Y-34101D01*
X43436Y-34085D01*
X43443Y-34076D01*
X43443Y-34153D01*
X43412Y-34143D01*
X43360Y-34141D01*
X43278Y-34143D01*
X43248Y-34158D01*
X43255Y-34199D01*
X43263Y-34221D01*
X43311Y-34262D01*
X43380Y-34274D01*
X43451Y-34262D01*
X43476Y-34221D01*
X43476Y-34292D01*
X43410Y-34305D01*
X43347Y-34307D01*
X43251Y-34305D01*
X43206Y-34292D01*
X43196Y-34260D01*
X43201Y-34224D01*
X43195Y-34158D01*
X43154Y-34139D01*
X43094Y-34171D01*
X43076Y-34190D01*
X43024Y-34233D01*
X42998Y-34241D01*
X42993Y-34221D01*
X43028Y-34173D01*
X43033Y-34168D01*
X43081Y-34111D01*
X43083Y-34059D01*
X43059Y-34006D01*
X43013Y-33946D01*
X42943Y-33911D01*
X42943Y-33770D01*
X42922Y-33752D01*
X42910Y-33757D01*
X42877Y-33801D01*
X42876Y-33811D01*
X42897Y-33829D01*
X42910Y-33824D01*
X42942Y-33780D01*
X42943Y-33770D01*
X42943Y-33911D01*
X42941Y-33911D01*
X42861Y-33895D01*
X42861Y-33717D01*
X42830Y-33687D01*
X42826Y-33686D01*
X42799Y-33657D01*
X42799Y-33519D01*
X42793Y-33507D01*
X42761Y-33475D01*
X42756Y-33474D01*
X42753Y-33495D01*
X42760Y-33507D01*
X42791Y-33539D01*
X42797Y-33541D01*
X42799Y-33519D01*
X42799Y-33657D01*
X42789Y-33647D01*
X42790Y-33620D01*
X42788Y-33579D01*
X42775Y-33574D01*
X42747Y-33601D01*
X42743Y-33625D01*
X42721Y-33687D01*
X42680Y-33744D01*
X42632Y-33786D01*
X42607Y-33778D01*
X42599Y-33762D01*
X42610Y-33715D01*
X42645Y-33697D01*
X42700Y-33661D01*
X42699Y-33603D01*
X42643Y-33534D01*
X42643Y-33391D01*
X42626Y-33374D01*
X42610Y-33391D01*
X42626Y-33407D01*
X42643Y-33391D01*
X42643Y-33534D01*
X42642Y-33533D01*
X42610Y-33507D01*
X42527Y-33467D01*
X42447Y-33456D01*
X42443Y-33457D01*
X42443Y-33256D01*
X42417Y-33190D01*
X42352Y-33113D01*
X42271Y-33046D01*
X42194Y-33009D01*
X42176Y-33007D01*
X42088Y-33036D01*
X42002Y-33110D01*
X41936Y-33207D01*
X41910Y-33308D01*
X41910Y-33311D01*
X41937Y-33434D01*
X42010Y-33522D01*
X42113Y-33567D01*
X42230Y-33560D01*
X42278Y-33540D01*
X42345Y-33478D01*
X42405Y-33383D01*
X42440Y-33285D01*
X42443Y-33256D01*
X42443Y-33457D01*
X42390Y-33475D01*
X42376Y-33507D01*
X42349Y-33539D01*
X42310Y-33557D01*
X42258Y-33582D01*
X42253Y-33612D01*
X42299Y-33654D01*
X42402Y-33716D01*
X42435Y-33733D01*
X42601Y-33810D01*
X42725Y-33836D01*
X42809Y-33813D01*
X42843Y-33773D01*
X42861Y-33717D01*
X42861Y-33895D01*
X42856Y-33895D01*
X42756Y-33882D01*
X42681Y-33875D01*
X42663Y-33874D01*
X42641Y-33905D01*
X42628Y-33992D01*
X42626Y-34057D01*
X42631Y-34170D01*
X42648Y-34229D01*
X42676Y-34246D01*
X42736Y-34250D01*
X42836Y-34256D01*
X42915Y-34260D01*
X43070Y-34280D01*
X43185Y-34329D01*
X43207Y-34344D01*
X43283Y-34392D01*
X43345Y-34401D01*
X43426Y-34379D01*
X43564Y-34354D01*
X43659Y-34369D01*
X43747Y-34385D01*
X43813Y-34366D01*
X43873Y-34322D01*
X43931Y-34265D01*
X43955Y-34208D01*
X43955Y-34122D01*
X43951Y-34083D01*
X43913Y-33928D01*
X43848Y-33831D01*
X43794Y-33767D01*
X43786Y-33729D01*
X43810Y-33706D01*
X43876Y-33678D01*
X43900Y-33674D01*
X43948Y-33653D01*
X44021Y-33601D01*
X44058Y-33570D01*
X44126Y-33517D01*
X44169Y-33496D01*
X44176Y-33501D01*
X44152Y-33545D01*
X44090Y-33614D01*
X44006Y-33691D01*
X43929Y-33751D01*
X43887Y-33804D01*
X43904Y-33847D01*
X43975Y-33871D01*
X44020Y-33874D01*
X44109Y-33883D01*
X44171Y-33904D01*
X44197Y-33936D01*
X44170Y-33958D01*
X44107Y-33962D01*
X44061Y-33955D01*
X43998Y-33948D01*
X43977Y-33979D01*
X43976Y-34001D01*
X43987Y-34102D01*
X44019Y-34148D01*
X44066Y-34135D01*
X44112Y-34112D01*
X44141Y-34137D01*
X44171Y-34152D01*
X44218Y-34113D01*
X44238Y-34089D01*
X44295Y-34008D01*
X44305Y-33960D01*
X44271Y-33932D01*
X44268Y-33931D01*
X44245Y-33902D01*
X44253Y-33888D01*
X44290Y-33886D01*
X44310Y-33907D01*
X44328Y-33933D01*
X44343Y-33932D01*
X44361Y-33892D01*
X44388Y-33804D01*
X44407Y-33741D01*
X44425Y-33680D01*
X44432Y-33673D01*
X44432Y-33673D01*
X44432Y-33673D01*
G37*
G36*
X42339Y-36766D02*
X42327Y-36848D01*
X42287Y-36873D01*
X42225Y-36838D01*
X42182Y-36791D01*
X42131Y-36733D01*
X42097Y-36707D01*
X42096Y-36707D01*
X42087Y-36735D01*
X42096Y-36791D01*
X42100Y-36856D01*
X42080Y-36874D01*
X42054Y-36845D01*
X42043Y-36775D01*
X42043Y-36774D01*
X42058Y-36696D01*
X42101Y-36678D01*
X42170Y-36720D01*
X42212Y-36760D01*
X42293Y-36846D01*
X42314Y-36752D01*
X42335Y-36657D01*
X42339Y-36766D01*
X42339Y-36766D01*
X42339Y-36766D01*
G37*
G36*
X42678Y-36674D02*
X42604Y-36774D01*
X42548Y-36839D01*
X42503Y-36873D01*
X42497Y-36874D01*
X42495Y-36853D01*
X42531Y-36803D01*
X42541Y-36793D01*
X42617Y-36712D01*
X42505Y-36698D01*
X42443Y-36690D01*
X42440Y-36684D01*
X42499Y-36681D01*
X42535Y-36679D01*
X42678Y-36674D01*
X42678Y-36674D01*
X42678Y-36674D01*
G37*
G36*
X42776Y-36768D02*
X42769Y-36842D01*
X42734Y-36870D01*
X42687Y-36874D01*
X42598Y-36874D01*
X42679Y-36782D01*
X42734Y-36719D01*
X42766Y-36680D01*
X42768Y-36677D01*
X42774Y-36696D01*
X42776Y-36760D01*
X42776Y-36768D01*
X42776Y-36768D01*
X42776Y-36768D01*
G37*
G36*
X43802Y-34058D02*
X43798Y-34063D01*
X43779Y-34058D01*
X43776Y-34041D01*
X43788Y-34013D01*
X43798Y-34018D01*
X43802Y-34058D01*
X43802Y-34058D01*
X43802Y-34058D01*
G37*
G36*
X43810Y-33957D02*
X43793Y-33974D01*
X43776Y-33957D01*
X43793Y-33941D01*
X43810Y-33957D01*
X43810Y-33957D01*
X43810Y-33957D01*
G37*
G36*
X43769Y-33891D02*
X43765Y-33896D01*
X43745Y-33891D01*
X43743Y-33874D01*
X43755Y-33846D01*
X43765Y-33852D01*
X43769Y-33891D01*
X43769Y-33891D01*
X43769Y-33891D01*
G37*
G36*
X44642Y-33108D02*
X44626Y-33277D01*
X44586Y-33427D01*
X44526Y-33539D01*
X44504Y-33562D01*
X44459Y-33593D01*
X44443Y-33587D01*
X44459Y-33541D01*
X44498Y-33467D01*
X44504Y-33456D01*
X44555Y-33347D01*
X44588Y-33225D01*
X44601Y-33105D01*
X44594Y-33004D01*
X44567Y-32935D01*
X44520Y-32914D01*
X44518Y-32915D01*
X44465Y-32901D01*
X44452Y-32882D01*
X44465Y-32846D01*
X44490Y-32841D01*
X44532Y-32834D01*
X44538Y-32805D01*
X44509Y-32739D01*
X44496Y-32714D01*
X44408Y-32590D01*
X44290Y-32478D01*
X44156Y-32389D01*
X44024Y-32332D01*
X43908Y-32319D01*
X43886Y-32322D01*
X43786Y-32315D01*
X43720Y-32275D01*
X43631Y-32223D01*
X43539Y-32213D01*
X43425Y-32245D01*
X43351Y-32278D01*
X43241Y-32341D01*
X43190Y-32400D01*
X43193Y-32467D01*
X43225Y-32527D01*
X43259Y-32592D01*
X43263Y-32631D01*
X43226Y-32630D01*
X43180Y-32593D01*
X43147Y-32541D01*
X43143Y-32520D01*
X43116Y-32479D01*
X43091Y-32474D01*
X43029Y-32500D01*
X42959Y-32563D01*
X42901Y-32639D01*
X42876Y-32707D01*
X42876Y-32708D01*
X42864Y-32776D01*
X42833Y-32868D01*
X42826Y-32885D01*
X42794Y-32998D01*
X42777Y-33127D01*
X42776Y-33156D01*
X42769Y-33248D01*
X42751Y-33301D01*
X42740Y-33307D01*
X42723Y-33278D01*
X42720Y-33202D01*
X42729Y-33099D01*
X42748Y-32987D01*
X42774Y-32884D01*
X42796Y-32827D01*
X42824Y-32756D01*
X42828Y-32715D01*
X42828Y-32714D01*
X42805Y-32729D01*
X42772Y-32786D01*
X42734Y-32849D01*
X42703Y-32874D01*
X42695Y-32850D01*
X42719Y-32791D01*
X42766Y-32711D01*
X42827Y-32629D01*
X42848Y-32605D01*
X42952Y-32504D01*
X43084Y-32395D01*
X43220Y-32296D01*
X43333Y-32228D01*
X43446Y-32189D01*
X43567Y-32175D01*
X43674Y-32187D01*
X43742Y-32223D01*
X43743Y-32224D01*
X43807Y-32259D01*
X43912Y-32274D01*
X43924Y-32274D01*
X44079Y-32304D01*
X44240Y-32386D01*
X44391Y-32508D01*
X44518Y-32659D01*
X44594Y-32799D01*
X44632Y-32942D01*
X44642Y-33108D01*
X44642Y-33108D01*
X44642Y-33108D01*
G37*
G36*
X42843Y-33257D02*
X42826Y-33274D01*
X42810Y-33257D01*
X42826Y-33241D01*
X42843Y-33257D01*
X42843Y-33257D01*
X42843Y-33257D01*
G37*
G36*
X44076Y-32941D02*
X44049Y-32970D01*
X44028Y-32974D01*
X43971Y-32954D01*
X43960Y-32941D01*
X43970Y-32914D01*
X44008Y-32907D01*
X44063Y-32921D01*
X44076Y-32941D01*
X44076Y-32941D01*
X44076Y-32941D01*
G37*
G36*
X44412Y-32899D02*
X44403Y-32925D01*
X44352Y-32948D01*
X44272Y-32961D01*
X44190Y-32964D01*
X44137Y-32954D01*
X44131Y-32948D01*
X44147Y-32924D01*
X44214Y-32903D01*
X44251Y-32897D01*
X44362Y-32888D01*
X44412Y-32899D01*
X44412Y-32899D01*
X44412Y-32899D01*
G37*
G36*
X43864Y-32927D02*
X43843Y-32937D01*
X43787Y-32939D01*
X43695Y-32924D01*
X43629Y-32888D01*
X43587Y-32842D01*
X43576Y-32824D01*
X43603Y-32822D01*
X43668Y-32838D01*
X43747Y-32865D01*
X43818Y-32895D01*
X43832Y-32903D01*
X43864Y-32927D01*
X43864Y-32927D01*
X43864Y-32927D01*
G37*
G36*
X42776Y-35533D02*
X42763Y-35569D01*
X42741Y-35574D01*
X42722Y-35553D01*
X42728Y-35538D01*
X42722Y-35493D01*
X42688Y-35453D01*
X42648Y-35419D01*
X42662Y-35421D01*
X42701Y-35440D01*
X42754Y-35483D01*
X42776Y-35533D01*
X42776Y-35533D01*
X42776Y-35533D01*
G37*
G36*
X42636Y-35334D02*
X42632Y-35349D01*
X42619Y-35353D01*
X42615Y-35307D01*
X42620Y-35260D01*
X42632Y-35266D01*
X42636Y-35334D01*
X42636Y-35334D01*
X42636Y-35334D01*
G37*
G36*
X43076Y-34724D02*
X43060Y-34741D01*
X43043Y-34724D01*
X43060Y-34707D01*
X43076Y-34724D01*
X43076Y-34724D01*
X43076Y-34724D01*
G37*
G54D14*
X129976Y-28691D02*
X129276Y-28691D01*
X125676Y-28691D02*
X124976Y-28691D01*
X124976Y-28691D02*
X124976Y-27991D01*
X124976Y-24391D02*
X124976Y-23691D01*
X124976Y-23691D02*
X125676Y-23691D01*
X129276Y-23691D02*
X129976Y-23691D01*
X129976Y-23691D02*
X129976Y-24391D01*
X129976Y-27991D02*
X129976Y-28691D01*
X107476Y-36191D02*
X106776Y-36191D01*
X103176Y-36191D02*
X102476Y-36191D01*
X102476Y-36191D02*
X102476Y-35491D01*
X102476Y-31891D02*
X102476Y-31191D01*
X102476Y-31191D02*
X103176Y-31191D01*
X106776Y-31191D02*
X107476Y-31191D01*
X107476Y-31191D02*
X107476Y-31891D01*
X107476Y-35491D02*
X107476Y-36191D01*
X114976Y-36191D02*
X114276Y-36191D01*
X110676Y-36191D02*
X109976Y-36191D01*
X109976Y-36191D02*
X109976Y-35491D01*
X109976Y-31891D02*
X109976Y-31191D01*
X109976Y-31191D02*
X110676Y-31191D01*
X114276Y-31191D02*
X114976Y-31191D01*
X114976Y-31191D02*
X114976Y-31891D01*
X114976Y-35491D02*
X114976Y-36191D01*
X122476Y-28691D02*
X121776Y-28691D01*
X118176Y-28691D02*
X117476Y-28691D01*
X117476Y-28691D02*
X117476Y-27991D01*
X117476Y-24391D02*
X117476Y-23691D01*
X117476Y-23691D02*
X118176Y-23691D01*
X121776Y-23691D02*
X122476Y-23691D01*
X122476Y-23691D02*
X122476Y-24391D01*
X122476Y-27991D02*
X122476Y-28691D01*
X122476Y-36191D02*
X121776Y-36191D01*
X118176Y-36191D02*
X117476Y-36191D01*
X117476Y-36191D02*
X117476Y-35491D01*
X117476Y-31891D02*
X117476Y-31191D01*
X117476Y-31191D02*
X118176Y-31191D01*
X121776Y-31191D02*
X122476Y-31191D01*
X122476Y-31191D02*
X122476Y-31891D01*
X122476Y-35491D02*
X122476Y-36191D01*
X129976Y-36191D02*
X129276Y-36191D01*
X125676Y-36191D02*
X124976Y-36191D01*
X124976Y-36191D02*
X124976Y-35491D01*
X124976Y-31891D02*
X124976Y-31191D01*
X124976Y-31191D02*
X125676Y-31191D01*
X129276Y-31191D02*
X129976Y-31191D01*
X129976Y-31191D02*
X129976Y-31891D01*
X129976Y-35491D02*
X129976Y-36191D01*
X122476Y-21191D02*
X121776Y-21191D01*
X118176Y-21191D02*
X117476Y-21191D01*
X117476Y-21191D02*
X117476Y-20491D01*
X117476Y-16891D02*
X117476Y-16191D01*
X117476Y-16191D02*
X118176Y-16191D01*
X121776Y-16191D02*
X122476Y-16191D01*
X122476Y-16191D02*
X122476Y-16891D01*
X122476Y-20491D02*
X122476Y-21191D01*
X114976Y-28691D02*
X114276Y-28691D01*
X110676Y-28691D02*
X109976Y-28691D01*
X109976Y-28691D02*
X109976Y-27991D01*
X109976Y-24391D02*
X109976Y-23691D01*
X109976Y-23691D02*
X110676Y-23691D01*
X114276Y-23691D02*
X114976Y-23691D01*
X114976Y-23691D02*
X114976Y-24391D01*
X114976Y-27991D02*
X114976Y-28691D01*
X107476Y-28691D02*
X106776Y-28691D01*
X103176Y-28691D02*
X102476Y-28691D01*
X102476Y-28691D02*
X102476Y-27991D01*
X102476Y-24391D02*
X102476Y-23691D01*
X102476Y-23691D02*
X103176Y-23691D01*
X106776Y-23691D02*
X107476Y-23691D01*
X107476Y-23691D02*
X107476Y-24391D01*
X107476Y-27991D02*
X107476Y-28691D01*
X129976Y-21191D02*
X129276Y-21191D01*
X125676Y-21191D02*
X124976Y-21191D01*
X124976Y-21191D02*
X124976Y-20491D01*
X124976Y-16891D02*
X124976Y-16191D01*
X124976Y-16191D02*
X125676Y-16191D01*
X129276Y-16191D02*
X129976Y-16191D01*
X129976Y-16191D02*
X129976Y-16891D01*
X129976Y-20491D02*
X129976Y-21191D01*
X107426Y-6191D02*
X106726Y-6191D01*
X103126Y-6191D02*
X102426Y-6191D01*
X102426Y-6191D02*
X102426Y-5491D01*
X102426Y-1891D02*
X102426Y-1191D01*
X102426Y-1191D02*
X103126Y-1191D01*
X106726Y-1191D02*
X107426Y-1191D01*
X107426Y-1191D02*
X107426Y-1891D01*
X107426Y-5491D02*
X107426Y-6191D01*
X114976Y-21191D02*
X114276Y-21191D01*
X110676Y-21191D02*
X109976Y-21191D01*
X109976Y-21191D02*
X109976Y-20491D01*
X109976Y-16891D02*
X109976Y-16191D01*
X109976Y-16191D02*
X110676Y-16191D01*
X114276Y-16191D02*
X114976Y-16191D01*
X114976Y-16191D02*
X114976Y-16891D01*
X114976Y-20491D02*
X114976Y-21191D01*
X107476Y-21191D02*
X106776Y-21191D01*
X103176Y-21191D02*
X102476Y-21191D01*
X102476Y-21191D02*
X102476Y-20491D01*
X102476Y-16891D02*
X102476Y-16191D01*
X102476Y-16191D02*
X103176Y-16191D01*
X106776Y-16191D02*
X107476Y-16191D01*
X107476Y-16191D02*
X107476Y-16891D01*
X107476Y-20491D02*
X107476Y-21191D01*
X129976Y-13691D02*
X129276Y-13691D01*
X125676Y-13691D02*
X124976Y-13691D01*
X124976Y-13691D02*
X124976Y-12991D01*
X124976Y-9391D02*
X124976Y-8691D01*
X124976Y-8691D02*
X125676Y-8691D01*
X129276Y-8691D02*
X129976Y-8691D01*
X129976Y-8691D02*
X129976Y-9391D01*
X129976Y-12991D02*
X129976Y-13691D01*
X122476Y-13691D02*
X121776Y-13691D01*
X118176Y-13691D02*
X117476Y-13691D01*
X117476Y-13691D02*
X117476Y-12991D01*
X117476Y-9391D02*
X117476Y-8691D01*
X117476Y-8691D02*
X118176Y-8691D01*
X121776Y-8691D02*
X122476Y-8691D01*
X122476Y-8691D02*
X122476Y-9391D01*
X122476Y-12991D02*
X122476Y-13691D01*
X114976Y-13691D02*
X114276Y-13691D01*
X110676Y-13691D02*
X109976Y-13691D01*
X109976Y-13691D02*
X109976Y-12991D01*
X109976Y-9391D02*
X109976Y-8691D01*
X109976Y-8691D02*
X110676Y-8691D01*
X114276Y-8691D02*
X114976Y-8691D01*
X114976Y-8691D02*
X114976Y-9391D01*
X114976Y-12991D02*
X114976Y-13691D01*
X107476Y-13691D02*
X106776Y-13691D01*
X103176Y-13691D02*
X102476Y-13691D01*
X102476Y-13691D02*
X102476Y-12991D01*
X102476Y-9391D02*
X102476Y-8691D01*
X102476Y-8691D02*
X103176Y-8691D01*
X106776Y-8691D02*
X107476Y-8691D01*
X107476Y-8691D02*
X107476Y-9391D01*
X107476Y-12991D02*
X107476Y-13691D01*
X129976Y-6191D02*
X129276Y-6191D01*
X125676Y-6191D02*
X124976Y-6191D01*
X124976Y-6191D02*
X124976Y-5491D01*
X124976Y-1891D02*
X124976Y-1191D01*
X124976Y-1191D02*
X125676Y-1191D01*
X129276Y-1191D02*
X129976Y-1191D01*
X129976Y-1191D02*
X129976Y-1891D01*
X129976Y-5491D02*
X129976Y-6191D01*
X122476Y-6191D02*
X121776Y-6191D01*
X118176Y-6191D02*
X117476Y-6191D01*
X117476Y-6191D02*
X117476Y-5491D01*
X117476Y-1891D02*
X117476Y-1191D01*
X117476Y-1191D02*
X118176Y-1191D01*
X121776Y-1191D02*
X122476Y-1191D01*
X122476Y-1191D02*
X122476Y-1891D01*
X122476Y-5491D02*
X122476Y-6191D01*
X114976Y-6191D02*
X114276Y-6191D01*
X110676Y-6191D02*
X109976Y-6191D01*
X109976Y-6191D02*
X109976Y-5491D01*
X109976Y-1891D02*
X109976Y-1191D01*
X109976Y-1191D02*
X110676Y-1191D01*
X114276Y-1191D02*
X114976Y-1191D01*
X114976Y-1191D02*
X114976Y-1891D01*
X114976Y-5491D02*
X114976Y-6191D01*
G54D16*
X2567Y-18941D02*
G75*
G03X2567Y-18941I-591J0D01*
G74*
G01*
X2901Y-17721D02*
X2901Y-17524D01*
X2901Y-17524D02*
X2626Y-17524D01*
X2626Y-17524D02*
X2626Y-17721D01*
X1051Y-17524D02*
X1051Y-17721D01*
X1326Y-17524D02*
X1051Y-17524D01*
X1326Y-17721D02*
X1326Y-17524D01*
X1326Y-20161D02*
X1326Y-20358D01*
X1326Y-20358D02*
X1051Y-20358D01*
X1051Y-20358D02*
X1051Y-20161D01*
X2901Y-20161D02*
X2901Y-20358D01*
X2901Y-20358D02*
X2626Y-20358D01*
X2626Y-20358D02*
X2626Y-20161D01*
G54D14*
X756Y-17839D02*
X756Y-20043D01*
X3196Y-17839D02*
X3196Y-20043D01*
X3157Y-17721D02*
X3157Y-20161D01*
X3157Y-20161D02*
X795Y-20161D01*
X795Y-20161D02*
X795Y-17721D01*
X795Y-17721D02*
X3157Y-17721D01*
G54D17*
X9992Y-19925D02*
X9992Y-17957D01*
X9992Y-17957D02*
X11960Y-17957D01*
X11960Y-17957D02*
X11960Y-19925D01*
X11960Y-19925D02*
X9992Y-19925D01*
G54D18*
X9873Y-19885D02*
G75*
G03X9873Y-19885I-38J0D01*
G74*
G01*
X11560Y-18941D02*
G75*
G03X11560Y-18941I-584J0D01*
G74*
G01*
G54D19*
X5354Y-17719D02*
X5440Y-17743D01*
X5583Y-17743D01*
X5640Y-17719D01*
X5668Y-17695D01*
X5697Y-17648D01*
X5697Y-17600D01*
X5668Y-17552D01*
X5640Y-17529D01*
X5583Y-17505D01*
X5468Y-17481D01*
X5411Y-17457D01*
X5383Y-17433D01*
X5354Y-17386D01*
X5354Y-17338D01*
X5383Y-17291D01*
X5411Y-17267D01*
X5468Y-17243D01*
X5611Y-17243D01*
X5697Y-17267D01*
X6068Y-17243D02*
X6126Y-17243D01*
X6183Y-17267D01*
X6211Y-17291D01*
X6240Y-17338D01*
X6268Y-17433D01*
X6268Y-17552D01*
X6240Y-17648D01*
X6211Y-17695D01*
X6183Y-17719D01*
X6126Y-17743D01*
X6068Y-17743D01*
X6011Y-17719D01*
X5983Y-17695D01*
X5954Y-17648D01*
X5926Y-17552D01*
X5926Y-17433D01*
X5954Y-17338D01*
X5983Y-17291D01*
X6011Y-17267D01*
X6068Y-17243D01*
X6468Y-17243D02*
X6840Y-17243D01*
X6640Y-17433D01*
X6726Y-17433D01*
X6783Y-17457D01*
X6811Y-17481D01*
X6840Y-17529D01*
X6840Y-17648D01*
X6811Y-17695D01*
X6783Y-17719D01*
X6726Y-17743D01*
X6554Y-17743D01*
X6497Y-17719D01*
X6468Y-17695D01*
X7097Y-17695D02*
X7126Y-17719D01*
X7097Y-17743D01*
X7068Y-17719D01*
X7097Y-17695D01*
X7097Y-17743D01*
X7097Y-17433D02*
X7126Y-17457D01*
X7097Y-17481D01*
X7068Y-17457D01*
X7097Y-17433D01*
X7097Y-17481D01*
X7697Y-17743D02*
X7354Y-17743D01*
X7526Y-17743D02*
X7526Y-17243D01*
X7468Y-17314D01*
X7411Y-17362D01*
X7354Y-17386D01*
X93218Y-17619D02*
X93304Y-17643D01*
X93447Y-17643D01*
X93504Y-17619D01*
X93533Y-17595D01*
X93561Y-17548D01*
X93561Y-17500D01*
X93533Y-17452D01*
X93504Y-17429D01*
X93447Y-17405D01*
X93333Y-17381D01*
X93276Y-17357D01*
X93247Y-17333D01*
X93218Y-17286D01*
X93218Y-17238D01*
X93247Y-17191D01*
X93276Y-17167D01*
X93333Y-17143D01*
X93476Y-17143D01*
X93561Y-17167D01*
X93933Y-17143D02*
X93990Y-17143D01*
X94047Y-17167D01*
X94076Y-17191D01*
X94104Y-17238D01*
X94133Y-17333D01*
X94133Y-17452D01*
X94104Y-17548D01*
X94076Y-17595D01*
X94047Y-17619D01*
X93990Y-17643D01*
X93933Y-17643D01*
X93876Y-17619D01*
X93847Y-17595D01*
X93818Y-17548D01*
X93790Y-17452D01*
X93790Y-17333D01*
X93818Y-17238D01*
X93847Y-17191D01*
X93876Y-17167D01*
X93933Y-17143D01*
X94333Y-17143D02*
X94704Y-17143D01*
X94504Y-17333D01*
X94590Y-17333D01*
X94647Y-17357D01*
X94676Y-17381D01*
X94704Y-17429D01*
X94704Y-17548D01*
X94676Y-17595D01*
X94647Y-17619D01*
X94590Y-17643D01*
X94418Y-17643D01*
X94361Y-17619D01*
X94333Y-17595D01*
X94961Y-17595D02*
X94990Y-17619D01*
X94961Y-17643D01*
X94933Y-17619D01*
X94961Y-17595D01*
X94961Y-17643D01*
X94961Y-17333D02*
X94990Y-17357D01*
X94961Y-17381D01*
X94933Y-17357D01*
X94961Y-17333D01*
X94961Y-17381D01*
X95561Y-17643D02*
X95218Y-17643D01*
X95390Y-17643D02*
X95390Y-17143D01*
X95333Y-17214D01*
X95276Y-17262D01*
X95218Y-17286D01*
X95790Y-17191D02*
X95818Y-17167D01*
X95876Y-17143D01*
X96018Y-17143D01*
X96076Y-17167D01*
X96104Y-17191D01*
X96133Y-17238D01*
X96133Y-17286D01*
X96104Y-17357D01*
X95761Y-17643D01*
X96133Y-17643D01*
X4404Y-10219D02*
X4490Y-10243D01*
X4633Y-10243D01*
X4690Y-10219D01*
X4718Y-10195D01*
X4747Y-10148D01*
X4747Y-10100D01*
X4718Y-10052D01*
X4690Y-10029D01*
X4633Y-10005D01*
X4518Y-9981D01*
X4461Y-9957D01*
X4433Y-9933D01*
X4404Y-9886D01*
X4404Y-9838D01*
X4433Y-9791D01*
X4461Y-9767D01*
X4518Y-9743D01*
X4661Y-9743D01*
X4747Y-9767D01*
X5118Y-9743D02*
X5176Y-9743D01*
X5233Y-9767D01*
X5261Y-9791D01*
X5290Y-9838D01*
X5318Y-9933D01*
X5318Y-10052D01*
X5290Y-10148D01*
X5261Y-10195D01*
X5233Y-10219D01*
X5176Y-10243D01*
X5118Y-10243D01*
X5061Y-10219D01*
X5033Y-10195D01*
X5004Y-10148D01*
X4976Y-10052D01*
X4976Y-9933D01*
X5004Y-9838D01*
X5033Y-9791D01*
X5061Y-9767D01*
X5118Y-9743D01*
X5547Y-9791D02*
X5576Y-9767D01*
X5633Y-9743D01*
X5776Y-9743D01*
X5833Y-9767D01*
X5861Y-9791D01*
X5890Y-9838D01*
X5890Y-9886D01*
X5861Y-9957D01*
X5518Y-10243D01*
X5890Y-10243D01*
X6147Y-10195D02*
X6176Y-10219D01*
X6147Y-10243D01*
X6118Y-10219D01*
X6147Y-10195D01*
X6147Y-10243D01*
X6147Y-9933D02*
X6176Y-9957D01*
X6147Y-9981D01*
X6118Y-9957D01*
X6147Y-9933D01*
X6147Y-9981D01*
X6747Y-10243D02*
X6404Y-10243D01*
X6576Y-10243D02*
X6576Y-9743D01*
X6518Y-9814D01*
X6461Y-9862D01*
X6404Y-9886D01*
X94118Y-2619D02*
X94204Y-2643D01*
X94347Y-2643D01*
X94404Y-2619D01*
X94433Y-2595D01*
X94461Y-2548D01*
X94461Y-2500D01*
X94433Y-2452D01*
X94404Y-2429D01*
X94347Y-2405D01*
X94233Y-2381D01*
X94176Y-2357D01*
X94147Y-2333D01*
X94118Y-2286D01*
X94118Y-2238D01*
X94147Y-2191D01*
X94176Y-2167D01*
X94233Y-2143D01*
X94376Y-2143D01*
X94461Y-2167D01*
X94833Y-2143D02*
X94890Y-2143D01*
X94947Y-2167D01*
X94976Y-2191D01*
X95004Y-2238D01*
X95033Y-2333D01*
X95033Y-2452D01*
X95004Y-2548D01*
X94976Y-2595D01*
X94947Y-2619D01*
X94890Y-2643D01*
X94833Y-2643D01*
X94776Y-2619D01*
X94747Y-2595D01*
X94718Y-2548D01*
X94690Y-2452D01*
X94690Y-2333D01*
X94718Y-2238D01*
X94747Y-2191D01*
X94776Y-2167D01*
X94833Y-2143D01*
X95604Y-2643D02*
X95261Y-2643D01*
X95433Y-2643D02*
X95433Y-2143D01*
X95376Y-2214D01*
X95318Y-2262D01*
X95261Y-2286D01*
X95861Y-2595D02*
X95890Y-2619D01*
X95861Y-2643D01*
X95833Y-2619D01*
X95861Y-2595D01*
X95861Y-2643D01*
X95861Y-2333D02*
X95890Y-2357D01*
X95861Y-2381D01*
X95833Y-2357D01*
X95861Y-2333D01*
X95861Y-2381D01*
X96461Y-2643D02*
X96118Y-2643D01*
X96290Y-2643D02*
X96290Y-2143D01*
X96233Y-2214D01*
X96176Y-2262D01*
X96118Y-2286D01*
X96661Y-2143D02*
X97033Y-2143D01*
X96833Y-2333D01*
X96918Y-2333D01*
X96976Y-2357D01*
X97004Y-2381D01*
X97033Y-2429D01*
X97033Y-2548D01*
X97004Y-2595D01*
X96976Y-2619D01*
X96918Y-2643D01*
X96747Y-2643D01*
X96690Y-2619D01*
X96661Y-2595D01*
X65354Y-32619D02*
X65440Y-32643D01*
X65583Y-32643D01*
X65640Y-32619D01*
X65668Y-32595D01*
X65697Y-32548D01*
X65697Y-32500D01*
X65668Y-32452D01*
X65640Y-32429D01*
X65583Y-32405D01*
X65468Y-32381D01*
X65411Y-32357D01*
X65383Y-32333D01*
X65354Y-32286D01*
X65354Y-32238D01*
X65383Y-32191D01*
X65411Y-32167D01*
X65468Y-32143D01*
X65611Y-32143D01*
X65697Y-32167D01*
X66068Y-32143D02*
X66126Y-32143D01*
X66183Y-32167D01*
X66211Y-32191D01*
X66240Y-32238D01*
X66268Y-32333D01*
X66268Y-32452D01*
X66240Y-32548D01*
X66211Y-32595D01*
X66183Y-32619D01*
X66126Y-32643D01*
X66068Y-32643D01*
X66011Y-32619D01*
X65983Y-32595D01*
X65954Y-32548D01*
X65926Y-32452D01*
X65926Y-32333D01*
X65954Y-32238D01*
X65983Y-32191D01*
X66011Y-32167D01*
X66068Y-32143D01*
X66811Y-32143D02*
X66526Y-32143D01*
X66497Y-32381D01*
X66526Y-32357D01*
X66583Y-32333D01*
X66726Y-32333D01*
X66783Y-32357D01*
X66811Y-32381D01*
X66840Y-32429D01*
X66840Y-32548D01*
X66811Y-32595D01*
X66783Y-32619D01*
X66726Y-32643D01*
X66583Y-32643D01*
X66526Y-32619D01*
X66497Y-32595D01*
X67097Y-32595D02*
X67126Y-32619D01*
X67097Y-32643D01*
X67068Y-32619D01*
X67097Y-32595D01*
X67097Y-32643D01*
X67097Y-32333D02*
X67126Y-32357D01*
X67097Y-32381D01*
X67068Y-32357D01*
X67097Y-32333D01*
X67097Y-32381D01*
X67411Y-32643D02*
X67526Y-32643D01*
X67583Y-32619D01*
X67611Y-32595D01*
X67668Y-32524D01*
X67697Y-32429D01*
X67697Y-32238D01*
X67668Y-32191D01*
X67640Y-32167D01*
X67583Y-32143D01*
X67468Y-32143D01*
X67411Y-32167D01*
X67383Y-32191D01*
X67354Y-32238D01*
X67354Y-32357D01*
X67383Y-32405D01*
X67411Y-32429D01*
X67468Y-32452D01*
X67583Y-32452D01*
X67640Y-32429D01*
X67668Y-32405D01*
X67697Y-32357D01*
X3454Y-25219D02*
X3540Y-25243D01*
X3683Y-25243D01*
X3740Y-25219D01*
X3768Y-25195D01*
X3797Y-25148D01*
X3797Y-25100D01*
X3768Y-25052D01*
X3740Y-25029D01*
X3683Y-25005D01*
X3568Y-24981D01*
X3511Y-24957D01*
X3483Y-24933D01*
X3454Y-24886D01*
X3454Y-24838D01*
X3483Y-24791D01*
X3511Y-24767D01*
X3568Y-24743D01*
X3711Y-24743D01*
X3797Y-24767D01*
X4168Y-24743D02*
X4226Y-24743D01*
X4283Y-24767D01*
X4311Y-24791D01*
X4340Y-24838D01*
X4368Y-24933D01*
X4368Y-25052D01*
X4340Y-25148D01*
X4311Y-25195D01*
X4283Y-25219D01*
X4226Y-25243D01*
X4168Y-25243D01*
X4111Y-25219D01*
X4083Y-25195D01*
X4054Y-25148D01*
X4026Y-25052D01*
X4026Y-24933D01*
X4054Y-24838D01*
X4083Y-24791D01*
X4111Y-24767D01*
X4168Y-24743D01*
X4883Y-24910D02*
X4883Y-25243D01*
X4740Y-24719D02*
X4597Y-25076D01*
X4968Y-25076D01*
X5197Y-25195D02*
X5226Y-25219D01*
X5197Y-25243D01*
X5168Y-25219D01*
X5197Y-25195D01*
X5197Y-25243D01*
X5197Y-24933D02*
X5226Y-24957D01*
X5197Y-24981D01*
X5168Y-24957D01*
X5197Y-24933D01*
X5197Y-24981D01*
X5797Y-25243D02*
X5454Y-25243D01*
X5626Y-25243D02*
X5626Y-24743D01*
X5568Y-24814D01*
X5511Y-24862D01*
X5454Y-24886D01*
X35354Y-32719D02*
X35440Y-32743D01*
X35583Y-32743D01*
X35640Y-32719D01*
X35668Y-32695D01*
X35697Y-32648D01*
X35697Y-32600D01*
X35668Y-32552D01*
X35640Y-32529D01*
X35583Y-32505D01*
X35468Y-32481D01*
X35411Y-32457D01*
X35383Y-32433D01*
X35354Y-32386D01*
X35354Y-32338D01*
X35383Y-32291D01*
X35411Y-32267D01*
X35468Y-32243D01*
X35611Y-32243D01*
X35697Y-32267D01*
X36068Y-32243D02*
X36126Y-32243D01*
X36183Y-32267D01*
X36211Y-32291D01*
X36240Y-32338D01*
X36268Y-32433D01*
X36268Y-32552D01*
X36240Y-32648D01*
X36211Y-32695D01*
X36183Y-32719D01*
X36126Y-32743D01*
X36068Y-32743D01*
X36011Y-32719D01*
X35983Y-32695D01*
X35954Y-32648D01*
X35926Y-32552D01*
X35926Y-32433D01*
X35954Y-32338D01*
X35983Y-32291D01*
X36011Y-32267D01*
X36068Y-32243D01*
X36811Y-32243D02*
X36526Y-32243D01*
X36497Y-32481D01*
X36526Y-32457D01*
X36583Y-32433D01*
X36726Y-32433D01*
X36783Y-32457D01*
X36811Y-32481D01*
X36840Y-32529D01*
X36840Y-32648D01*
X36811Y-32695D01*
X36783Y-32719D01*
X36726Y-32743D01*
X36583Y-32743D01*
X36526Y-32719D01*
X36497Y-32695D01*
X37097Y-32695D02*
X37126Y-32719D01*
X37097Y-32743D01*
X37068Y-32719D01*
X37097Y-32695D01*
X37097Y-32743D01*
X37097Y-32433D02*
X37126Y-32457D01*
X37097Y-32481D01*
X37068Y-32457D01*
X37097Y-32433D01*
X37097Y-32481D01*
X37668Y-32243D02*
X37383Y-32243D01*
X37354Y-32481D01*
X37383Y-32457D01*
X37440Y-32433D01*
X37583Y-32433D01*
X37640Y-32457D01*
X37668Y-32481D01*
X37697Y-32529D01*
X37697Y-32648D01*
X37668Y-32695D01*
X37640Y-32719D01*
X37583Y-32743D01*
X37440Y-32743D01*
X37383Y-32719D01*
X37354Y-32695D01*
X87568Y-25119D02*
X87654Y-25143D01*
X87797Y-25143D01*
X87854Y-25119D01*
X87883Y-25095D01*
X87911Y-25048D01*
X87911Y-25000D01*
X87883Y-24952D01*
X87854Y-24929D01*
X87797Y-24905D01*
X87683Y-24881D01*
X87626Y-24857D01*
X87597Y-24833D01*
X87568Y-24786D01*
X87568Y-24738D01*
X87597Y-24691D01*
X87626Y-24667D01*
X87683Y-24643D01*
X87826Y-24643D01*
X87911Y-24667D01*
X88283Y-24643D02*
X88340Y-24643D01*
X88397Y-24667D01*
X88426Y-24691D01*
X88454Y-24738D01*
X88483Y-24833D01*
X88483Y-24952D01*
X88454Y-25048D01*
X88426Y-25095D01*
X88397Y-25119D01*
X88340Y-25143D01*
X88283Y-25143D01*
X88226Y-25119D01*
X88197Y-25095D01*
X88168Y-25048D01*
X88140Y-24952D01*
X88140Y-24833D01*
X88168Y-24738D01*
X88197Y-24691D01*
X88226Y-24667D01*
X88283Y-24643D01*
X88997Y-24810D02*
X88997Y-25143D01*
X88854Y-24619D02*
X88711Y-24976D01*
X89083Y-24976D01*
X89311Y-25095D02*
X89340Y-25119D01*
X89311Y-25143D01*
X89283Y-25119D01*
X89311Y-25095D01*
X89311Y-25143D01*
X89311Y-24833D02*
X89340Y-24857D01*
X89311Y-24881D01*
X89283Y-24857D01*
X89311Y-24833D01*
X89311Y-24881D01*
X89911Y-25143D02*
X89568Y-25143D01*
X89740Y-25143D02*
X89740Y-24643D01*
X89683Y-24714D01*
X89626Y-24762D01*
X89568Y-24786D01*
X90140Y-24691D02*
X90168Y-24667D01*
X90226Y-24643D01*
X90368Y-24643D01*
X90426Y-24667D01*
X90454Y-24691D01*
X90483Y-24738D01*
X90483Y-24786D01*
X90454Y-24857D01*
X90111Y-25143D01*
X90483Y-25143D01*
X3454Y-32719D02*
X3540Y-32743D01*
X3683Y-32743D01*
X3740Y-32719D01*
X3768Y-32695D01*
X3797Y-32648D01*
X3797Y-32600D01*
X3768Y-32552D01*
X3740Y-32529D01*
X3683Y-32505D01*
X3568Y-32481D01*
X3511Y-32457D01*
X3483Y-32433D01*
X3454Y-32386D01*
X3454Y-32338D01*
X3483Y-32291D01*
X3511Y-32267D01*
X3568Y-32243D01*
X3711Y-32243D01*
X3797Y-32267D01*
X4168Y-32243D02*
X4226Y-32243D01*
X4283Y-32267D01*
X4311Y-32291D01*
X4340Y-32338D01*
X4368Y-32433D01*
X4368Y-32552D01*
X4340Y-32648D01*
X4311Y-32695D01*
X4283Y-32719D01*
X4226Y-32743D01*
X4168Y-32743D01*
X4111Y-32719D01*
X4083Y-32695D01*
X4054Y-32648D01*
X4026Y-32552D01*
X4026Y-32433D01*
X4054Y-32338D01*
X4083Y-32291D01*
X4111Y-32267D01*
X4168Y-32243D01*
X4911Y-32243D02*
X4626Y-32243D01*
X4597Y-32481D01*
X4626Y-32457D01*
X4683Y-32433D01*
X4826Y-32433D01*
X4883Y-32457D01*
X4911Y-32481D01*
X4940Y-32529D01*
X4940Y-32648D01*
X4911Y-32695D01*
X4883Y-32719D01*
X4826Y-32743D01*
X4683Y-32743D01*
X4626Y-32719D01*
X4597Y-32695D01*
X5197Y-32695D02*
X5226Y-32719D01*
X5197Y-32743D01*
X5168Y-32719D01*
X5197Y-32695D01*
X5197Y-32743D01*
X5197Y-32433D02*
X5226Y-32457D01*
X5197Y-32481D01*
X5168Y-32457D01*
X5197Y-32433D01*
X5197Y-32481D01*
X5797Y-32743D02*
X5454Y-32743D01*
X5626Y-32743D02*
X5626Y-32243D01*
X5568Y-32314D01*
X5511Y-32362D01*
X5454Y-32386D01*
X81018Y-10119D02*
X81104Y-10143D01*
X81247Y-10143D01*
X81304Y-10119D01*
X81333Y-10095D01*
X81361Y-10048D01*
X81361Y-10000D01*
X81333Y-9952D01*
X81304Y-9929D01*
X81247Y-9905D01*
X81133Y-9881D01*
X81076Y-9857D01*
X81047Y-9833D01*
X81018Y-9786D01*
X81018Y-9738D01*
X81047Y-9691D01*
X81076Y-9667D01*
X81133Y-9643D01*
X81276Y-9643D01*
X81361Y-9667D01*
X81733Y-9643D02*
X81790Y-9643D01*
X81847Y-9667D01*
X81876Y-9691D01*
X81904Y-9738D01*
X81933Y-9833D01*
X81933Y-9952D01*
X81904Y-10048D01*
X81876Y-10095D01*
X81847Y-10119D01*
X81790Y-10143D01*
X81733Y-10143D01*
X81676Y-10119D01*
X81647Y-10095D01*
X81618Y-10048D01*
X81590Y-9952D01*
X81590Y-9833D01*
X81618Y-9738D01*
X81647Y-9691D01*
X81676Y-9667D01*
X81733Y-9643D01*
X82161Y-9691D02*
X82190Y-9667D01*
X82247Y-9643D01*
X82390Y-9643D01*
X82447Y-9667D01*
X82476Y-9691D01*
X82504Y-9738D01*
X82504Y-9786D01*
X82476Y-9857D01*
X82133Y-10143D01*
X82504Y-10143D01*
X82761Y-10095D02*
X82790Y-10119D01*
X82761Y-10143D01*
X82733Y-10119D01*
X82761Y-10095D01*
X82761Y-10143D01*
X82761Y-9833D02*
X82790Y-9857D01*
X82761Y-9881D01*
X82733Y-9857D01*
X82761Y-9833D01*
X82761Y-9881D01*
X83361Y-10143D02*
X83018Y-10143D01*
X83190Y-10143D02*
X83190Y-9643D01*
X83133Y-9714D01*
X83076Y-9762D01*
X83018Y-9786D01*
X83933Y-10143D02*
X83590Y-10143D01*
X83761Y-10143D02*
X83761Y-9643D01*
X83704Y-9714D01*
X83647Y-9762D01*
X83590Y-9786D01*
X43804Y-10219D02*
X43890Y-10243D01*
X44033Y-10243D01*
X44090Y-10219D01*
X44118Y-10195D01*
X44147Y-10148D01*
X44147Y-10100D01*
X44118Y-10052D01*
X44090Y-10029D01*
X44033Y-10005D01*
X43918Y-9981D01*
X43861Y-9957D01*
X43833Y-9933D01*
X43804Y-9886D01*
X43804Y-9838D01*
X43833Y-9791D01*
X43861Y-9767D01*
X43918Y-9743D01*
X44061Y-9743D01*
X44147Y-9767D01*
X44518Y-9743D02*
X44576Y-9743D01*
X44633Y-9767D01*
X44661Y-9791D01*
X44690Y-9838D01*
X44718Y-9933D01*
X44718Y-10052D01*
X44690Y-10148D01*
X44661Y-10195D01*
X44633Y-10219D01*
X44576Y-10243D01*
X44518Y-10243D01*
X44461Y-10219D01*
X44433Y-10195D01*
X44404Y-10148D01*
X44376Y-10052D01*
X44376Y-9933D01*
X44404Y-9838D01*
X44433Y-9791D01*
X44461Y-9767D01*
X44518Y-9743D01*
X44947Y-9791D02*
X44976Y-9767D01*
X45033Y-9743D01*
X45176Y-9743D01*
X45233Y-9767D01*
X45261Y-9791D01*
X45290Y-9838D01*
X45290Y-9886D01*
X45261Y-9957D01*
X44918Y-10243D01*
X45290Y-10243D01*
X45547Y-10195D02*
X45576Y-10219D01*
X45547Y-10243D01*
X45518Y-10219D01*
X45547Y-10195D01*
X45547Y-10243D01*
X45547Y-9933D02*
X45576Y-9957D01*
X45547Y-9981D01*
X45518Y-9957D01*
X45547Y-9933D01*
X45547Y-9981D01*
X46090Y-9743D02*
X45976Y-9743D01*
X45918Y-9767D01*
X45890Y-9791D01*
X45833Y-9862D01*
X45804Y-9957D01*
X45804Y-10148D01*
X45833Y-10195D01*
X45861Y-10219D01*
X45918Y-10243D01*
X46033Y-10243D01*
X46090Y-10219D01*
X46118Y-10195D01*
X46147Y-10148D01*
X46147Y-10029D01*
X46118Y-9981D01*
X46090Y-9957D01*
X46033Y-9933D01*
X45918Y-9933D01*
X45861Y-9957D01*
X45833Y-9981D01*
X45804Y-10029D01*
X51304Y-10219D02*
X51390Y-10243D01*
X51533Y-10243D01*
X51590Y-10219D01*
X51618Y-10195D01*
X51647Y-10148D01*
X51647Y-10100D01*
X51618Y-10052D01*
X51590Y-10029D01*
X51533Y-10005D01*
X51418Y-9981D01*
X51361Y-9957D01*
X51333Y-9933D01*
X51304Y-9886D01*
X51304Y-9838D01*
X51333Y-9791D01*
X51361Y-9767D01*
X51418Y-9743D01*
X51561Y-9743D01*
X51647Y-9767D01*
X52018Y-9743D02*
X52076Y-9743D01*
X52133Y-9767D01*
X52161Y-9791D01*
X52190Y-9838D01*
X52218Y-9933D01*
X52218Y-10052D01*
X52190Y-10148D01*
X52161Y-10195D01*
X52133Y-10219D01*
X52076Y-10243D01*
X52018Y-10243D01*
X51961Y-10219D01*
X51933Y-10195D01*
X51904Y-10148D01*
X51876Y-10052D01*
X51876Y-9933D01*
X51904Y-9838D01*
X51933Y-9791D01*
X51961Y-9767D01*
X52018Y-9743D01*
X52447Y-9791D02*
X52476Y-9767D01*
X52533Y-9743D01*
X52676Y-9743D01*
X52733Y-9767D01*
X52761Y-9791D01*
X52790Y-9838D01*
X52790Y-9886D01*
X52761Y-9957D01*
X52418Y-10243D01*
X52790Y-10243D01*
X53047Y-10195D02*
X53076Y-10219D01*
X53047Y-10243D01*
X53018Y-10219D01*
X53047Y-10195D01*
X53047Y-10243D01*
X53047Y-9933D02*
X53076Y-9957D01*
X53047Y-9981D01*
X53018Y-9957D01*
X53047Y-9933D01*
X53047Y-9981D01*
X53276Y-9743D02*
X53676Y-9743D01*
X53418Y-10243D01*
X58804Y-10219D02*
X58890Y-10243D01*
X59033Y-10243D01*
X59090Y-10219D01*
X59118Y-10195D01*
X59147Y-10148D01*
X59147Y-10100D01*
X59118Y-10052D01*
X59090Y-10029D01*
X59033Y-10005D01*
X58918Y-9981D01*
X58861Y-9957D01*
X58833Y-9933D01*
X58804Y-9886D01*
X58804Y-9838D01*
X58833Y-9791D01*
X58861Y-9767D01*
X58918Y-9743D01*
X59061Y-9743D01*
X59147Y-9767D01*
X59518Y-9743D02*
X59576Y-9743D01*
X59633Y-9767D01*
X59661Y-9791D01*
X59690Y-9838D01*
X59718Y-9933D01*
X59718Y-10052D01*
X59690Y-10148D01*
X59661Y-10195D01*
X59633Y-10219D01*
X59576Y-10243D01*
X59518Y-10243D01*
X59461Y-10219D01*
X59433Y-10195D01*
X59404Y-10148D01*
X59376Y-10052D01*
X59376Y-9933D01*
X59404Y-9838D01*
X59433Y-9791D01*
X59461Y-9767D01*
X59518Y-9743D01*
X59947Y-9791D02*
X59976Y-9767D01*
X60033Y-9743D01*
X60176Y-9743D01*
X60233Y-9767D01*
X60261Y-9791D01*
X60290Y-9838D01*
X60290Y-9886D01*
X60261Y-9957D01*
X59918Y-10243D01*
X60290Y-10243D01*
X60547Y-10195D02*
X60576Y-10219D01*
X60547Y-10243D01*
X60518Y-10219D01*
X60547Y-10195D01*
X60547Y-10243D01*
X60547Y-9933D02*
X60576Y-9957D01*
X60547Y-9981D01*
X60518Y-9957D01*
X60547Y-9933D01*
X60547Y-9981D01*
X60918Y-9957D02*
X60861Y-9933D01*
X60833Y-9910D01*
X60804Y-9862D01*
X60804Y-9838D01*
X60833Y-9791D01*
X60861Y-9767D01*
X60918Y-9743D01*
X61033Y-9743D01*
X61090Y-9767D01*
X61118Y-9791D01*
X61147Y-9838D01*
X61147Y-9862D01*
X61118Y-9910D01*
X61090Y-9933D01*
X61033Y-9957D01*
X60918Y-9957D01*
X60861Y-9981D01*
X60833Y-10005D01*
X60804Y-10052D01*
X60804Y-10148D01*
X60833Y-10195D01*
X60861Y-10219D01*
X60918Y-10243D01*
X61033Y-10243D01*
X61090Y-10219D01*
X61118Y-10195D01*
X61147Y-10148D01*
X61147Y-10052D01*
X61118Y-10005D01*
X61090Y-9981D01*
X61033Y-9957D01*
X66304Y-10119D02*
X66390Y-10143D01*
X66533Y-10143D01*
X66590Y-10119D01*
X66618Y-10095D01*
X66647Y-10048D01*
X66647Y-10000D01*
X66618Y-9952D01*
X66590Y-9929D01*
X66533Y-9905D01*
X66418Y-9881D01*
X66361Y-9857D01*
X66333Y-9833D01*
X66304Y-9786D01*
X66304Y-9738D01*
X66333Y-9691D01*
X66361Y-9667D01*
X66418Y-9643D01*
X66561Y-9643D01*
X66647Y-9667D01*
X67018Y-9643D02*
X67076Y-9643D01*
X67133Y-9667D01*
X67161Y-9691D01*
X67190Y-9738D01*
X67218Y-9833D01*
X67218Y-9952D01*
X67190Y-10048D01*
X67161Y-10095D01*
X67133Y-10119D01*
X67076Y-10143D01*
X67018Y-10143D01*
X66961Y-10119D01*
X66933Y-10095D01*
X66904Y-10048D01*
X66876Y-9952D01*
X66876Y-9833D01*
X66904Y-9738D01*
X66933Y-9691D01*
X66961Y-9667D01*
X67018Y-9643D01*
X67447Y-9691D02*
X67476Y-9667D01*
X67533Y-9643D01*
X67676Y-9643D01*
X67733Y-9667D01*
X67761Y-9691D01*
X67790Y-9738D01*
X67790Y-9786D01*
X67761Y-9857D01*
X67418Y-10143D01*
X67790Y-10143D01*
X68047Y-10095D02*
X68076Y-10119D01*
X68047Y-10143D01*
X68018Y-10119D01*
X68047Y-10095D01*
X68047Y-10143D01*
X68047Y-9833D02*
X68076Y-9857D01*
X68047Y-9881D01*
X68018Y-9857D01*
X68047Y-9833D01*
X68047Y-9881D01*
X68361Y-10143D02*
X68476Y-10143D01*
X68533Y-10119D01*
X68561Y-10095D01*
X68618Y-10024D01*
X68647Y-9929D01*
X68647Y-9738D01*
X68618Y-9691D01*
X68590Y-9667D01*
X68533Y-9643D01*
X68418Y-9643D01*
X68361Y-9667D01*
X68333Y-9691D01*
X68304Y-9738D01*
X68304Y-9857D01*
X68333Y-9905D01*
X68361Y-9929D01*
X68418Y-9952D01*
X68533Y-9952D01*
X68590Y-9929D01*
X68618Y-9905D01*
X68647Y-9857D01*
X73518Y-10119D02*
X73604Y-10143D01*
X73747Y-10143D01*
X73804Y-10119D01*
X73833Y-10095D01*
X73861Y-10048D01*
X73861Y-10000D01*
X73833Y-9952D01*
X73804Y-9929D01*
X73747Y-9905D01*
X73633Y-9881D01*
X73576Y-9857D01*
X73547Y-9833D01*
X73518Y-9786D01*
X73518Y-9738D01*
X73547Y-9691D01*
X73576Y-9667D01*
X73633Y-9643D01*
X73776Y-9643D01*
X73861Y-9667D01*
X74233Y-9643D02*
X74290Y-9643D01*
X74347Y-9667D01*
X74376Y-9691D01*
X74404Y-9738D01*
X74433Y-9833D01*
X74433Y-9952D01*
X74404Y-10048D01*
X74376Y-10095D01*
X74347Y-10119D01*
X74290Y-10143D01*
X74233Y-10143D01*
X74176Y-10119D01*
X74147Y-10095D01*
X74118Y-10048D01*
X74090Y-9952D01*
X74090Y-9833D01*
X74118Y-9738D01*
X74147Y-9691D01*
X74176Y-9667D01*
X74233Y-9643D01*
X74661Y-9691D02*
X74690Y-9667D01*
X74747Y-9643D01*
X74890Y-9643D01*
X74947Y-9667D01*
X74976Y-9691D01*
X75004Y-9738D01*
X75004Y-9786D01*
X74976Y-9857D01*
X74633Y-10143D01*
X75004Y-10143D01*
X75261Y-10095D02*
X75290Y-10119D01*
X75261Y-10143D01*
X75233Y-10119D01*
X75261Y-10095D01*
X75261Y-10143D01*
X75261Y-9833D02*
X75290Y-9857D01*
X75261Y-9881D01*
X75233Y-9857D01*
X75261Y-9833D01*
X75261Y-9881D01*
X75861Y-10143D02*
X75518Y-10143D01*
X75690Y-10143D02*
X75690Y-9643D01*
X75633Y-9714D01*
X75576Y-9762D01*
X75518Y-9786D01*
X76233Y-9643D02*
X76290Y-9643D01*
X76347Y-9667D01*
X76376Y-9691D01*
X76404Y-9738D01*
X76433Y-9833D01*
X76433Y-9952D01*
X76404Y-10048D01*
X76376Y-10095D01*
X76347Y-10119D01*
X76290Y-10143D01*
X76233Y-10143D01*
X76176Y-10119D01*
X76147Y-10095D01*
X76118Y-10048D01*
X76090Y-9952D01*
X76090Y-9833D01*
X76118Y-9738D01*
X76147Y-9691D01*
X76176Y-9667D01*
X76233Y-9643D01*
X23154Y-17619D02*
X23240Y-17643D01*
X23383Y-17643D01*
X23440Y-17619D01*
X23468Y-17595D01*
X23497Y-17548D01*
X23497Y-17500D01*
X23468Y-17452D01*
X23440Y-17429D01*
X23383Y-17405D01*
X23268Y-17381D01*
X23211Y-17357D01*
X23183Y-17333D01*
X23154Y-17286D01*
X23154Y-17238D01*
X23183Y-17191D01*
X23211Y-17167D01*
X23268Y-17143D01*
X23411Y-17143D01*
X23497Y-17167D01*
X23868Y-17143D02*
X23926Y-17143D01*
X23983Y-17167D01*
X24011Y-17191D01*
X24040Y-17238D01*
X24068Y-17333D01*
X24068Y-17452D01*
X24040Y-17548D01*
X24011Y-17595D01*
X23983Y-17619D01*
X23926Y-17643D01*
X23868Y-17643D01*
X23811Y-17619D01*
X23783Y-17595D01*
X23754Y-17548D01*
X23726Y-17452D01*
X23726Y-17333D01*
X23754Y-17238D01*
X23783Y-17191D01*
X23811Y-17167D01*
X23868Y-17143D01*
X24268Y-17143D02*
X24640Y-17143D01*
X24440Y-17333D01*
X24526Y-17333D01*
X24583Y-17357D01*
X24611Y-17381D01*
X24640Y-17429D01*
X24640Y-17548D01*
X24611Y-17595D01*
X24583Y-17619D01*
X24526Y-17643D01*
X24354Y-17643D01*
X24297Y-17619D01*
X24268Y-17595D01*
X24897Y-17595D02*
X24926Y-17619D01*
X24897Y-17643D01*
X24868Y-17619D01*
X24897Y-17595D01*
X24897Y-17643D01*
X24897Y-17333D02*
X24926Y-17357D01*
X24897Y-17381D01*
X24868Y-17357D01*
X24897Y-17333D01*
X24897Y-17381D01*
X25126Y-17143D02*
X25497Y-17143D01*
X25297Y-17333D01*
X25383Y-17333D01*
X25440Y-17357D01*
X25468Y-17381D01*
X25497Y-17429D01*
X25497Y-17548D01*
X25468Y-17595D01*
X25440Y-17619D01*
X25383Y-17643D01*
X25211Y-17643D01*
X25154Y-17619D01*
X25126Y-17595D01*
X88518Y-10119D02*
X88604Y-10143D01*
X88747Y-10143D01*
X88804Y-10119D01*
X88833Y-10095D01*
X88861Y-10048D01*
X88861Y-10000D01*
X88833Y-9952D01*
X88804Y-9929D01*
X88747Y-9905D01*
X88633Y-9881D01*
X88576Y-9857D01*
X88547Y-9833D01*
X88518Y-9786D01*
X88518Y-9738D01*
X88547Y-9691D01*
X88576Y-9667D01*
X88633Y-9643D01*
X88776Y-9643D01*
X88861Y-9667D01*
X89233Y-9643D02*
X89290Y-9643D01*
X89347Y-9667D01*
X89376Y-9691D01*
X89404Y-9738D01*
X89433Y-9833D01*
X89433Y-9952D01*
X89404Y-10048D01*
X89376Y-10095D01*
X89347Y-10119D01*
X89290Y-10143D01*
X89233Y-10143D01*
X89176Y-10119D01*
X89147Y-10095D01*
X89118Y-10048D01*
X89090Y-9952D01*
X89090Y-9833D01*
X89118Y-9738D01*
X89147Y-9691D01*
X89176Y-9667D01*
X89233Y-9643D01*
X89661Y-9691D02*
X89690Y-9667D01*
X89747Y-9643D01*
X89890Y-9643D01*
X89947Y-9667D01*
X89976Y-9691D01*
X90004Y-9738D01*
X90004Y-9786D01*
X89976Y-9857D01*
X89633Y-10143D01*
X90004Y-10143D01*
X90261Y-10095D02*
X90290Y-10119D01*
X90261Y-10143D01*
X90233Y-10119D01*
X90261Y-10095D01*
X90261Y-10143D01*
X90261Y-9833D02*
X90290Y-9857D01*
X90261Y-9881D01*
X90233Y-9857D01*
X90261Y-9833D01*
X90261Y-9881D01*
X90861Y-10143D02*
X90518Y-10143D01*
X90690Y-10143D02*
X90690Y-9643D01*
X90633Y-9714D01*
X90576Y-9762D01*
X90518Y-9786D01*
X91090Y-9691D02*
X91118Y-9667D01*
X91176Y-9643D01*
X91318Y-9643D01*
X91376Y-9667D01*
X91404Y-9691D01*
X91433Y-9738D01*
X91433Y-9786D01*
X91404Y-9857D01*
X91061Y-10143D01*
X91433Y-10143D01*
X96018Y-10119D02*
X96104Y-10143D01*
X96247Y-10143D01*
X96304Y-10119D01*
X96333Y-10095D01*
X96361Y-10048D01*
X96361Y-10000D01*
X96333Y-9952D01*
X96304Y-9929D01*
X96247Y-9905D01*
X96133Y-9881D01*
X96076Y-9857D01*
X96047Y-9833D01*
X96018Y-9786D01*
X96018Y-9738D01*
X96047Y-9691D01*
X96076Y-9667D01*
X96133Y-9643D01*
X96276Y-9643D01*
X96361Y-9667D01*
X96733Y-9643D02*
X96790Y-9643D01*
X96847Y-9667D01*
X96876Y-9691D01*
X96904Y-9738D01*
X96933Y-9833D01*
X96933Y-9952D01*
X96904Y-10048D01*
X96876Y-10095D01*
X96847Y-10119D01*
X96790Y-10143D01*
X96733Y-10143D01*
X96676Y-10119D01*
X96647Y-10095D01*
X96618Y-10048D01*
X96590Y-9952D01*
X96590Y-9833D01*
X96618Y-9738D01*
X96647Y-9691D01*
X96676Y-9667D01*
X96733Y-9643D01*
X97161Y-9691D02*
X97190Y-9667D01*
X97247Y-9643D01*
X97390Y-9643D01*
X97447Y-9667D01*
X97476Y-9691D01*
X97504Y-9738D01*
X97504Y-9786D01*
X97476Y-9857D01*
X97133Y-10143D01*
X97504Y-10143D01*
X97761Y-10095D02*
X97790Y-10119D01*
X97761Y-10143D01*
X97733Y-10119D01*
X97761Y-10095D01*
X97761Y-10143D01*
X97761Y-9833D02*
X97790Y-9857D01*
X97761Y-9881D01*
X97733Y-9857D01*
X97761Y-9833D01*
X97761Y-9881D01*
X98361Y-10143D02*
X98018Y-10143D01*
X98190Y-10143D02*
X98190Y-9643D01*
X98133Y-9714D01*
X98076Y-9762D01*
X98018Y-9786D01*
X98561Y-9643D02*
X98933Y-9643D01*
X98733Y-9833D01*
X98818Y-9833D01*
X98876Y-9857D01*
X98904Y-9881D01*
X98933Y-9929D01*
X98933Y-10048D01*
X98904Y-10095D01*
X98876Y-10119D01*
X98818Y-10143D01*
X98647Y-10143D01*
X98590Y-10119D01*
X98561Y-10095D01*
X15654Y-17719D02*
X15740Y-17743D01*
X15883Y-17743D01*
X15940Y-17719D01*
X15968Y-17695D01*
X15997Y-17648D01*
X15997Y-17600D01*
X15968Y-17552D01*
X15940Y-17529D01*
X15883Y-17505D01*
X15768Y-17481D01*
X15711Y-17457D01*
X15683Y-17433D01*
X15654Y-17386D01*
X15654Y-17338D01*
X15683Y-17291D01*
X15711Y-17267D01*
X15768Y-17243D01*
X15911Y-17243D01*
X15997Y-17267D01*
X16368Y-17243D02*
X16426Y-17243D01*
X16483Y-17267D01*
X16511Y-17291D01*
X16540Y-17338D01*
X16568Y-17433D01*
X16568Y-17552D01*
X16540Y-17648D01*
X16511Y-17695D01*
X16483Y-17719D01*
X16426Y-17743D01*
X16368Y-17743D01*
X16311Y-17719D01*
X16283Y-17695D01*
X16254Y-17648D01*
X16226Y-17552D01*
X16226Y-17433D01*
X16254Y-17338D01*
X16283Y-17291D01*
X16311Y-17267D01*
X16368Y-17243D01*
X16768Y-17243D02*
X17140Y-17243D01*
X16940Y-17433D01*
X17026Y-17433D01*
X17083Y-17457D01*
X17111Y-17481D01*
X17140Y-17529D01*
X17140Y-17648D01*
X17111Y-17695D01*
X17083Y-17719D01*
X17026Y-17743D01*
X16854Y-17743D01*
X16797Y-17719D01*
X16768Y-17695D01*
X17397Y-17695D02*
X17426Y-17719D01*
X17397Y-17743D01*
X17368Y-17719D01*
X17397Y-17695D01*
X17397Y-17743D01*
X17397Y-17433D02*
X17426Y-17457D01*
X17397Y-17481D01*
X17368Y-17457D01*
X17397Y-17433D01*
X17397Y-17481D01*
X17654Y-17291D02*
X17683Y-17267D01*
X17740Y-17243D01*
X17883Y-17243D01*
X17940Y-17267D01*
X17968Y-17291D01*
X17997Y-17338D01*
X17997Y-17386D01*
X17968Y-17457D01*
X17626Y-17743D01*
X17997Y-17743D01*
X10054Y-2719D02*
X10140Y-2743D01*
X10283Y-2743D01*
X10340Y-2719D01*
X10368Y-2695D01*
X10397Y-2648D01*
X10397Y-2600D01*
X10368Y-2552D01*
X10340Y-2529D01*
X10283Y-2505D01*
X10168Y-2481D01*
X10111Y-2457D01*
X10083Y-2433D01*
X10054Y-2386D01*
X10054Y-2338D01*
X10083Y-2291D01*
X10111Y-2267D01*
X10168Y-2243D01*
X10311Y-2243D01*
X10397Y-2267D01*
X10768Y-2243D02*
X10826Y-2243D01*
X10883Y-2267D01*
X10911Y-2291D01*
X10940Y-2338D01*
X10968Y-2433D01*
X10968Y-2552D01*
X10940Y-2648D01*
X10911Y-2695D01*
X10883Y-2719D01*
X10826Y-2743D01*
X10768Y-2743D01*
X10711Y-2719D01*
X10683Y-2695D01*
X10654Y-2648D01*
X10626Y-2552D01*
X10626Y-2433D01*
X10654Y-2338D01*
X10683Y-2291D01*
X10711Y-2267D01*
X10768Y-2243D01*
X11540Y-2743D02*
X11197Y-2743D01*
X11368Y-2743D02*
X11368Y-2243D01*
X11311Y-2314D01*
X11254Y-2362D01*
X11197Y-2386D01*
X11797Y-2695D02*
X11826Y-2719D01*
X11797Y-2743D01*
X11768Y-2719D01*
X11797Y-2695D01*
X11797Y-2743D01*
X11797Y-2433D02*
X11826Y-2457D01*
X11797Y-2481D01*
X11768Y-2457D01*
X11797Y-2433D01*
X11797Y-2481D01*
X12054Y-2291D02*
X12083Y-2267D01*
X12140Y-2243D01*
X12283Y-2243D01*
X12340Y-2267D01*
X12368Y-2291D01*
X12397Y-2338D01*
X12397Y-2386D01*
X12368Y-2457D01*
X12026Y-2743D01*
X12397Y-2743D01*
X36304Y-10219D02*
X36390Y-10243D01*
X36533Y-10243D01*
X36590Y-10219D01*
X36618Y-10195D01*
X36647Y-10148D01*
X36647Y-10100D01*
X36618Y-10052D01*
X36590Y-10029D01*
X36533Y-10005D01*
X36418Y-9981D01*
X36361Y-9957D01*
X36333Y-9933D01*
X36304Y-9886D01*
X36304Y-9838D01*
X36333Y-9791D01*
X36361Y-9767D01*
X36418Y-9743D01*
X36561Y-9743D01*
X36647Y-9767D01*
X37018Y-9743D02*
X37076Y-9743D01*
X37133Y-9767D01*
X37161Y-9791D01*
X37190Y-9838D01*
X37218Y-9933D01*
X37218Y-10052D01*
X37190Y-10148D01*
X37161Y-10195D01*
X37133Y-10219D01*
X37076Y-10243D01*
X37018Y-10243D01*
X36961Y-10219D01*
X36933Y-10195D01*
X36904Y-10148D01*
X36876Y-10052D01*
X36876Y-9933D01*
X36904Y-9838D01*
X36933Y-9791D01*
X36961Y-9767D01*
X37018Y-9743D01*
X37447Y-9791D02*
X37476Y-9767D01*
X37533Y-9743D01*
X37676Y-9743D01*
X37733Y-9767D01*
X37761Y-9791D01*
X37790Y-9838D01*
X37790Y-9886D01*
X37761Y-9957D01*
X37418Y-10243D01*
X37790Y-10243D01*
X38047Y-10195D02*
X38076Y-10219D01*
X38047Y-10243D01*
X38018Y-10219D01*
X38047Y-10195D01*
X38047Y-10243D01*
X38047Y-9933D02*
X38076Y-9957D01*
X38047Y-9981D01*
X38018Y-9957D01*
X38047Y-9933D01*
X38047Y-9981D01*
X38618Y-9743D02*
X38333Y-9743D01*
X38304Y-9981D01*
X38333Y-9957D01*
X38390Y-9933D01*
X38533Y-9933D01*
X38590Y-9957D01*
X38618Y-9981D01*
X38647Y-10029D01*
X38647Y-10148D01*
X38618Y-10195D01*
X38590Y-10219D01*
X38533Y-10243D01*
X38390Y-10243D01*
X38333Y-10219D01*
X38304Y-10195D01*
X28804Y-10219D02*
X28890Y-10243D01*
X29033Y-10243D01*
X29090Y-10219D01*
X29118Y-10195D01*
X29147Y-10148D01*
X29147Y-10100D01*
X29118Y-10052D01*
X29090Y-10029D01*
X29033Y-10005D01*
X28918Y-9981D01*
X28861Y-9957D01*
X28833Y-9933D01*
X28804Y-9886D01*
X28804Y-9838D01*
X28833Y-9791D01*
X28861Y-9767D01*
X28918Y-9743D01*
X29061Y-9743D01*
X29147Y-9767D01*
X29518Y-9743D02*
X29576Y-9743D01*
X29633Y-9767D01*
X29661Y-9791D01*
X29690Y-9838D01*
X29718Y-9933D01*
X29718Y-10052D01*
X29690Y-10148D01*
X29661Y-10195D01*
X29633Y-10219D01*
X29576Y-10243D01*
X29518Y-10243D01*
X29461Y-10219D01*
X29433Y-10195D01*
X29404Y-10148D01*
X29376Y-10052D01*
X29376Y-9933D01*
X29404Y-9838D01*
X29433Y-9791D01*
X29461Y-9767D01*
X29518Y-9743D01*
X29947Y-9791D02*
X29976Y-9767D01*
X30033Y-9743D01*
X30176Y-9743D01*
X30233Y-9767D01*
X30261Y-9791D01*
X30290Y-9838D01*
X30290Y-9886D01*
X30261Y-9957D01*
X29918Y-10243D01*
X30290Y-10243D01*
X30547Y-10195D02*
X30576Y-10219D01*
X30547Y-10243D01*
X30518Y-10219D01*
X30547Y-10195D01*
X30547Y-10243D01*
X30547Y-9933D02*
X30576Y-9957D01*
X30547Y-9981D01*
X30518Y-9957D01*
X30547Y-9933D01*
X30547Y-9981D01*
X31090Y-9910D02*
X31090Y-10243D01*
X30947Y-9719D02*
X30804Y-10076D01*
X31176Y-10076D01*
X21304Y-10219D02*
X21390Y-10243D01*
X21533Y-10243D01*
X21590Y-10219D01*
X21618Y-10195D01*
X21647Y-10148D01*
X21647Y-10100D01*
X21618Y-10052D01*
X21590Y-10029D01*
X21533Y-10005D01*
X21418Y-9981D01*
X21361Y-9957D01*
X21333Y-9933D01*
X21304Y-9886D01*
X21304Y-9838D01*
X21333Y-9791D01*
X21361Y-9767D01*
X21418Y-9743D01*
X21561Y-9743D01*
X21647Y-9767D01*
X22018Y-9743D02*
X22076Y-9743D01*
X22133Y-9767D01*
X22161Y-9791D01*
X22190Y-9838D01*
X22218Y-9933D01*
X22218Y-10052D01*
X22190Y-10148D01*
X22161Y-10195D01*
X22133Y-10219D01*
X22076Y-10243D01*
X22018Y-10243D01*
X21961Y-10219D01*
X21933Y-10195D01*
X21904Y-10148D01*
X21876Y-10052D01*
X21876Y-9933D01*
X21904Y-9838D01*
X21933Y-9791D01*
X21961Y-9767D01*
X22018Y-9743D01*
X22447Y-9791D02*
X22476Y-9767D01*
X22533Y-9743D01*
X22676Y-9743D01*
X22733Y-9767D01*
X22761Y-9791D01*
X22790Y-9838D01*
X22790Y-9886D01*
X22761Y-9957D01*
X22418Y-10243D01*
X22790Y-10243D01*
X23047Y-10195D02*
X23076Y-10219D01*
X23047Y-10243D01*
X23018Y-10219D01*
X23047Y-10195D01*
X23047Y-10243D01*
X23047Y-9933D02*
X23076Y-9957D01*
X23047Y-9981D01*
X23018Y-9957D01*
X23047Y-9933D01*
X23047Y-9981D01*
X23276Y-9743D02*
X23647Y-9743D01*
X23447Y-9933D01*
X23533Y-9933D01*
X23590Y-9957D01*
X23618Y-9981D01*
X23647Y-10029D01*
X23647Y-10148D01*
X23618Y-10195D01*
X23590Y-10219D01*
X23533Y-10243D01*
X23361Y-10243D01*
X23304Y-10219D01*
X23276Y-10195D01*
X13804Y-10219D02*
X13890Y-10243D01*
X14033Y-10243D01*
X14090Y-10219D01*
X14118Y-10195D01*
X14147Y-10148D01*
X14147Y-10100D01*
X14118Y-10052D01*
X14090Y-10029D01*
X14033Y-10005D01*
X13918Y-9981D01*
X13861Y-9957D01*
X13833Y-9933D01*
X13804Y-9886D01*
X13804Y-9838D01*
X13833Y-9791D01*
X13861Y-9767D01*
X13918Y-9743D01*
X14061Y-9743D01*
X14147Y-9767D01*
X14518Y-9743D02*
X14576Y-9743D01*
X14633Y-9767D01*
X14661Y-9791D01*
X14690Y-9838D01*
X14718Y-9933D01*
X14718Y-10052D01*
X14690Y-10148D01*
X14661Y-10195D01*
X14633Y-10219D01*
X14576Y-10243D01*
X14518Y-10243D01*
X14461Y-10219D01*
X14433Y-10195D01*
X14404Y-10148D01*
X14376Y-10052D01*
X14376Y-9933D01*
X14404Y-9838D01*
X14433Y-9791D01*
X14461Y-9767D01*
X14518Y-9743D01*
X14947Y-9791D02*
X14976Y-9767D01*
X15033Y-9743D01*
X15176Y-9743D01*
X15233Y-9767D01*
X15261Y-9791D01*
X15290Y-9838D01*
X15290Y-9886D01*
X15261Y-9957D01*
X14918Y-10243D01*
X15290Y-10243D01*
X15547Y-10195D02*
X15576Y-10219D01*
X15547Y-10243D01*
X15518Y-10219D01*
X15547Y-10195D01*
X15547Y-10243D01*
X15547Y-9933D02*
X15576Y-9957D01*
X15547Y-9981D01*
X15518Y-9957D01*
X15547Y-9933D01*
X15547Y-9981D01*
X15804Y-9791D02*
X15833Y-9767D01*
X15890Y-9743D01*
X16033Y-9743D01*
X16090Y-9767D01*
X16118Y-9791D01*
X16147Y-9838D01*
X16147Y-9886D01*
X16118Y-9957D01*
X15776Y-10243D01*
X16147Y-10243D01*
X84768Y-2619D02*
X84854Y-2643D01*
X84997Y-2643D01*
X85054Y-2619D01*
X85083Y-2595D01*
X85111Y-2548D01*
X85111Y-2500D01*
X85083Y-2452D01*
X85054Y-2429D01*
X84997Y-2405D01*
X84883Y-2381D01*
X84826Y-2357D01*
X84797Y-2333D01*
X84768Y-2286D01*
X84768Y-2238D01*
X84797Y-2191D01*
X84826Y-2167D01*
X84883Y-2143D01*
X85026Y-2143D01*
X85111Y-2167D01*
X85483Y-2143D02*
X85540Y-2143D01*
X85597Y-2167D01*
X85626Y-2191D01*
X85654Y-2238D01*
X85683Y-2333D01*
X85683Y-2452D01*
X85654Y-2548D01*
X85626Y-2595D01*
X85597Y-2619D01*
X85540Y-2643D01*
X85483Y-2643D01*
X85426Y-2619D01*
X85397Y-2595D01*
X85368Y-2548D01*
X85340Y-2452D01*
X85340Y-2333D01*
X85368Y-2238D01*
X85397Y-2191D01*
X85426Y-2167D01*
X85483Y-2143D01*
X86254Y-2643D02*
X85911Y-2643D01*
X86083Y-2643D02*
X86083Y-2143D01*
X86026Y-2214D01*
X85968Y-2262D01*
X85911Y-2286D01*
X86511Y-2595D02*
X86540Y-2619D01*
X86511Y-2643D01*
X86483Y-2619D01*
X86511Y-2595D01*
X86511Y-2643D01*
X86511Y-2333D02*
X86540Y-2357D01*
X86511Y-2381D01*
X86483Y-2357D01*
X86511Y-2333D01*
X86511Y-2381D01*
X87111Y-2643D02*
X86768Y-2643D01*
X86940Y-2643D02*
X86940Y-2143D01*
X86883Y-2214D01*
X86826Y-2262D01*
X86768Y-2286D01*
X87340Y-2191D02*
X87368Y-2167D01*
X87426Y-2143D01*
X87568Y-2143D01*
X87626Y-2167D01*
X87654Y-2191D01*
X87683Y-2238D01*
X87683Y-2286D01*
X87654Y-2357D01*
X87311Y-2643D01*
X87683Y-2643D01*
X77268Y-2619D02*
X77354Y-2643D01*
X77497Y-2643D01*
X77554Y-2619D01*
X77583Y-2595D01*
X77611Y-2548D01*
X77611Y-2500D01*
X77583Y-2452D01*
X77554Y-2429D01*
X77497Y-2405D01*
X77383Y-2381D01*
X77326Y-2357D01*
X77297Y-2333D01*
X77268Y-2286D01*
X77268Y-2238D01*
X77297Y-2191D01*
X77326Y-2167D01*
X77383Y-2143D01*
X77526Y-2143D01*
X77611Y-2167D01*
X77983Y-2143D02*
X78040Y-2143D01*
X78097Y-2167D01*
X78126Y-2191D01*
X78154Y-2238D01*
X78183Y-2333D01*
X78183Y-2452D01*
X78154Y-2548D01*
X78126Y-2595D01*
X78097Y-2619D01*
X78040Y-2643D01*
X77983Y-2643D01*
X77926Y-2619D01*
X77897Y-2595D01*
X77868Y-2548D01*
X77840Y-2452D01*
X77840Y-2333D01*
X77868Y-2238D01*
X77897Y-2191D01*
X77926Y-2167D01*
X77983Y-2143D01*
X78754Y-2643D02*
X78411Y-2643D01*
X78583Y-2643D02*
X78583Y-2143D01*
X78526Y-2214D01*
X78468Y-2262D01*
X78411Y-2286D01*
X79011Y-2595D02*
X79040Y-2619D01*
X79011Y-2643D01*
X78983Y-2619D01*
X79011Y-2595D01*
X79011Y-2643D01*
X79011Y-2333D02*
X79040Y-2357D01*
X79011Y-2381D01*
X78983Y-2357D01*
X79011Y-2333D01*
X79011Y-2381D01*
X79611Y-2643D02*
X79268Y-2643D01*
X79440Y-2643D02*
X79440Y-2143D01*
X79383Y-2214D01*
X79326Y-2262D01*
X79268Y-2286D01*
X80183Y-2643D02*
X79840Y-2643D01*
X80011Y-2643D02*
X80011Y-2143D01*
X79954Y-2214D01*
X79897Y-2262D01*
X79840Y-2286D01*
X69768Y-2619D02*
X69854Y-2643D01*
X69997Y-2643D01*
X70054Y-2619D01*
X70083Y-2595D01*
X70111Y-2548D01*
X70111Y-2500D01*
X70083Y-2452D01*
X70054Y-2429D01*
X69997Y-2405D01*
X69883Y-2381D01*
X69826Y-2357D01*
X69797Y-2333D01*
X69768Y-2286D01*
X69768Y-2238D01*
X69797Y-2191D01*
X69826Y-2167D01*
X69883Y-2143D01*
X70026Y-2143D01*
X70111Y-2167D01*
X70483Y-2143D02*
X70540Y-2143D01*
X70597Y-2167D01*
X70626Y-2191D01*
X70654Y-2238D01*
X70683Y-2333D01*
X70683Y-2452D01*
X70654Y-2548D01*
X70626Y-2595D01*
X70597Y-2619D01*
X70540Y-2643D01*
X70483Y-2643D01*
X70426Y-2619D01*
X70397Y-2595D01*
X70368Y-2548D01*
X70340Y-2452D01*
X70340Y-2333D01*
X70368Y-2238D01*
X70397Y-2191D01*
X70426Y-2167D01*
X70483Y-2143D01*
X71254Y-2643D02*
X70911Y-2643D01*
X71083Y-2643D02*
X71083Y-2143D01*
X71026Y-2214D01*
X70968Y-2262D01*
X70911Y-2286D01*
X71511Y-2595D02*
X71540Y-2619D01*
X71511Y-2643D01*
X71483Y-2619D01*
X71511Y-2595D01*
X71511Y-2643D01*
X71511Y-2333D02*
X71540Y-2357D01*
X71511Y-2381D01*
X71483Y-2357D01*
X71511Y-2333D01*
X71511Y-2381D01*
X72111Y-2643D02*
X71768Y-2643D01*
X71940Y-2643D02*
X71940Y-2143D01*
X71883Y-2214D01*
X71826Y-2262D01*
X71768Y-2286D01*
X72483Y-2143D02*
X72540Y-2143D01*
X72597Y-2167D01*
X72626Y-2191D01*
X72654Y-2238D01*
X72683Y-2333D01*
X72683Y-2452D01*
X72654Y-2548D01*
X72626Y-2595D01*
X72597Y-2619D01*
X72540Y-2643D01*
X72483Y-2643D01*
X72426Y-2619D01*
X72397Y-2595D01*
X72368Y-2548D01*
X72340Y-2452D01*
X72340Y-2333D01*
X72368Y-2238D01*
X72397Y-2191D01*
X72426Y-2167D01*
X72483Y-2143D01*
X55054Y-2719D02*
X55140Y-2743D01*
X55283Y-2743D01*
X55340Y-2719D01*
X55368Y-2695D01*
X55397Y-2648D01*
X55397Y-2600D01*
X55368Y-2552D01*
X55340Y-2529D01*
X55283Y-2505D01*
X55168Y-2481D01*
X55111Y-2457D01*
X55083Y-2433D01*
X55054Y-2386D01*
X55054Y-2338D01*
X55083Y-2291D01*
X55111Y-2267D01*
X55168Y-2243D01*
X55311Y-2243D01*
X55397Y-2267D01*
X55768Y-2243D02*
X55826Y-2243D01*
X55883Y-2267D01*
X55911Y-2291D01*
X55940Y-2338D01*
X55968Y-2433D01*
X55968Y-2552D01*
X55940Y-2648D01*
X55911Y-2695D01*
X55883Y-2719D01*
X55826Y-2743D01*
X55768Y-2743D01*
X55711Y-2719D01*
X55683Y-2695D01*
X55654Y-2648D01*
X55626Y-2552D01*
X55626Y-2433D01*
X55654Y-2338D01*
X55683Y-2291D01*
X55711Y-2267D01*
X55768Y-2243D01*
X56540Y-2743D02*
X56197Y-2743D01*
X56368Y-2743D02*
X56368Y-2243D01*
X56311Y-2314D01*
X56254Y-2362D01*
X56197Y-2386D01*
X56797Y-2695D02*
X56826Y-2719D01*
X56797Y-2743D01*
X56768Y-2719D01*
X56797Y-2695D01*
X56797Y-2743D01*
X56797Y-2433D02*
X56826Y-2457D01*
X56797Y-2481D01*
X56768Y-2457D01*
X56797Y-2433D01*
X56797Y-2481D01*
X57168Y-2457D02*
X57111Y-2433D01*
X57083Y-2410D01*
X57054Y-2362D01*
X57054Y-2338D01*
X57083Y-2291D01*
X57111Y-2267D01*
X57168Y-2243D01*
X57283Y-2243D01*
X57340Y-2267D01*
X57368Y-2291D01*
X57397Y-2338D01*
X57397Y-2362D01*
X57368Y-2410D01*
X57340Y-2433D01*
X57283Y-2457D01*
X57168Y-2457D01*
X57111Y-2481D01*
X57083Y-2505D01*
X57054Y-2552D01*
X57054Y-2648D01*
X57083Y-2695D01*
X57111Y-2719D01*
X57168Y-2743D01*
X57283Y-2743D01*
X57340Y-2719D01*
X57368Y-2695D01*
X57397Y-2648D01*
X57397Y-2552D01*
X57368Y-2505D01*
X57340Y-2481D01*
X57283Y-2457D01*
X40054Y-2719D02*
X40140Y-2743D01*
X40283Y-2743D01*
X40340Y-2719D01*
X40368Y-2695D01*
X40397Y-2648D01*
X40397Y-2600D01*
X40368Y-2552D01*
X40340Y-2529D01*
X40283Y-2505D01*
X40168Y-2481D01*
X40111Y-2457D01*
X40083Y-2433D01*
X40054Y-2386D01*
X40054Y-2338D01*
X40083Y-2291D01*
X40111Y-2267D01*
X40168Y-2243D01*
X40311Y-2243D01*
X40397Y-2267D01*
X40768Y-2243D02*
X40826Y-2243D01*
X40883Y-2267D01*
X40911Y-2291D01*
X40940Y-2338D01*
X40968Y-2433D01*
X40968Y-2552D01*
X40940Y-2648D01*
X40911Y-2695D01*
X40883Y-2719D01*
X40826Y-2743D01*
X40768Y-2743D01*
X40711Y-2719D01*
X40683Y-2695D01*
X40654Y-2648D01*
X40626Y-2552D01*
X40626Y-2433D01*
X40654Y-2338D01*
X40683Y-2291D01*
X40711Y-2267D01*
X40768Y-2243D01*
X41540Y-2743D02*
X41197Y-2743D01*
X41368Y-2743D02*
X41368Y-2243D01*
X41311Y-2314D01*
X41254Y-2362D01*
X41197Y-2386D01*
X41797Y-2695D02*
X41826Y-2719D01*
X41797Y-2743D01*
X41768Y-2719D01*
X41797Y-2695D01*
X41797Y-2743D01*
X41797Y-2433D02*
X41826Y-2457D01*
X41797Y-2481D01*
X41768Y-2457D01*
X41797Y-2433D01*
X41797Y-2481D01*
X42340Y-2243D02*
X42226Y-2243D01*
X42168Y-2267D01*
X42140Y-2291D01*
X42083Y-2362D01*
X42054Y-2457D01*
X42054Y-2648D01*
X42083Y-2695D01*
X42111Y-2719D01*
X42168Y-2743D01*
X42283Y-2743D01*
X42340Y-2719D01*
X42368Y-2695D01*
X42397Y-2648D01*
X42397Y-2529D01*
X42368Y-2481D01*
X42340Y-2457D01*
X42283Y-2433D01*
X42168Y-2433D01*
X42111Y-2457D01*
X42083Y-2481D01*
X42054Y-2529D01*
X32554Y-2719D02*
X32640Y-2743D01*
X32783Y-2743D01*
X32840Y-2719D01*
X32868Y-2695D01*
X32897Y-2648D01*
X32897Y-2600D01*
X32868Y-2552D01*
X32840Y-2529D01*
X32783Y-2505D01*
X32668Y-2481D01*
X32611Y-2457D01*
X32583Y-2433D01*
X32554Y-2386D01*
X32554Y-2338D01*
X32583Y-2291D01*
X32611Y-2267D01*
X32668Y-2243D01*
X32811Y-2243D01*
X32897Y-2267D01*
X33268Y-2243D02*
X33326Y-2243D01*
X33383Y-2267D01*
X33411Y-2291D01*
X33440Y-2338D01*
X33468Y-2433D01*
X33468Y-2552D01*
X33440Y-2648D01*
X33411Y-2695D01*
X33383Y-2719D01*
X33326Y-2743D01*
X33268Y-2743D01*
X33211Y-2719D01*
X33183Y-2695D01*
X33154Y-2648D01*
X33126Y-2552D01*
X33126Y-2433D01*
X33154Y-2338D01*
X33183Y-2291D01*
X33211Y-2267D01*
X33268Y-2243D01*
X34040Y-2743D02*
X33697Y-2743D01*
X33868Y-2743D02*
X33868Y-2243D01*
X33811Y-2314D01*
X33754Y-2362D01*
X33697Y-2386D01*
X34297Y-2695D02*
X34326Y-2719D01*
X34297Y-2743D01*
X34268Y-2719D01*
X34297Y-2695D01*
X34297Y-2743D01*
X34297Y-2433D02*
X34326Y-2457D01*
X34297Y-2481D01*
X34268Y-2457D01*
X34297Y-2433D01*
X34297Y-2481D01*
X34868Y-2243D02*
X34583Y-2243D01*
X34554Y-2481D01*
X34583Y-2457D01*
X34640Y-2433D01*
X34783Y-2433D01*
X34840Y-2457D01*
X34868Y-2481D01*
X34897Y-2529D01*
X34897Y-2648D01*
X34868Y-2695D01*
X34840Y-2719D01*
X34783Y-2743D01*
X34640Y-2743D01*
X34583Y-2719D01*
X34554Y-2695D01*
X25054Y-2719D02*
X25140Y-2743D01*
X25283Y-2743D01*
X25340Y-2719D01*
X25368Y-2695D01*
X25397Y-2648D01*
X25397Y-2600D01*
X25368Y-2552D01*
X25340Y-2529D01*
X25283Y-2505D01*
X25168Y-2481D01*
X25111Y-2457D01*
X25083Y-2433D01*
X25054Y-2386D01*
X25054Y-2338D01*
X25083Y-2291D01*
X25111Y-2267D01*
X25168Y-2243D01*
X25311Y-2243D01*
X25397Y-2267D01*
X25768Y-2243D02*
X25826Y-2243D01*
X25883Y-2267D01*
X25911Y-2291D01*
X25940Y-2338D01*
X25968Y-2433D01*
X25968Y-2552D01*
X25940Y-2648D01*
X25911Y-2695D01*
X25883Y-2719D01*
X25826Y-2743D01*
X25768Y-2743D01*
X25711Y-2719D01*
X25683Y-2695D01*
X25654Y-2648D01*
X25626Y-2552D01*
X25626Y-2433D01*
X25654Y-2338D01*
X25683Y-2291D01*
X25711Y-2267D01*
X25768Y-2243D01*
X26540Y-2743D02*
X26197Y-2743D01*
X26368Y-2743D02*
X26368Y-2243D01*
X26311Y-2314D01*
X26254Y-2362D01*
X26197Y-2386D01*
X26797Y-2695D02*
X26826Y-2719D01*
X26797Y-2743D01*
X26768Y-2719D01*
X26797Y-2695D01*
X26797Y-2743D01*
X26797Y-2433D02*
X26826Y-2457D01*
X26797Y-2481D01*
X26768Y-2457D01*
X26797Y-2433D01*
X26797Y-2481D01*
X27340Y-2410D02*
X27340Y-2743D01*
X27197Y-2219D02*
X27054Y-2576D01*
X27426Y-2576D01*
X17554Y-2719D02*
X17640Y-2743D01*
X17783Y-2743D01*
X17840Y-2719D01*
X17868Y-2695D01*
X17897Y-2648D01*
X17897Y-2600D01*
X17868Y-2552D01*
X17840Y-2529D01*
X17783Y-2505D01*
X17668Y-2481D01*
X17611Y-2457D01*
X17583Y-2433D01*
X17554Y-2386D01*
X17554Y-2338D01*
X17583Y-2291D01*
X17611Y-2267D01*
X17668Y-2243D01*
X17811Y-2243D01*
X17897Y-2267D01*
X18268Y-2243D02*
X18326Y-2243D01*
X18383Y-2267D01*
X18411Y-2291D01*
X18440Y-2338D01*
X18468Y-2433D01*
X18468Y-2552D01*
X18440Y-2648D01*
X18411Y-2695D01*
X18383Y-2719D01*
X18326Y-2743D01*
X18268Y-2743D01*
X18211Y-2719D01*
X18183Y-2695D01*
X18154Y-2648D01*
X18126Y-2552D01*
X18126Y-2433D01*
X18154Y-2338D01*
X18183Y-2291D01*
X18211Y-2267D01*
X18268Y-2243D01*
X19040Y-2743D02*
X18697Y-2743D01*
X18868Y-2743D02*
X18868Y-2243D01*
X18811Y-2314D01*
X18754Y-2362D01*
X18697Y-2386D01*
X19297Y-2695D02*
X19326Y-2719D01*
X19297Y-2743D01*
X19268Y-2719D01*
X19297Y-2695D01*
X19297Y-2743D01*
X19297Y-2433D02*
X19326Y-2457D01*
X19297Y-2481D01*
X19268Y-2457D01*
X19297Y-2433D01*
X19297Y-2481D01*
X19526Y-2243D02*
X19897Y-2243D01*
X19697Y-2433D01*
X19783Y-2433D01*
X19840Y-2457D01*
X19868Y-2481D01*
X19897Y-2529D01*
X19897Y-2648D01*
X19868Y-2695D01*
X19840Y-2719D01*
X19783Y-2743D01*
X19611Y-2743D01*
X19554Y-2719D01*
X19526Y-2695D01*
X73518Y-32619D02*
X73604Y-32643D01*
X73747Y-32643D01*
X73804Y-32619D01*
X73833Y-32595D01*
X73861Y-32548D01*
X73861Y-32500D01*
X73833Y-32452D01*
X73804Y-32429D01*
X73747Y-32405D01*
X73633Y-32381D01*
X73576Y-32357D01*
X73547Y-32333D01*
X73518Y-32286D01*
X73518Y-32238D01*
X73547Y-32191D01*
X73576Y-32167D01*
X73633Y-32143D01*
X73776Y-32143D01*
X73861Y-32167D01*
X74233Y-32143D02*
X74290Y-32143D01*
X74347Y-32167D01*
X74376Y-32191D01*
X74404Y-32238D01*
X74433Y-32333D01*
X74433Y-32452D01*
X74404Y-32548D01*
X74376Y-32595D01*
X74347Y-32619D01*
X74290Y-32643D01*
X74233Y-32643D01*
X74176Y-32619D01*
X74147Y-32595D01*
X74118Y-32548D01*
X74090Y-32452D01*
X74090Y-32333D01*
X74118Y-32238D01*
X74147Y-32191D01*
X74176Y-32167D01*
X74233Y-32143D01*
X74976Y-32143D02*
X74690Y-32143D01*
X74661Y-32381D01*
X74690Y-32357D01*
X74747Y-32333D01*
X74890Y-32333D01*
X74947Y-32357D01*
X74976Y-32381D01*
X75004Y-32429D01*
X75004Y-32548D01*
X74976Y-32595D01*
X74947Y-32619D01*
X74890Y-32643D01*
X74747Y-32643D01*
X74690Y-32619D01*
X74661Y-32595D01*
X75261Y-32595D02*
X75290Y-32619D01*
X75261Y-32643D01*
X75233Y-32619D01*
X75261Y-32595D01*
X75261Y-32643D01*
X75261Y-32333D02*
X75290Y-32357D01*
X75261Y-32381D01*
X75233Y-32357D01*
X75261Y-32333D01*
X75261Y-32381D01*
X75861Y-32643D02*
X75518Y-32643D01*
X75690Y-32643D02*
X75690Y-32143D01*
X75633Y-32214D01*
X75576Y-32262D01*
X75518Y-32286D01*
X76233Y-32143D02*
X76290Y-32143D01*
X76347Y-32167D01*
X76376Y-32191D01*
X76404Y-32238D01*
X76433Y-32333D01*
X76433Y-32452D01*
X76404Y-32548D01*
X76376Y-32595D01*
X76347Y-32619D01*
X76290Y-32643D01*
X76233Y-32643D01*
X76176Y-32619D01*
X76147Y-32595D01*
X76118Y-32548D01*
X76090Y-32452D01*
X76090Y-32333D01*
X76118Y-32238D01*
X76147Y-32191D01*
X76176Y-32167D01*
X76233Y-32143D01*
X64404Y-25119D02*
X64490Y-25143D01*
X64633Y-25143D01*
X64690Y-25119D01*
X64718Y-25095D01*
X64747Y-25048D01*
X64747Y-25000D01*
X64718Y-24952D01*
X64690Y-24929D01*
X64633Y-24905D01*
X64518Y-24881D01*
X64461Y-24857D01*
X64433Y-24833D01*
X64404Y-24786D01*
X64404Y-24738D01*
X64433Y-24691D01*
X64461Y-24667D01*
X64518Y-24643D01*
X64661Y-24643D01*
X64747Y-24667D01*
X65118Y-24643D02*
X65176Y-24643D01*
X65233Y-24667D01*
X65261Y-24691D01*
X65290Y-24738D01*
X65318Y-24833D01*
X65318Y-24952D01*
X65290Y-25048D01*
X65261Y-25095D01*
X65233Y-25119D01*
X65176Y-25143D01*
X65118Y-25143D01*
X65061Y-25119D01*
X65033Y-25095D01*
X65004Y-25048D01*
X64976Y-24952D01*
X64976Y-24833D01*
X65004Y-24738D01*
X65033Y-24691D01*
X65061Y-24667D01*
X65118Y-24643D01*
X65833Y-24810D02*
X65833Y-25143D01*
X65690Y-24619D02*
X65547Y-24976D01*
X65918Y-24976D01*
X66147Y-25095D02*
X66176Y-25119D01*
X66147Y-25143D01*
X66118Y-25119D01*
X66147Y-25095D01*
X66147Y-25143D01*
X66147Y-24833D02*
X66176Y-24857D01*
X66147Y-24881D01*
X66118Y-24857D01*
X66147Y-24833D01*
X66147Y-24881D01*
X66461Y-25143D02*
X66576Y-25143D01*
X66633Y-25119D01*
X66661Y-25095D01*
X66718Y-25024D01*
X66747Y-24929D01*
X66747Y-24738D01*
X66718Y-24691D01*
X66690Y-24667D01*
X66633Y-24643D01*
X66518Y-24643D01*
X66461Y-24667D01*
X66433Y-24691D01*
X66404Y-24738D01*
X66404Y-24857D01*
X66433Y-24905D01*
X66461Y-24929D01*
X66518Y-24952D01*
X66633Y-24952D01*
X66690Y-24929D01*
X66718Y-24905D01*
X66747Y-24857D01*
X2554Y-2719D02*
X2640Y-2743D01*
X2783Y-2743D01*
X2840Y-2719D01*
X2868Y-2695D01*
X2897Y-2648D01*
X2897Y-2600D01*
X2868Y-2552D01*
X2840Y-2529D01*
X2783Y-2505D01*
X2668Y-2481D01*
X2611Y-2457D01*
X2583Y-2433D01*
X2554Y-2386D01*
X2554Y-2338D01*
X2583Y-2291D01*
X2611Y-2267D01*
X2668Y-2243D01*
X2811Y-2243D01*
X2897Y-2267D01*
X3268Y-2243D02*
X3326Y-2243D01*
X3383Y-2267D01*
X3411Y-2291D01*
X3440Y-2338D01*
X3468Y-2433D01*
X3468Y-2552D01*
X3440Y-2648D01*
X3411Y-2695D01*
X3383Y-2719D01*
X3326Y-2743D01*
X3268Y-2743D01*
X3211Y-2719D01*
X3183Y-2695D01*
X3154Y-2648D01*
X3126Y-2552D01*
X3126Y-2433D01*
X3154Y-2338D01*
X3183Y-2291D01*
X3211Y-2267D01*
X3268Y-2243D01*
X4040Y-2743D02*
X3697Y-2743D01*
X3868Y-2743D02*
X3868Y-2243D01*
X3811Y-2314D01*
X3754Y-2362D01*
X3697Y-2386D01*
X4297Y-2695D02*
X4326Y-2719D01*
X4297Y-2743D01*
X4268Y-2719D01*
X4297Y-2695D01*
X4297Y-2743D01*
X4297Y-2433D02*
X4326Y-2457D01*
X4297Y-2481D01*
X4268Y-2457D01*
X4297Y-2433D01*
X4297Y-2481D01*
X4897Y-2743D02*
X4554Y-2743D01*
X4726Y-2743D02*
X4726Y-2243D01*
X4668Y-2314D01*
X4611Y-2362D01*
X4554Y-2386D01*
X47554Y-2719D02*
X47640Y-2743D01*
X47783Y-2743D01*
X47840Y-2719D01*
X47868Y-2695D01*
X47897Y-2648D01*
X47897Y-2600D01*
X47868Y-2552D01*
X47840Y-2529D01*
X47783Y-2505D01*
X47668Y-2481D01*
X47611Y-2457D01*
X47583Y-2433D01*
X47554Y-2386D01*
X47554Y-2338D01*
X47583Y-2291D01*
X47611Y-2267D01*
X47668Y-2243D01*
X47811Y-2243D01*
X47897Y-2267D01*
X48268Y-2243D02*
X48326Y-2243D01*
X48383Y-2267D01*
X48411Y-2291D01*
X48440Y-2338D01*
X48468Y-2433D01*
X48468Y-2552D01*
X48440Y-2648D01*
X48411Y-2695D01*
X48383Y-2719D01*
X48326Y-2743D01*
X48268Y-2743D01*
X48211Y-2719D01*
X48183Y-2695D01*
X48154Y-2648D01*
X48126Y-2552D01*
X48126Y-2433D01*
X48154Y-2338D01*
X48183Y-2291D01*
X48211Y-2267D01*
X48268Y-2243D01*
X49040Y-2743D02*
X48697Y-2743D01*
X48868Y-2743D02*
X48868Y-2243D01*
X48811Y-2314D01*
X48754Y-2362D01*
X48697Y-2386D01*
X49297Y-2695D02*
X49326Y-2719D01*
X49297Y-2743D01*
X49268Y-2719D01*
X49297Y-2695D01*
X49297Y-2743D01*
X49297Y-2433D02*
X49326Y-2457D01*
X49297Y-2481D01*
X49268Y-2457D01*
X49297Y-2433D01*
X49297Y-2481D01*
X49526Y-2243D02*
X49926Y-2243D01*
X49668Y-2743D01*
X62554Y-2619D02*
X62640Y-2643D01*
X62783Y-2643D01*
X62840Y-2619D01*
X62868Y-2595D01*
X62897Y-2548D01*
X62897Y-2500D01*
X62868Y-2452D01*
X62840Y-2429D01*
X62783Y-2405D01*
X62668Y-2381D01*
X62611Y-2357D01*
X62583Y-2333D01*
X62554Y-2286D01*
X62554Y-2238D01*
X62583Y-2191D01*
X62611Y-2167D01*
X62668Y-2143D01*
X62811Y-2143D01*
X62897Y-2167D01*
X63268Y-2143D02*
X63326Y-2143D01*
X63383Y-2167D01*
X63411Y-2191D01*
X63440Y-2238D01*
X63468Y-2333D01*
X63468Y-2452D01*
X63440Y-2548D01*
X63411Y-2595D01*
X63383Y-2619D01*
X63326Y-2643D01*
X63268Y-2643D01*
X63211Y-2619D01*
X63183Y-2595D01*
X63154Y-2548D01*
X63126Y-2452D01*
X63126Y-2333D01*
X63154Y-2238D01*
X63183Y-2191D01*
X63211Y-2167D01*
X63268Y-2143D01*
X64040Y-2643D02*
X63697Y-2643D01*
X63868Y-2643D02*
X63868Y-2143D01*
X63811Y-2214D01*
X63754Y-2262D01*
X63697Y-2286D01*
X64297Y-2595D02*
X64326Y-2619D01*
X64297Y-2643D01*
X64268Y-2619D01*
X64297Y-2595D01*
X64297Y-2643D01*
X64297Y-2333D02*
X64326Y-2357D01*
X64297Y-2381D01*
X64268Y-2357D01*
X64297Y-2333D01*
X64297Y-2381D01*
X64611Y-2643D02*
X64726Y-2643D01*
X64783Y-2619D01*
X64811Y-2595D01*
X64868Y-2524D01*
X64897Y-2429D01*
X64897Y-2238D01*
X64868Y-2191D01*
X64840Y-2167D01*
X64783Y-2143D01*
X64668Y-2143D01*
X64611Y-2167D01*
X64583Y-2191D01*
X64554Y-2238D01*
X64554Y-2357D01*
X64583Y-2405D01*
X64611Y-2429D01*
X64668Y-2452D01*
X64783Y-2452D01*
X64840Y-2429D01*
X64868Y-2405D01*
X64897Y-2357D01*
X96018Y-25119D02*
X96104Y-25143D01*
X96247Y-25143D01*
X96304Y-25119D01*
X96333Y-25095D01*
X96361Y-25048D01*
X96361Y-25000D01*
X96333Y-24952D01*
X96304Y-24929D01*
X96247Y-24905D01*
X96133Y-24881D01*
X96076Y-24857D01*
X96047Y-24833D01*
X96018Y-24786D01*
X96018Y-24738D01*
X96047Y-24691D01*
X96076Y-24667D01*
X96133Y-24643D01*
X96276Y-24643D01*
X96361Y-24667D01*
X96733Y-24643D02*
X96790Y-24643D01*
X96847Y-24667D01*
X96876Y-24691D01*
X96904Y-24738D01*
X96933Y-24833D01*
X96933Y-24952D01*
X96904Y-25048D01*
X96876Y-25095D01*
X96847Y-25119D01*
X96790Y-25143D01*
X96733Y-25143D01*
X96676Y-25119D01*
X96647Y-25095D01*
X96618Y-25048D01*
X96590Y-24952D01*
X96590Y-24833D01*
X96618Y-24738D01*
X96647Y-24691D01*
X96676Y-24667D01*
X96733Y-24643D01*
X97447Y-24810D02*
X97447Y-25143D01*
X97304Y-24619D02*
X97161Y-24976D01*
X97533Y-24976D01*
X97761Y-25095D02*
X97790Y-25119D01*
X97761Y-25143D01*
X97733Y-25119D01*
X97761Y-25095D01*
X97761Y-25143D01*
X97761Y-24833D02*
X97790Y-24857D01*
X97761Y-24881D01*
X97733Y-24857D01*
X97761Y-24833D01*
X97761Y-24881D01*
X98361Y-25143D02*
X98018Y-25143D01*
X98190Y-25143D02*
X98190Y-24643D01*
X98133Y-24714D01*
X98076Y-24762D01*
X98018Y-24786D01*
X98561Y-24643D02*
X98933Y-24643D01*
X98733Y-24833D01*
X98818Y-24833D01*
X98876Y-24857D01*
X98904Y-24881D01*
X98933Y-24929D01*
X98933Y-25048D01*
X98904Y-25095D01*
X98876Y-25119D01*
X98818Y-25143D01*
X98647Y-25143D01*
X98590Y-25119D01*
X98561Y-25095D01*
X96018Y-32619D02*
X96104Y-32643D01*
X96247Y-32643D01*
X96304Y-32619D01*
X96333Y-32595D01*
X96361Y-32548D01*
X96361Y-32500D01*
X96333Y-32452D01*
X96304Y-32429D01*
X96247Y-32405D01*
X96133Y-32381D01*
X96076Y-32357D01*
X96047Y-32333D01*
X96018Y-32286D01*
X96018Y-32238D01*
X96047Y-32191D01*
X96076Y-32167D01*
X96133Y-32143D01*
X96276Y-32143D01*
X96361Y-32167D01*
X96733Y-32143D02*
X96790Y-32143D01*
X96847Y-32167D01*
X96876Y-32191D01*
X96904Y-32238D01*
X96933Y-32333D01*
X96933Y-32452D01*
X96904Y-32548D01*
X96876Y-32595D01*
X96847Y-32619D01*
X96790Y-32643D01*
X96733Y-32643D01*
X96676Y-32619D01*
X96647Y-32595D01*
X96618Y-32548D01*
X96590Y-32452D01*
X96590Y-32333D01*
X96618Y-32238D01*
X96647Y-32191D01*
X96676Y-32167D01*
X96733Y-32143D01*
X97476Y-32143D02*
X97190Y-32143D01*
X97161Y-32381D01*
X97190Y-32357D01*
X97247Y-32333D01*
X97390Y-32333D01*
X97447Y-32357D01*
X97476Y-32381D01*
X97504Y-32429D01*
X97504Y-32548D01*
X97476Y-32595D01*
X97447Y-32619D01*
X97390Y-32643D01*
X97247Y-32643D01*
X97190Y-32619D01*
X97161Y-32595D01*
X97761Y-32595D02*
X97790Y-32619D01*
X97761Y-32643D01*
X97733Y-32619D01*
X97761Y-32595D01*
X97761Y-32643D01*
X97761Y-32333D02*
X97790Y-32357D01*
X97761Y-32381D01*
X97733Y-32357D01*
X97761Y-32333D01*
X97761Y-32381D01*
X98361Y-32643D02*
X98018Y-32643D01*
X98190Y-32643D02*
X98190Y-32143D01*
X98133Y-32214D01*
X98076Y-32262D01*
X98018Y-32286D01*
X98561Y-32143D02*
X98933Y-32143D01*
X98733Y-32333D01*
X98818Y-32333D01*
X98876Y-32357D01*
X98904Y-32381D01*
X98933Y-32429D01*
X98933Y-32548D01*
X98904Y-32595D01*
X98876Y-32619D01*
X98818Y-32643D01*
X98647Y-32643D01*
X98590Y-32619D01*
X98561Y-32595D01*
X26904Y-32719D02*
X26990Y-32743D01*
X27133Y-32743D01*
X27190Y-32719D01*
X27218Y-32695D01*
X27247Y-32648D01*
X27247Y-32600D01*
X27218Y-32552D01*
X27190Y-32529D01*
X27133Y-32505D01*
X27018Y-32481D01*
X26961Y-32457D01*
X26933Y-32433D01*
X26904Y-32386D01*
X26904Y-32338D01*
X26933Y-32291D01*
X26961Y-32267D01*
X27018Y-32243D01*
X27161Y-32243D01*
X27247Y-32267D01*
X27618Y-32243D02*
X27676Y-32243D01*
X27733Y-32267D01*
X27761Y-32291D01*
X27790Y-32338D01*
X27818Y-32433D01*
X27818Y-32552D01*
X27790Y-32648D01*
X27761Y-32695D01*
X27733Y-32719D01*
X27676Y-32743D01*
X27618Y-32743D01*
X27561Y-32719D01*
X27533Y-32695D01*
X27504Y-32648D01*
X27476Y-32552D01*
X27476Y-32433D01*
X27504Y-32338D01*
X27533Y-32291D01*
X27561Y-32267D01*
X27618Y-32243D01*
X28361Y-32243D02*
X28076Y-32243D01*
X28047Y-32481D01*
X28076Y-32457D01*
X28133Y-32433D01*
X28276Y-32433D01*
X28333Y-32457D01*
X28361Y-32481D01*
X28390Y-32529D01*
X28390Y-32648D01*
X28361Y-32695D01*
X28333Y-32719D01*
X28276Y-32743D01*
X28133Y-32743D01*
X28076Y-32719D01*
X28047Y-32695D01*
X28647Y-32695D02*
X28676Y-32719D01*
X28647Y-32743D01*
X28618Y-32719D01*
X28647Y-32695D01*
X28647Y-32743D01*
X28647Y-32433D02*
X28676Y-32457D01*
X28647Y-32481D01*
X28618Y-32457D01*
X28647Y-32433D01*
X28647Y-32481D01*
X29190Y-32410D02*
X29190Y-32743D01*
X29047Y-32219D02*
X28904Y-32576D01*
X29276Y-32576D01*
X88518Y-32619D02*
X88604Y-32643D01*
X88747Y-32643D01*
X88804Y-32619D01*
X88833Y-32595D01*
X88861Y-32548D01*
X88861Y-32500D01*
X88833Y-32452D01*
X88804Y-32429D01*
X88747Y-32405D01*
X88633Y-32381D01*
X88576Y-32357D01*
X88547Y-32333D01*
X88518Y-32286D01*
X88518Y-32238D01*
X88547Y-32191D01*
X88576Y-32167D01*
X88633Y-32143D01*
X88776Y-32143D01*
X88861Y-32167D01*
X89233Y-32143D02*
X89290Y-32143D01*
X89347Y-32167D01*
X89376Y-32191D01*
X89404Y-32238D01*
X89433Y-32333D01*
X89433Y-32452D01*
X89404Y-32548D01*
X89376Y-32595D01*
X89347Y-32619D01*
X89290Y-32643D01*
X89233Y-32643D01*
X89176Y-32619D01*
X89147Y-32595D01*
X89118Y-32548D01*
X89090Y-32452D01*
X89090Y-32333D01*
X89118Y-32238D01*
X89147Y-32191D01*
X89176Y-32167D01*
X89233Y-32143D01*
X89976Y-32143D02*
X89690Y-32143D01*
X89661Y-32381D01*
X89690Y-32357D01*
X89747Y-32333D01*
X89890Y-32333D01*
X89947Y-32357D01*
X89976Y-32381D01*
X90004Y-32429D01*
X90004Y-32548D01*
X89976Y-32595D01*
X89947Y-32619D01*
X89890Y-32643D01*
X89747Y-32643D01*
X89690Y-32619D01*
X89661Y-32595D01*
X90261Y-32595D02*
X90290Y-32619D01*
X90261Y-32643D01*
X90233Y-32619D01*
X90261Y-32595D01*
X90261Y-32643D01*
X90261Y-32333D02*
X90290Y-32357D01*
X90261Y-32381D01*
X90233Y-32357D01*
X90261Y-32333D01*
X90261Y-32381D01*
X90861Y-32643D02*
X90518Y-32643D01*
X90690Y-32643D02*
X90690Y-32143D01*
X90633Y-32214D01*
X90576Y-32262D01*
X90518Y-32286D01*
X91090Y-32191D02*
X91118Y-32167D01*
X91176Y-32143D01*
X91318Y-32143D01*
X91376Y-32167D01*
X91404Y-32191D01*
X91433Y-32238D01*
X91433Y-32286D01*
X91404Y-32357D01*
X91061Y-32643D01*
X91433Y-32643D01*
X26904Y-25219D02*
X26990Y-25243D01*
X27133Y-25243D01*
X27190Y-25219D01*
X27218Y-25195D01*
X27247Y-25148D01*
X27247Y-25100D01*
X27218Y-25052D01*
X27190Y-25029D01*
X27133Y-25005D01*
X27018Y-24981D01*
X26961Y-24957D01*
X26933Y-24933D01*
X26904Y-24886D01*
X26904Y-24838D01*
X26933Y-24791D01*
X26961Y-24767D01*
X27018Y-24743D01*
X27161Y-24743D01*
X27247Y-24767D01*
X27618Y-24743D02*
X27676Y-24743D01*
X27733Y-24767D01*
X27761Y-24791D01*
X27790Y-24838D01*
X27818Y-24933D01*
X27818Y-25052D01*
X27790Y-25148D01*
X27761Y-25195D01*
X27733Y-25219D01*
X27676Y-25243D01*
X27618Y-25243D01*
X27561Y-25219D01*
X27533Y-25195D01*
X27504Y-25148D01*
X27476Y-25052D01*
X27476Y-24933D01*
X27504Y-24838D01*
X27533Y-24791D01*
X27561Y-24767D01*
X27618Y-24743D01*
X28333Y-24910D02*
X28333Y-25243D01*
X28190Y-24719D02*
X28047Y-25076D01*
X28418Y-25076D01*
X28647Y-25195D02*
X28676Y-25219D01*
X28647Y-25243D01*
X28618Y-25219D01*
X28647Y-25195D01*
X28647Y-25243D01*
X28647Y-24933D02*
X28676Y-24957D01*
X28647Y-24981D01*
X28618Y-24957D01*
X28647Y-24933D01*
X28647Y-24981D01*
X29190Y-24910D02*
X29190Y-25243D01*
X29047Y-24719D02*
X28904Y-25076D01*
X29276Y-25076D01*
X81018Y-32619D02*
X81104Y-32643D01*
X81247Y-32643D01*
X81304Y-32619D01*
X81333Y-32595D01*
X81361Y-32548D01*
X81361Y-32500D01*
X81333Y-32452D01*
X81304Y-32429D01*
X81247Y-32405D01*
X81133Y-32381D01*
X81076Y-32357D01*
X81047Y-32333D01*
X81018Y-32286D01*
X81018Y-32238D01*
X81047Y-32191D01*
X81076Y-32167D01*
X81133Y-32143D01*
X81276Y-32143D01*
X81361Y-32167D01*
X81733Y-32143D02*
X81790Y-32143D01*
X81847Y-32167D01*
X81876Y-32191D01*
X81904Y-32238D01*
X81933Y-32333D01*
X81933Y-32452D01*
X81904Y-32548D01*
X81876Y-32595D01*
X81847Y-32619D01*
X81790Y-32643D01*
X81733Y-32643D01*
X81676Y-32619D01*
X81647Y-32595D01*
X81618Y-32548D01*
X81590Y-32452D01*
X81590Y-32333D01*
X81618Y-32238D01*
X81647Y-32191D01*
X81676Y-32167D01*
X81733Y-32143D01*
X82476Y-32143D02*
X82190Y-32143D01*
X82161Y-32381D01*
X82190Y-32357D01*
X82247Y-32333D01*
X82390Y-32333D01*
X82447Y-32357D01*
X82476Y-32381D01*
X82504Y-32429D01*
X82504Y-32548D01*
X82476Y-32595D01*
X82447Y-32619D01*
X82390Y-32643D01*
X82247Y-32643D01*
X82190Y-32619D01*
X82161Y-32595D01*
X82761Y-32595D02*
X82790Y-32619D01*
X82761Y-32643D01*
X82733Y-32619D01*
X82761Y-32595D01*
X82761Y-32643D01*
X82761Y-32333D02*
X82790Y-32357D01*
X82761Y-32381D01*
X82733Y-32357D01*
X82761Y-32333D01*
X82761Y-32381D01*
X83361Y-32643D02*
X83018Y-32643D01*
X83190Y-32643D02*
X83190Y-32143D01*
X83133Y-32214D01*
X83076Y-32262D01*
X83018Y-32286D01*
X83933Y-32643D02*
X83590Y-32643D01*
X83761Y-32643D02*
X83761Y-32143D01*
X83704Y-32214D01*
X83647Y-32262D01*
X83590Y-32286D01*
X19404Y-32719D02*
X19490Y-32743D01*
X19633Y-32743D01*
X19690Y-32719D01*
X19718Y-32695D01*
X19747Y-32648D01*
X19747Y-32600D01*
X19718Y-32552D01*
X19690Y-32529D01*
X19633Y-32505D01*
X19518Y-32481D01*
X19461Y-32457D01*
X19433Y-32433D01*
X19404Y-32386D01*
X19404Y-32338D01*
X19433Y-32291D01*
X19461Y-32267D01*
X19518Y-32243D01*
X19661Y-32243D01*
X19747Y-32267D01*
X20118Y-32243D02*
X20176Y-32243D01*
X20233Y-32267D01*
X20261Y-32291D01*
X20290Y-32338D01*
X20318Y-32433D01*
X20318Y-32552D01*
X20290Y-32648D01*
X20261Y-32695D01*
X20233Y-32719D01*
X20176Y-32743D01*
X20118Y-32743D01*
X20061Y-32719D01*
X20033Y-32695D01*
X20004Y-32648D01*
X19976Y-32552D01*
X19976Y-32433D01*
X20004Y-32338D01*
X20033Y-32291D01*
X20061Y-32267D01*
X20118Y-32243D01*
X20861Y-32243D02*
X20576Y-32243D01*
X20547Y-32481D01*
X20576Y-32457D01*
X20633Y-32433D01*
X20776Y-32433D01*
X20833Y-32457D01*
X20861Y-32481D01*
X20890Y-32529D01*
X20890Y-32648D01*
X20861Y-32695D01*
X20833Y-32719D01*
X20776Y-32743D01*
X20633Y-32743D01*
X20576Y-32719D01*
X20547Y-32695D01*
X21147Y-32695D02*
X21176Y-32719D01*
X21147Y-32743D01*
X21118Y-32719D01*
X21147Y-32695D01*
X21147Y-32743D01*
X21147Y-32433D02*
X21176Y-32457D01*
X21147Y-32481D01*
X21118Y-32457D01*
X21147Y-32433D01*
X21147Y-32481D01*
X21376Y-32243D02*
X21747Y-32243D01*
X21547Y-32433D01*
X21633Y-32433D01*
X21690Y-32457D01*
X21718Y-32481D01*
X21747Y-32529D01*
X21747Y-32648D01*
X21718Y-32695D01*
X21690Y-32719D01*
X21633Y-32743D01*
X21461Y-32743D01*
X21404Y-32719D01*
X21376Y-32695D01*
X11904Y-32719D02*
X11990Y-32743D01*
X12133Y-32743D01*
X12190Y-32719D01*
X12218Y-32695D01*
X12247Y-32648D01*
X12247Y-32600D01*
X12218Y-32552D01*
X12190Y-32529D01*
X12133Y-32505D01*
X12018Y-32481D01*
X11961Y-32457D01*
X11933Y-32433D01*
X11904Y-32386D01*
X11904Y-32338D01*
X11933Y-32291D01*
X11961Y-32267D01*
X12018Y-32243D01*
X12161Y-32243D01*
X12247Y-32267D01*
X12618Y-32243D02*
X12676Y-32243D01*
X12733Y-32267D01*
X12761Y-32291D01*
X12790Y-32338D01*
X12818Y-32433D01*
X12818Y-32552D01*
X12790Y-32648D01*
X12761Y-32695D01*
X12733Y-32719D01*
X12676Y-32743D01*
X12618Y-32743D01*
X12561Y-32719D01*
X12533Y-32695D01*
X12504Y-32648D01*
X12476Y-32552D01*
X12476Y-32433D01*
X12504Y-32338D01*
X12533Y-32291D01*
X12561Y-32267D01*
X12618Y-32243D01*
X13361Y-32243D02*
X13076Y-32243D01*
X13047Y-32481D01*
X13076Y-32457D01*
X13133Y-32433D01*
X13276Y-32433D01*
X13333Y-32457D01*
X13361Y-32481D01*
X13390Y-32529D01*
X13390Y-32648D01*
X13361Y-32695D01*
X13333Y-32719D01*
X13276Y-32743D01*
X13133Y-32743D01*
X13076Y-32719D01*
X13047Y-32695D01*
X13647Y-32695D02*
X13676Y-32719D01*
X13647Y-32743D01*
X13618Y-32719D01*
X13647Y-32695D01*
X13647Y-32743D01*
X13647Y-32433D02*
X13676Y-32457D01*
X13647Y-32481D01*
X13618Y-32457D01*
X13647Y-32433D01*
X13647Y-32481D01*
X13904Y-32291D02*
X13933Y-32267D01*
X13990Y-32243D01*
X14133Y-32243D01*
X14190Y-32267D01*
X14218Y-32291D01*
X14247Y-32338D01*
X14247Y-32386D01*
X14218Y-32457D01*
X13876Y-32743D01*
X14247Y-32743D01*
X79118Y-25119D02*
X79204Y-25143D01*
X79347Y-25143D01*
X79404Y-25119D01*
X79433Y-25095D01*
X79461Y-25048D01*
X79461Y-25000D01*
X79433Y-24952D01*
X79404Y-24929D01*
X79347Y-24905D01*
X79233Y-24881D01*
X79176Y-24857D01*
X79147Y-24833D01*
X79118Y-24786D01*
X79118Y-24738D01*
X79147Y-24691D01*
X79176Y-24667D01*
X79233Y-24643D01*
X79376Y-24643D01*
X79461Y-24667D01*
X79833Y-24643D02*
X79890Y-24643D01*
X79947Y-24667D01*
X79976Y-24691D01*
X80004Y-24738D01*
X80033Y-24833D01*
X80033Y-24952D01*
X80004Y-25048D01*
X79976Y-25095D01*
X79947Y-25119D01*
X79890Y-25143D01*
X79833Y-25143D01*
X79776Y-25119D01*
X79747Y-25095D01*
X79718Y-25048D01*
X79690Y-24952D01*
X79690Y-24833D01*
X79718Y-24738D01*
X79747Y-24691D01*
X79776Y-24667D01*
X79833Y-24643D01*
X80547Y-24810D02*
X80547Y-25143D01*
X80404Y-24619D02*
X80261Y-24976D01*
X80633Y-24976D01*
X80861Y-25095D02*
X80890Y-25119D01*
X80861Y-25143D01*
X80833Y-25119D01*
X80861Y-25095D01*
X80861Y-25143D01*
X80861Y-24833D02*
X80890Y-24857D01*
X80861Y-24881D01*
X80833Y-24857D01*
X80861Y-24833D01*
X80861Y-24881D01*
X81461Y-25143D02*
X81118Y-25143D01*
X81290Y-25143D02*
X81290Y-24643D01*
X81233Y-24714D01*
X81176Y-24762D01*
X81118Y-24786D01*
X82033Y-25143D02*
X81690Y-25143D01*
X81861Y-25143D02*
X81861Y-24643D01*
X81804Y-24714D01*
X81747Y-24762D01*
X81690Y-24786D01*
X71618Y-25119D02*
X71704Y-25143D01*
X71847Y-25143D01*
X71904Y-25119D01*
X71933Y-25095D01*
X71961Y-25048D01*
X71961Y-25000D01*
X71933Y-24952D01*
X71904Y-24929D01*
X71847Y-24905D01*
X71733Y-24881D01*
X71676Y-24857D01*
X71647Y-24833D01*
X71618Y-24786D01*
X71618Y-24738D01*
X71647Y-24691D01*
X71676Y-24667D01*
X71733Y-24643D01*
X71876Y-24643D01*
X71961Y-24667D01*
X72333Y-24643D02*
X72390Y-24643D01*
X72447Y-24667D01*
X72476Y-24691D01*
X72504Y-24738D01*
X72533Y-24833D01*
X72533Y-24952D01*
X72504Y-25048D01*
X72476Y-25095D01*
X72447Y-25119D01*
X72390Y-25143D01*
X72333Y-25143D01*
X72276Y-25119D01*
X72247Y-25095D01*
X72218Y-25048D01*
X72190Y-24952D01*
X72190Y-24833D01*
X72218Y-24738D01*
X72247Y-24691D01*
X72276Y-24667D01*
X72333Y-24643D01*
X73047Y-24810D02*
X73047Y-25143D01*
X72904Y-24619D02*
X72761Y-24976D01*
X73133Y-24976D01*
X73361Y-25095D02*
X73390Y-25119D01*
X73361Y-25143D01*
X73333Y-25119D01*
X73361Y-25095D01*
X73361Y-25143D01*
X73361Y-24833D02*
X73390Y-24857D01*
X73361Y-24881D01*
X73333Y-24857D01*
X73361Y-24833D01*
X73361Y-24881D01*
X73961Y-25143D02*
X73618Y-25143D01*
X73790Y-25143D02*
X73790Y-24643D01*
X73733Y-24714D01*
X73676Y-24762D01*
X73618Y-24786D01*
X74333Y-24643D02*
X74390Y-24643D01*
X74447Y-24667D01*
X74476Y-24691D01*
X74504Y-24738D01*
X74533Y-24833D01*
X74533Y-24952D01*
X74504Y-25048D01*
X74476Y-25095D01*
X74447Y-25119D01*
X74390Y-25143D01*
X74333Y-25143D01*
X74276Y-25119D01*
X74247Y-25095D01*
X74218Y-25048D01*
X74190Y-24952D01*
X74190Y-24833D01*
X74218Y-24738D01*
X74247Y-24691D01*
X74276Y-24667D01*
X74333Y-24643D01*
X30654Y-17719D02*
X30740Y-17743D01*
X30883Y-17743D01*
X30940Y-17719D01*
X30968Y-17695D01*
X30997Y-17648D01*
X30997Y-17600D01*
X30968Y-17552D01*
X30940Y-17529D01*
X30883Y-17505D01*
X30768Y-17481D01*
X30711Y-17457D01*
X30683Y-17433D01*
X30654Y-17386D01*
X30654Y-17338D01*
X30683Y-17291D01*
X30711Y-17267D01*
X30768Y-17243D01*
X30911Y-17243D01*
X30997Y-17267D01*
X31368Y-17243D02*
X31426Y-17243D01*
X31483Y-17267D01*
X31511Y-17291D01*
X31540Y-17338D01*
X31568Y-17433D01*
X31568Y-17552D01*
X31540Y-17648D01*
X31511Y-17695D01*
X31483Y-17719D01*
X31426Y-17743D01*
X31368Y-17743D01*
X31311Y-17719D01*
X31283Y-17695D01*
X31254Y-17648D01*
X31226Y-17552D01*
X31226Y-17433D01*
X31254Y-17338D01*
X31283Y-17291D01*
X31311Y-17267D01*
X31368Y-17243D01*
X31768Y-17243D02*
X32140Y-17243D01*
X31940Y-17433D01*
X32026Y-17433D01*
X32083Y-17457D01*
X32111Y-17481D01*
X32140Y-17529D01*
X32140Y-17648D01*
X32111Y-17695D01*
X32083Y-17719D01*
X32026Y-17743D01*
X31854Y-17743D01*
X31797Y-17719D01*
X31768Y-17695D01*
X32397Y-17695D02*
X32426Y-17719D01*
X32397Y-17743D01*
X32368Y-17719D01*
X32397Y-17695D01*
X32397Y-17743D01*
X32397Y-17433D02*
X32426Y-17457D01*
X32397Y-17481D01*
X32368Y-17457D01*
X32397Y-17433D01*
X32397Y-17481D01*
X32940Y-17410D02*
X32940Y-17743D01*
X32797Y-17219D02*
X32654Y-17576D01*
X33026Y-17576D01*
X56904Y-25219D02*
X56990Y-25243D01*
X57133Y-25243D01*
X57190Y-25219D01*
X57218Y-25195D01*
X57247Y-25148D01*
X57247Y-25100D01*
X57218Y-25052D01*
X57190Y-25029D01*
X57133Y-25005D01*
X57018Y-24981D01*
X56961Y-24957D01*
X56933Y-24933D01*
X56904Y-24886D01*
X56904Y-24838D01*
X56933Y-24791D01*
X56961Y-24767D01*
X57018Y-24743D01*
X57161Y-24743D01*
X57247Y-24767D01*
X57618Y-24743D02*
X57676Y-24743D01*
X57733Y-24767D01*
X57761Y-24791D01*
X57790Y-24838D01*
X57818Y-24933D01*
X57818Y-25052D01*
X57790Y-25148D01*
X57761Y-25195D01*
X57733Y-25219D01*
X57676Y-25243D01*
X57618Y-25243D01*
X57561Y-25219D01*
X57533Y-25195D01*
X57504Y-25148D01*
X57476Y-25052D01*
X57476Y-24933D01*
X57504Y-24838D01*
X57533Y-24791D01*
X57561Y-24767D01*
X57618Y-24743D01*
X58333Y-24910D02*
X58333Y-25243D01*
X58190Y-24719D02*
X58047Y-25076D01*
X58418Y-25076D01*
X58647Y-25195D02*
X58676Y-25219D01*
X58647Y-25243D01*
X58618Y-25219D01*
X58647Y-25195D01*
X58647Y-25243D01*
X58647Y-24933D02*
X58676Y-24957D01*
X58647Y-24981D01*
X58618Y-24957D01*
X58647Y-24933D01*
X58647Y-24981D01*
X59018Y-24957D02*
X58961Y-24933D01*
X58933Y-24910D01*
X58904Y-24862D01*
X58904Y-24838D01*
X58933Y-24791D01*
X58961Y-24767D01*
X59018Y-24743D01*
X59133Y-24743D01*
X59190Y-24767D01*
X59218Y-24791D01*
X59247Y-24838D01*
X59247Y-24862D01*
X59218Y-24910D01*
X59190Y-24933D01*
X59133Y-24957D01*
X59018Y-24957D01*
X58961Y-24981D01*
X58933Y-25005D01*
X58904Y-25052D01*
X58904Y-25148D01*
X58933Y-25195D01*
X58961Y-25219D01*
X59018Y-25243D01*
X59133Y-25243D01*
X59190Y-25219D01*
X59218Y-25195D01*
X59247Y-25148D01*
X59247Y-25052D01*
X59218Y-25005D01*
X59190Y-24981D01*
X59133Y-24957D01*
X49404Y-25219D02*
X49490Y-25243D01*
X49633Y-25243D01*
X49690Y-25219D01*
X49718Y-25195D01*
X49747Y-25148D01*
X49747Y-25100D01*
X49718Y-25052D01*
X49690Y-25029D01*
X49633Y-25005D01*
X49518Y-24981D01*
X49461Y-24957D01*
X49433Y-24933D01*
X49404Y-24886D01*
X49404Y-24838D01*
X49433Y-24791D01*
X49461Y-24767D01*
X49518Y-24743D01*
X49661Y-24743D01*
X49747Y-24767D01*
X50118Y-24743D02*
X50176Y-24743D01*
X50233Y-24767D01*
X50261Y-24791D01*
X50290Y-24838D01*
X50318Y-24933D01*
X50318Y-25052D01*
X50290Y-25148D01*
X50261Y-25195D01*
X50233Y-25219D01*
X50176Y-25243D01*
X50118Y-25243D01*
X50061Y-25219D01*
X50033Y-25195D01*
X50004Y-25148D01*
X49976Y-25052D01*
X49976Y-24933D01*
X50004Y-24838D01*
X50033Y-24791D01*
X50061Y-24767D01*
X50118Y-24743D01*
X50833Y-24910D02*
X50833Y-25243D01*
X50690Y-24719D02*
X50547Y-25076D01*
X50918Y-25076D01*
X51147Y-25195D02*
X51176Y-25219D01*
X51147Y-25243D01*
X51118Y-25219D01*
X51147Y-25195D01*
X51147Y-25243D01*
X51147Y-24933D02*
X51176Y-24957D01*
X51147Y-24981D01*
X51118Y-24957D01*
X51147Y-24933D01*
X51147Y-24981D01*
X51376Y-24743D02*
X51776Y-24743D01*
X51518Y-25243D01*
X41904Y-25219D02*
X41990Y-25243D01*
X42133Y-25243D01*
X42190Y-25219D01*
X42218Y-25195D01*
X42247Y-25148D01*
X42247Y-25100D01*
X42218Y-25052D01*
X42190Y-25029D01*
X42133Y-25005D01*
X42018Y-24981D01*
X41961Y-24957D01*
X41933Y-24933D01*
X41904Y-24886D01*
X41904Y-24838D01*
X41933Y-24791D01*
X41961Y-24767D01*
X42018Y-24743D01*
X42161Y-24743D01*
X42247Y-24767D01*
X42618Y-24743D02*
X42676Y-24743D01*
X42733Y-24767D01*
X42761Y-24791D01*
X42790Y-24838D01*
X42818Y-24933D01*
X42818Y-25052D01*
X42790Y-25148D01*
X42761Y-25195D01*
X42733Y-25219D01*
X42676Y-25243D01*
X42618Y-25243D01*
X42561Y-25219D01*
X42533Y-25195D01*
X42504Y-25148D01*
X42476Y-25052D01*
X42476Y-24933D01*
X42504Y-24838D01*
X42533Y-24791D01*
X42561Y-24767D01*
X42618Y-24743D01*
X43333Y-24910D02*
X43333Y-25243D01*
X43190Y-24719D02*
X43047Y-25076D01*
X43418Y-25076D01*
X43647Y-25195D02*
X43676Y-25219D01*
X43647Y-25243D01*
X43618Y-25219D01*
X43647Y-25195D01*
X43647Y-25243D01*
X43647Y-24933D02*
X43676Y-24957D01*
X43647Y-24981D01*
X43618Y-24957D01*
X43647Y-24933D01*
X43647Y-24981D01*
X44190Y-24743D02*
X44076Y-24743D01*
X44018Y-24767D01*
X43990Y-24791D01*
X43933Y-24862D01*
X43904Y-24957D01*
X43904Y-25148D01*
X43933Y-25195D01*
X43961Y-25219D01*
X44018Y-25243D01*
X44133Y-25243D01*
X44190Y-25219D01*
X44218Y-25195D01*
X44247Y-25148D01*
X44247Y-25029D01*
X44218Y-24981D01*
X44190Y-24957D01*
X44133Y-24933D01*
X44018Y-24933D01*
X43961Y-24957D01*
X43933Y-24981D01*
X43904Y-25029D01*
X34404Y-25219D02*
X34490Y-25243D01*
X34633Y-25243D01*
X34690Y-25219D01*
X34718Y-25195D01*
X34747Y-25148D01*
X34747Y-25100D01*
X34718Y-25052D01*
X34690Y-25029D01*
X34633Y-25005D01*
X34518Y-24981D01*
X34461Y-24957D01*
X34433Y-24933D01*
X34404Y-24886D01*
X34404Y-24838D01*
X34433Y-24791D01*
X34461Y-24767D01*
X34518Y-24743D01*
X34661Y-24743D01*
X34747Y-24767D01*
X35118Y-24743D02*
X35176Y-24743D01*
X35233Y-24767D01*
X35261Y-24791D01*
X35290Y-24838D01*
X35318Y-24933D01*
X35318Y-25052D01*
X35290Y-25148D01*
X35261Y-25195D01*
X35233Y-25219D01*
X35176Y-25243D01*
X35118Y-25243D01*
X35061Y-25219D01*
X35033Y-25195D01*
X35004Y-25148D01*
X34976Y-25052D01*
X34976Y-24933D01*
X35004Y-24838D01*
X35033Y-24791D01*
X35061Y-24767D01*
X35118Y-24743D01*
X35833Y-24910D02*
X35833Y-25243D01*
X35690Y-24719D02*
X35547Y-25076D01*
X35918Y-25076D01*
X36147Y-25195D02*
X36176Y-25219D01*
X36147Y-25243D01*
X36118Y-25219D01*
X36147Y-25195D01*
X36147Y-25243D01*
X36147Y-24933D02*
X36176Y-24957D01*
X36147Y-24981D01*
X36118Y-24957D01*
X36147Y-24933D01*
X36147Y-24981D01*
X36718Y-24743D02*
X36433Y-24743D01*
X36404Y-24981D01*
X36433Y-24957D01*
X36490Y-24933D01*
X36633Y-24933D01*
X36690Y-24957D01*
X36718Y-24981D01*
X36747Y-25029D01*
X36747Y-25148D01*
X36718Y-25195D01*
X36690Y-25219D01*
X36633Y-25243D01*
X36490Y-25243D01*
X36433Y-25219D01*
X36404Y-25195D01*
X19404Y-25219D02*
X19490Y-25243D01*
X19633Y-25243D01*
X19690Y-25219D01*
X19718Y-25195D01*
X19747Y-25148D01*
X19747Y-25100D01*
X19718Y-25052D01*
X19690Y-25029D01*
X19633Y-25005D01*
X19518Y-24981D01*
X19461Y-24957D01*
X19433Y-24933D01*
X19404Y-24886D01*
X19404Y-24838D01*
X19433Y-24791D01*
X19461Y-24767D01*
X19518Y-24743D01*
X19661Y-24743D01*
X19747Y-24767D01*
X20118Y-24743D02*
X20176Y-24743D01*
X20233Y-24767D01*
X20261Y-24791D01*
X20290Y-24838D01*
X20318Y-24933D01*
X20318Y-25052D01*
X20290Y-25148D01*
X20261Y-25195D01*
X20233Y-25219D01*
X20176Y-25243D01*
X20118Y-25243D01*
X20061Y-25219D01*
X20033Y-25195D01*
X20004Y-25148D01*
X19976Y-25052D01*
X19976Y-24933D01*
X20004Y-24838D01*
X20033Y-24791D01*
X20061Y-24767D01*
X20118Y-24743D01*
X20833Y-24910D02*
X20833Y-25243D01*
X20690Y-24719D02*
X20547Y-25076D01*
X20918Y-25076D01*
X21147Y-25195D02*
X21176Y-25219D01*
X21147Y-25243D01*
X21118Y-25219D01*
X21147Y-25195D01*
X21147Y-25243D01*
X21147Y-24933D02*
X21176Y-24957D01*
X21147Y-24981D01*
X21118Y-24957D01*
X21147Y-24933D01*
X21147Y-24981D01*
X21376Y-24743D02*
X21747Y-24743D01*
X21547Y-24933D01*
X21633Y-24933D01*
X21690Y-24957D01*
X21718Y-24981D01*
X21747Y-25029D01*
X21747Y-25148D01*
X21718Y-25195D01*
X21690Y-25219D01*
X21633Y-25243D01*
X21461Y-25243D01*
X21404Y-25219D01*
X21376Y-25195D01*
X11904Y-25219D02*
X11990Y-25243D01*
X12133Y-25243D01*
X12190Y-25219D01*
X12218Y-25195D01*
X12247Y-25148D01*
X12247Y-25100D01*
X12218Y-25052D01*
X12190Y-25029D01*
X12133Y-25005D01*
X12018Y-24981D01*
X11961Y-24957D01*
X11933Y-24933D01*
X11904Y-24886D01*
X11904Y-24838D01*
X11933Y-24791D01*
X11961Y-24767D01*
X12018Y-24743D01*
X12161Y-24743D01*
X12247Y-24767D01*
X12618Y-24743D02*
X12676Y-24743D01*
X12733Y-24767D01*
X12761Y-24791D01*
X12790Y-24838D01*
X12818Y-24933D01*
X12818Y-25052D01*
X12790Y-25148D01*
X12761Y-25195D01*
X12733Y-25219D01*
X12676Y-25243D01*
X12618Y-25243D01*
X12561Y-25219D01*
X12533Y-25195D01*
X12504Y-25148D01*
X12476Y-25052D01*
X12476Y-24933D01*
X12504Y-24838D01*
X12533Y-24791D01*
X12561Y-24767D01*
X12618Y-24743D01*
X13333Y-24910D02*
X13333Y-25243D01*
X13190Y-24719D02*
X13047Y-25076D01*
X13418Y-25076D01*
X13647Y-25195D02*
X13676Y-25219D01*
X13647Y-25243D01*
X13618Y-25219D01*
X13647Y-25195D01*
X13647Y-25243D01*
X13647Y-24933D02*
X13676Y-24957D01*
X13647Y-24981D01*
X13618Y-24957D01*
X13647Y-24933D01*
X13647Y-24981D01*
X13904Y-24791D02*
X13933Y-24767D01*
X13990Y-24743D01*
X14133Y-24743D01*
X14190Y-24767D01*
X14218Y-24791D01*
X14247Y-24838D01*
X14247Y-24886D01*
X14218Y-24957D01*
X13876Y-25243D01*
X14247Y-25243D01*
X82918Y-17619D02*
X83004Y-17643D01*
X83147Y-17643D01*
X83204Y-17619D01*
X83233Y-17595D01*
X83261Y-17548D01*
X83261Y-17500D01*
X83233Y-17452D01*
X83204Y-17429D01*
X83147Y-17405D01*
X83033Y-17381D01*
X82976Y-17357D01*
X82947Y-17333D01*
X82918Y-17286D01*
X82918Y-17238D01*
X82947Y-17191D01*
X82976Y-17167D01*
X83033Y-17143D01*
X83176Y-17143D01*
X83261Y-17167D01*
X83633Y-17143D02*
X83690Y-17143D01*
X83747Y-17167D01*
X83776Y-17191D01*
X83804Y-17238D01*
X83833Y-17333D01*
X83833Y-17452D01*
X83804Y-17548D01*
X83776Y-17595D01*
X83747Y-17619D01*
X83690Y-17643D01*
X83633Y-17643D01*
X83576Y-17619D01*
X83547Y-17595D01*
X83518Y-17548D01*
X83490Y-17452D01*
X83490Y-17333D01*
X83518Y-17238D01*
X83547Y-17191D01*
X83576Y-17167D01*
X83633Y-17143D01*
X84033Y-17143D02*
X84404Y-17143D01*
X84204Y-17333D01*
X84290Y-17333D01*
X84347Y-17357D01*
X84376Y-17381D01*
X84404Y-17429D01*
X84404Y-17548D01*
X84376Y-17595D01*
X84347Y-17619D01*
X84290Y-17643D01*
X84118Y-17643D01*
X84061Y-17619D01*
X84033Y-17595D01*
X84661Y-17595D02*
X84690Y-17619D01*
X84661Y-17643D01*
X84633Y-17619D01*
X84661Y-17595D01*
X84661Y-17643D01*
X84661Y-17333D02*
X84690Y-17357D01*
X84661Y-17381D01*
X84633Y-17357D01*
X84661Y-17333D01*
X84661Y-17381D01*
X85261Y-17643D02*
X84918Y-17643D01*
X85090Y-17643D02*
X85090Y-17143D01*
X85033Y-17214D01*
X84976Y-17262D01*
X84918Y-17286D01*
X85833Y-17643D02*
X85490Y-17643D01*
X85661Y-17643D02*
X85661Y-17143D01*
X85604Y-17214D01*
X85547Y-17262D01*
X85490Y-17286D01*
X75418Y-17619D02*
X75504Y-17643D01*
X75647Y-17643D01*
X75704Y-17619D01*
X75733Y-17595D01*
X75761Y-17548D01*
X75761Y-17500D01*
X75733Y-17452D01*
X75704Y-17429D01*
X75647Y-17405D01*
X75533Y-17381D01*
X75476Y-17357D01*
X75447Y-17333D01*
X75418Y-17286D01*
X75418Y-17238D01*
X75447Y-17191D01*
X75476Y-17167D01*
X75533Y-17143D01*
X75676Y-17143D01*
X75761Y-17167D01*
X76133Y-17143D02*
X76190Y-17143D01*
X76247Y-17167D01*
X76276Y-17191D01*
X76304Y-17238D01*
X76333Y-17333D01*
X76333Y-17452D01*
X76304Y-17548D01*
X76276Y-17595D01*
X76247Y-17619D01*
X76190Y-17643D01*
X76133Y-17643D01*
X76076Y-17619D01*
X76047Y-17595D01*
X76018Y-17548D01*
X75990Y-17452D01*
X75990Y-17333D01*
X76018Y-17238D01*
X76047Y-17191D01*
X76076Y-17167D01*
X76133Y-17143D01*
X76533Y-17143D02*
X76904Y-17143D01*
X76704Y-17333D01*
X76790Y-17333D01*
X76847Y-17357D01*
X76876Y-17381D01*
X76904Y-17429D01*
X76904Y-17548D01*
X76876Y-17595D01*
X76847Y-17619D01*
X76790Y-17643D01*
X76618Y-17643D01*
X76561Y-17619D01*
X76533Y-17595D01*
X77161Y-17595D02*
X77190Y-17619D01*
X77161Y-17643D01*
X77133Y-17619D01*
X77161Y-17595D01*
X77161Y-17643D01*
X77161Y-17333D02*
X77190Y-17357D01*
X77161Y-17381D01*
X77133Y-17357D01*
X77161Y-17333D01*
X77161Y-17381D01*
X77761Y-17643D02*
X77418Y-17643D01*
X77590Y-17643D02*
X77590Y-17143D01*
X77533Y-17214D01*
X77476Y-17262D01*
X77418Y-17286D01*
X78133Y-17143D02*
X78190Y-17143D01*
X78247Y-17167D01*
X78276Y-17191D01*
X78304Y-17238D01*
X78333Y-17333D01*
X78333Y-17452D01*
X78304Y-17548D01*
X78276Y-17595D01*
X78247Y-17619D01*
X78190Y-17643D01*
X78133Y-17643D01*
X78076Y-17619D01*
X78047Y-17595D01*
X78018Y-17548D01*
X77990Y-17452D01*
X77990Y-17333D01*
X78018Y-17238D01*
X78047Y-17191D01*
X78076Y-17167D01*
X78133Y-17143D01*
X68204Y-17619D02*
X68290Y-17643D01*
X68433Y-17643D01*
X68490Y-17619D01*
X68518Y-17595D01*
X68547Y-17548D01*
X68547Y-17500D01*
X68518Y-17452D01*
X68490Y-17429D01*
X68433Y-17405D01*
X68318Y-17381D01*
X68261Y-17357D01*
X68233Y-17333D01*
X68204Y-17286D01*
X68204Y-17238D01*
X68233Y-17191D01*
X68261Y-17167D01*
X68318Y-17143D01*
X68461Y-17143D01*
X68547Y-17167D01*
X68918Y-17143D02*
X68976Y-17143D01*
X69033Y-17167D01*
X69061Y-17191D01*
X69090Y-17238D01*
X69118Y-17333D01*
X69118Y-17452D01*
X69090Y-17548D01*
X69061Y-17595D01*
X69033Y-17619D01*
X68976Y-17643D01*
X68918Y-17643D01*
X68861Y-17619D01*
X68833Y-17595D01*
X68804Y-17548D01*
X68776Y-17452D01*
X68776Y-17333D01*
X68804Y-17238D01*
X68833Y-17191D01*
X68861Y-17167D01*
X68918Y-17143D01*
X69318Y-17143D02*
X69690Y-17143D01*
X69490Y-17333D01*
X69576Y-17333D01*
X69633Y-17357D01*
X69661Y-17381D01*
X69690Y-17429D01*
X69690Y-17548D01*
X69661Y-17595D01*
X69633Y-17619D01*
X69576Y-17643D01*
X69404Y-17643D01*
X69347Y-17619D01*
X69318Y-17595D01*
X69947Y-17595D02*
X69976Y-17619D01*
X69947Y-17643D01*
X69918Y-17619D01*
X69947Y-17595D01*
X69947Y-17643D01*
X69947Y-17333D02*
X69976Y-17357D01*
X69947Y-17381D01*
X69918Y-17357D01*
X69947Y-17333D01*
X69947Y-17381D01*
X70261Y-17643D02*
X70376Y-17643D01*
X70433Y-17619D01*
X70461Y-17595D01*
X70518Y-17524D01*
X70547Y-17429D01*
X70547Y-17238D01*
X70518Y-17191D01*
X70490Y-17167D01*
X70433Y-17143D01*
X70318Y-17143D01*
X70261Y-17167D01*
X70233Y-17191D01*
X70204Y-17238D01*
X70204Y-17357D01*
X70233Y-17405D01*
X70261Y-17429D01*
X70318Y-17452D01*
X70433Y-17452D01*
X70490Y-17429D01*
X70518Y-17405D01*
X70547Y-17357D01*
X60704Y-17719D02*
X60790Y-17743D01*
X60933Y-17743D01*
X60990Y-17719D01*
X61018Y-17695D01*
X61047Y-17648D01*
X61047Y-17600D01*
X61018Y-17552D01*
X60990Y-17529D01*
X60933Y-17505D01*
X60818Y-17481D01*
X60761Y-17457D01*
X60733Y-17433D01*
X60704Y-17386D01*
X60704Y-17338D01*
X60733Y-17291D01*
X60761Y-17267D01*
X60818Y-17243D01*
X60961Y-17243D01*
X61047Y-17267D01*
X61418Y-17243D02*
X61476Y-17243D01*
X61533Y-17267D01*
X61561Y-17291D01*
X61590Y-17338D01*
X61618Y-17433D01*
X61618Y-17552D01*
X61590Y-17648D01*
X61561Y-17695D01*
X61533Y-17719D01*
X61476Y-17743D01*
X61418Y-17743D01*
X61361Y-17719D01*
X61333Y-17695D01*
X61304Y-17648D01*
X61276Y-17552D01*
X61276Y-17433D01*
X61304Y-17338D01*
X61333Y-17291D01*
X61361Y-17267D01*
X61418Y-17243D01*
X61818Y-17243D02*
X62190Y-17243D01*
X61990Y-17433D01*
X62076Y-17433D01*
X62133Y-17457D01*
X62161Y-17481D01*
X62190Y-17529D01*
X62190Y-17648D01*
X62161Y-17695D01*
X62133Y-17719D01*
X62076Y-17743D01*
X61904Y-17743D01*
X61847Y-17719D01*
X61818Y-17695D01*
X62447Y-17695D02*
X62476Y-17719D01*
X62447Y-17743D01*
X62418Y-17719D01*
X62447Y-17695D01*
X62447Y-17743D01*
X62447Y-17433D02*
X62476Y-17457D01*
X62447Y-17481D01*
X62418Y-17457D01*
X62447Y-17433D01*
X62447Y-17481D01*
X62818Y-17457D02*
X62761Y-17433D01*
X62733Y-17410D01*
X62704Y-17362D01*
X62704Y-17338D01*
X62733Y-17291D01*
X62761Y-17267D01*
X62818Y-17243D01*
X62933Y-17243D01*
X62990Y-17267D01*
X63018Y-17291D01*
X63047Y-17338D01*
X63047Y-17362D01*
X63018Y-17410D01*
X62990Y-17433D01*
X62933Y-17457D01*
X62818Y-17457D01*
X62761Y-17481D01*
X62733Y-17505D01*
X62704Y-17552D01*
X62704Y-17648D01*
X62733Y-17695D01*
X62761Y-17719D01*
X62818Y-17743D01*
X62933Y-17743D01*
X62990Y-17719D01*
X63018Y-17695D01*
X63047Y-17648D01*
X63047Y-17552D01*
X63018Y-17505D01*
X62990Y-17481D01*
X62933Y-17457D01*
X53204Y-17719D02*
X53290Y-17743D01*
X53433Y-17743D01*
X53490Y-17719D01*
X53518Y-17695D01*
X53547Y-17648D01*
X53547Y-17600D01*
X53518Y-17552D01*
X53490Y-17529D01*
X53433Y-17505D01*
X53318Y-17481D01*
X53261Y-17457D01*
X53233Y-17433D01*
X53204Y-17386D01*
X53204Y-17338D01*
X53233Y-17291D01*
X53261Y-17267D01*
X53318Y-17243D01*
X53461Y-17243D01*
X53547Y-17267D01*
X53918Y-17243D02*
X53976Y-17243D01*
X54033Y-17267D01*
X54061Y-17291D01*
X54090Y-17338D01*
X54118Y-17433D01*
X54118Y-17552D01*
X54090Y-17648D01*
X54061Y-17695D01*
X54033Y-17719D01*
X53976Y-17743D01*
X53918Y-17743D01*
X53861Y-17719D01*
X53833Y-17695D01*
X53804Y-17648D01*
X53776Y-17552D01*
X53776Y-17433D01*
X53804Y-17338D01*
X53833Y-17291D01*
X53861Y-17267D01*
X53918Y-17243D01*
X54318Y-17243D02*
X54690Y-17243D01*
X54490Y-17433D01*
X54576Y-17433D01*
X54633Y-17457D01*
X54661Y-17481D01*
X54690Y-17529D01*
X54690Y-17648D01*
X54661Y-17695D01*
X54633Y-17719D01*
X54576Y-17743D01*
X54404Y-17743D01*
X54347Y-17719D01*
X54318Y-17695D01*
X54947Y-17695D02*
X54976Y-17719D01*
X54947Y-17743D01*
X54918Y-17719D01*
X54947Y-17695D01*
X54947Y-17743D01*
X54947Y-17433D02*
X54976Y-17457D01*
X54947Y-17481D01*
X54918Y-17457D01*
X54947Y-17433D01*
X54947Y-17481D01*
X55176Y-17243D02*
X55576Y-17243D01*
X55318Y-17743D01*
X45704Y-17719D02*
X45790Y-17743D01*
X45933Y-17743D01*
X45990Y-17719D01*
X46018Y-17695D01*
X46047Y-17648D01*
X46047Y-17600D01*
X46018Y-17552D01*
X45990Y-17529D01*
X45933Y-17505D01*
X45818Y-17481D01*
X45761Y-17457D01*
X45733Y-17433D01*
X45704Y-17386D01*
X45704Y-17338D01*
X45733Y-17291D01*
X45761Y-17267D01*
X45818Y-17243D01*
X45961Y-17243D01*
X46047Y-17267D01*
X46418Y-17243D02*
X46476Y-17243D01*
X46533Y-17267D01*
X46561Y-17291D01*
X46590Y-17338D01*
X46618Y-17433D01*
X46618Y-17552D01*
X46590Y-17648D01*
X46561Y-17695D01*
X46533Y-17719D01*
X46476Y-17743D01*
X46418Y-17743D01*
X46361Y-17719D01*
X46333Y-17695D01*
X46304Y-17648D01*
X46276Y-17552D01*
X46276Y-17433D01*
X46304Y-17338D01*
X46333Y-17291D01*
X46361Y-17267D01*
X46418Y-17243D01*
X46818Y-17243D02*
X47190Y-17243D01*
X46990Y-17433D01*
X47076Y-17433D01*
X47133Y-17457D01*
X47161Y-17481D01*
X47190Y-17529D01*
X47190Y-17648D01*
X47161Y-17695D01*
X47133Y-17719D01*
X47076Y-17743D01*
X46904Y-17743D01*
X46847Y-17719D01*
X46818Y-17695D01*
X47447Y-17695D02*
X47476Y-17719D01*
X47447Y-17743D01*
X47418Y-17719D01*
X47447Y-17695D01*
X47447Y-17743D01*
X47447Y-17433D02*
X47476Y-17457D01*
X47447Y-17481D01*
X47418Y-17457D01*
X47447Y-17433D01*
X47447Y-17481D01*
X47990Y-17243D02*
X47876Y-17243D01*
X47818Y-17267D01*
X47790Y-17291D01*
X47733Y-17362D01*
X47704Y-17457D01*
X47704Y-17648D01*
X47733Y-17695D01*
X47761Y-17719D01*
X47818Y-17743D01*
X47933Y-17743D01*
X47990Y-17719D01*
X48018Y-17695D01*
X48047Y-17648D01*
X48047Y-17529D01*
X48018Y-17481D01*
X47990Y-17457D01*
X47933Y-17433D01*
X47818Y-17433D01*
X47761Y-17457D01*
X47733Y-17481D01*
X47704Y-17529D01*
X38204Y-17719D02*
X38290Y-17743D01*
X38433Y-17743D01*
X38490Y-17719D01*
X38518Y-17695D01*
X38547Y-17648D01*
X38547Y-17600D01*
X38518Y-17552D01*
X38490Y-17529D01*
X38433Y-17505D01*
X38318Y-17481D01*
X38261Y-17457D01*
X38233Y-17433D01*
X38204Y-17386D01*
X38204Y-17338D01*
X38233Y-17291D01*
X38261Y-17267D01*
X38318Y-17243D01*
X38461Y-17243D01*
X38547Y-17267D01*
X38918Y-17243D02*
X38976Y-17243D01*
X39033Y-17267D01*
X39061Y-17291D01*
X39090Y-17338D01*
X39118Y-17433D01*
X39118Y-17552D01*
X39090Y-17648D01*
X39061Y-17695D01*
X39033Y-17719D01*
X38976Y-17743D01*
X38918Y-17743D01*
X38861Y-17719D01*
X38833Y-17695D01*
X38804Y-17648D01*
X38776Y-17552D01*
X38776Y-17433D01*
X38804Y-17338D01*
X38833Y-17291D01*
X38861Y-17267D01*
X38918Y-17243D01*
X39318Y-17243D02*
X39690Y-17243D01*
X39490Y-17433D01*
X39576Y-17433D01*
X39633Y-17457D01*
X39661Y-17481D01*
X39690Y-17529D01*
X39690Y-17648D01*
X39661Y-17695D01*
X39633Y-17719D01*
X39576Y-17743D01*
X39404Y-17743D01*
X39347Y-17719D01*
X39318Y-17695D01*
X39947Y-17695D02*
X39976Y-17719D01*
X39947Y-17743D01*
X39918Y-17719D01*
X39947Y-17695D01*
X39947Y-17743D01*
X39947Y-17433D02*
X39976Y-17457D01*
X39947Y-17481D01*
X39918Y-17457D01*
X39947Y-17433D01*
X39947Y-17481D01*
X40518Y-17243D02*
X40233Y-17243D01*
X40204Y-17481D01*
X40233Y-17457D01*
X40290Y-17433D01*
X40433Y-17433D01*
X40490Y-17457D01*
X40518Y-17481D01*
X40547Y-17529D01*
X40547Y-17648D01*
X40518Y-17695D01*
X40490Y-17719D01*
X40433Y-17743D01*
X40290Y-17743D01*
X40233Y-17719D01*
X40204Y-17695D01*
X50354Y-32719D02*
X50440Y-32743D01*
X50583Y-32743D01*
X50640Y-32719D01*
X50668Y-32695D01*
X50697Y-32648D01*
X50697Y-32600D01*
X50668Y-32552D01*
X50640Y-32529D01*
X50583Y-32505D01*
X50468Y-32481D01*
X50411Y-32457D01*
X50383Y-32433D01*
X50354Y-32386D01*
X50354Y-32338D01*
X50383Y-32291D01*
X50411Y-32267D01*
X50468Y-32243D01*
X50611Y-32243D01*
X50697Y-32267D01*
X51068Y-32243D02*
X51126Y-32243D01*
X51183Y-32267D01*
X51211Y-32291D01*
X51240Y-32338D01*
X51268Y-32433D01*
X51268Y-32552D01*
X51240Y-32648D01*
X51211Y-32695D01*
X51183Y-32719D01*
X51126Y-32743D01*
X51068Y-32743D01*
X51011Y-32719D01*
X50983Y-32695D01*
X50954Y-32648D01*
X50926Y-32552D01*
X50926Y-32433D01*
X50954Y-32338D01*
X50983Y-32291D01*
X51011Y-32267D01*
X51068Y-32243D01*
X51811Y-32243D02*
X51526Y-32243D01*
X51497Y-32481D01*
X51526Y-32457D01*
X51583Y-32433D01*
X51726Y-32433D01*
X51783Y-32457D01*
X51811Y-32481D01*
X51840Y-32529D01*
X51840Y-32648D01*
X51811Y-32695D01*
X51783Y-32719D01*
X51726Y-32743D01*
X51583Y-32743D01*
X51526Y-32719D01*
X51497Y-32695D01*
X52097Y-32695D02*
X52126Y-32719D01*
X52097Y-32743D01*
X52068Y-32719D01*
X52097Y-32695D01*
X52097Y-32743D01*
X52097Y-32433D02*
X52126Y-32457D01*
X52097Y-32481D01*
X52068Y-32457D01*
X52097Y-32433D01*
X52097Y-32481D01*
X52326Y-32243D02*
X52726Y-32243D01*
X52468Y-32743D01*
G54D20*
X60406Y-34246D02*
X60372Y-34230D01*
X60321Y-34230D01*
X60271Y-34246D01*
X60237Y-34280D01*
X60220Y-34314D01*
X60203Y-34381D01*
X60203Y-34432D01*
X60220Y-34500D01*
X60237Y-34533D01*
X60271Y-34567D01*
X60321Y-34584D01*
X60355Y-34584D01*
X60406Y-34567D01*
X60422Y-34550D01*
X60422Y-34432D01*
X60355Y-34432D01*
X60574Y-34584D02*
X60574Y-34230D01*
X60777Y-34584D01*
X60777Y-34230D01*
X60945Y-34584D02*
X60945Y-34230D01*
X61030Y-34230D01*
X61080Y-34246D01*
X61114Y-34280D01*
X61131Y-34314D01*
X61148Y-34381D01*
X61148Y-34432D01*
X61131Y-34500D01*
X61114Y-34533D01*
X61080Y-34567D01*
X61030Y-34584D01*
X60945Y-34584D01*
X57456Y-34584D02*
X57338Y-34415D01*
X57254Y-34584D02*
X57254Y-34230D01*
X57389Y-34230D01*
X57422Y-34246D01*
X57439Y-34263D01*
X57456Y-34297D01*
X57456Y-34348D01*
X57439Y-34381D01*
X57422Y-34398D01*
X57389Y-34415D01*
X57254Y-34415D01*
X57608Y-34398D02*
X57726Y-34398D01*
X57777Y-34584D02*
X57608Y-34584D01*
X57608Y-34230D01*
X57777Y-34230D01*
X57912Y-34567D02*
X57962Y-34584D01*
X58047Y-34584D01*
X58080Y-34567D01*
X58097Y-34550D01*
X58114Y-34516D01*
X58114Y-34483D01*
X58097Y-34449D01*
X58080Y-34432D01*
X58047Y-34415D01*
X57979Y-34398D01*
X57945Y-34381D01*
X57929Y-34365D01*
X57912Y-34331D01*
X57912Y-34297D01*
X57929Y-34263D01*
X57945Y-34246D01*
X57979Y-34230D01*
X58064Y-34230D01*
X58114Y-34246D01*
X57119Y-32584D02*
X57119Y-32230D01*
X57237Y-32483D01*
X57355Y-32230D01*
X57355Y-32584D01*
X57524Y-32584D02*
X57524Y-32230D01*
X57676Y-32567D02*
X57726Y-32584D01*
X57810Y-32584D01*
X57844Y-32567D01*
X57861Y-32550D01*
X57878Y-32516D01*
X57878Y-32483D01*
X57861Y-32449D01*
X57844Y-32432D01*
X57810Y-32415D01*
X57743Y-32398D01*
X57709Y-32381D01*
X57692Y-32365D01*
X57676Y-32331D01*
X57676Y-32297D01*
X57692Y-32263D01*
X57709Y-32246D01*
X57743Y-32230D01*
X57827Y-32230D01*
X57878Y-32246D01*
X58097Y-32230D02*
X58165Y-32230D01*
X58199Y-32246D01*
X58232Y-32280D01*
X58249Y-32348D01*
X58249Y-32466D01*
X58232Y-32533D01*
X58199Y-32567D01*
X58165Y-32584D01*
X58097Y-32584D01*
X58064Y-32567D01*
X58030Y-32533D01*
X58013Y-32466D01*
X58013Y-32348D01*
X58030Y-32280D01*
X58064Y-32246D01*
X58097Y-32230D01*
X60119Y-33584D02*
X60119Y-33230D01*
X60237Y-33483D01*
X60355Y-33230D01*
X60355Y-33584D01*
X60591Y-33230D02*
X60659Y-33230D01*
X60692Y-33246D01*
X60726Y-33280D01*
X60743Y-33348D01*
X60743Y-33466D01*
X60726Y-33533D01*
X60692Y-33567D01*
X60659Y-33584D01*
X60591Y-33584D01*
X60557Y-33567D01*
X60524Y-33533D01*
X60507Y-33466D01*
X60507Y-33348D01*
X60524Y-33280D01*
X60557Y-33246D01*
X60591Y-33230D01*
X60878Y-33567D02*
X60929Y-33584D01*
X61013Y-33584D01*
X61047Y-33567D01*
X61064Y-33550D01*
X61080Y-33516D01*
X61080Y-33483D01*
X61064Y-33449D01*
X61047Y-33432D01*
X61013Y-33415D01*
X60945Y-33398D01*
X60912Y-33381D01*
X60895Y-33365D01*
X60878Y-33331D01*
X60878Y-33297D01*
X60895Y-33263D01*
X60912Y-33246D01*
X60945Y-33230D01*
X61030Y-33230D01*
X61080Y-33246D01*
X61232Y-33584D02*
X61232Y-33230D01*
X60254Y-32230D02*
X60372Y-32584D01*
X60490Y-32230D01*
X60760Y-32567D02*
X60726Y-32584D01*
X60659Y-32584D01*
X60625Y-32567D01*
X60608Y-32550D01*
X60591Y-32516D01*
X60591Y-32415D01*
X60608Y-32381D01*
X60625Y-32365D01*
X60659Y-32348D01*
X60726Y-32348D01*
X60760Y-32365D01*
X61064Y-32567D02*
X61030Y-32584D01*
X60962Y-32584D01*
X60929Y-32567D01*
X60912Y-32550D01*
X60895Y-32516D01*
X60895Y-32415D01*
X60912Y-32381D01*
X60929Y-32365D01*
X60962Y-32348D01*
X61030Y-32348D01*
X61064Y-32365D01*
X57220Y-33567D02*
X57271Y-33584D01*
X57355Y-33584D01*
X57389Y-33567D01*
X57406Y-33550D01*
X57422Y-33516D01*
X57422Y-33483D01*
X57406Y-33449D01*
X57389Y-33432D01*
X57355Y-33415D01*
X57287Y-33398D01*
X57254Y-33381D01*
X57237Y-33365D01*
X57220Y-33331D01*
X57220Y-33297D01*
X57237Y-33263D01*
X57254Y-33246D01*
X57287Y-33230D01*
X57372Y-33230D01*
X57422Y-33246D01*
X57777Y-33550D02*
X57760Y-33567D01*
X57709Y-33584D01*
X57676Y-33584D01*
X57625Y-33567D01*
X57591Y-33533D01*
X57574Y-33500D01*
X57557Y-33432D01*
X57557Y-33381D01*
X57574Y-33314D01*
X57591Y-33280D01*
X57625Y-33246D01*
X57676Y-33230D01*
X57709Y-33230D01*
X57760Y-33246D01*
X57777Y-33263D01*
X57929Y-33584D02*
X57929Y-33230D01*
X58131Y-33584D02*
X57979Y-33381D01*
X58131Y-33230D02*
X57929Y-33432D01*
G54D19*
X126018Y-25119D02*
X126104Y-25143D01*
X126247Y-25143D01*
X126304Y-25119D01*
X126333Y-25095D01*
X126361Y-25048D01*
X126361Y-25000D01*
X126333Y-24952D01*
X126304Y-24929D01*
X126247Y-24905D01*
X126133Y-24881D01*
X126076Y-24857D01*
X126047Y-24833D01*
X126018Y-24786D01*
X126018Y-24738D01*
X126047Y-24691D01*
X126076Y-24667D01*
X126133Y-24643D01*
X126276Y-24643D01*
X126361Y-24667D01*
X126733Y-24643D02*
X126790Y-24643D01*
X126847Y-24667D01*
X126876Y-24691D01*
X126904Y-24738D01*
X126933Y-24833D01*
X126933Y-24952D01*
X126904Y-25048D01*
X126876Y-25095D01*
X126847Y-25119D01*
X126790Y-25143D01*
X126733Y-25143D01*
X126676Y-25119D01*
X126647Y-25095D01*
X126618Y-25048D01*
X126590Y-24952D01*
X126590Y-24833D01*
X126618Y-24738D01*
X126647Y-24691D01*
X126676Y-24667D01*
X126733Y-24643D01*
X127447Y-24810D02*
X127447Y-25143D01*
X127304Y-24619D02*
X127161Y-24976D01*
X127533Y-24976D01*
X127761Y-25095D02*
X127790Y-25119D01*
X127761Y-25143D01*
X127733Y-25119D01*
X127761Y-25095D01*
X127761Y-25143D01*
X127761Y-24833D02*
X127790Y-24857D01*
X127761Y-24881D01*
X127733Y-24857D01*
X127761Y-24833D01*
X127761Y-24881D01*
X128361Y-25143D02*
X128018Y-25143D01*
X128190Y-25143D02*
X128190Y-24643D01*
X128133Y-24714D01*
X128076Y-24762D01*
X128018Y-24786D01*
X128561Y-24643D02*
X128961Y-24643D01*
X128704Y-25143D01*
X103518Y-32619D02*
X103604Y-32643D01*
X103747Y-32643D01*
X103804Y-32619D01*
X103833Y-32595D01*
X103861Y-32548D01*
X103861Y-32500D01*
X103833Y-32452D01*
X103804Y-32429D01*
X103747Y-32405D01*
X103633Y-32381D01*
X103576Y-32357D01*
X103547Y-32333D01*
X103518Y-32286D01*
X103518Y-32238D01*
X103547Y-32191D01*
X103576Y-32167D01*
X103633Y-32143D01*
X103776Y-32143D01*
X103861Y-32167D01*
X104233Y-32143D02*
X104290Y-32143D01*
X104347Y-32167D01*
X104376Y-32191D01*
X104404Y-32238D01*
X104433Y-32333D01*
X104433Y-32452D01*
X104404Y-32548D01*
X104376Y-32595D01*
X104347Y-32619D01*
X104290Y-32643D01*
X104233Y-32643D01*
X104176Y-32619D01*
X104147Y-32595D01*
X104118Y-32548D01*
X104090Y-32452D01*
X104090Y-32333D01*
X104118Y-32238D01*
X104147Y-32191D01*
X104176Y-32167D01*
X104233Y-32143D01*
X104976Y-32143D02*
X104690Y-32143D01*
X104661Y-32381D01*
X104690Y-32357D01*
X104747Y-32333D01*
X104890Y-32333D01*
X104947Y-32357D01*
X104976Y-32381D01*
X105004Y-32429D01*
X105004Y-32548D01*
X104976Y-32595D01*
X104947Y-32619D01*
X104890Y-32643D01*
X104747Y-32643D01*
X104690Y-32619D01*
X104661Y-32595D01*
X105261Y-32595D02*
X105290Y-32619D01*
X105261Y-32643D01*
X105233Y-32619D01*
X105261Y-32595D01*
X105261Y-32643D01*
X105261Y-32333D02*
X105290Y-32357D01*
X105261Y-32381D01*
X105233Y-32357D01*
X105261Y-32333D01*
X105261Y-32381D01*
X105861Y-32643D02*
X105518Y-32643D01*
X105690Y-32643D02*
X105690Y-32143D01*
X105633Y-32214D01*
X105576Y-32262D01*
X105518Y-32286D01*
X106376Y-32310D02*
X106376Y-32643D01*
X106233Y-32119D02*
X106090Y-32476D01*
X106461Y-32476D01*
X111018Y-32619D02*
X111104Y-32643D01*
X111247Y-32643D01*
X111304Y-32619D01*
X111333Y-32595D01*
X111361Y-32548D01*
X111361Y-32500D01*
X111333Y-32452D01*
X111304Y-32429D01*
X111247Y-32405D01*
X111133Y-32381D01*
X111076Y-32357D01*
X111047Y-32333D01*
X111018Y-32286D01*
X111018Y-32238D01*
X111047Y-32191D01*
X111076Y-32167D01*
X111133Y-32143D01*
X111276Y-32143D01*
X111361Y-32167D01*
X111733Y-32143D02*
X111790Y-32143D01*
X111847Y-32167D01*
X111876Y-32191D01*
X111904Y-32238D01*
X111933Y-32333D01*
X111933Y-32452D01*
X111904Y-32548D01*
X111876Y-32595D01*
X111847Y-32619D01*
X111790Y-32643D01*
X111733Y-32643D01*
X111676Y-32619D01*
X111647Y-32595D01*
X111618Y-32548D01*
X111590Y-32452D01*
X111590Y-32333D01*
X111618Y-32238D01*
X111647Y-32191D01*
X111676Y-32167D01*
X111733Y-32143D01*
X112476Y-32143D02*
X112190Y-32143D01*
X112161Y-32381D01*
X112190Y-32357D01*
X112247Y-32333D01*
X112390Y-32333D01*
X112447Y-32357D01*
X112476Y-32381D01*
X112504Y-32429D01*
X112504Y-32548D01*
X112476Y-32595D01*
X112447Y-32619D01*
X112390Y-32643D01*
X112247Y-32643D01*
X112190Y-32619D01*
X112161Y-32595D01*
X112761Y-32595D02*
X112790Y-32619D01*
X112761Y-32643D01*
X112733Y-32619D01*
X112761Y-32595D01*
X112761Y-32643D01*
X112761Y-32333D02*
X112790Y-32357D01*
X112761Y-32381D01*
X112733Y-32357D01*
X112761Y-32333D01*
X112761Y-32381D01*
X113361Y-32643D02*
X113018Y-32643D01*
X113190Y-32643D02*
X113190Y-32143D01*
X113133Y-32214D01*
X113076Y-32262D01*
X113018Y-32286D01*
X113904Y-32143D02*
X113618Y-32143D01*
X113590Y-32381D01*
X113618Y-32357D01*
X113676Y-32333D01*
X113818Y-32333D01*
X113876Y-32357D01*
X113904Y-32381D01*
X113933Y-32429D01*
X113933Y-32548D01*
X113904Y-32595D01*
X113876Y-32619D01*
X113818Y-32643D01*
X113676Y-32643D01*
X113618Y-32619D01*
X113590Y-32595D01*
X118518Y-25119D02*
X118604Y-25143D01*
X118747Y-25143D01*
X118804Y-25119D01*
X118833Y-25095D01*
X118861Y-25048D01*
X118861Y-25000D01*
X118833Y-24952D01*
X118804Y-24929D01*
X118747Y-24905D01*
X118633Y-24881D01*
X118576Y-24857D01*
X118547Y-24833D01*
X118518Y-24786D01*
X118518Y-24738D01*
X118547Y-24691D01*
X118576Y-24667D01*
X118633Y-24643D01*
X118776Y-24643D01*
X118861Y-24667D01*
X119233Y-24643D02*
X119290Y-24643D01*
X119347Y-24667D01*
X119376Y-24691D01*
X119404Y-24738D01*
X119433Y-24833D01*
X119433Y-24952D01*
X119404Y-25048D01*
X119376Y-25095D01*
X119347Y-25119D01*
X119290Y-25143D01*
X119233Y-25143D01*
X119176Y-25119D01*
X119147Y-25095D01*
X119118Y-25048D01*
X119090Y-24952D01*
X119090Y-24833D01*
X119118Y-24738D01*
X119147Y-24691D01*
X119176Y-24667D01*
X119233Y-24643D01*
X119947Y-24810D02*
X119947Y-25143D01*
X119804Y-24619D02*
X119661Y-24976D01*
X120033Y-24976D01*
X120261Y-25095D02*
X120290Y-25119D01*
X120261Y-25143D01*
X120233Y-25119D01*
X120261Y-25095D01*
X120261Y-25143D01*
X120261Y-24833D02*
X120290Y-24857D01*
X120261Y-24881D01*
X120233Y-24857D01*
X120261Y-24833D01*
X120261Y-24881D01*
X120861Y-25143D02*
X120518Y-25143D01*
X120690Y-25143D02*
X120690Y-24643D01*
X120633Y-24714D01*
X120576Y-24762D01*
X120518Y-24786D01*
X121376Y-24643D02*
X121261Y-24643D01*
X121204Y-24667D01*
X121176Y-24691D01*
X121118Y-24762D01*
X121090Y-24857D01*
X121090Y-25048D01*
X121118Y-25095D01*
X121147Y-25119D01*
X121204Y-25143D01*
X121318Y-25143D01*
X121376Y-25119D01*
X121404Y-25095D01*
X121433Y-25048D01*
X121433Y-24929D01*
X121404Y-24881D01*
X121376Y-24857D01*
X121318Y-24833D01*
X121204Y-24833D01*
X121147Y-24857D01*
X121118Y-24881D01*
X121090Y-24929D01*
X118518Y-32619D02*
X118604Y-32643D01*
X118747Y-32643D01*
X118804Y-32619D01*
X118833Y-32595D01*
X118861Y-32548D01*
X118861Y-32500D01*
X118833Y-32452D01*
X118804Y-32429D01*
X118747Y-32405D01*
X118633Y-32381D01*
X118576Y-32357D01*
X118547Y-32333D01*
X118518Y-32286D01*
X118518Y-32238D01*
X118547Y-32191D01*
X118576Y-32167D01*
X118633Y-32143D01*
X118776Y-32143D01*
X118861Y-32167D01*
X119233Y-32143D02*
X119290Y-32143D01*
X119347Y-32167D01*
X119376Y-32191D01*
X119404Y-32238D01*
X119433Y-32333D01*
X119433Y-32452D01*
X119404Y-32548D01*
X119376Y-32595D01*
X119347Y-32619D01*
X119290Y-32643D01*
X119233Y-32643D01*
X119176Y-32619D01*
X119147Y-32595D01*
X119118Y-32548D01*
X119090Y-32452D01*
X119090Y-32333D01*
X119118Y-32238D01*
X119147Y-32191D01*
X119176Y-32167D01*
X119233Y-32143D01*
X119976Y-32143D02*
X119690Y-32143D01*
X119661Y-32381D01*
X119690Y-32357D01*
X119747Y-32333D01*
X119890Y-32333D01*
X119947Y-32357D01*
X119976Y-32381D01*
X120004Y-32429D01*
X120004Y-32548D01*
X119976Y-32595D01*
X119947Y-32619D01*
X119890Y-32643D01*
X119747Y-32643D01*
X119690Y-32619D01*
X119661Y-32595D01*
X120261Y-32595D02*
X120290Y-32619D01*
X120261Y-32643D01*
X120233Y-32619D01*
X120261Y-32595D01*
X120261Y-32643D01*
X120261Y-32333D02*
X120290Y-32357D01*
X120261Y-32381D01*
X120233Y-32357D01*
X120261Y-32333D01*
X120261Y-32381D01*
X120861Y-32643D02*
X120518Y-32643D01*
X120690Y-32643D02*
X120690Y-32143D01*
X120633Y-32214D01*
X120576Y-32262D01*
X120518Y-32286D01*
X121376Y-32143D02*
X121261Y-32143D01*
X121204Y-32167D01*
X121176Y-32191D01*
X121118Y-32262D01*
X121090Y-32357D01*
X121090Y-32548D01*
X121118Y-32595D01*
X121147Y-32619D01*
X121204Y-32643D01*
X121318Y-32643D01*
X121376Y-32619D01*
X121404Y-32595D01*
X121433Y-32548D01*
X121433Y-32429D01*
X121404Y-32381D01*
X121376Y-32357D01*
X121318Y-32333D01*
X121204Y-32333D01*
X121147Y-32357D01*
X121118Y-32381D01*
X121090Y-32429D01*
X126018Y-32619D02*
X126104Y-32643D01*
X126247Y-32643D01*
X126304Y-32619D01*
X126333Y-32595D01*
X126361Y-32548D01*
X126361Y-32500D01*
X126333Y-32452D01*
X126304Y-32429D01*
X126247Y-32405D01*
X126133Y-32381D01*
X126076Y-32357D01*
X126047Y-32333D01*
X126018Y-32286D01*
X126018Y-32238D01*
X126047Y-32191D01*
X126076Y-32167D01*
X126133Y-32143D01*
X126276Y-32143D01*
X126361Y-32167D01*
X126733Y-32143D02*
X126790Y-32143D01*
X126847Y-32167D01*
X126876Y-32191D01*
X126904Y-32238D01*
X126933Y-32333D01*
X126933Y-32452D01*
X126904Y-32548D01*
X126876Y-32595D01*
X126847Y-32619D01*
X126790Y-32643D01*
X126733Y-32643D01*
X126676Y-32619D01*
X126647Y-32595D01*
X126618Y-32548D01*
X126590Y-32452D01*
X126590Y-32333D01*
X126618Y-32238D01*
X126647Y-32191D01*
X126676Y-32167D01*
X126733Y-32143D01*
X127476Y-32143D02*
X127190Y-32143D01*
X127161Y-32381D01*
X127190Y-32357D01*
X127247Y-32333D01*
X127390Y-32333D01*
X127447Y-32357D01*
X127476Y-32381D01*
X127504Y-32429D01*
X127504Y-32548D01*
X127476Y-32595D01*
X127447Y-32619D01*
X127390Y-32643D01*
X127247Y-32643D01*
X127190Y-32619D01*
X127161Y-32595D01*
X127761Y-32595D02*
X127790Y-32619D01*
X127761Y-32643D01*
X127733Y-32619D01*
X127761Y-32595D01*
X127761Y-32643D01*
X127761Y-32333D02*
X127790Y-32357D01*
X127761Y-32381D01*
X127733Y-32357D01*
X127761Y-32333D01*
X127761Y-32381D01*
X128361Y-32643D02*
X128018Y-32643D01*
X128190Y-32643D02*
X128190Y-32143D01*
X128133Y-32214D01*
X128076Y-32262D01*
X128018Y-32286D01*
X128561Y-32143D02*
X128961Y-32143D01*
X128704Y-32643D01*
X118518Y-17619D02*
X118604Y-17643D01*
X118747Y-17643D01*
X118804Y-17619D01*
X118833Y-17595D01*
X118861Y-17548D01*
X118861Y-17500D01*
X118833Y-17452D01*
X118804Y-17429D01*
X118747Y-17405D01*
X118633Y-17381D01*
X118576Y-17357D01*
X118547Y-17333D01*
X118518Y-17286D01*
X118518Y-17238D01*
X118547Y-17191D01*
X118576Y-17167D01*
X118633Y-17143D01*
X118776Y-17143D01*
X118861Y-17167D01*
X119233Y-17143D02*
X119290Y-17143D01*
X119347Y-17167D01*
X119376Y-17191D01*
X119404Y-17238D01*
X119433Y-17333D01*
X119433Y-17452D01*
X119404Y-17548D01*
X119376Y-17595D01*
X119347Y-17619D01*
X119290Y-17643D01*
X119233Y-17643D01*
X119176Y-17619D01*
X119147Y-17595D01*
X119118Y-17548D01*
X119090Y-17452D01*
X119090Y-17333D01*
X119118Y-17238D01*
X119147Y-17191D01*
X119176Y-17167D01*
X119233Y-17143D01*
X119633Y-17143D02*
X120004Y-17143D01*
X119804Y-17333D01*
X119890Y-17333D01*
X119947Y-17357D01*
X119976Y-17381D01*
X120004Y-17429D01*
X120004Y-17548D01*
X119976Y-17595D01*
X119947Y-17619D01*
X119890Y-17643D01*
X119718Y-17643D01*
X119661Y-17619D01*
X119633Y-17595D01*
X120261Y-17595D02*
X120290Y-17619D01*
X120261Y-17643D01*
X120233Y-17619D01*
X120261Y-17595D01*
X120261Y-17643D01*
X120261Y-17333D02*
X120290Y-17357D01*
X120261Y-17381D01*
X120233Y-17357D01*
X120261Y-17333D01*
X120261Y-17381D01*
X120861Y-17643D02*
X120518Y-17643D01*
X120690Y-17643D02*
X120690Y-17143D01*
X120633Y-17214D01*
X120576Y-17262D01*
X120518Y-17286D01*
X121376Y-17143D02*
X121261Y-17143D01*
X121204Y-17167D01*
X121176Y-17191D01*
X121118Y-17262D01*
X121090Y-17357D01*
X121090Y-17548D01*
X121118Y-17595D01*
X121147Y-17619D01*
X121204Y-17643D01*
X121318Y-17643D01*
X121376Y-17619D01*
X121404Y-17595D01*
X121433Y-17548D01*
X121433Y-17429D01*
X121404Y-17381D01*
X121376Y-17357D01*
X121318Y-17333D01*
X121204Y-17333D01*
X121147Y-17357D01*
X121118Y-17381D01*
X121090Y-17429D01*
X111018Y-25119D02*
X111104Y-25143D01*
X111247Y-25143D01*
X111304Y-25119D01*
X111333Y-25095D01*
X111361Y-25048D01*
X111361Y-25000D01*
X111333Y-24952D01*
X111304Y-24929D01*
X111247Y-24905D01*
X111133Y-24881D01*
X111076Y-24857D01*
X111047Y-24833D01*
X111018Y-24786D01*
X111018Y-24738D01*
X111047Y-24691D01*
X111076Y-24667D01*
X111133Y-24643D01*
X111276Y-24643D01*
X111361Y-24667D01*
X111733Y-24643D02*
X111790Y-24643D01*
X111847Y-24667D01*
X111876Y-24691D01*
X111904Y-24738D01*
X111933Y-24833D01*
X111933Y-24952D01*
X111904Y-25048D01*
X111876Y-25095D01*
X111847Y-25119D01*
X111790Y-25143D01*
X111733Y-25143D01*
X111676Y-25119D01*
X111647Y-25095D01*
X111618Y-25048D01*
X111590Y-24952D01*
X111590Y-24833D01*
X111618Y-24738D01*
X111647Y-24691D01*
X111676Y-24667D01*
X111733Y-24643D01*
X112447Y-24810D02*
X112447Y-25143D01*
X112304Y-24619D02*
X112161Y-24976D01*
X112533Y-24976D01*
X112761Y-25095D02*
X112790Y-25119D01*
X112761Y-25143D01*
X112733Y-25119D01*
X112761Y-25095D01*
X112761Y-25143D01*
X112761Y-24833D02*
X112790Y-24857D01*
X112761Y-24881D01*
X112733Y-24857D01*
X112761Y-24833D01*
X112761Y-24881D01*
X113361Y-25143D02*
X113018Y-25143D01*
X113190Y-25143D02*
X113190Y-24643D01*
X113133Y-24714D01*
X113076Y-24762D01*
X113018Y-24786D01*
X113904Y-24643D02*
X113618Y-24643D01*
X113590Y-24881D01*
X113618Y-24857D01*
X113676Y-24833D01*
X113818Y-24833D01*
X113876Y-24857D01*
X113904Y-24881D01*
X113933Y-24929D01*
X113933Y-25048D01*
X113904Y-25095D01*
X113876Y-25119D01*
X113818Y-25143D01*
X113676Y-25143D01*
X113618Y-25119D01*
X113590Y-25095D01*
X103518Y-25119D02*
X103604Y-25143D01*
X103747Y-25143D01*
X103804Y-25119D01*
X103833Y-25095D01*
X103861Y-25048D01*
X103861Y-25000D01*
X103833Y-24952D01*
X103804Y-24929D01*
X103747Y-24905D01*
X103633Y-24881D01*
X103576Y-24857D01*
X103547Y-24833D01*
X103518Y-24786D01*
X103518Y-24738D01*
X103547Y-24691D01*
X103576Y-24667D01*
X103633Y-24643D01*
X103776Y-24643D01*
X103861Y-24667D01*
X104233Y-24643D02*
X104290Y-24643D01*
X104347Y-24667D01*
X104376Y-24691D01*
X104404Y-24738D01*
X104433Y-24833D01*
X104433Y-24952D01*
X104404Y-25048D01*
X104376Y-25095D01*
X104347Y-25119D01*
X104290Y-25143D01*
X104233Y-25143D01*
X104176Y-25119D01*
X104147Y-25095D01*
X104118Y-25048D01*
X104090Y-24952D01*
X104090Y-24833D01*
X104118Y-24738D01*
X104147Y-24691D01*
X104176Y-24667D01*
X104233Y-24643D01*
X104947Y-24810D02*
X104947Y-25143D01*
X104804Y-24619D02*
X104661Y-24976D01*
X105033Y-24976D01*
X105261Y-25095D02*
X105290Y-25119D01*
X105261Y-25143D01*
X105233Y-25119D01*
X105261Y-25095D01*
X105261Y-25143D01*
X105261Y-24833D02*
X105290Y-24857D01*
X105261Y-24881D01*
X105233Y-24857D01*
X105261Y-24833D01*
X105261Y-24881D01*
X105861Y-25143D02*
X105518Y-25143D01*
X105690Y-25143D02*
X105690Y-24643D01*
X105633Y-24714D01*
X105576Y-24762D01*
X105518Y-24786D01*
X106376Y-24810D02*
X106376Y-25143D01*
X106233Y-24619D02*
X106090Y-24976D01*
X106461Y-24976D01*
X126018Y-17619D02*
X126104Y-17643D01*
X126247Y-17643D01*
X126304Y-17619D01*
X126333Y-17595D01*
X126361Y-17548D01*
X126361Y-17500D01*
X126333Y-17452D01*
X126304Y-17429D01*
X126247Y-17405D01*
X126133Y-17381D01*
X126076Y-17357D01*
X126047Y-17333D01*
X126018Y-17286D01*
X126018Y-17238D01*
X126047Y-17191D01*
X126076Y-17167D01*
X126133Y-17143D01*
X126276Y-17143D01*
X126361Y-17167D01*
X126733Y-17143D02*
X126790Y-17143D01*
X126847Y-17167D01*
X126876Y-17191D01*
X126904Y-17238D01*
X126933Y-17333D01*
X126933Y-17452D01*
X126904Y-17548D01*
X126876Y-17595D01*
X126847Y-17619D01*
X126790Y-17643D01*
X126733Y-17643D01*
X126676Y-17619D01*
X126647Y-17595D01*
X126618Y-17548D01*
X126590Y-17452D01*
X126590Y-17333D01*
X126618Y-17238D01*
X126647Y-17191D01*
X126676Y-17167D01*
X126733Y-17143D01*
X127133Y-17143D02*
X127504Y-17143D01*
X127304Y-17333D01*
X127390Y-17333D01*
X127447Y-17357D01*
X127476Y-17381D01*
X127504Y-17429D01*
X127504Y-17548D01*
X127476Y-17595D01*
X127447Y-17619D01*
X127390Y-17643D01*
X127218Y-17643D01*
X127161Y-17619D01*
X127133Y-17595D01*
X127761Y-17595D02*
X127790Y-17619D01*
X127761Y-17643D01*
X127733Y-17619D01*
X127761Y-17595D01*
X127761Y-17643D01*
X127761Y-17333D02*
X127790Y-17357D01*
X127761Y-17381D01*
X127733Y-17357D01*
X127761Y-17333D01*
X127761Y-17381D01*
X128361Y-17643D02*
X128018Y-17643D01*
X128190Y-17643D02*
X128190Y-17143D01*
X128133Y-17214D01*
X128076Y-17262D01*
X128018Y-17286D01*
X128561Y-17143D02*
X128961Y-17143D01*
X128704Y-17643D01*
X103468Y-2619D02*
X103554Y-2643D01*
X103697Y-2643D01*
X103754Y-2619D01*
X103783Y-2595D01*
X103811Y-2548D01*
X103811Y-2500D01*
X103783Y-2452D01*
X103754Y-2429D01*
X103697Y-2405D01*
X103583Y-2381D01*
X103526Y-2357D01*
X103497Y-2333D01*
X103468Y-2286D01*
X103468Y-2238D01*
X103497Y-2191D01*
X103526Y-2167D01*
X103583Y-2143D01*
X103726Y-2143D01*
X103811Y-2167D01*
X104183Y-2143D02*
X104240Y-2143D01*
X104297Y-2167D01*
X104326Y-2191D01*
X104354Y-2238D01*
X104383Y-2333D01*
X104383Y-2452D01*
X104354Y-2548D01*
X104326Y-2595D01*
X104297Y-2619D01*
X104240Y-2643D01*
X104183Y-2643D01*
X104126Y-2619D01*
X104097Y-2595D01*
X104068Y-2548D01*
X104040Y-2452D01*
X104040Y-2333D01*
X104068Y-2238D01*
X104097Y-2191D01*
X104126Y-2167D01*
X104183Y-2143D01*
X104954Y-2643D02*
X104611Y-2643D01*
X104783Y-2643D02*
X104783Y-2143D01*
X104726Y-2214D01*
X104668Y-2262D01*
X104611Y-2286D01*
X105211Y-2595D02*
X105240Y-2619D01*
X105211Y-2643D01*
X105183Y-2619D01*
X105211Y-2595D01*
X105211Y-2643D01*
X105211Y-2333D02*
X105240Y-2357D01*
X105211Y-2381D01*
X105183Y-2357D01*
X105211Y-2333D01*
X105211Y-2381D01*
X105811Y-2643D02*
X105468Y-2643D01*
X105640Y-2643D02*
X105640Y-2143D01*
X105583Y-2214D01*
X105526Y-2262D01*
X105468Y-2286D01*
X106326Y-2310D02*
X106326Y-2643D01*
X106183Y-2119D02*
X106040Y-2476D01*
X106411Y-2476D01*
X111018Y-17619D02*
X111104Y-17643D01*
X111247Y-17643D01*
X111304Y-17619D01*
X111333Y-17595D01*
X111361Y-17548D01*
X111361Y-17500D01*
X111333Y-17452D01*
X111304Y-17429D01*
X111247Y-17405D01*
X111133Y-17381D01*
X111076Y-17357D01*
X111047Y-17333D01*
X111018Y-17286D01*
X111018Y-17238D01*
X111047Y-17191D01*
X111076Y-17167D01*
X111133Y-17143D01*
X111276Y-17143D01*
X111361Y-17167D01*
X111733Y-17143D02*
X111790Y-17143D01*
X111847Y-17167D01*
X111876Y-17191D01*
X111904Y-17238D01*
X111933Y-17333D01*
X111933Y-17452D01*
X111904Y-17548D01*
X111876Y-17595D01*
X111847Y-17619D01*
X111790Y-17643D01*
X111733Y-17643D01*
X111676Y-17619D01*
X111647Y-17595D01*
X111618Y-17548D01*
X111590Y-17452D01*
X111590Y-17333D01*
X111618Y-17238D01*
X111647Y-17191D01*
X111676Y-17167D01*
X111733Y-17143D01*
X112133Y-17143D02*
X112504Y-17143D01*
X112304Y-17333D01*
X112390Y-17333D01*
X112447Y-17357D01*
X112476Y-17381D01*
X112504Y-17429D01*
X112504Y-17548D01*
X112476Y-17595D01*
X112447Y-17619D01*
X112390Y-17643D01*
X112218Y-17643D01*
X112161Y-17619D01*
X112133Y-17595D01*
X112761Y-17595D02*
X112790Y-17619D01*
X112761Y-17643D01*
X112733Y-17619D01*
X112761Y-17595D01*
X112761Y-17643D01*
X112761Y-17333D02*
X112790Y-17357D01*
X112761Y-17381D01*
X112733Y-17357D01*
X112761Y-17333D01*
X112761Y-17381D01*
X113361Y-17643D02*
X113018Y-17643D01*
X113190Y-17643D02*
X113190Y-17143D01*
X113133Y-17214D01*
X113076Y-17262D01*
X113018Y-17286D01*
X113904Y-17143D02*
X113618Y-17143D01*
X113590Y-17381D01*
X113618Y-17357D01*
X113676Y-17333D01*
X113818Y-17333D01*
X113876Y-17357D01*
X113904Y-17381D01*
X113933Y-17429D01*
X113933Y-17548D01*
X113904Y-17595D01*
X113876Y-17619D01*
X113818Y-17643D01*
X113676Y-17643D01*
X113618Y-17619D01*
X113590Y-17595D01*
X103518Y-17619D02*
X103604Y-17643D01*
X103747Y-17643D01*
X103804Y-17619D01*
X103833Y-17595D01*
X103861Y-17548D01*
X103861Y-17500D01*
X103833Y-17452D01*
X103804Y-17429D01*
X103747Y-17405D01*
X103633Y-17381D01*
X103576Y-17357D01*
X103547Y-17333D01*
X103518Y-17286D01*
X103518Y-17238D01*
X103547Y-17191D01*
X103576Y-17167D01*
X103633Y-17143D01*
X103776Y-17143D01*
X103861Y-17167D01*
X104233Y-17143D02*
X104290Y-17143D01*
X104347Y-17167D01*
X104376Y-17191D01*
X104404Y-17238D01*
X104433Y-17333D01*
X104433Y-17452D01*
X104404Y-17548D01*
X104376Y-17595D01*
X104347Y-17619D01*
X104290Y-17643D01*
X104233Y-17643D01*
X104176Y-17619D01*
X104147Y-17595D01*
X104118Y-17548D01*
X104090Y-17452D01*
X104090Y-17333D01*
X104118Y-17238D01*
X104147Y-17191D01*
X104176Y-17167D01*
X104233Y-17143D01*
X104633Y-17143D02*
X105004Y-17143D01*
X104804Y-17333D01*
X104890Y-17333D01*
X104947Y-17357D01*
X104976Y-17381D01*
X105004Y-17429D01*
X105004Y-17548D01*
X104976Y-17595D01*
X104947Y-17619D01*
X104890Y-17643D01*
X104718Y-17643D01*
X104661Y-17619D01*
X104633Y-17595D01*
X105261Y-17595D02*
X105290Y-17619D01*
X105261Y-17643D01*
X105233Y-17619D01*
X105261Y-17595D01*
X105261Y-17643D01*
X105261Y-17333D02*
X105290Y-17357D01*
X105261Y-17381D01*
X105233Y-17357D01*
X105261Y-17333D01*
X105261Y-17381D01*
X105861Y-17643D02*
X105518Y-17643D01*
X105690Y-17643D02*
X105690Y-17143D01*
X105633Y-17214D01*
X105576Y-17262D01*
X105518Y-17286D01*
X106376Y-17310D02*
X106376Y-17643D01*
X106233Y-17119D02*
X106090Y-17476D01*
X106461Y-17476D01*
X126018Y-10119D02*
X126104Y-10143D01*
X126247Y-10143D01*
X126304Y-10119D01*
X126333Y-10095D01*
X126361Y-10048D01*
X126361Y-10000D01*
X126333Y-9952D01*
X126304Y-9929D01*
X126247Y-9905D01*
X126133Y-9881D01*
X126076Y-9857D01*
X126047Y-9833D01*
X126018Y-9786D01*
X126018Y-9738D01*
X126047Y-9691D01*
X126076Y-9667D01*
X126133Y-9643D01*
X126276Y-9643D01*
X126361Y-9667D01*
X126733Y-9643D02*
X126790Y-9643D01*
X126847Y-9667D01*
X126876Y-9691D01*
X126904Y-9738D01*
X126933Y-9833D01*
X126933Y-9952D01*
X126904Y-10048D01*
X126876Y-10095D01*
X126847Y-10119D01*
X126790Y-10143D01*
X126733Y-10143D01*
X126676Y-10119D01*
X126647Y-10095D01*
X126618Y-10048D01*
X126590Y-9952D01*
X126590Y-9833D01*
X126618Y-9738D01*
X126647Y-9691D01*
X126676Y-9667D01*
X126733Y-9643D01*
X127161Y-9691D02*
X127190Y-9667D01*
X127247Y-9643D01*
X127390Y-9643D01*
X127447Y-9667D01*
X127476Y-9691D01*
X127504Y-9738D01*
X127504Y-9786D01*
X127476Y-9857D01*
X127133Y-10143D01*
X127504Y-10143D01*
X127761Y-10095D02*
X127790Y-10119D01*
X127761Y-10143D01*
X127733Y-10119D01*
X127761Y-10095D01*
X127761Y-10143D01*
X127761Y-9833D02*
X127790Y-9857D01*
X127761Y-9881D01*
X127733Y-9857D01*
X127761Y-9833D01*
X127761Y-9881D01*
X128361Y-10143D02*
X128018Y-10143D01*
X128190Y-10143D02*
X128190Y-9643D01*
X128133Y-9714D01*
X128076Y-9762D01*
X128018Y-9786D01*
X128561Y-9643D02*
X128961Y-9643D01*
X128704Y-10143D01*
X118518Y-10119D02*
X118604Y-10143D01*
X118747Y-10143D01*
X118804Y-10119D01*
X118833Y-10095D01*
X118861Y-10048D01*
X118861Y-10000D01*
X118833Y-9952D01*
X118804Y-9929D01*
X118747Y-9905D01*
X118633Y-9881D01*
X118576Y-9857D01*
X118547Y-9833D01*
X118518Y-9786D01*
X118518Y-9738D01*
X118547Y-9691D01*
X118576Y-9667D01*
X118633Y-9643D01*
X118776Y-9643D01*
X118861Y-9667D01*
X119233Y-9643D02*
X119290Y-9643D01*
X119347Y-9667D01*
X119376Y-9691D01*
X119404Y-9738D01*
X119433Y-9833D01*
X119433Y-9952D01*
X119404Y-10048D01*
X119376Y-10095D01*
X119347Y-10119D01*
X119290Y-10143D01*
X119233Y-10143D01*
X119176Y-10119D01*
X119147Y-10095D01*
X119118Y-10048D01*
X119090Y-9952D01*
X119090Y-9833D01*
X119118Y-9738D01*
X119147Y-9691D01*
X119176Y-9667D01*
X119233Y-9643D01*
X119661Y-9691D02*
X119690Y-9667D01*
X119747Y-9643D01*
X119890Y-9643D01*
X119947Y-9667D01*
X119976Y-9691D01*
X120004Y-9738D01*
X120004Y-9786D01*
X119976Y-9857D01*
X119633Y-10143D01*
X120004Y-10143D01*
X120261Y-10095D02*
X120290Y-10119D01*
X120261Y-10143D01*
X120233Y-10119D01*
X120261Y-10095D01*
X120261Y-10143D01*
X120261Y-9833D02*
X120290Y-9857D01*
X120261Y-9881D01*
X120233Y-9857D01*
X120261Y-9833D01*
X120261Y-9881D01*
X120861Y-10143D02*
X120518Y-10143D01*
X120690Y-10143D02*
X120690Y-9643D01*
X120633Y-9714D01*
X120576Y-9762D01*
X120518Y-9786D01*
X121376Y-9643D02*
X121261Y-9643D01*
X121204Y-9667D01*
X121176Y-9691D01*
X121118Y-9762D01*
X121090Y-9857D01*
X121090Y-10048D01*
X121118Y-10095D01*
X121147Y-10119D01*
X121204Y-10143D01*
X121318Y-10143D01*
X121376Y-10119D01*
X121404Y-10095D01*
X121433Y-10048D01*
X121433Y-9929D01*
X121404Y-9881D01*
X121376Y-9857D01*
X121318Y-9833D01*
X121204Y-9833D01*
X121147Y-9857D01*
X121118Y-9881D01*
X121090Y-9929D01*
X111018Y-10119D02*
X111104Y-10143D01*
X111247Y-10143D01*
X111304Y-10119D01*
X111333Y-10095D01*
X111361Y-10048D01*
X111361Y-10000D01*
X111333Y-9952D01*
X111304Y-9929D01*
X111247Y-9905D01*
X111133Y-9881D01*
X111076Y-9857D01*
X111047Y-9833D01*
X111018Y-9786D01*
X111018Y-9738D01*
X111047Y-9691D01*
X111076Y-9667D01*
X111133Y-9643D01*
X111276Y-9643D01*
X111361Y-9667D01*
X111733Y-9643D02*
X111790Y-9643D01*
X111847Y-9667D01*
X111876Y-9691D01*
X111904Y-9738D01*
X111933Y-9833D01*
X111933Y-9952D01*
X111904Y-10048D01*
X111876Y-10095D01*
X111847Y-10119D01*
X111790Y-10143D01*
X111733Y-10143D01*
X111676Y-10119D01*
X111647Y-10095D01*
X111618Y-10048D01*
X111590Y-9952D01*
X111590Y-9833D01*
X111618Y-9738D01*
X111647Y-9691D01*
X111676Y-9667D01*
X111733Y-9643D01*
X112161Y-9691D02*
X112190Y-9667D01*
X112247Y-9643D01*
X112390Y-9643D01*
X112447Y-9667D01*
X112476Y-9691D01*
X112504Y-9738D01*
X112504Y-9786D01*
X112476Y-9857D01*
X112133Y-10143D01*
X112504Y-10143D01*
X112761Y-10095D02*
X112790Y-10119D01*
X112761Y-10143D01*
X112733Y-10119D01*
X112761Y-10095D01*
X112761Y-10143D01*
X112761Y-9833D02*
X112790Y-9857D01*
X112761Y-9881D01*
X112733Y-9857D01*
X112761Y-9833D01*
X112761Y-9881D01*
X113361Y-10143D02*
X113018Y-10143D01*
X113190Y-10143D02*
X113190Y-9643D01*
X113133Y-9714D01*
X113076Y-9762D01*
X113018Y-9786D01*
X113904Y-9643D02*
X113618Y-9643D01*
X113590Y-9881D01*
X113618Y-9857D01*
X113676Y-9833D01*
X113818Y-9833D01*
X113876Y-9857D01*
X113904Y-9881D01*
X113933Y-9929D01*
X113933Y-10048D01*
X113904Y-10095D01*
X113876Y-10119D01*
X113818Y-10143D01*
X113676Y-10143D01*
X113618Y-10119D01*
X113590Y-10095D01*
X103518Y-10119D02*
X103604Y-10143D01*
X103747Y-10143D01*
X103804Y-10119D01*
X103833Y-10095D01*
X103861Y-10048D01*
X103861Y-10000D01*
X103833Y-9952D01*
X103804Y-9929D01*
X103747Y-9905D01*
X103633Y-9881D01*
X103576Y-9857D01*
X103547Y-9833D01*
X103518Y-9786D01*
X103518Y-9738D01*
X103547Y-9691D01*
X103576Y-9667D01*
X103633Y-9643D01*
X103776Y-9643D01*
X103861Y-9667D01*
X104233Y-9643D02*
X104290Y-9643D01*
X104347Y-9667D01*
X104376Y-9691D01*
X104404Y-9738D01*
X104433Y-9833D01*
X104433Y-9952D01*
X104404Y-10048D01*
X104376Y-10095D01*
X104347Y-10119D01*
X104290Y-10143D01*
X104233Y-10143D01*
X104176Y-10119D01*
X104147Y-10095D01*
X104118Y-10048D01*
X104090Y-9952D01*
X104090Y-9833D01*
X104118Y-9738D01*
X104147Y-9691D01*
X104176Y-9667D01*
X104233Y-9643D01*
X104661Y-9691D02*
X104690Y-9667D01*
X104747Y-9643D01*
X104890Y-9643D01*
X104947Y-9667D01*
X104976Y-9691D01*
X105004Y-9738D01*
X105004Y-9786D01*
X104976Y-9857D01*
X104633Y-10143D01*
X105004Y-10143D01*
X105261Y-10095D02*
X105290Y-10119D01*
X105261Y-10143D01*
X105233Y-10119D01*
X105261Y-10095D01*
X105261Y-10143D01*
X105261Y-9833D02*
X105290Y-9857D01*
X105261Y-9881D01*
X105233Y-9857D01*
X105261Y-9833D01*
X105261Y-9881D01*
X105861Y-10143D02*
X105518Y-10143D01*
X105690Y-10143D02*
X105690Y-9643D01*
X105633Y-9714D01*
X105576Y-9762D01*
X105518Y-9786D01*
X106376Y-9810D02*
X106376Y-10143D01*
X106233Y-9619D02*
X106090Y-9976D01*
X106461Y-9976D01*
X126018Y-2619D02*
X126104Y-2643D01*
X126247Y-2643D01*
X126304Y-2619D01*
X126333Y-2595D01*
X126361Y-2548D01*
X126361Y-2500D01*
X126333Y-2452D01*
X126304Y-2429D01*
X126247Y-2405D01*
X126133Y-2381D01*
X126076Y-2357D01*
X126047Y-2333D01*
X126018Y-2286D01*
X126018Y-2238D01*
X126047Y-2191D01*
X126076Y-2167D01*
X126133Y-2143D01*
X126276Y-2143D01*
X126361Y-2167D01*
X126733Y-2143D02*
X126790Y-2143D01*
X126847Y-2167D01*
X126876Y-2191D01*
X126904Y-2238D01*
X126933Y-2333D01*
X126933Y-2452D01*
X126904Y-2548D01*
X126876Y-2595D01*
X126847Y-2619D01*
X126790Y-2643D01*
X126733Y-2643D01*
X126676Y-2619D01*
X126647Y-2595D01*
X126618Y-2548D01*
X126590Y-2452D01*
X126590Y-2333D01*
X126618Y-2238D01*
X126647Y-2191D01*
X126676Y-2167D01*
X126733Y-2143D01*
X127504Y-2643D02*
X127161Y-2643D01*
X127333Y-2643D02*
X127333Y-2143D01*
X127276Y-2214D01*
X127218Y-2262D01*
X127161Y-2286D01*
X127761Y-2595D02*
X127790Y-2619D01*
X127761Y-2643D01*
X127733Y-2619D01*
X127761Y-2595D01*
X127761Y-2643D01*
X127761Y-2333D02*
X127790Y-2357D01*
X127761Y-2381D01*
X127733Y-2357D01*
X127761Y-2333D01*
X127761Y-2381D01*
X128361Y-2643D02*
X128018Y-2643D01*
X128190Y-2643D02*
X128190Y-2143D01*
X128133Y-2214D01*
X128076Y-2262D01*
X128018Y-2286D01*
X128561Y-2143D02*
X128961Y-2143D01*
X128704Y-2643D01*
X118518Y-2619D02*
X118604Y-2643D01*
X118747Y-2643D01*
X118804Y-2619D01*
X118833Y-2595D01*
X118861Y-2548D01*
X118861Y-2500D01*
X118833Y-2452D01*
X118804Y-2429D01*
X118747Y-2405D01*
X118633Y-2381D01*
X118576Y-2357D01*
X118547Y-2333D01*
X118518Y-2286D01*
X118518Y-2238D01*
X118547Y-2191D01*
X118576Y-2167D01*
X118633Y-2143D01*
X118776Y-2143D01*
X118861Y-2167D01*
X119233Y-2143D02*
X119290Y-2143D01*
X119347Y-2167D01*
X119376Y-2191D01*
X119404Y-2238D01*
X119433Y-2333D01*
X119433Y-2452D01*
X119404Y-2548D01*
X119376Y-2595D01*
X119347Y-2619D01*
X119290Y-2643D01*
X119233Y-2643D01*
X119176Y-2619D01*
X119147Y-2595D01*
X119118Y-2548D01*
X119090Y-2452D01*
X119090Y-2333D01*
X119118Y-2238D01*
X119147Y-2191D01*
X119176Y-2167D01*
X119233Y-2143D01*
X120004Y-2643D02*
X119661Y-2643D01*
X119833Y-2643D02*
X119833Y-2143D01*
X119776Y-2214D01*
X119718Y-2262D01*
X119661Y-2286D01*
X120261Y-2595D02*
X120290Y-2619D01*
X120261Y-2643D01*
X120233Y-2619D01*
X120261Y-2595D01*
X120261Y-2643D01*
X120261Y-2333D02*
X120290Y-2357D01*
X120261Y-2381D01*
X120233Y-2357D01*
X120261Y-2333D01*
X120261Y-2381D01*
X120861Y-2643D02*
X120518Y-2643D01*
X120690Y-2643D02*
X120690Y-2143D01*
X120633Y-2214D01*
X120576Y-2262D01*
X120518Y-2286D01*
X121376Y-2143D02*
X121261Y-2143D01*
X121204Y-2167D01*
X121176Y-2191D01*
X121118Y-2262D01*
X121090Y-2357D01*
X121090Y-2548D01*
X121118Y-2595D01*
X121147Y-2619D01*
X121204Y-2643D01*
X121318Y-2643D01*
X121376Y-2619D01*
X121404Y-2595D01*
X121433Y-2548D01*
X121433Y-2429D01*
X121404Y-2381D01*
X121376Y-2357D01*
X121318Y-2333D01*
X121204Y-2333D01*
X121147Y-2357D01*
X121118Y-2381D01*
X121090Y-2429D01*
X111018Y-2619D02*
X111104Y-2643D01*
X111247Y-2643D01*
X111304Y-2619D01*
X111333Y-2595D01*
X111361Y-2548D01*
X111361Y-2500D01*
X111333Y-2452D01*
X111304Y-2429D01*
X111247Y-2405D01*
X111133Y-2381D01*
X111076Y-2357D01*
X111047Y-2333D01*
X111018Y-2286D01*
X111018Y-2238D01*
X111047Y-2191D01*
X111076Y-2167D01*
X111133Y-2143D01*
X111276Y-2143D01*
X111361Y-2167D01*
X111733Y-2143D02*
X111790Y-2143D01*
X111847Y-2167D01*
X111876Y-2191D01*
X111904Y-2238D01*
X111933Y-2333D01*
X111933Y-2452D01*
X111904Y-2548D01*
X111876Y-2595D01*
X111847Y-2619D01*
X111790Y-2643D01*
X111733Y-2643D01*
X111676Y-2619D01*
X111647Y-2595D01*
X111618Y-2548D01*
X111590Y-2452D01*
X111590Y-2333D01*
X111618Y-2238D01*
X111647Y-2191D01*
X111676Y-2167D01*
X111733Y-2143D01*
X112504Y-2643D02*
X112161Y-2643D01*
X112333Y-2643D02*
X112333Y-2143D01*
X112276Y-2214D01*
X112218Y-2262D01*
X112161Y-2286D01*
X112761Y-2595D02*
X112790Y-2619D01*
X112761Y-2643D01*
X112733Y-2619D01*
X112761Y-2595D01*
X112761Y-2643D01*
X112761Y-2333D02*
X112790Y-2357D01*
X112761Y-2381D01*
X112733Y-2357D01*
X112761Y-2333D01*
X112761Y-2381D01*
X113361Y-2643D02*
X113018Y-2643D01*
X113190Y-2643D02*
X113190Y-2143D01*
X113133Y-2214D01*
X113076Y-2262D01*
X113018Y-2286D01*
X113904Y-2143D02*
X113618Y-2143D01*
X113590Y-2381D01*
X113618Y-2357D01*
X113676Y-2333D01*
X113818Y-2333D01*
X113876Y-2357D01*
X113904Y-2381D01*
X113933Y-2429D01*
X113933Y-2548D01*
X113904Y-2595D01*
X113876Y-2619D01*
X113818Y-2643D01*
X113676Y-2643D01*
X113618Y-2619D01*
X113590Y-2595D01*
G54D11*
X1695Y-17372D02*
X1748Y-17389D01*
X1835Y-17389D01*
X1870Y-17372D01*
X1888Y-17354D01*
X1905Y-17319D01*
X1905Y-17284D01*
X1888Y-17249D01*
X1870Y-17232D01*
X1835Y-17214D01*
X1765Y-17197D01*
X1730Y-17179D01*
X1713Y-17162D01*
X1695Y-17127D01*
X1695Y-17092D01*
X1713Y-17056D01*
X1730Y-17039D01*
X1765Y-17021D01*
X1853Y-17021D01*
X1905Y-17039D01*
X2256Y-17389D02*
X2046Y-17389D01*
X2151Y-17389D02*
X2151Y-17021D01*
X2116Y-17074D01*
X2081Y-17109D01*
X2046Y-17127D01*
M02*
